<svg width="32" height="32" viewBox="0 0 32 32" fill="none" xmlns="http://www.w3.org/2000/svg">
<g clip-path="url(#clip0_126_14270)">
<path d="M32 16C32 19.1645 31.0616 22.2579 29.3035 24.8891C27.5454 27.5203 25.0466 29.5711 22.1229 30.7821C19.1993 31.9931 15.9823 32.3099 12.8786 31.6926C9.77486 31.0752 6.92394 29.5513 4.6863 27.3137C2.44866 25.0761 0.924806 22.2251 0.307443 19.1214C-0.309921 16.0177 0.00693252 12.8007 1.21793 9.87706C2.42894 6.95345 4.4797 4.45459 7.11088 2.69649C9.74207 0.938383 12.8355 0 16 0C20.2435 0 24.3131 1.68571 27.3137 4.68629C30.3143 7.68687 32 11.7565 32 16Z" fill="#F4F4F4"/>
<path d="M16 1.088C19.441 1.08891 22.7758 2.27955 25.4393 4.45813C28.1028 6.63671 29.9311 9.66921 30.6143 13.0417C31.2975 16.4141 30.7937 19.9191 29.1881 22.9626C27.5826 26.006 24.9741 28.4007 21.8048 29.7408C18.1605 31.2803 14.0539 31.3091 10.3884 29.8208C6.72289 28.3325 3.79873 25.4491 2.2592 21.8048C0.719675 18.1605 0.690889 14.0539 2.17918 10.3884C3.66747 6.72289 6.55092 3.79873 10.1952 2.2592C12.0317 1.4824 14.006 1.08406 16 1.088ZM16 0.716797C12.9773 0.716797 10.0224 1.61314 7.50911 3.29248C4.9958 4.97182 3.03692 7.35873 1.88017 10.1514C0.723419 12.944 0.42076 16.017 1.01047 18.9816C1.60017 21.9463 3.05576 24.6695 5.19315 26.8069C7.33054 28.9442 10.0538 30.3998 13.0184 30.9895C15.9831 31.5792 19.056 31.2766 21.8486 30.1198C24.6413 28.9631 27.0282 27.0042 28.7075 24.4909C30.3869 21.9776 31.2832 19.0227 31.2832 16C31.2832 13.993 30.8879 12.0056 30.1198 10.1514C29.3518 8.29713 28.226 6.61232 26.8069 5.19314C25.3877 3.77397 23.7029 2.64821 21.8486 1.88016C19.9944 1.11211 18.007 0.716797 16 0.716797Z" fill="#006EC3"/>
<path d="M16 1.59984C19.3211 1.60221 22.5393 2.75244 25.1094 4.8557C27.6796 6.95896 29.4438 9.88596 30.1031 13.1409C30.7625 16.3959 30.2765 19.7787 28.7274 22.7164C27.1784 25.654 24.6616 27.966 21.6032 29.2606C18.1049 30.6443 14.204 30.6039 10.7351 29.1483C7.26609 27.6926 4.50454 24.9371 3.04115 21.4714C1.57776 18.0057 1.52876 14.1049 2.90461 10.6035C4.28047 7.10214 6.97194 4.27821 10.4032 2.73584C12.1736 1.98515 14.0771 1.59879 16 1.59984ZM16 1.45264C13.1244 1.45264 10.3133 2.30528 7.92226 3.90276C5.53118 5.50024 3.66745 7.77083 2.5667 10.4274C1.46595 13.084 1.17762 16.0074 1.73816 18.8279C2.29871 21.6483 3.68295 24.2393 5.71588 26.2731C7.7488 28.3069 10.3391 29.6923 13.1593 30.2541C15.9796 30.8158 18.903 30.5288 21.5601 29.4292C24.2172 28.3296 26.4886 26.4669 28.0872 24.0765C29.6857 21.6861 30.5396 18.8755 30.5408 15.9998C30.5413 14.0902 30.1654 12.1992 29.4348 10.4348C28.7042 8.67046 27.6332 7.06732 26.2829 5.717C24.9326 4.36668 23.3294 3.29563 21.5651 2.56503C19.8007 1.83444 17.9097 1.45862 16 1.45904V1.45264Z" fill="#006EC3"/>
<path d="M26.9919 15.9998C26.9919 18.1738 26.3473 20.299 25.1395 22.1066C23.9316 23.9143 22.2149 25.3231 20.2064 26.1551C18.1979 26.9871 15.9877 27.2047 13.8555 26.7806C11.7233 26.3565 9.76468 25.3096 8.22742 23.7723C6.69016 22.2351 5.64328 20.2765 5.21915 18.1442C4.79502 16.012 5.0127 13.8019 5.84466 11.7934C6.67661 9.78483 8.08549 8.06811 9.89311 6.8603C11.7007 5.65248 13.8259 5.00781 15.9999 5.00781C18.9152 5.00781 21.7111 6.1659 23.7725 8.22729C25.8339 10.2887 26.9919 13.0846 26.9919 15.9998Z" fill="#DADADA"/>
<path d="M26.8097 16.0545C26.8103 18.1826 26.1798 20.2631 24.9979 22.0328C23.816 23.8025 22.1358 25.1819 20.1698 25.9966C18.2038 26.8112 16.0404 27.0246 13.9532 26.6096C11.866 26.1945 9.9487 25.1698 8.44391 23.6651C6.93913 22.1603 5.91443 20.243 5.49942 18.1558C5.0844 16.0686 5.29772 13.9051 6.1124 11.9392C6.92707 9.97321 8.3065 8.29301 10.0762 7.1111C11.8459 5.9292 13.9264 5.29868 16.0545 5.29932C18.9069 5.29932 21.6425 6.43245 23.6595 8.44944C25.6765 10.4664 26.8097 13.2021 26.8097 16.0545Z" fill="#F4F4F4"/>
<g style="mix-blend-mode:multiply">
<path d="M27.6288 16.2401C27.2096 16.0961 26.7264 16.3713 26.4 16.6049C25.9691 16.925 25.5733 17.2897 25.2192 17.6929C24.8576 18.0801 24.4384 18.3937 24.0512 18.7521C23.8731 18.9443 23.684 19.1259 23.4848 19.2961C23.4197 19.2914 23.3579 19.2655 23.3088 19.2225C23.1456 19.0817 23.2768 18.6145 23.3088 18.4481C23.4121 18.1648 23.4419 17.8598 23.3952 17.5617C23.184 16.8641 22.2112 17.5617 21.8848 17.8081C21.5584 18.0545 21.2992 18.4737 20.9248 18.4993C20.5504 18.5249 20.416 18.0737 20.4064 17.7697C20.4064 17.2673 20.6528 16.8097 20.8256 16.3457C21.0964 15.5781 21.4596 14.8464 21.9072 14.1665C22.1144 13.9238 22.273 13.6435 22.3744 13.3409C22.4043 13.2353 22.4117 13.1246 22.3962 13.0159C22.3808 12.9072 22.3427 12.8029 22.2846 12.7098C22.2264 12.6167 22.1494 12.5367 22.0585 12.4752C21.9676 12.4136 21.8649 12.3717 21.7568 12.3521C21.3312 12.2689 20.8608 12.6369 20.5824 12.9025C20.2789 13.2128 20.0281 13.5706 19.84 13.9617C19.6421 14.3566 19.4648 14.7614 19.3088 15.1745C19.232 15.3633 19.152 15.5489 19.0656 15.7345C18.9809 15.9423 18.9125 16.1562 18.8608 16.3745C18.8353 16.469 18.7861 16.5554 18.7177 16.6254C18.6494 16.6954 18.5642 16.7468 18.4704 16.7745C18.1504 16.8513 18.1504 16.3297 18.1504 16.1633C18.2101 15.7002 18.3174 15.2445 18.4704 14.8033C18.5888 14.3937 18.7136 13.9873 18.864 13.5905C19.0144 13.1937 19.2 12.8001 19.3536 12.3905C19.4816 12.0705 19.936 10.7905 19.2928 10.6849C18.6496 10.5793 18.1472 11.4849 17.8112 11.9105C17.2991 12.6114 16.8585 13.3618 16.496 14.1505C16.4064 14.3297 16.3104 14.5025 16.2048 14.6753C16.16 14.7521 16.1088 14.8289 16.0576 14.9025L15.952 15.0497C15.8496 15.1809 15.7408 15.3153 15.632 15.4401C15.5712 15.5105 15.5072 15.5713 15.44 15.6353C15.5008 15.5777 15.44 15.6353 15.3792 15.6609L15.3248 15.6417C15.3151 15.6226 15.3021 15.6053 15.2864 15.5905C15.2359 15.5159 15.2001 15.4322 15.1808 15.3441C15.1054 14.9517 15.1363 14.5462 15.2704 14.1697C15.4109 13.8188 15.5097 13.4525 15.5648 13.0785C15.5648 12.8609 15.6864 12.5313 15.5648 12.3329C15.3952 12.0129 14.2592 13.9521 14.1632 14.1281C13.6128 15.1489 13.1008 16.1793 12.2688 17.0081C12.144 17.1329 11.8912 17.3921 11.6992 17.4049C11.3312 17.4305 11.2224 16.8801 11.2032 16.6241C11.1911 16.2327 11.2408 15.8417 11.3504 15.4657C11.6107 14.6378 11.9393 13.8329 12.3328 13.0593C12.6464 12.3521 13.12 11.7441 13.44 11.0689C13.6128 10.7233 13.8336 9.95214 13.3248 9.78894C13.178 9.7684 13.0286 9.77916 12.8863 9.82053C12.744 9.8619 12.6121 9.93293 12.4992 10.0289C12.193 10.2324 11.9208 10.4829 11.6928 10.7713C11.2172 11.389 10.8236 12.0655 10.5216 12.7841C10.0768 13.7258 9.71487 14.7044 9.44001 15.7089C9.34081 16.0737 9.36001 16.4609 9.25441 16.8257C9.20641 16.9793 8.96321 17.4657 8.75841 17.4113C8.49921 17.3281 8.69121 16.6625 8.72321 16.4865C8.79429 16.1261 8.9149 15.7772 9.08161 15.4497C9.17441 15.2673 9.87841 14.3393 9.66721 14.1377C9.45601 13.9361 8.70721 14.3681 8.57601 14.5153C8.07361 15.0145 7.64161 15.9393 7.22881 16.5089C6.98241 16.8481 6.56321 17.3409 6.10241 17.0561C5.64161 16.7713 5.61921 16.0001 5.76001 15.5489C6.00001 14.7841 6.75201 14.3329 7.38241 13.9137C7.82401 13.6225 8.95681 13.0497 8.98241 12.4193C9.00801 11.7889 8.02241 12.2497 7.76321 12.3905C6.97636 12.8705 6.3054 13.5185 5.79841 14.2881C5.32481 14.9633 4.90241 15.7921 4.96641 16.6401C5.01121 17.2449 5.39841 17.9809 6.11201 17.8561C6.92481 17.7121 7.42401 16.6689 7.80481 16.0417C8.04401 15.6307 8.30907 15.2352 8.59841 14.8577C8.72321 14.6977 9.01761 14.2689 9.23841 14.2497C9.70561 14.2049 8.97281 15.2577 8.87681 15.4241C8.51841 16.0257 7.77601 17.0241 7.97441 17.7761C8.14081 18.3969 8.82881 18.1505 9.17441 17.8369C9.69601 17.3633 9.86561 16.6401 10.0096 15.9777C10.3744 14.2913 10.6496 12.5537 11.776 11.1777C11.9488 10.9665 12.496 10.2017 12.832 10.3649C13.168 10.5281 12.6688 11.0817 12.544 11.2513C12.2309 11.7032 11.9507 12.1769 11.7056 12.6689C11.2129 13.5251 10.8557 14.4524 10.6464 15.4177C10.512 16.1281 10.3264 17.4273 11.1104 17.8497C11.84 18.2401 12.48 17.3729 12.8768 16.8961C13.3984 16.2561 13.6928 15.4625 14.0832 14.7425C13.8336 15.4465 13.792 16.2881 14.2656 16.8961C14.5632 17.2801 15.1488 17.1809 15.5456 17.0337C15.9805 16.8224 16.3564 16.507 16.64 16.1153C17.1936 15.4465 17.4336 14.5985 17.6704 13.7793C17.7792 13.3921 17.8816 13.0049 18.0096 12.6241C18.1498 12.2253 18.3435 11.8475 18.5856 11.5009C18.68 11.35 18.799 11.2159 18.9376 11.1041C19.2352 10.8801 19.3216 11.2385 19.3344 11.4497C19.3108 11.9025 19.192 12.3452 18.9856 12.7489C18.6596 13.5473 18.3859 14.3661 18.1664 15.2001C18.0789 15.5595 18.0137 15.9239 17.9712 16.2913C17.9447 16.4231 17.958 16.5597 18.0092 16.6839C18.0605 16.8081 18.1475 16.9143 18.2592 16.9889C18.7104 17.2673 19.248 16.7265 19.5392 16.4257C19.9574 15.967 20.3096 15.4521 20.5856 14.8961C20.6656 14.7425 20.6944 14.5761 20.7872 14.4161C20.88 14.2561 21.1072 14.1249 21.136 14.4321C21.1192 14.6416 21.0684 14.847 20.9856 15.0401C20.9224 15.367 20.8325 15.688 20.7168 16.0001C20.5625 16.4034 20.43 16.8146 20.32 17.2321C20.1696 17.7921 19.8208 18.7937 20.64 19.0529C21.0112 19.1745 21.408 18.9281 21.712 18.7329C21.904 18.6177 22.096 18.4993 22.2816 18.3713C22.3764 18.3046 22.4759 18.2447 22.5792 18.1921C22.5792 18.2433 22.5504 18.2913 22.5408 18.3329C22.5043 18.4961 22.4818 18.662 22.4736 18.8289C22.4291 19.1152 22.4785 19.4083 22.6144 19.6641C22.9536 20.1825 23.6352 19.9137 24.0544 19.6641C25.1392 19.0241 25.8176 17.8177 26.9344 17.1777C27.0976 17.0945 27.0528 17.5393 27.1264 17.5969C27.7056 18.0481 28.528 16.5473 27.6288 16.2401Z" fill="#EBEAEA"/>
</g>
<g style="mix-blend-mode:multiply">
<path d="M26.608 18.2688C26.4388 18.4015 26.3175 18.5858 26.2624 18.7936C26.2536 18.8435 26.2563 18.8948 26.2701 18.9436C26.284 18.9923 26.3087 19.0373 26.3424 19.0752L26.384 19.104C26.4018 19.1231 26.4238 19.138 26.4481 19.1474C26.4725 19.1568 26.4987 19.1606 26.5248 19.1584C26.7135 19.1509 26.8954 19.0861 27.0464 18.9728L27.1232 18.9024C27.0592 18.96 27.0752 18.9472 27.1648 18.8672C27.2242 18.8011 27.2718 18.7254 27.3056 18.6432C27.3356 18.5721 27.3431 18.4935 27.3271 18.4179C27.3111 18.3424 27.2723 18.2736 27.216 18.2208C27.1286 18.1475 27.0159 18.1115 26.9022 18.1205C26.7885 18.1295 26.6828 18.1827 26.608 18.2688Z" fill="#EBEAEA"/>
</g>
<g style="mix-blend-mode:multiply">
<path d="M26.0257 19.4783C26.0055 19.476 25.9851 19.476 25.9649 19.4783C25.9015 19.4778 25.8397 19.498 25.7889 19.5359C25.7512 19.5655 25.7187 19.6012 25.6929 19.6415C25.6695 19.6799 25.6532 19.7221 25.6449 19.7663C25.6417 19.7875 25.6417 19.8091 25.6449 19.8303C25.6449 19.8463 25.6449 19.8623 25.6449 19.8815C25.656 19.9055 25.6753 19.9247 25.6993 19.9359C25.7138 19.9469 25.73 19.9556 25.7473 19.9615C25.8004 19.978 25.8571 19.9787 25.9106 19.9633C25.964 19.948 26.0118 19.9173 26.0481 19.8751C26.0756 19.8431 26.0966 19.8061 26.1098 19.766C26.123 19.7259 26.1281 19.6836 26.1249 19.6415C26.1209 19.5979 26.1016 19.5571 26.0705 19.5263C26.0607 19.5062 26.0451 19.4895 26.0257 19.4783Z" fill="#EBEAEA"/>
</g>
<path opacity="0.6" d="M27.4784 16.176C27.0592 16.032 26.576 16.304 26.2464 16.5376C25.817 16.8593 25.4214 17.2239 25.0656 17.6256C24.7072 18.016 24.288 18.3264 23.8976 18.688C23.7203 18.8808 23.5311 19.0625 23.3312 19.232C23.2664 19.2259 23.205 19.2002 23.1552 19.1584C22.992 19.0144 23.1232 18.5504 23.1552 18.384C23.2556 18.0999 23.2842 17.7954 23.2384 17.4976C23.0272 16.7968 22.0576 17.4976 21.7312 17.744C21.4048 17.9904 21.1424 18.4064 20.752 18.432C20.3616 18.4576 20.2464 18.0064 20.2368 17.7056C20.2368 17.2 20.4832 16.7456 20.656 16.2816C20.9263 15.5133 21.2884 14.7805 21.7344 14.0992C21.942 13.8562 22.1017 13.576 22.2048 13.2736C22.2341 13.1679 22.2411 13.0573 22.2251 12.9487C22.2092 12.8402 22.1708 12.7363 22.1124 12.6435C22.0539 12.5507 21.9767 12.4711 21.8857 12.4099C21.7948 12.3487 21.692 12.3071 21.584 12.288C21.1584 12.2016 20.688 12.5696 20.4096 12.8384C20.1094 13.1487 19.8609 13.5053 19.6736 13.8944C19.4688 14.288 19.3088 14.6976 19.1424 15.1072C19.0656 15.296 18.9856 15.4848 18.8992 15.6704C18.816 15.8786 18.7475 16.0925 18.6944 16.3104C18.669 16.4045 18.6197 16.4905 18.5513 16.56C18.4829 16.6295 18.3977 16.6802 18.304 16.7072C17.984 16.7872 17.984 16.2656 17.984 16.096C18.0422 15.6336 18.1494 15.1788 18.304 14.7392C18.4256 14.3296 18.5472 13.9232 18.6976 13.5232C18.848 13.1232 19.056 12.7328 19.2096 12.3296C19.3344 12.0096 19.7888 10.7296 19.1488 10.6208C18.5088 10.512 17.9936 11.4208 17.6576 11.84C17.1473 12.5414 16.7078 13.2918 16.3456 14.08C16.2528 14.2592 16.1568 14.4352 16.0544 14.6048C16.0064 14.6848 15.9552 14.7584 15.904 14.8352C15.904 14.8352 15.7856 15.0016 15.8016 14.9824C15.696 15.1136 15.5904 15.2448 15.4816 15.3728C15.4208 15.44 15.3536 15.504 15.2864 15.568C15.3472 15.5104 15.2864 15.552 15.2256 15.5936L15.1744 15.5744C15.1636 15.555 15.1495 15.5377 15.1328 15.5232C15.082 15.4478 15.0471 15.3629 15.0304 15.2736C14.9531 14.8825 14.983 14.4778 15.1168 14.1024C15.2569 13.7513 15.3557 13.3851 15.4112 13.0112C15.4272 12.7936 15.536 12.464 15.4272 12.2624C15.2576 11.9424 14.1216 13.8848 14.0288 14.0576C13.4784 15.0784 12.9632 16.112 12.1344 16.9376C12.0064 17.0624 11.7536 17.3216 11.5648 17.3344C11.1968 17.36 11.088 16.8096 11.0656 16.5504C11.0505 16.1575 11.0958 15.7647 11.2 15.3856C11.4609 14.5578 11.7895 13.753 12.1824 12.9792C12.4832 12.288 12.9568 11.6768 13.2928 11.0016C13.4656 10.6592 13.6832 9.88475 13.1776 9.72155C13.0309 9.70162 12.8816 9.71268 12.7394 9.75402C12.5971 9.79536 12.4652 9.86606 12.352 9.96155C12.0461 10.1667 11.7732 10.417 11.5424 10.704C11.0678 11.3217 10.6752 11.9982 10.3744 12.7168C9.93092 13.6593 9.56802 14.6378 9.2896 15.6416C9.1936 16.0096 9.2128 16.3968 9.104 16.7584C9.056 16.912 8.8128 17.3984 8.6112 17.3472C8.3488 17.264 8.5408 16.5984 8.576 16.4224C8.6511 16.0574 8.78054 15.7057 8.96 15.3792C9.0528 15.1968 9.7536 14.2656 9.5424 14.064C9.3312 13.8624 8.464 14.5984 8.32 14.7424C7.8176 15.2448 7.504 15.8688 7.0912 16.4352C6.8416 16.7776 6.4256 17.2704 5.9616 16.9856C5.4976 16.7008 5.4656 15.9424 5.6128 15.4848C5.8528 14.72 6.6016 14.2656 7.232 13.8496C7.6736 13.5552 8.8064 12.9824 8.832 12.352C8.8576 11.7216 7.872 12.1824 7.6096 12.3264C6.82284 12.805 6.15184 13.452 5.6448 14.2208C5.1744 14.8992 4.7488 15.7248 4.8128 16.576C4.8576 17.1808 5.248 17.9168 5.9616 17.7888C6.7712 17.6448 7.2704 16.6016 7.6512 15.9776C7.89076 15.5657 8.15581 15.1692 8.4448 14.7904C8.5728 14.6336 8.8672 14.2016 9.0848 14.1824C9.5552 14.1408 8.8224 15.1904 8.7232 15.3568C8.3648 15.9616 7.6224 16.9568 7.824 17.7088C7.9872 18.3328 8.6752 18.0832 9.0208 17.7696C9.5456 17.296 9.712 16.5728 9.856 15.9136C10.224 14.224 10.496 12.4896 11.6256 11.1136C11.7952 10.9024 12.3424 10.1536 12.6816 10.304C13.0208 10.4544 12.5152 11.0208 12.3904 11.1904C12.0784 11.6429 11.7983 12.1166 11.552 12.608C11.0701 13.4673 10.7226 14.3954 10.5216 15.36C10.3872 16.0704 10.2016 17.3696 10.9856 17.792C11.6928 18.1728 12.3392 17.3184 12.7264 16.832C13.2448 16.192 13.5424 15.3984 13.9328 14.6784C13.68 15.3856 13.6384 16.224 14.112 16.832C14.4128 17.2192 14.9984 17.12 15.392 16.9728C15.825 16.7615 16.2005 16.4486 16.4864 16.0608C17.04 15.392 17.28 14.5408 17.5168 13.7248C17.6288 13.3376 17.7312 12.9504 17.8592 12.5664C17.9983 12.1677 18.191 11.7898 18.432 11.4432C18.5259 11.2899 18.6449 11.1536 18.784 11.04C19.0784 10.8128 19.1648 11.1744 19.1776 11.3856C19.1543 11.8374 19.0354 12.2791 18.8288 12.6816C18.5062 13.4809 18.2337 14.2995 18.0128 15.1328C17.9222 15.4925 17.8569 15.8582 17.8176 16.2272C17.7895 16.3586 17.8016 16.4954 17.8524 16.6199C17.9032 16.7443 17.9903 16.8506 18.1024 16.9248C18.5568 17.2 19.0912 16.6592 19.3824 16.3616C19.8009 15.9023 20.154 15.3876 20.432 14.832C20.5088 14.6784 20.5408 14.512 20.6336 14.352C20.7264 14.192 20.9536 14.0608 20.9792 14.352C20.9657 14.5548 20.9215 14.7544 20.848 14.944C20.7847 15.2711 20.6937 15.5922 20.576 15.904C20.413 16.3082 20.2741 16.7217 20.16 17.1424C20.0096 17.7024 19.6608 18.7008 20.4608 18.9632C20.832 19.0848 21.232 18.8352 21.536 18.6432C21.728 18.5312 21.92 18.4096 22.1024 18.2848C22.1968 18.2192 22.2963 18.1614 22.4 18.112C22.4 18.1632 22.3712 18.2144 22.3616 18.2528C22.3223 18.4165 22.2987 18.5837 22.2912 18.752C22.2476 19.0386 22.2982 19.3316 22.4352 19.5872C23.2 20.7584 24.9376 18.7328 25.4432 18.176C25.7067 17.8816 26.008 17.6233 26.3392 17.408C26.4192 17.3568 26.5856 17.1968 26.7488 17.088C26.9152 17.0048 26.8704 17.4464 26.944 17.5072C27.552 17.984 28.3776 16.4832 27.4784 16.176Z" fill="#A96A26"/>
<path opacity="0.4" d="M27.0656 18.1534C26.9775 18.0817 26.8652 18.0466 26.752 18.0556C26.6387 18.0645 26.5333 18.1167 26.4576 18.2014C26.2891 18.3347 26.1679 18.5187 26.112 18.7262C26.102 18.7761 26.104 18.8277 26.1179 18.8767C26.1318 18.9256 26.1572 18.9706 26.192 19.0078L26.2336 19.0398C26.2509 19.0594 26.2729 19.0743 26.2975 19.0833C26.3221 19.0922 26.3485 19.0949 26.3744 19.091C26.5576 19.0805 26.7335 19.0159 26.88 18.9054L26.9568 18.8382C26.896 18.8958 26.9088 18.883 27.0016 18.7998C27.0617 18.7361 27.1084 18.661 27.1392 18.579C27.1715 18.5089 27.1817 18.4307 27.1686 18.3547C27.1554 18.2787 27.1195 18.2085 27.0656 18.1534Z" fill="#A96A26"/>
<path opacity="0.4" d="M25.936 19.4526C25.9197 19.4329 25.8971 19.4193 25.872 19.4142C25.8529 19.4121 25.8336 19.4121 25.8144 19.4142C25.7506 19.4142 25.6886 19.4356 25.6384 19.475C25.5983 19.5029 25.5645 19.5389 25.5392 19.5806C25.5163 19.6189 25.5011 19.6613 25.4944 19.7054C25.4897 19.7254 25.4897 19.7462 25.4944 19.7662C25.493 19.7843 25.493 19.8025 25.4944 19.8206C25.5063 19.843 25.524 19.8618 25.5456 19.875C25.5601 19.8861 25.5763 19.8947 25.5936 19.9006C25.647 19.9164 25.7039 19.9163 25.7573 19.9004C25.8107 19.8845 25.8583 19.8535 25.8944 19.811C25.9505 19.7478 25.9792 19.665 25.9744 19.5806C25.9763 19.5349 25.9628 19.4898 25.936 19.4526Z" fill="#A96A26"/>
<g style="mix-blend-mode:screen">
<g style="mix-blend-mode:screen" opacity="0.4">
<path d="M8.55678 12.2078C8.00532 12.322 7.48681 12.5594 7.03998 12.9022C6.56661 13.2978 6.15842 13.7654 5.83038 14.2878C5.80158 14.3326 5.85278 14.355 5.88478 14.323C6.06718 14.1374 6.22078 13.923 6.40318 13.7342C6.60566 13.5214 6.8193 13.3195 7.04318 13.1294C7.50571 12.7725 8.00962 12.4727 8.54398 12.2366C8.54398 12.2366 8.57598 12.2014 8.55678 12.2078Z" fill="white"/>
</g>
<g style="mix-blend-mode:screen" opacity="0.4">
<path d="M5.89437 17.4781C5.76893 17.4707 5.64664 17.436 5.53607 17.3763C5.42551 17.3165 5.32936 17.2334 5.25437 17.1325C5.08762 16.9207 4.9954 16.6597 4.99197 16.3901C4.99197 16.3901 4.97277 16.3901 4.96957 16.3901C4.92477 16.9277 5.22557 17.6189 5.85917 17.5549C5.91037 17.5581 5.94557 17.4845 5.89437 17.4781Z" fill="white"/>
</g>
<g style="mix-blend-mode:screen" opacity="0.4">
<path d="M8.93757 17.5454C8.75197 17.6734 8.41597 17.827 8.20797 17.6638C8.20797 17.6638 8.18237 17.6638 8.18877 17.683C8.22069 17.7507 8.2753 17.805 8.34312 17.8366C8.41093 17.8681 8.48766 17.875 8.55997 17.8558C8.72213 17.8143 8.86813 17.7251 8.97917 17.5998C9.00797 17.5646 8.97917 17.5166 8.93757 17.5454Z" fill="white"/>
</g>
<g style="mix-blend-mode:screen" opacity="0.4">
<path d="M15.1584 15.7279C14.1984 15.6767 15.2768 13.2383 15.3024 12.7615C15.3024 12.7455 15.28 12.7615 15.28 12.7615C15.1612 13.1297 15.0191 13.4899 14.8544 13.8399C14.7351 14.1349 14.6471 14.4417 14.592 14.7551C14.5472 15.1039 14.576 15.9327 15.1456 15.7791C15.1648 15.7759 15.1936 15.7279 15.1584 15.7279Z" fill="white"/>
</g>
<g style="mix-blend-mode:screen" opacity="0.4">
<path d="M16.4736 15.6797C16.2825 15.9424 16.045 16.1679 15.7728 16.3453C15.728 16.3837 15.744 16.4541 15.8048 16.4157C16.1182 16.2621 16.3658 16.0008 16.5024 15.6797C16.5088 15.6797 16.4832 15.6797 16.4736 15.6797Z" fill="white"/>
</g>
<g style="mix-blend-mode:screen" opacity="0.4">
<path d="M21.7407 12.4799C21.3151 12.3071 20.9631 12.5439 20.6367 12.7999C20.6367 12.7999 20.6367 12.8447 20.6367 12.8319C20.8628 12.6854 21.1257 12.6055 21.3951 12.6015C21.7151 12.6175 21.8879 13.0431 21.8591 13.3023C21.8591 13.3407 21.9007 13.3311 21.9135 13.3023C22.0479 13.0719 22.0543 12.6015 21.7407 12.4799Z" fill="white"/>
</g>
<g style="mix-blend-mode:screen" opacity="0.4">
<path d="M21.6608 13.7151C21.632 13.7599 21.6 13.7983 21.5712 13.8431C21.5424 13.8879 21.5712 13.9135 21.5936 13.9135C21.6115 13.9136 21.6289 13.9072 21.6425 13.8954C21.6561 13.8836 21.6648 13.8673 21.6672 13.8495C21.6672 13.8047 21.6672 13.7599 21.6672 13.7151C21.6672 13.6703 21.6672 13.7055 21.6608 13.7151Z" fill="white"/>
</g>
<g style="mix-blend-mode:screen" opacity="0.4">
<path d="M23.6 19.3982C23.28 19.5198 22.9152 19.6574 22.6784 19.315C22.5024 19.059 22.5472 18.675 22.5312 18.355C22.4672 18.771 22.336 19.171 22.624 19.5294C22.912 19.8878 23.3696 19.6638 23.6416 19.4622C23.68 19.4494 23.68 19.3726 23.6 19.3982Z" fill="white"/>
</g>
<g style="mix-blend-mode:screen" opacity="0.4">
<path d="M26.9055 18.2684C26.8965 18.24 26.8786 18.2153 26.8543 18.198C26.8301 18.1807 26.8009 18.1717 26.7711 18.1724C26.6606 18.1864 26.5597 18.2426 26.4895 18.3292C26.4287 18.3932 26.3135 18.5372 26.3775 18.6332C26.3814 18.6706 26.3959 18.7061 26.4191 18.7356C26.4863 18.822 26.6207 18.7356 26.6847 18.7004C26.7238 18.6704 26.7592 18.6361 26.7903 18.598L26.8351 18.5372C26.8063 18.5884 26.8607 18.502 26.8607 18.502C26.8873 18.47 26.9054 18.4318 26.9132 18.391C26.921 18.3501 26.9184 18.308 26.9055 18.2684Z" fill="white"/>
</g>
<g style="mix-blend-mode:screen" opacity="0.4">
<path d="M25.7376 19.459C25.7242 19.4609 25.7114 19.466 25.7003 19.4738C25.6891 19.4816 25.68 19.4919 25.6736 19.5038C25.6736 19.5262 25.648 19.5678 25.6736 19.587C25.712 19.6222 25.7568 19.587 25.776 19.5422C25.7952 19.4974 25.792 19.4462 25.7376 19.459Z" fill="white"/>
</g>
<g style="mix-blend-mode:screen" opacity="0.4">
<path d="M27.4304 16.7296C27.3987 16.7055 27.3599 16.6924 27.32 16.6924C27.2801 16.6924 27.2413 16.7055 27.2096 16.7296C27.1648 16.7558 27.1262 16.7914 27.0963 16.834C27.0665 16.8765 27.0462 16.9249 27.0368 16.976C27.0303 17.0001 27.0295 17.0254 27.0345 17.0498C27.0395 17.0743 27.0501 17.0972 27.0656 17.1168L27.1232 17.152C27.1432 17.1632 27.1658 17.1691 27.1888 17.1691C27.2118 17.1691 27.2343 17.1632 27.2544 17.152C27.325 17.117 27.3831 17.0611 27.4208 16.992C27.4481 16.9541 27.4636 16.9089 27.4653 16.8622C27.467 16.8155 27.4549 16.7694 27.4304 16.7296Z" fill="white"/>
</g>
</g>
<path opacity="0.4" d="M7.27359 13.3154C7.19679 13.3154 7.12319 13.4658 7.21599 13.4658C7.30879 13.4658 7.35999 13.3154 7.27359 13.3154Z" fill="#7B4E19"/>
<path opacity="0.4" d="M7.90718 12.9087C7.84958 12.9087 7.79518 13.0175 7.86558 13.0175C7.93598 13.0175 7.97438 12.9087 7.90718 12.9087Z" fill="#7B4E19"/>
<path opacity="0.4" d="M5.85915 14.4546C5.83035 14.4546 5.79835 14.5186 5.83675 14.5186C5.87515 14.5186 5.90075 14.4546 5.85915 14.4546Z" fill="#7B4E19"/>
<path opacity="0.4" d="M5.43998 15.424C5.42078 15.408 5.39518 15.424 5.38558 15.4432V15.4592C5.36638 15.488 5.38558 15.5104 5.42398 15.4912C5.42398 15.4912 5.46558 15.4432 5.43998 15.424Z" fill="#7B4E19"/>
<path opacity="0.4" d="M6.61439 17.261C6.56639 17.2162 6.50239 17.2898 6.49279 17.3346C6.49209 17.3412 6.49299 17.348 6.49543 17.3542C6.49786 17.3604 6.50175 17.3659 6.50677 17.3703C6.51179 17.3747 6.51779 17.3778 6.52427 17.3794C6.53075 17.381 6.53751 17.381 6.54399 17.3794C6.59839 17.3794 6.66239 17.3058 6.61439 17.261Z" fill="#7B4E19"/>
<path opacity="0.4" d="M6.09923 17.4238C6.07683 17.4238 6.05443 17.4718 6.09923 17.4718C6.14403 17.4718 6.13123 17.4238 6.09923 17.4238Z" fill="#7B4E19"/>
<path opacity="0.4" d="M9.18085 17.2993C9.14565 17.2993 9.11045 17.3697 9.15525 17.3697C9.20005 17.3697 9.22565 17.2993 9.18085 17.2993Z" fill="#7B4E19"/>
<path opacity="0.4" d="M9.45599 16.2592C9.44447 16.263 9.43392 16.2692 9.42508 16.2775C9.41623 16.2858 9.40931 16.2959 9.40479 16.3072C9.40479 16.3456 9.42399 16.368 9.45919 16.3552C9.47486 16.349 9.48805 16.3378 9.49672 16.3233C9.5054 16.3088 9.50908 16.2919 9.50719 16.2752C9.50079 16.2464 9.47519 16.2464 9.45599 16.2592Z" fill="#7B4E19"/>
<path opacity="0.4" d="M13.2096 10.7457C13.2194 10.7494 13.2303 10.7495 13.2403 10.746C13.2502 10.7425 13.2586 10.7356 13.264 10.7265C13.3376 10.6369 13.136 10.6945 13.2096 10.7457Z" fill="#7B4E19"/>
<path opacity="0.4" d="M13.1488 10.064C13.1406 10.0617 13.1319 10.0621 13.1239 10.0649C13.1159 10.0678 13.1089 10.073 13.104 10.08C13.1008 10.0847 13.0991 10.0903 13.0991 10.096C13.0991 10.1017 13.1008 10.1072 13.104 10.112C13.12 10.1472 13.1648 10.112 13.1744 10.0896C13.184 10.0672 13.1648 10.0704 13.1488 10.064Z" fill="#7B4E19"/>
<path opacity="0.4" d="M11.6512 17.459C11.5936 17.459 11.536 17.5774 11.6096 17.5774C11.6832 17.5774 11.728 17.459 11.6512 17.459Z" fill="#7B4E19"/>
<path opacity="0.4" d="M11.0048 17.4497C10.9632 17.4497 10.9184 17.5329 10.976 17.5329C11.0336 17.5329 11.0592 17.4497 11.0048 17.4497Z" fill="#7B4E19"/>
<path opacity="0.4" d="M16.4576 15.2512C16.4352 15.232 16.4 15.2512 16.384 15.2672H16.368C16.368 15.2832 16.336 15.3216 16.368 15.344C16.4 15.3664 16.4256 15.344 16.4448 15.344V15.328C16.4507 15.3239 16.4558 15.3186 16.4597 15.3124C16.4636 15.3063 16.4662 15.2995 16.4674 15.2923C16.4686 15.2851 16.4683 15.2778 16.4666 15.2708C16.4649 15.2637 16.4619 15.2571 16.4576 15.2512Z" fill="#7B4E19"/>
<path opacity="0.4" d="M15.36 16.3682C15.3056 16.3682 15.2512 16.477 15.3216 16.477C15.392 16.477 15.4368 16.3682 15.36 16.3682Z" fill="#7B4E19"/>
<path opacity="0.4" d="M14.48 16.1694C14.4384 16.1694 14.4 16.2494 14.4512 16.2494C14.5024 16.2494 14.528 16.1694 14.48 16.1694Z" fill="#7B4E19"/>
<path opacity="0.4" d="M14.4928 15.7344C14.4544 15.7344 14.4192 15.8048 14.4672 15.8048C14.5152 15.8048 14.5376 15.7344 14.4928 15.7344Z" fill="#7B4E19"/>
<path opacity="0.4" d="M14.6305 16.7999C14.6254 16.7961 14.6192 16.7939 14.6129 16.7939C14.6065 16.7939 14.6003 16.7961 14.5953 16.7999C14.5761 16.8223 14.5761 16.8703 14.6145 16.8607C14.6529 16.8511 14.6689 16.8159 14.6305 16.7999Z" fill="#7B4E19"/>
<path opacity="0.4" d="M18.0352 11.6641C18.0032 11.6641 17.9744 11.7281 18.0128 11.7281C18.0512 11.7281 18.0768 11.6641 18.0352 11.6641Z" fill="#7B4E19"/>
<path opacity="0.4" d="M17.7216 12.2686C17.7056 12.227 17.632 12.2686 17.6416 12.3134C17.6429 12.3231 17.6474 12.3322 17.6543 12.3391C17.6613 12.346 17.6703 12.3505 17.68 12.3518C17.7216 12.355 17.76 12.2814 17.7216 12.2686Z" fill="#7B4E19"/>
<path opacity="0.4" d="M19.6256 15.5999C19.6248 15.5945 19.6221 15.5896 19.618 15.5861C19.6138 15.5826 19.6086 15.5806 19.6032 15.5807C19.5712 15.5583 19.536 15.5583 19.5456 15.6383C19.5456 15.6383 19.5456 15.6383 19.568 15.6383C19.648 15.6799 19.648 15.6319 19.6256 15.5999Z" fill="#7B4E19"/>
<path opacity="0.4" d="M19.1264 15.5713C19.072 15.5713 19.0176 15.6801 19.088 15.6801C19.1584 15.6801 19.2 15.5713 19.1264 15.5713Z" fill="#7B4E19"/>
<path opacity="0.4" d="M20.8449 13.5234C20.8033 13.5234 20.7649 13.6002 20.8161 13.6002C20.8673 13.6002 20.8929 13.5234 20.8449 13.5234Z" fill="#7B4E19"/>
<path opacity="0.4" d="M21.376 13.0977C21.3216 13.0977 21.2736 13.2001 21.3376 13.2001C21.4016 13.2001 21.44 13.0977 21.376 13.0977Z" fill="#7B4E19"/>
<path opacity="0.4" d="M21.216 14.4287C21.1712 14.4287 21.1296 14.5151 21.184 14.5151C21.2384 14.5151 21.2704 14.4287 21.216 14.4287Z" fill="#7B4E19"/>
<path opacity="0.4" d="M21.4176 18.4386C21.3696 18.4386 21.3248 18.5186 21.3696 18.5346C21.4144 18.5506 21.472 18.5346 21.4624 18.4802C21.4624 18.4745 21.4612 18.4688 21.4589 18.4635C21.4566 18.4582 21.4533 18.4535 21.4491 18.4496C21.4448 18.4457 21.4399 18.4427 21.4345 18.4408C21.429 18.4389 21.4233 18.4382 21.4176 18.4386Z" fill="#7B4E19"/>
<path opacity="0.4" d="M20.8224 18.5598C20.8032 18.5438 20.7744 18.5598 20.7584 18.5598C20.7584 18.5758 20.7296 18.6078 20.7584 18.6238C20.7872 18.6398 20.8064 18.6238 20.8256 18.6238C20.8324 18.6144 20.8358 18.6029 20.8353 18.5913C20.8347 18.5796 20.8301 18.5686 20.8224 18.5598Z" fill="#7B4E19"/>
<path opacity="0.4" d="M22.8416 18.5601C22.7936 18.5601 22.7456 18.6561 22.8064 18.6561C22.8672 18.6561 22.8992 18.5601 22.8416 18.5601Z" fill="#7B4E19"/>
<path opacity="0.4" d="M23.1616 19.3345C23.136 19.3345 23.1136 19.3793 23.1424 19.3793C23.1712 19.3793 23.1904 19.3345 23.1616 19.3345Z" fill="#7B4E19"/>
<path opacity="0.4" d="M25.088 18.061C25.0464 18.061 25.0016 18.1474 25.056 18.1474C25.1104 18.1474 25.1424 18.061 25.088 18.061Z" fill="#7B4E19"/>
<path opacity="0.4" d="M24.5024 18.5601C24.4672 18.5601 24.432 18.6305 24.4768 18.6305C24.5216 18.6305 24.5472 18.5601 24.5024 18.5601Z" fill="#7B4E19"/>
<path opacity="0.4" d="M26.1313 17.1265C26.0801 17.1265 26.0289 17.2289 26.0929 17.2289C26.1569 17.2289 26.1953 17.1265 26.1313 17.1265Z" fill="#7B4E19"/>
<path opacity="0.4" d="M26.7072 16.4706C26.7072 16.4994 26.7424 16.4706 26.7424 16.4706C26.7424 16.4354 26.7072 16.4482 26.7072 16.4706Z" fill="#7B4E19"/>
<path opacity="0.4" d="M26.5791 18.88C26.5791 18.9088 26.6335 18.88 26.6367 18.8608C26.6591 18.784 26.5599 18.8128 26.5791 18.88Z" fill="#7B4E19"/>
<path opacity="0.4" d="M27.0284 18.5342C27.0284 18.5342 27.0032 18.5594 27.0284 18.5594C27.0536 18.5594 27.0464 18.5342 27.0284 18.5342Z" fill="#7B4E19"/>
<path opacity="0.4" d="M25.7888 19.5615C25.7376 19.5615 25.6864 19.6639 25.7536 19.6639C25.8208 19.6639 25.8528 19.5615 25.7888 19.5615Z" fill="#7B4E19"/>
<path opacity="0.4" d="M9.86237 14.9185C9.86237 14.9185 9.83037 14.9185 9.82397 14.9185C9.82397 14.9409 9.82397 14.9729 9.84957 14.9665C9.87517 14.9601 9.88477 14.9409 9.86237 14.9185Z" fill="#7B4E19"/>
<path opacity="0.4" d="M10.0415 13.8208C9.99994 13.8208 9.95514 13.9072 10.0127 13.9072C10.0703 13.9072 10.0959 13.8208 10.0415 13.8208Z" fill="#7B4E19"/>
<path opacity="0.4" d="M7.74722 15.616C7.74722 15.584 7.69282 15.616 7.68322 15.6384C7.67362 15.6608 7.68322 15.6672 7.68322 15.6736C7.68322 15.68 7.71202 15.6736 7.72482 15.6736C7.73246 15.6766 7.74097 15.6764 7.74847 15.6731C7.75597 15.6698 7.76185 15.6637 7.76482 15.656C7.76779 15.6484 7.76761 15.6399 7.76431 15.6324C7.76101 15.6249 7.75486 15.619 7.74722 15.616Z" fill="#7B4E19"/>
<path opacity="0.4" d="M5.46563 16.896C5.42083 16.896 5.37923 16.9856 5.43683 16.9856C5.49443 16.9856 5.52003 16.896 5.46563 16.896Z" fill="#7B4E19"/>
<path opacity="0.4" d="M5.20642 16.4639C5.14562 16.4639 5.08802 16.5823 5.16482 16.5823C5.24162 16.5823 5.28002 16.4639 5.20642 16.4639Z" fill="#7B4E19"/>
<path d="M16.272 12.2913C15.952 12.0129 15.6896 11.0625 15.632 8.80974C15.6566 7.21462 16.0979 5.65366 16.912 4.28174C15.7417 5.96107 15.2167 8.00635 15.4336 10.0417C15.5194 10.8785 15.6584 11.709 15.8496 12.5281C15.9904 12.9921 16.0832 12.8993 16.5696 13.4337C16.7333 13.5996 16.8446 13.8099 16.8896 14.0385C17.0111 13.9345 17.1121 13.8086 17.1872 13.6673C16.9782 13.1516 16.6668 12.6835 16.272 12.2913Z" fill="#8E785A"/>
<path d="M15.8752 12.525C15.684 11.7058 15.545 10.8754 15.4592 10.0386C15.2423 8.00319 15.7673 5.95791 16.9376 4.27858C17.105 3.97814 17.2944 3.69043 17.504 3.41778C17.7568 3.09778 16.992 2.72018 16.4352 3.04338C15.8784 3.36658 14.8768 4.53138 13.9008 7.89778C12.9408 12.3362 15.0144 14.685 15.0144 14.685C15.4496 14.6466 16.3808 14.4994 16.9344 14.045C16.8894 13.8163 16.7781 13.606 16.6144 13.4402C16.1088 12.8962 16.016 12.989 15.8752 12.525Z" fill="#B6A68A"/>
<g style="mix-blend-mode:multiply">
<path d="M15.648 8.46387C14.9446 8.96389 14.2744 9.50903 13.6416 10.0959C13.6251 11.0752 13.78 12.0499 14.0992 12.9759C14.2892 12.2762 14.5907 11.6117 14.992 11.0079C15.1909 10.7153 15.435 10.456 15.7152 10.2399C15.68 9.83667 15.6544 9.36627 15.6448 8.81907C15.6416 8.69427 15.6448 8.57907 15.648 8.46387Z" fill="#9E8D71"/>
</g>
<path d="M11.9968 13.6638C11.8112 13.2926 11.696 12.6654 12.0672 11.6638C12.2976 11.0494 12.4448 10.7966 12.56 10.5054C11.6256 11.891 11.28 13.315 11.5104 14.5214C11.602 14.6296 11.714 14.7188 11.84 14.7838C11.9712 14.4446 12.1216 13.907 11.9968 13.6638Z" fill="#A78D6A"/>
<path d="M22.56 5.09131C22.416 4.74571 22.3072 4.79371 21.7984 4.91531C21.2896 5.03691 16.8992 6.02251 14.08 8.78411C13.5125 9.29664 13.0077 9.87452 12.576 10.5057C12.4608 10.7969 12.3136 11.0497 12.0832 11.6641C11.712 12.6657 11.8272 13.2929 12.0128 13.6641C12.1376 13.9073 11.9872 14.4449 11.8688 14.7841C12.6852 15.1635 13.557 15.4098 14.4512 15.5137C14.3694 15.2498 14.1972 15.0232 13.9648 14.8737C13.4752 14.5729 13.664 14.5729 13.7088 14.2689C13.7536 13.9649 13.5456 13.8049 13.36 13.2705C13.1744 12.7361 13.4752 12.4129 13.5936 12.1089C13.6528 11.9264 13.764 11.7651 13.9136 11.6449C14.032 11.5297 14.032 11.4369 14.288 10.9505C14.544 10.4641 15.248 9.78891 15.9584 9.13611C16.6688 8.48331 18.0096 7.48171 18.9056 7.49451C19.9354 6.94998 21.0052 6.48463 22.1056 6.10251C22.72 5.91051 22.7008 5.49451 22.56 5.09131Z" fill="#D6C3A2"/>
<path d="M15.9456 9.13266C15.2256 9.77266 14.528 10.4575 14.2752 10.9471C14.0224 11.4367 14.0192 11.5263 13.9008 11.6415C13.7513 11.7617 13.6401 11.9229 13.5808 12.1055C13.4624 12.4255 13.1616 12.7455 13.3472 13.2671C13.5328 13.7887 13.744 13.9647 13.696 14.2655C13.648 14.5663 13.4624 14.5855 13.952 14.8703C14.1844 15.0197 14.3566 15.2464 14.4384 15.5103C14.9316 15.6112 15.4412 15.6003 15.9296 15.4783C15.9296 15.4783 14.112 15.1583 14.0096 13.3727C13.9648 12.4799 14.6176 10.3679 17.6992 8.20146C18.1056 7.93586 18.5056 7.69906 18.896 7.48786C17.9968 7.47826 16.64 8.52146 15.9456 9.13266Z" fill="#A78D6A"/>
<path d="M13.5168 10.771C13.4197 10.8137 13.3256 10.8629 13.2352 10.9182C13.2352 10.8286 13.2352 10.7422 13.2352 10.6558L13.4784 10.515C13.4784 10.515 13.504 10.4702 13.4784 10.4798C13.3952 10.5214 13.312 10.563 13.232 10.611C13.232 10.4926 13.232 10.3774 13.2512 10.2622C13.2512 10.2622 13.2224 10.2622 13.2192 10.2622C13.2192 10.3806 13.2 10.499 13.1936 10.6174L13.0752 10.6974C13.0752 10.5726 13.1008 10.4478 13.1168 10.323C13.1168 10.3006 13.0912 10.323 13.088 10.323C13.0688 10.451 13.0464 10.5854 13.0304 10.723C12.972 10.7675 12.9164 10.8156 12.864 10.867C12.864 10.867 12.864 10.8958 12.864 10.883C12.911 10.8388 12.9613 10.7982 13.0144 10.7614C13.0144 10.8542 12.9952 10.947 12.992 11.043L12.8256 11.171C12.8256 11.171 12.8256 11.2158 12.8256 11.1966C12.8256 11.1774 12.928 11.1198 12.9792 11.0846C12.9803 11.2311 12.9974 11.377 13.0304 11.5198C13.0304 11.5422 13.0688 11.5198 13.0688 11.4974C13.0591 11.361 13.0591 11.2242 13.0688 11.0878L13.2032 11.0046C13.2032 11.1038 13.2032 11.203 13.2032 11.299C13.2032 11.3214 13.2384 11.299 13.2384 11.2766C13.2384 11.1774 13.2384 11.0782 13.2384 10.979L13.5168 10.819C13.5168 10.819 13.5392 10.7614 13.5168 10.771ZM13.0592 11.0302C13.0592 10.9374 13.0592 10.8446 13.0592 10.755C13.0977 10.7264 13.1384 10.7007 13.1808 10.6782C13.1808 10.7646 13.1808 10.8542 13.1808 10.9406L13.0592 11.0302Z" fill="#A78D6A"/>
<g style="mix-blend-mode:multiply">
<path d="M13.3248 14.8543C12.9728 14.8543 12.592 14.6079 12.2592 14.4895C12.0092 14.3791 11.7437 14.3079 11.472 14.2783C11.472 14.3615 11.4944 14.4415 11.5104 14.5215C11.6021 14.6297 11.714 14.7189 11.84 14.7839C12.6564 15.1633 13.5282 15.4096 14.4224 15.5135C14.9157 15.6145 15.4252 15.6036 15.9136 15.4815C15.5279 15.3988 15.1645 15.234 14.848 14.9983C14.3552 15.1007 13.9328 14.8639 13.3248 14.8543Z" fill="#D6C3A2"/>
</g>
<path d="M16.5279 8.14075C16.5042 8.15111 16.4817 8.16398 16.4607 8.17915C16.4607 8.10235 16.4607 8.02555 16.4607 7.94875L16.5247 7.91995C16.5247 7.91995 16.5567 7.86875 16.5247 7.87835L16.4575 7.91355L16.4767 7.76635C16.4767 7.73755 16.4447 7.76635 16.4415 7.76635C16.4383 7.76635 16.4255 7.86875 16.4191 7.91995L16.3615 7.95195C16.3615 7.87515 16.3615 7.80155 16.3615 7.72475C16.3615 7.70555 16.3327 7.72475 16.3327 7.74395C16.3327 7.82075 16.3327 7.89755 16.3135 7.97115L16.1887 8.04795C16.1887 8.04795 16.1631 8.09275 16.1887 8.07995L16.3103 8.00955C16.3103 8.09915 16.3103 8.18875 16.2911 8.27835C16.271 8.29576 16.2468 8.30786 16.2207 8.31355C16.2207 8.31355 16.1855 8.35515 16.2207 8.34875C16.256 8.34992 16.2908 8.33983 16.3199 8.31995C16.3135 8.41691 16.3135 8.51419 16.3199 8.61115C16.3199 8.63675 16.3583 8.61115 16.3583 8.58555C16.3583 8.48635 16.3583 8.38715 16.3583 8.28795L16.4223 8.23995C16.4192 8.29003 16.4192 8.34027 16.4223 8.39035C16.4223 8.41275 16.4575 8.39035 16.4575 8.36795C16.4575 8.34555 16.4575 8.26235 16.4575 8.21115L16.5215 8.16955C16.5439 8.16315 16.5535 8.12475 16.5279 8.14075ZM16.3967 8.22395C16.3824 8.23266 16.3695 8.24344 16.3583 8.25595C16.3583 8.16955 16.3583 8.08635 16.3583 7.99995L16.4127 7.97115C16.408 8.05001 16.408 8.12909 16.4127 8.20795L16.3967 8.22395Z" fill="#A78D6A"/>
<g style="mix-blend-mode:screen">
<path d="M16 7.47839C15.4816 7.77878 14.9939 8.12926 14.544 8.52479C14.336 8.70719 14.1248 8.90239 13.9296 9.09759C13.7135 9.34185 13.485 9.5747 13.2448 9.79519C13.2448 9.81119 13.2448 9.79519 13.2448 9.79519C13.6736 9.46657 14.0798 9.1095 14.4608 8.72639C14.9512 8.32001 15.4652 7.94282 16 7.59679C16.0608 7.56159 16.1056 7.42399 16 7.47839Z" fill="#D6C3A2"/>
</g>
<g style="mix-blend-mode:screen">
<path d="M21.7952 4.93111C21.3722 5.02852 20.9545 5.14815 20.544 5.28951C20.0875 5.43702 19.639 5.60791 19.2 5.80151C18.7628 5.97038 18.3355 6.16376 17.92 6.38071C17.7152 6.48951 17.504 6.57911 17.3056 6.70071C17.2128 6.76151 17.1168 6.81591 17.0208 6.87991C16.9307 6.95854 16.8293 7.02326 16.72 7.07191C16.7008 7.07191 16.6592 7.13911 16.7008 7.13911C16.8139 7.11969 16.9224 7.07955 17.0208 7.02071C17.2576 6.89911 17.4976 6.78391 17.7376 6.66871C18.1714 6.44843 18.6169 6.25188 19.072 6.07991C19.5168 5.91991 19.9392 5.72791 20.3968 5.60311C20.8638 5.52157 21.3165 5.37283 21.7408 5.16151C21.7888 5.14231 21.9456 4.90231 21.7952 4.93111Z" fill="#D6C3A2"/>
</g>
<g style="mix-blend-mode:multiply">
<path d="M16.4608 13.8786C16.2022 14.0453 15.9108 14.1545 15.6064 14.1986C15.327 14.2019 15.0551 14.2889 14.8256 14.4482C14.9408 14.6146 15.0144 14.701 15.0144 14.701C15.4496 14.6626 16.3808 14.5154 16.9344 14.061C17.0559 13.9569 17.1568 13.831 17.232 13.6898C17.1744 13.565 17.1136 13.453 17.0592 13.3506C16.8909 13.559 16.6886 13.7376 16.4608 13.8786Z" fill="#9E8D71"/>
</g>
<path d="M20.6143 22.0798C20.9206 21.7529 21.3209 21.5292 21.7599 21.4398C22.1695 21.3662 22.4831 21.379 22.6879 21.0302C22.7615 20.9054 22.8479 20.7518 22.9343 20.611C23.025 20.153 23.0807 19.6887 23.1007 19.2222C23.1935 17.875 23.3791 17.4558 22.7807 16.9214C22.1078 16.4103 21.4813 15.8406 20.9087 15.219C20.5887 14.7998 20.1823 13.619 19.9967 13.3694C19.8787 13.2204 19.7112 13.1185 19.5246 13.0821C19.338 13.0457 19.1445 13.0773 18.9791 13.171C18.5196 13.3324 18.0358 13.4136 17.5487 13.411C17.2854 13.4242 17.035 13.5295 16.8415 13.7086C16.7295 13.8366 16.6303 14.0286 16.4031 14.0766C15.9961 14.2119 15.5802 14.3188 15.1583 14.3966C14.7071 14.451 14.6783 15.4142 14.6783 15.4142C16.5631 15.4686 16.9983 18.7262 17.9039 19.9582C18.5055 20.7774 18.8639 22.2654 19.0335 23.1582C19.2289 22.9899 19.4534 22.8587 19.6959 22.771C20.0697 22.6477 20.3924 22.4048 20.6143 22.0798Z" fill="#6D2213"/>
<g style="mix-blend-mode:multiply" opacity="0.5">
<path d="M19.8208 21.5071C19.7184 21.0015 19.344 20.5951 19.0336 20.2015C18.4096 19.4175 17.6128 18.7551 17.3856 17.7343C17.2128 16.9567 17.328 15.8687 16.4768 15.4719C15.9232 15.2159 15.2928 15.2351 14.7168 15.0591C14.6934 15.1838 14.6784 15.3099 14.672 15.4367C16.5568 15.4911 16.992 18.7487 17.8976 19.9807C18.4992 20.7999 18.8576 22.2879 19.0272 23.1807C19.2225 23.0123 19.447 22.8811 19.6896 22.7935H19.7184C19.8238 22.3734 19.8584 21.9386 19.8208 21.5071Z" fill="#601D0B"/>
</g>
<path d="M22.688 21.0462C22.4832 21.395 22.1696 21.3662 21.76 21.4558C21.321 21.5452 20.9207 21.7688 20.6144 22.0958C20.394 22.4291 20.0685 22.6791 19.6896 22.8062C19.4471 22.8938 19.2226 23.025 19.0272 23.1934C19.1136 23.651 19.152 23.955 19.152 23.955C19.3545 23.833 19.5689 23.7322 19.792 23.6542C20.0704 23.5678 20.0544 23.5934 20.1792 23.4366C20.3033 23.2221 20.4515 23.0224 20.6208 22.8414C20.9275 22.6497 21.2592 22.5011 21.6064 22.3998C21.8958 22.311 22.1608 22.1566 22.3808 21.9486C22.6521 21.5473 22.8404 21.0958 22.9344 20.6206C22.848 20.7678 22.7616 20.9214 22.688 21.0462Z" fill="#4C1206"/>
<g style="mix-blend-mode:multiply" opacity="0.5">
<path d="M19.8848 22.7201C19.8456 23.0226 19.8243 23.3271 19.8208 23.6321C20.0576 23.5617 20.048 23.5745 20.1664 23.4273C20.2336 23.3441 20.2976 23.2257 20.3744 23.1073C20.3744 22.8481 20.3744 22.5633 20.3744 22.3457C20.2406 22.5048 20.0734 22.6326 19.8848 22.7201Z" fill="#4C1206"/>
<path d="M21.76 21.456C21.662 21.4734 21.5656 21.4991 21.472 21.5328C21.472 21.7664 21.4368 22.1184 21.3888 22.4928L21.6064 22.416C21.7709 22.3563 21.9295 22.2813 22.08 22.192C22.08 21.9104 22.1024 21.616 22.1152 21.3984L21.76 21.456Z" fill="#4C1206"/>
</g>
<path d="M12.4064 23.4495C12.9408 23.5487 12.9408 23.6223 13.0272 23.8623C13.1136 24.1023 13.104 24.2559 13.2576 24.1567C13.3568 24.1055 13.4112 24.1791 13.6384 24.3231C13.927 24.46 14.244 24.5264 14.5633 24.5169C14.8826 24.5075 15.1951 24.4224 15.4752 24.2687C16.2592 23.8303 16.8832 23.4815 17.3184 23.6991C17.296 23.3599 17.3952 23.3183 17.6384 23.2863C17.8816 23.2543 18.3904 22.9343 18.3712 22.7615C18.3842 22.5233 18.4486 22.2908 18.56 22.0799C18.6597 21.7822 18.7252 21.474 18.7552 21.1615C18.8096 20.7999 18.528 20.5727 18.3744 20.2751C18.1384 19.8367 17.8688 19.4173 17.568 19.0207C17.2128 18.5599 16.9792 18.2751 16.96 17.6799C16.9376 17.2895 16.96 17.0399 16.9312 16.7583C16.9071 16.3712 16.7978 15.9942 16.6112 15.6543C16.3328 15.2799 15.9904 15.4527 15.5712 15.3887C15.152 15.3247 14.352 15.0271 13.9712 15.0975C13.5904 15.1679 12.7328 14.9471 11.8208 14.4223C11.8208 14.4223 11.3408 14.2303 11.2704 14.5663C11.2208 14.8814 11.0781 15.1745 10.8608 15.4079C10.576 15.7663 10.6432 15.7919 10.8096 16.2527C10.8266 16.4046 10.8113 16.5583 10.7648 16.7039C10.6102 17.0788 10.4295 17.4423 10.224 17.7919C10.0999 17.9529 10.0421 18.1552 10.0623 18.3575C10.0825 18.5598 10.1793 18.7466 10.3328 18.8799C10.6047 19.0998 10.8079 19.3929 10.9184 19.7247C11.1257 20.4608 11.2881 21.2089 11.4048 21.9647C11.4272 22.1087 11.4464 22.2367 11.4656 22.3519C11.5392 22.5471 11.84 23.2959 12.4064 23.4495Z" fill="#944620"/>
<path d="M19.52 21.3666C19.2 20.9186 18.7456 20.0674 18.2048 19.5394C17.6639 19.0114 17.4175 18.5026 17.1231 17.6002C17.0349 17.3236 16.9654 17.0413 16.9152 16.7554C16.9344 17.0466 16.9152 17.2866 16.944 17.677C16.9792 18.2722 17.2128 18.5506 17.5616 19.0018C17.8624 19.3984 18.132 19.8178 18.368 20.2562C18.5216 20.5538 18.8032 20.781 18.7488 21.1426C18.7223 21.4614 18.6589 21.776 18.56 22.0802C18.4475 22.2962 18.3841 22.5344 18.3744 22.7778C18.3935 22.9506 17.8816 23.2674 17.6416 23.3026C17.4016 23.3378 17.3024 23.3762 17.3216 23.7154C16.8864 23.4978 16.2624 23.8466 15.4783 24.285C15.1983 24.4387 14.8858 24.5238 14.5665 24.5332C14.2472 24.5427 13.9302 24.4762 13.6416 24.3394C13.4144 24.1954 13.3599 24.1218 13.2607 24.173C13.1071 24.2722 13.12 24.1218 13.0304 23.8786C12.9408 23.6354 12.9439 23.5586 12.4095 23.4658C11.8527 23.3122 11.5424 22.5634 11.4688 22.3586C11.5037 22.8668 11.7011 23.3504 12.0319 23.7378C12.5439 24.3778 12.5888 24.2466 12.8992 24.8834C13.2096 25.5202 13.0848 25.6578 13.8911 25.6866C14.6976 25.7154 15.344 25.565 15.888 25.6098C16.432 25.6546 17.0496 25.8434 17.5456 25.501C18.0416 25.1586 18.288 24.8354 18.7359 24.6338C19.184 24.4322 19.376 24.3682 19.3088 24.093C19.2159 23.6109 19.2345 23.114 19.3632 22.6402C19.5199 22.0994 19.84 21.8178 19.52 21.3666Z" fill="#6F270E"/>
<g style="mix-blend-mode:multiply" opacity="0.5">
<path d="M16.7968 24.1568C16.7942 24.3225 16.8292 24.4866 16.8992 24.6368C17.0144 24.8768 17.1136 25.1552 17.1776 25.104C17.2416 25.0528 17.2032 24.8641 17.0496 24.4961C16.896 24.1281 16.8096 23.9168 16.7968 24.1568Z" fill="#6F2910"/>
</g>
<g style="mix-blend-mode:multiply" opacity="0.5">
<path d="M13.1456 24.1761C13.1008 24.1377 13.0848 24.0193 13.0272 23.8561C12.9696 23.6929 12.9472 23.5937 12.736 23.5361C12.816 23.9649 12.9504 24.6753 13.056 25.2353C13.168 25.4881 13.232 25.6001 13.5328 25.6513L13.152 24.2145C13.1473 24.2023 13.1451 24.1892 13.1456 24.1761Z" fill="#6F2910"/>
<path d="M15.9264 25.4687C16.0128 25.5071 15.712 24.6527 15.5584 24.2207L15.4752 24.2687H15.4528C15.5643 24.6855 15.7232 25.0881 15.9264 25.4687Z" fill="#6F2910"/>
<path d="M14.08 24.8003C14.107 25.0984 14.1715 25.3919 14.272 25.6739H14.4C14.2688 25.2803 14.1216 24.7683 14.08 24.8003Z" fill="#6F2910"/>
<path d="M16.2304 24.96C16.3104 24.9792 16.1216 24.3456 16.016 23.9712L15.8528 24.0544C15.9456 24.3584 16.144 24.96 16.2304 24.96Z" fill="#6F2910"/>
<path d="M19.3376 22.6944C19.1793 22.2878 19.0573 21.8681 18.9728 21.44C18.924 21.2767 18.8495 21.1222 18.752 20.9824C18.7599 21.0365 18.7599 21.0915 18.752 21.1456C18.7232 21.3408 18.704 21.5008 18.672 21.6544L19.2704 23.0656C19.2848 22.9406 19.3072 22.8166 19.3376 22.6944Z" fill="#6F2910"/>
<path d="M14.5983 25.0145C14.5567 25.0497 14.7103 25.4241 14.8063 25.6545H14.9247C14.8383 25.4241 14.6495 24.9761 14.5983 25.0145Z" fill="#6F2910"/>
<path d="M17.6352 23.2865C17.4176 23.3153 17.3152 23.3537 17.3152 23.6065L17.8304 25.2801C18.0429 25.0936 18.265 24.9184 18.496 24.7553L18.0096 23.1553C17.893 23.2197 17.7665 23.264 17.6352 23.2865Z" fill="#6F2910"/>
</g>
<path d="M14.0384 16.979C13.8689 16.8009 13.6425 16.6876 13.3984 16.659C13.1392 16.6334 12.5248 16.6878 12.7744 16.2238C12.8731 16.0582 12.9322 15.872 12.9472 15.6798C12.9472 15.5422 12.8672 15.5774 12.7872 15.6414C12.7072 15.7054 12.5504 15.811 12.5024 15.9614C12.4867 16.0675 12.4867 16.1753 12.5024 16.2814C12.5024 16.3102 12.5472 16.4542 12.4576 16.435C12.3944 16.4065 12.3352 16.37 12.2816 16.3262C12.1952 16.2718 12.0928 16.259 12.0064 16.2046C11.905 16.1513 11.7975 16.1105 11.6864 16.083C11.5616 16.0382 11.5104 15.9902 11.3664 16.019C11.2533 16.042 11.1451 16.0842 11.0464 16.1438C10.9952 16.1694 10.9664 16.2814 11.0464 16.2398L11.1072 16.211C11.1989 16.2442 11.2877 16.2849 11.3728 16.3326C11.4869 16.367 11.6055 16.3843 11.7248 16.3838C11.9517 16.409 12.1668 16.4977 12.3456 16.6398C12.4352 16.707 12.1664 17.2126 12.1376 17.3246C12.1183 17.5247 12.1644 17.7256 12.2688 17.8974C12.2912 17.9454 12.3712 17.8558 12.3616 17.8174C12.352 17.779 12.3296 17.6734 12.3104 17.603C12.3145 17.5433 12.3253 17.4843 12.3424 17.427C12.3752 17.318 12.4147 17.2111 12.4608 17.107C12.4608 17.0782 12.4608 17.0846 12.4288 17.107C12.471 17.0082 12.519 16.912 12.5728 16.819C12.608 16.7614 12.6496 16.6622 12.7424 16.707C12.8187 16.7467 12.9028 16.7697 12.9888 16.7742C13.1936 16.7902 13.3088 16.7422 13.4976 16.883C13.6287 16.9849 13.7805 17.0569 13.9424 17.0942C14 17.107 14.08 17.0206 14.0384 16.979Z" fill="#6C260C"/>
<path d="M15.4176 20.2238C15.3369 20.2269 15.2567 20.2365 15.1776 20.2526C15.0649 20.2547 14.9539 20.2247 14.8576 20.1662C14.6778 20.0746 14.4861 20.0089 14.288 19.971C14.1024 19.9422 13.8976 19.987 13.7824 19.8046C13.728 19.7214 13.8272 19.5134 13.8464 19.4046C13.8592 19.3272 13.8592 19.2483 13.8464 19.171C13.8272 19.059 13.7152 18.851 13.5744 18.9822C13.5098 19.0547 13.4612 19.1401 13.432 19.2328C13.4028 19.3255 13.3935 19.4233 13.4048 19.5198C13.3714 19.4812 13.3299 19.4506 13.2832 19.4302C13.1443 19.4014 13.0017 19.3949 12.8608 19.411C12.5035 19.4733 12.1357 19.4123 11.8176 19.2382C11.6273 19.0937 11.4198 18.9733 11.2 18.8798C11.0055 18.7804 10.7956 18.7144 10.5792 18.6846C10.5536 18.6846 10.5248 18.723 10.5248 18.7454C10.5248 18.7678 10.544 18.7678 10.56 18.7454C10.6315 18.8403 10.7206 18.9207 10.8224 18.9822C10.9312 19.0686 11.0208 19.1742 11.1424 19.2542C11.264 19.3342 11.3632 19.2542 11.4624 19.2958C11.6032 19.3406 11.7152 19.4142 11.8592 19.4494C12.0119 19.459 12.1581 19.5148 12.2784 19.6094C12.3549 19.6849 12.4423 19.7485 12.5376 19.7982C12.7871 19.9039 13.0573 19.952 13.328 19.939C13.3024 20.0126 13.2704 20.083 13.2512 20.1598C13.2032 20.339 13.1616 20.5182 13.1296 20.7006C13.0915 20.8328 13.0844 20.972 13.1088 21.1074C13.1333 21.2428 13.1885 21.3708 13.2704 21.4814C13.3088 21.5294 13.3792 21.4238 13.3888 21.395C13.4063 21.303 13.4063 21.2085 13.3888 21.1166C13.3888 20.9726 13.3632 20.8382 13.3632 20.6942C13.3632 20.5502 13.4688 20.419 13.5136 20.259C13.536 20.179 13.5424 20.0894 13.5616 20.003C13.7314 20.0186 13.8933 20.0818 14.0288 20.1854C14.144 20.2846 14.2272 20.419 14.3936 20.4318C14.56 20.4446 14.6624 20.2814 14.8576 20.3358C15.0182 20.4205 15.1864 20.4901 15.36 20.5438C15.4816 20.5438 15.7888 20.6334 15.8496 20.4702C15.9104 20.307 15.4944 20.2206 15.4176 20.2238ZM13.2224 20.8638C13.224 20.925 13.2304 20.986 13.2416 21.0462C13.2416 21.0686 13.2416 21.0942 13.2416 21.123C13.2242 21.0432 13.2177 20.9613 13.2224 20.8798V20.8638Z" fill="#6C260C"/>
<path d="M16.4832 17.6384C16.4544 17.504 16.2464 17.6384 16.272 17.4176C16.272 17.2736 16.2304 17.2128 16.3104 17.0432C16.3392 16.9792 16.3296 16.8032 16.224 16.8032C16.2127 16.8047 16.2024 16.8104 16.1952 16.8192C15.9744 16.9728 16.1088 17.2512 16.0032 17.4592C15.9008 17.3792 15.7216 17.4176 15.6 17.376C15.4784 17.3344 15.3376 17.2 15.2 17.2512H15.1776C15.1776 17.3856 15.2064 17.4272 15.3312 17.488C15.3888 17.5168 16 17.728 15.9072 17.8592C15.8732 17.899 15.8523 17.9482 15.8471 18.0003C15.842 18.0524 15.8529 18.1048 15.8784 18.1504C15.9168 18.2176 15.9744 18.2688 16.0096 18.336C16.0448 18.4032 16.0544 18.4672 16.1216 18.5184C16.1216 18.5184 16.144 18.5184 16.1536 18.5184L16.1728 18.5632C16.1728 18.5824 16.208 18.5632 16.208 18.5408C16.1696 18.288 16 17.8304 16.3904 17.792C16.4832 17.7984 16.5024 17.712 16.4832 17.6384Z" fill="#6C260C"/>
<path d="M18.3584 21.2896C18.2432 21.2512 18.128 21.2544 18.016 21.2096C17.8707 21.1455 17.7314 21.0684 17.6 20.9792C17.4785 20.917 17.3509 20.8677 17.2192 20.832C17.056 20.768 16.8992 20.832 16.7456 20.7744C16.7168 20.7744 16.6688 20.8288 16.7008 20.8416H16.7168C16.7202 20.9913 16.7585 21.1382 16.8288 21.2704C16.8368 21.2759 16.8463 21.2789 16.856 21.2789C16.8657 21.2789 16.8752 21.2759 16.8832 21.2704C16.9984 21.232 16.9248 21.0752 17.1584 21.1392C17.5104 21.232 17.9488 21.4592 18.32 21.3344C18.3456 21.3504 18.3904 21.2992 18.3584 21.2896Z" fill="#6C260C"/>
<path d="M16.144 23.0078C15.8912 22.8446 15.728 22.7742 15.7312 22.435C15.7405 22.1609 15.7923 21.8899 15.8848 21.6318C15.9264 21.5102 15.984 21.3118 15.904 21.1934C15.792 21.027 15.712 21.5134 15.7088 21.5134C15.6896 21.7854 15.664 22.0542 15.6256 22.323C15.6 22.4894 15.6064 22.643 15.3504 22.691C15.1796 22.7143 15.0062 22.6732 14.864 22.5758C14.544 22.3742 14.176 22.0286 13.7632 22.195C13.6256 22.2494 13.4976 22.3326 13.3536 22.2398C13.2735 22.172 13.2137 22.0834 13.1808 21.9838C13.1785 21.9694 13.1722 21.9559 13.1628 21.9448C13.1533 21.9337 13.141 21.9254 13.1271 21.9208C13.1133 21.9161 13.0985 21.9154 13.0842 21.9186C13.07 21.9218 13.0569 21.9289 13.0464 21.939C12.9472 22.0222 13.0464 22.051 12.784 22.0958C12.6128 22.0967 12.4453 22.0453 12.304 21.9486C12.1358 21.8299 11.9556 21.729 11.7664 21.6478H11.7472C11.7152 21.6478 11.664 21.715 11.6992 21.7246C11.6352 21.875 11.728 22.019 11.8592 22.1342C11.9392 22.2046 12.096 22.1086 12.1792 22.115C12.3439 22.1381 12.496 22.2159 12.6112 22.3358C12.6488 22.3631 12.6897 22.3857 12.7328 22.403C12.8704 22.4702 12.928 22.5214 12.9088 22.6846C12.8924 22.792 12.9023 22.9018 12.9376 23.0046C12.9856 23.1166 13.1808 22.9502 13.2224 22.915C13.328 22.8254 13.2704 22.6942 13.2224 22.595C13.1744 22.4958 13.2736 22.5086 13.328 22.5342C13.433 22.5588 13.5402 22.5727 13.648 22.5758C13.8165 22.5878 13.9842 22.6092 14.1504 22.6398C14.2176 22.6398 14.2912 22.6398 14.3616 22.675C14.432 22.7102 14.5408 22.8094 14.608 22.8894C14.6752 22.9694 14.7232 23.0206 14.8416 23.0078C14.96 22.995 15.4336 22.7806 15.3696 23.1102C15.3408 23.2702 15.4336 23.395 15.392 23.5678C15.392 23.6126 15.44 23.5678 15.4528 23.5678C15.52 23.4526 15.5776 23.2862 15.7504 23.3022C15.8432 23.3022 15.9296 23.3246 16.0224 23.3246C16.0717 23.3288 16.1212 23.3201 16.1661 23.2993C16.211 23.2785 16.2497 23.2464 16.2784 23.2062C16.32 23.1294 16.2016 23.0398 16.144 23.0078Z" fill="#6C260C"/>
<g style="mix-blend-mode:multiply" opacity="0.5">
<path d="M12.7072 16.6399C12.3872 16.5311 12.0672 16.4031 11.7184 16.3199C11.5094 16.2438 11.2956 16.1818 11.0784 16.1343H11.0592C11.008 16.1599 10.9792 16.2719 11.0592 16.2303L11.12 16.2015C11.2117 16.2347 11.3005 16.2754 11.3856 16.3231C11.4997 16.3575 11.6184 16.3748 11.7376 16.3743C11.9645 16.3995 12.1797 16.4882 12.3584 16.6303C12.448 16.6975 12.1792 17.2031 12.1504 17.3151C12.1311 17.5152 12.1772 17.7161 12.2816 17.8879C12.304 17.9359 12.384 17.8463 12.3744 17.8079C12.3648 17.7695 12.3424 17.6639 12.3232 17.5935C12.3273 17.5338 12.3381 17.4748 12.3552 17.4175C12.388 17.3085 12.4276 17.2016 12.4736 17.0975C12.4736 17.0687 12.4736 17.0751 12.4416 17.0975C12.4838 16.9987 12.5319 16.9025 12.5856 16.8095C12.6208 16.7519 12.6624 16.6527 12.7552 16.6975C12.8316 16.7373 12.9156 16.7602 13.0016 16.7647H13.12L12.7072 16.6399Z" fill="#6C260C"/>
</g>
<g style="mix-blend-mode:multiply" opacity="0.5">
<path d="M14.0095 17.0241C13.8818 16.9582 13.7429 16.917 13.5999 16.9025L13.5135 16.8833C13.6422 16.9847 13.7921 17.0558 13.9519 17.0913C13.9807 17.0913 14.0159 17.0721 14.0319 17.0401L14.0095 17.0241Z" fill="#6C260C"/>
</g>
<g style="mix-blend-mode:multiply" opacity="0.5">
<path d="M14.864 20.3294C14.5871 20.2872 14.3126 20.2306 14.0416 20.1598C13.8364 20.087 13.6356 20.0026 13.44 19.907C12.9568 19.7118 12.4448 19.6254 11.9584 19.4526C11.5842 19.2694 11.1983 19.1112 10.8032 18.979L10.8384 19.0078C10.9472 19.0942 11.0368 19.1998 11.1584 19.2798C11.28 19.3598 11.3792 19.2798 11.4784 19.3214C11.6192 19.3662 11.7312 19.4398 11.8752 19.475C12.0279 19.4846 12.1741 19.5404 12.2944 19.635C12.3709 19.7105 12.4583 19.7741 12.5536 19.8238C12.8032 19.9295 13.0733 19.9776 13.344 19.9646C13.3184 20.0382 13.2864 20.1086 13.2672 20.1854C13.2192 20.3646 13.1776 20.5438 13.1456 20.7262C13.1076 20.8584 13.1005 20.9976 13.1249 21.133C13.1493 21.2684 13.2046 21.3964 13.2864 21.507C13.3248 21.555 13.3952 21.4494 13.4048 21.4206C13.4223 21.3286 13.4223 21.2342 13.4048 21.1422C13.4048 20.9982 13.3792 20.8638 13.3792 20.7198C13.3792 20.5758 13.4848 20.4446 13.5296 20.2846C13.552 20.2046 13.5584 20.115 13.5776 20.0286C13.7474 20.0442 13.9094 20.1074 14.0448 20.211C14.16 20.3102 14.2432 20.4446 14.4096 20.4574C14.576 20.4702 14.6784 20.307 14.8736 20.3614C15.03 20.4365 15.1928 20.4975 15.36 20.5438C15.4784 20.5438 15.7632 20.6238 15.84 20.4894C15.504 20.4318 15.1808 20.387 14.864 20.3294ZM13.2224 20.8798C13.2241 20.941 13.2305 21.002 13.2416 21.0622C13.2416 21.0846 13.2416 21.1102 13.2416 21.139C13.2227 21.054 13.2162 20.9667 13.2224 20.8798Z" fill="#6C260C"/>
</g>
<g style="mix-blend-mode:multiply" opacity="0.5">
<path d="M16.2592 17.8463L15.8496 17.6799C15.6318 17.6013 15.4182 17.5115 15.2096 17.4111C15.2439 17.4565 15.2906 17.4909 15.344 17.5103C15.4016 17.5391 16.0128 17.7503 15.92 17.8815C15.886 17.9213 15.865 17.9705 15.8599 18.0226C15.8547 18.0747 15.8657 18.1271 15.8912 18.1727C15.9296 18.2399 15.9872 18.2911 16.0224 18.3583C16.0576 18.4255 16.0672 18.4895 16.1344 18.5407C16.1344 18.5407 16.1568 18.5407 16.1664 18.5407L16.1856 18.5855C16.1856 18.6047 16.2208 18.5855 16.2208 18.5631C16.176 18.3359 16.0448 17.9679 16.2592 17.8463Z" fill="#6C260C"/>
</g>
<g style="mix-blend-mode:multiply" opacity="0.5">
<path d="M17.6385 21.2927C17.4561 21.2287 17.2673 21.1903 17.0817 21.1295C16.9665 21.0911 16.8545 21.0111 16.7393 20.9663C16.7477 21.0791 16.7816 21.1885 16.8385 21.2863C16.8465 21.2918 16.8559 21.2948 16.8657 21.2948C16.8754 21.2948 16.8849 21.2918 16.8929 21.2863C17.0081 21.2479 16.9345 21.0911 17.1681 21.1551C17.4017 21.2191 17.6129 21.3119 17.8465 21.3599L17.6385 21.2927Z" fill="#6C260C"/>
</g>
<path d="M11.7024 21.939C11.74 22.0182 11.7946 22.0881 11.8624 22.1438C11.9424 22.2142 12.0992 22.1182 12.1824 22.1246H12.2176C12.0541 22.0419 11.8811 21.9795 11.7024 21.939Z" fill="#6C260C"/>
<g style="mix-blend-mode:multiply" opacity="0.5">
<path d="M15.5424 23.0082L15.3376 22.9858C15.3538 23.0057 15.3646 23.0293 15.3691 23.0545C15.3736 23.0797 15.3716 23.1056 15.3632 23.1298C15.3344 23.2898 15.4272 23.4146 15.3856 23.5874C15.3856 23.6322 15.4336 23.5874 15.4464 23.5874C15.5136 23.4722 15.5712 23.3058 15.744 23.3218C15.8368 23.3218 15.9232 23.3442 16.016 23.3442C16.0653 23.3484 16.1148 23.3397 16.1597 23.319C16.2046 23.2982 16.2433 23.2661 16.272 23.2258C16.2822 23.2113 16.2877 23.194 16.2877 23.1762C16.2877 23.1585 16.2822 23.1412 16.272 23.1266L15.5424 23.0082Z" fill="#6C260C"/>
</g>
<g style="mix-blend-mode:multiply" opacity="0.5">
<path d="M14.9377 22.915C14.7393 22.8606 14.5729 22.7294 14.3809 22.659C13.8977 22.4766 13.3793 22.499 12.8833 22.3582C12.7457 22.323 12.6049 22.2814 12.4705 22.2334L12.6113 22.3454C12.6489 22.3727 12.6897 22.3953 12.7329 22.4126C12.8705 22.4798 12.9281 22.531 12.9089 22.6942C12.8924 22.8016 12.9023 22.9114 12.9377 23.0142C12.9857 23.1262 13.1809 22.9598 13.2225 22.9246C13.3281 22.835 13.2705 22.7038 13.2225 22.6046C13.1745 22.5054 13.2737 22.5182 13.3281 22.5438C13.4331 22.5684 13.5403 22.5824 13.6481 22.5854C13.8166 22.5975 13.9843 22.6188 14.1505 22.6494C14.2177 22.6494 14.2913 22.6494 14.3617 22.6846C14.4321 22.7198 14.5409 22.819 14.6081 22.899C14.6753 22.979 14.7233 23.0302 14.8417 23.0174C14.8993 23.0174 15.0241 22.9662 15.1361 22.947C15.0692 22.9412 15.0029 22.9305 14.9377 22.915Z" fill="#6C260C"/>
</g>
<g style="mix-blend-mode:multiply" opacity="0.5">
<path d="M22.0992 19.7952C21.8838 19.6846 21.6347 19.6595 21.4016 19.7248C21.2347 19.7686 21.0615 19.7838 20.8896 19.7696C20.6752 19.7696 20.4224 19.7696 20.3008 19.5552C20.2275 19.4353 20.1654 19.3089 20.1152 19.1776C20.096 19.1264 20.1152 18.928 20.0384 18.896C20.0095 18.8849 19.9776 18.8849 19.9488 18.896H19.9328C19.8336 18.992 19.9328 19.1488 19.984 19.2384C20.0352 19.328 20.3296 19.76 20.0096 19.6864C19.8576 19.6494 19.6981 19.6594 19.552 19.7152C19.3479 19.8299 19.1116 19.8738 18.88 19.84C18.8384 19.84 18.6304 19.84 18.672 19.9328C18.7552 20.1408 19.4368 19.9328 19.568 19.9104C19.792 19.8784 20.0832 19.7952 20.2688 19.968C20.4544 20.1408 20.3232 20.352 20.3936 20.5184C20.4384 20.624 20.6208 20.7424 20.6752 20.5728C20.6964 20.4774 20.6828 20.3775 20.6368 20.2912C20.608 20.2176 20.5792 20.1472 20.5568 20.0736C20.5344 20 20.7264 19.9968 20.768 19.9968C20.9698 19.9898 21.1703 19.9619 21.3664 19.9136C21.5959 19.8604 21.8327 19.8453 22.0672 19.8688C22.08 19.8688 22.1376 19.8048 22.0992 19.7952Z" fill="#601D0B"/>
</g>
<g style="mix-blend-mode:multiply" opacity="0.5">
<path d="M21.8112 17.3088C21.7408 17.248 21.5456 17.2448 21.456 17.2288C21.2628 17.2101 21.0679 17.2253 20.88 17.2736C20.4704 17.3632 20.0864 17.2064 19.6832 17.3696C19.4201 17.4743 19.1327 17.502 18.8544 17.4496C18.6419 17.4257 18.4278 17.4204 18.2144 17.4336C17.9552 17.4336 17.7856 17.4336 17.68 17.1584C17.6102 16.9635 17.5514 16.7648 17.504 16.5632C17.504 16.544 17.4752 16.5632 17.4752 16.5792C17.4752 16.5792 17.456 16.6112 17.4752 16.6208C17.4734 16.6389 17.4734 16.6571 17.4752 16.6752C17.4753 16.7567 17.4689 16.838 17.456 16.9184C17.422 17.016 17.4132 17.1205 17.4304 17.2224C17.4688 17.4176 17.2768 17.5648 17.1808 17.7184C17.1808 17.7184 17.1808 17.7664 17.1968 17.7536C17.2946 17.7177 17.3952 17.6898 17.4976 17.6704C17.6416 17.6448 17.6832 17.888 17.7088 17.9712C17.7325 18.124 17.7778 18.2727 17.8432 18.4128C17.8592 18.4384 17.904 18.3904 17.9008 18.368C17.8685 18.2042 17.8461 18.0385 17.8336 17.872C17.8112 17.552 18.288 17.6736 18.4384 17.6736C18.8224 17.6736 19.1968 17.6 19.5808 17.5936C19.9656 17.6156 20.3517 17.5974 20.7328 17.5392C20.9152 17.4976 21.088 17.4336 21.2736 17.408C21.4592 17.3824 21.5936 17.408 21.7504 17.408C21.7792 17.4016 21.8432 17.3408 21.8112 17.3088Z" fill="#601D0B"/>
</g>
<g style="mix-blend-mode:multiply" opacity="0.5">
<path d="M20.1312 15.5042C20.0992 15.2834 19.8624 15.2386 19.6736 15.2898C19.3984 15.3602 19.296 15.2226 19.152 15.0146L18.8608 14.5986C18.8608 14.5986 18.816 14.621 18.8128 14.6306C18.7746 14.7339 18.7746 14.8474 18.8128 14.9506C18.832 15.0146 19.1136 15.2962 18.8448 15.2706C18.7455 15.2612 18.6458 15.2836 18.56 15.3346C18.2976 15.4818 18.176 15.3698 17.9424 15.261C17.8303 15.2075 17.7019 15.1994 17.584 15.2386C17.472 15.2802 17.344 15.3698 17.2288 15.2386C17.192 15.182 17.1365 15.1401 17.072 15.1202C16.9679 15.0678 16.8498 15.0498 16.7348 15.0687C16.6198 15.0877 16.5138 15.1427 16.432 15.2258C16.432 15.2258 16.432 15.2546 16.432 15.2418C16.4502 15.2237 16.472 15.2095 16.496 15.2002C16.7968 15.133 16.6912 15.581 16.9728 15.613C16.9969 15.6194 17.0223 15.6194 17.0464 15.613C17.109 15.5751 17.1801 15.5532 17.2532 15.5493C17.3263 15.5454 17.3993 15.5596 17.4656 15.5906C17.5819 15.6699 17.7027 15.7426 17.8272 15.8082C18.0768 15.9042 18.2016 15.4402 18.4672 15.533C18.5852 15.5905 18.7137 15.6232 18.8448 15.629C19.0528 15.629 19.1168 15.837 19.2 15.981C19.216 16.013 19.2544 15.9586 19.2576 15.9394C19.2736 15.7474 19.2576 15.469 19.5456 15.5362C19.6553 15.5684 19.7623 15.609 19.8656 15.6578C19.9648 15.6802 20.16 15.6514 20.1312 15.5042Z" fill="#601D0B"/>
</g>
<g style="mix-blend-mode:multiply" opacity="0.5">
<path d="M20.5344 19.8176C20.3666 19.7979 20.1977 19.7894 20.0288 19.792C19.8624 19.792 19.7088 19.8304 19.5328 19.856C19.247 19.9185 18.9548 19.9464 18.6624 19.9392C18.7648 20.1312 19.424 19.9392 19.5552 19.9072C19.7792 19.8752 20.0704 19.792 20.256 19.9648C20.4416 20.1376 20.3104 20.3488 20.3808 20.5152C20.4256 20.6208 20.608 20.7392 20.6624 20.5696C20.6836 20.4741 20.67 20.3742 20.624 20.288C20.5952 20.2144 20.5664 20.144 20.544 20.0704C20.5216 19.9968 20.7136 19.9936 20.7552 19.9936C20.957 19.9865 21.1575 19.9587 21.3536 19.9104C21.5831 19.8572 21.8199 19.842 22.0544 19.8656C22.0627 19.8682 22.0716 19.8682 22.08 19.8656C21.5744 19.7856 21.0464 19.84 20.5344 19.8176Z" fill="#601D0B"/>
</g>
<g style="mix-blend-mode:multiply" opacity="0.5">
<path d="M21.8016 17.3026C21.5552 17.3026 21.312 17.3538 21.0656 17.373C20.56 17.4082 20.0544 17.4082 19.5488 17.437H19.4464C19.3472 17.455 19.2464 17.4635 19.1456 17.4626L18.8256 17.4914L18.2304 17.5202C17.8951 17.5234 17.5636 17.5918 17.2544 17.7218C17.3391 17.6924 17.4257 17.6688 17.5136 17.6514C17.6576 17.6258 17.6992 17.869 17.7248 17.9522C17.7485 18.105 17.7938 18.2536 17.8592 18.3938C17.8752 18.4194 17.92 18.3714 17.9168 18.349C17.8846 18.1851 17.8621 18.0195 17.8496 17.853C17.8272 17.533 18.304 17.6546 18.4544 17.6546C18.8384 17.6546 19.2128 17.581 19.5968 17.5746C19.9816 17.5965 20.3677 17.5783 20.7488 17.5202C20.9312 17.4786 21.104 17.4146 21.2896 17.389C21.4752 17.3634 21.6096 17.389 21.7664 17.389C21.7952 17.389 21.8592 17.325 21.8272 17.293L21.8016 17.3026Z" fill="#601D0B"/>
</g>
<g style="mix-blend-mode:multiply" opacity="0.5">
<path d="M20.1024 15.4146C19.9365 15.3773 19.7669 15.3591 19.5968 15.3602C19.1648 15.3602 18.7328 15.4722 18.3008 15.501C18.0704 15.501 17.856 15.469 17.6288 15.4626C17.4553 15.4765 17.2809 15.4491 17.12 15.3826C16.9814 15.3017 16.828 15.2495 16.6688 15.229H16.64C16.7808 15.3058 16.7552 15.6034 16.9824 15.629C17.0065 15.6354 17.0319 15.6354 17.056 15.629C17.1186 15.591 17.1897 15.5691 17.2628 15.5652C17.3359 15.5613 17.4089 15.5755 17.4752 15.6066C17.5915 15.6859 17.7123 15.7586 17.8368 15.8242C18.0864 15.9202 18.2112 15.4562 18.4768 15.549C18.5948 15.6065 18.7233 15.6391 18.8544 15.645C19.0624 15.645 19.1264 15.853 19.2096 15.997C19.2256 16.029 19.264 15.9746 19.2672 15.9554C19.2832 15.7634 19.2672 15.485 19.5552 15.5522C19.6649 15.5843 19.7719 15.625 19.8752 15.6738C19.9776 15.709 20.1696 15.6738 20.144 15.5202C20.1371 15.4826 20.123 15.4468 20.1024 15.4146Z" fill="#601D0B"/>
</g>
<path d="M12.9024 18.2399C12.9024 18.2047 12.8769 18.1023 12.8257 18.1503C12.7745 18.1983 12.7681 18.2655 12.7969 18.3167C12.7991 18.3265 12.8049 18.3352 12.8132 18.3411C12.8214 18.347 12.8316 18.3497 12.8416 18.3487C12.85 18.3464 12.8577 18.3423 12.8643 18.3368C12.8709 18.3313 12.8763 18.3244 12.88 18.3167C12.8967 18.2947 12.9047 18.2674 12.9024 18.2399Z" fill="#050505"/>
<path d="M12.4128 18.5602C12.4128 18.541 12.384 18.5314 12.368 18.525C12.3549 18.5196 12.3401 18.5197 12.327 18.525C12.3138 18.5304 12.3033 18.5407 12.2976 18.5538C12.288 18.5785 12.288 18.6059 12.2976 18.6306C12.2997 18.6436 12.3053 18.6558 12.3138 18.666C12.3222 18.6761 12.3332 18.6838 12.3456 18.6882C12.384 18.7074 12.416 18.6658 12.4256 18.6306C12.4294 18.6064 12.4249 18.5815 12.4128 18.5602Z" fill="#050505"/>
<path d="M11.8783 18.2078C11.8692 18.1927 11.8571 18.1795 11.8428 18.1691C11.8285 18.1586 11.8123 18.1511 11.7951 18.147C11.7599 18.147 11.6991 18.1694 11.7119 18.2142C11.7247 18.259 11.7631 18.2622 11.7919 18.275C11.8085 18.2828 11.8275 18.2838 11.8448 18.2778C11.8622 18.2718 11.8765 18.2593 11.8847 18.243C11.8847 18.243 11.8943 18.2046 11.8783 18.2078Z" fill="#050505"/>
<path d="M11.3952 17.3567C11.389 17.3527 11.3818 17.3506 11.3744 17.3506C11.367 17.3506 11.3598 17.3527 11.3536 17.3567C11.339 17.3675 11.3278 17.3824 11.3216 17.3994C11.3153 17.4165 11.3142 17.435 11.3184 17.4527C11.3203 17.4602 11.3243 17.4669 11.33 17.472C11.3357 17.4771 11.3428 17.4805 11.3504 17.4815C11.3696 17.4815 11.3856 17.4815 11.3984 17.4591C11.4052 17.4523 11.4105 17.4442 11.414 17.4353C11.4175 17.4264 11.4192 17.4168 11.4189 17.4072C11.4186 17.3976 11.4163 17.3882 11.4123 17.3795C11.4082 17.3708 11.4024 17.3631 11.3952 17.3567Z" fill="#050505"/>
<path d="M11.3024 16.8926C11.3024 16.8926 11.28 16.8734 11.2704 16.867C11.2704 16.867 11.2704 16.851 11.248 16.8478C11.2256 16.8446 11.2192 16.8478 11.2128 16.867C11.2113 16.8765 11.2113 16.8862 11.2128 16.8958C11.2137 16.9194 11.2227 16.942 11.2384 16.9598C11.2576 16.9886 11.2864 17.0046 11.3152 16.9598C11.319 16.9366 11.3145 16.9127 11.3024 16.8926Z" fill="#050505"/>
<path d="M15.2416 18.9506C15.2355 18.935 15.228 18.92 15.2192 18.9058C15.2 18.9058 15.1712 18.9218 15.1616 18.9346C15.1502 18.9633 15.1502 18.9954 15.1616 19.0242C15.167 19.0417 15.1757 19.058 15.1872 19.0722C15.1899 19.0755 15.1933 19.0782 15.1972 19.08C15.2011 19.0819 15.2053 19.0829 15.2096 19.0829C15.2139 19.0829 15.2182 19.0819 15.222 19.08C15.2259 19.0782 15.2293 19.0755 15.232 19.0722C15.2464 19.0663 15.2587 19.0563 15.2672 19.0434C15.2768 19.021 15.2576 18.9826 15.2416 18.9506Z" fill="#050505"/>
<path d="M16.0384 19.2385C16.0407 19.2353 16.042 19.2314 16.042 19.2273C16.042 19.2233 16.0407 19.2194 16.0384 19.2161L16 19.2001C15.9951 19.1905 15.9872 19.1826 15.9776 19.1777C15.952 19.1777 15.9296 19.2001 15.92 19.2225C15.9136 19.2316 15.9092 19.2419 15.907 19.2528C15.9049 19.2637 15.905 19.2749 15.9074 19.2858C15.9098 19.2966 15.9145 19.3068 15.921 19.3158C15.9276 19.3247 15.936 19.3322 15.9456 19.3377C15.9744 19.3537 16.0032 19.3377 16.0256 19.3153C16.035 19.3052 16.0413 19.2925 16.0436 19.2789C16.0458 19.2652 16.044 19.2512 16.0384 19.2385Z" fill="#050505"/>
<path d="M16.9921 19.088C16.9797 19.0664 16.9606 19.0496 16.9377 19.04C16.9121 19.04 16.8865 19.0592 16.8769 19.0752C16.8754 19.0901 16.8754 19.1051 16.8769 19.12C16.8769 19.1648 16.9121 19.2672 16.9697 19.248C16.9868 19.2491 17.0038 19.2438 17.0174 19.2332C17.031 19.2226 17.0402 19.2074 17.0433 19.1904C17.0391 19.1512 17.0209 19.1149 16.9921 19.088Z" fill="#050505"/>
<path d="M17.1872 19.9809C17.1881 19.9692 17.1881 19.9575 17.1872 19.9457C17.1825 19.9326 17.1735 19.9213 17.1616 19.9137C17.1548 19.9054 17.146 19.8988 17.136 19.8945C17.1266 19.8944 17.1173 19.897 17.1093 19.9022C17.1013 19.9073 17.095 19.9147 17.0912 19.9233C17.085 19.9366 17.0823 19.9514 17.0836 19.966C17.0848 19.9807 17.0899 19.9947 17.0984 20.0068C17.1068 20.0188 17.1183 20.0284 17.1317 20.0345C17.1451 20.0407 17.1598 20.0432 17.1744 20.0417C17.1744 20.0417 17.2032 20.0417 17.2096 20.0193C17.2096 20.0193 17.1872 19.9873 17.1872 19.9809Z" fill="#050505"/>
<path d="M14.3072 16.3198C14.3086 16.289 14.2996 16.2586 14.2816 16.2334C14.2592 16.2014 14.2304 16.211 14.208 16.2334C14.193 16.2512 14.1821 16.2719 14.176 16.2942C14.163 16.3305 14.163 16.37 14.176 16.4062C14.178 16.4129 14.1816 16.4189 14.1866 16.4238C14.1916 16.4287 14.1977 16.4322 14.2043 16.4341C14.211 16.4361 14.2181 16.4363 14.2249 16.4347C14.2316 16.4332 14.2379 16.43 14.2432 16.4254C14.2573 16.4237 14.2705 16.4174 14.2808 16.4076C14.2912 16.3979 14.2982 16.385 14.3008 16.371C14.3066 16.3547 14.3088 16.3372 14.3072 16.3198Z" fill="#050505"/>
<path d="M15.056 16.451C15.0507 16.4405 15.0416 16.4324 15.0304 16.4286C15.0304 16.4286 15.0304 16.4126 15.0016 16.4126C14.9915 16.416 14.9824 16.4219 14.9751 16.4297C14.9678 16.4375 14.9627 16.4471 14.96 16.4574C14.9555 16.4672 14.9544 16.4783 14.9569 16.4888C14.9594 16.4993 14.9655 16.5087 14.974 16.5154C14.9825 16.522 14.993 16.5256 15.0039 16.5256C15.0147 16.5255 15.0252 16.5218 15.0336 16.515C15.043 16.5075 15.05 16.4975 15.054 16.4862C15.0579 16.4749 15.0586 16.4627 15.056 16.451Z" fill="#050505"/>
<path d="M15.1712 16.1089C15.1712 16.1089 15.1456 16.1089 15.136 16.1089C15.1208 16.1114 15.1067 16.1186 15.0958 16.1295C15.0849 16.1404 15.0777 16.1545 15.0752 16.1697C15.0722 16.1924 15.0769 16.2154 15.0885 16.2351C15.1001 16.2548 15.1179 16.2701 15.1392 16.2785C15.1487 16.283 15.1591 16.2854 15.1696 16.2854C15.1802 16.2854 15.1905 16.283 15.2 16.2785C15.2101 16.2692 15.218 16.2578 15.223 16.245C15.228 16.2323 15.23 16.2185 15.2288 16.2049C15.2279 16.1854 15.2221 16.1664 15.2121 16.1496C15.202 16.1329 15.188 16.1189 15.1712 16.1089Z" fill="#050505"/>
<path d="M14.2688 16.8574C14.2649 16.8552 14.2605 16.854 14.256 16.854C14.2515 16.854 14.2471 16.8552 14.2432 16.8574C14.2392 16.8557 14.2348 16.8548 14.2304 16.8548C14.226 16.8548 14.2216 16.8557 14.2176 16.8574C14.2106 16.8672 14.2068 16.879 14.2068 16.891C14.2068 16.9031 14.2106 16.9148 14.2176 16.9246C14.2176 16.9438 14.2432 16.963 14.2656 16.9534C14.2737 16.9484 14.2804 16.9415 14.2852 16.9333C14.29 16.9251 14.2927 16.9158 14.293 16.9063C14.2933 16.8968 14.2913 16.8873 14.287 16.8788C14.2828 16.8703 14.2766 16.8629 14.2688 16.8574Z" fill="#050505"/>
<path d="M13.6096 15.5713C13.6096 15.5713 13.6096 15.5713 13.5872 15.5713H13.568C13.5232 15.5713 13.5456 15.6577 13.568 15.6865C13.5904 15.7153 13.5936 15.7249 13.616 15.7249C13.6277 15.724 13.639 15.7196 13.6481 15.7121C13.6573 15.7047 13.6639 15.6946 13.6672 15.6833C13.6714 15.6609 13.6681 15.6377 13.6576 15.6174C13.6472 15.5971 13.6303 15.5809 13.6096 15.5713Z" fill="#050505"/>
<path d="M12.0159 15.3984C12.0108 15.3866 12.0033 15.3761 11.9939 15.3673C11.9846 15.3585 11.9736 15.3516 11.9615 15.3472C11.9615 15.3472 11.9327 15.3472 11.9295 15.3664C11.9179 15.3725 11.909 15.3829 11.9048 15.3955C11.9007 15.408 11.9015 15.4216 11.9071 15.4336C11.9104 15.4415 11.9151 15.4487 11.9212 15.4547C11.9272 15.4608 11.9344 15.4655 11.9423 15.4688C11.95 15.4736 11.9589 15.4762 11.9679 15.4762C11.977 15.4762 11.9859 15.4736 11.9935 15.4688C12.0022 15.463 12.0095 15.4554 12.015 15.4466C12.0206 15.4378 12.0241 15.4279 12.0255 15.4176C12.0232 15.4108 12.02 15.4043 12.0159 15.3984Z" fill="#050505"/>
<path d="M11.9744 19.9998C11.9631 19.9956 11.9506 19.9956 11.9392 19.9998C11.9312 19.9961 11.9225 19.9941 11.9136 19.9941C11.9048 19.9941 11.8961 19.9961 11.888 19.9998C11.824 20.0222 11.84 20.1022 11.888 20.1406C11.8949 20.1507 11.9036 20.1594 11.9136 20.1662H11.9392C11.9521 20.1667 11.9648 20.1629 11.9752 20.1553C11.9857 20.1478 11.9933 20.137 11.9968 20.1246C12.0053 20.1038 12.0077 20.081 12.0038 20.0589C11.9998 20.0368 11.9896 20.0163 11.9744 19.9998Z" fill="#050505"/>
<path d="M12.2112 20.515C12.2042 20.5039 12.1942 20.4951 12.1824 20.4894C12.1756 20.4839 12.1672 20.481 12.1584 20.481C12.1497 20.481 12.1412 20.4839 12.1344 20.4894C12.0896 20.5118 12.0928 20.5694 12.1088 20.6078C12.1111 20.618 12.1159 20.6276 12.1228 20.6355C12.1296 20.6435 12.1384 20.6497 12.1482 20.6535C12.158 20.6573 12.1686 20.6586 12.179 20.6573C12.1895 20.656 12.1994 20.6522 12.208 20.6462C12.2528 20.6014 12.2368 20.5534 12.2112 20.515Z" fill="#050505"/>
<path d="M12.7521 20.9598C12.7521 20.9342 12.7233 20.9022 12.6977 20.915C12.6721 20.9278 12.6497 20.9886 12.6593 21.0238C12.6678 21.0403 12.6812 21.0537 12.6977 21.0622C12.7169 21.0622 12.7361 21.0622 12.7489 21.0622C12.7626 21.0489 12.7706 21.0308 12.7712 21.0117C12.7718 20.9926 12.7649 20.974 12.7521 20.9598Z" fill="#050505"/>
<path d="M14.128 21.3185C14.112 21.3002 14.09 21.2883 14.0659 21.2848C14.0419 21.2813 14.0174 21.2864 13.9968 21.2993C13.975 21.3146 13.9572 21.335 13.9449 21.3587C13.9327 21.3823 13.9263 21.4086 13.9263 21.4353C13.9263 21.4619 13.9327 21.4882 13.9449 21.5119C13.9572 21.5355 13.975 21.5559 13.9968 21.5713C14.0081 21.5782 14.0207 21.5827 14.0337 21.5847C14.0468 21.5866 14.0602 21.586 14.073 21.5827C14.0858 21.5794 14.0979 21.5736 14.1084 21.5656C14.119 21.5576 14.1278 21.5475 14.1344 21.5361C14.1358 21.5201 14.1358 21.504 14.1344 21.4881V21.4657H14.1568C14.1667 21.441 14.1693 21.4139 14.1642 21.3878C14.1591 21.3617 14.1465 21.3376 14.128 21.3185Z" fill="#050505"/>
<path d="M14.768 21.213C14.7657 21.2058 14.7618 21.1993 14.7566 21.1938C14.7514 21.1883 14.7451 21.184 14.738 21.1813C14.731 21.1785 14.7234 21.1773 14.7159 21.1779C14.7084 21.1784 14.701 21.1805 14.6944 21.1842C14.6764 21.1956 14.6621 21.2119 14.653 21.2312C14.6439 21.2504 14.6405 21.2719 14.6432 21.293C14.6432 21.2988 14.6444 21.3044 14.6467 21.3097C14.649 21.315 14.6523 21.3197 14.6565 21.3236C14.6607 21.3275 14.6657 21.3305 14.6711 21.3324C14.6766 21.3343 14.6823 21.3351 14.688 21.3346C14.6979 21.3397 14.7089 21.3423 14.72 21.3423C14.7312 21.3423 14.7421 21.3397 14.752 21.3346C14.7611 21.3277 14.7687 21.3191 14.7744 21.3092C14.7802 21.2994 14.7839 21.2885 14.7854 21.2771C14.7868 21.2658 14.7861 21.2544 14.7831 21.2434C14.7801 21.2323 14.775 21.222 14.768 21.213Z" fill="#050505"/>
<path d="M15.1104 21.5361C15.0848 21.5137 15.0464 21.4785 15.0112 21.4785C14.9951 21.4782 14.9792 21.4812 14.9644 21.4873C14.9495 21.4933 14.936 21.5023 14.9248 21.5137C14.8672 21.5745 14.9248 21.6513 14.976 21.6801C14.9922 21.6869 15.01 21.689 15.0273 21.686C15.0446 21.6831 15.0607 21.6753 15.0738 21.6636C15.0869 21.6519 15.0963 21.6367 15.1011 21.6198C15.1059 21.6029 15.1058 21.585 15.1008 21.5681C15.1008 21.5681 15.1168 21.5425 15.1104 21.5361Z" fill="#050505"/>
<path d="M16.8704 22.4641C16.8704 22.4417 16.8352 22.3969 16.8096 22.4001C16.7744 22.4001 16.7424 22.4385 16.7328 22.4673C16.7232 22.4961 16.7552 22.5345 16.7776 22.5569C16.7851 22.5626 16.7938 22.5665 16.803 22.5685C16.8122 22.5705 16.8217 22.5704 16.8309 22.5682C16.8401 22.5661 16.8486 22.562 16.856 22.5561C16.8634 22.5503 16.8694 22.5429 16.8736 22.5345C16.881 22.524 16.8846 22.5115 16.8841 22.4987C16.8835 22.486 16.8787 22.4738 16.8704 22.4641Z" fill="#050505"/>
<path d="M14.3328 23.2862C14.3298 23.2828 14.3262 23.2801 14.322 23.2782C14.3179 23.2764 14.3134 23.2754 14.3088 23.2754C14.3043 23.2754 14.2998 23.2764 14.2957 23.2782C14.2915 23.2801 14.2878 23.2828 14.2848 23.2862C14.2592 23.3118 14.2688 23.3406 14.2848 23.3662C14.2833 23.3725 14.2833 23.3791 14.2848 23.3854L14.3104 23.411C14.336 23.4334 14.3712 23.411 14.3744 23.3758C14.3763 23.3585 14.3734 23.341 14.3661 23.3253C14.3587 23.3095 14.3472 23.296 14.3328 23.2862Z" fill="#050505"/>
<path d="M15.712 14.8319C15.712 14.8063 15.6544 14.8031 15.632 14.8095C15.6081 14.8207 15.5891 14.8401 15.5785 14.8643C15.5679 14.8884 15.5664 14.9155 15.5744 14.9407C15.5968 14.9887 15.664 14.9631 15.6928 14.9407C15.7216 14.9183 15.7536 14.8607 15.712 14.8319Z" fill="#050505"/>
<path d="M16.7712 14.4194C16.7578 14.42 16.7452 14.4257 16.736 14.4354C16.727 14.4412 16.7193 14.4488 16.7136 14.4578C16.7123 14.4706 16.7123 14.4835 16.7136 14.4962C16.7086 14.5085 16.7086 14.5223 16.7136 14.5346C16.7218 14.5394 16.7312 14.5419 16.7408 14.5419C16.7503 14.5419 16.7597 14.5394 16.768 14.5346C16.7805 14.5299 16.7917 14.5221 16.8006 14.5121C16.8096 14.5021 16.8159 14.4901 16.8192 14.477C16.8194 14.4633 16.8146 14.4499 16.8058 14.4394C16.797 14.4288 16.7847 14.4217 16.7712 14.4194Z" fill="#050505"/>
<path d="M18.1377 14.4002C18.1294 14.3864 18.1197 14.3736 18.1089 14.3618C18.1054 14.355 18.0996 14.3496 18.0926 14.3467C18.0856 14.3438 18.0777 14.3434 18.0705 14.3458C18.0612 14.3444 18.0517 14.3462 18.0436 14.3508C18.0355 14.3555 18.0292 14.3627 18.0257 14.3714C18.0149 14.3887 18.0092 14.4086 18.0092 14.429C18.0092 14.4494 18.0149 14.4693 18.0257 14.4866C18.0257 14.4866 18.0513 14.5218 18.0737 14.5186C18.0869 14.5173 18.0995 14.5125 18.1102 14.5046C18.1209 14.4967 18.1293 14.4861 18.1345 14.4738C18.1402 14.4625 18.1434 14.45 18.144 14.4373C18.1445 14.4246 18.1424 14.412 18.1377 14.4002Z" fill="#050505"/>
<path d="M17.8911 14.7201C17.8852 14.7142 17.8771 14.7109 17.8687 14.7109C17.8604 14.7109 17.8523 14.7142 17.8463 14.7201C17.8395 14.7273 17.8342 14.7359 17.8309 14.7452C17.8276 14.7546 17.8263 14.7646 17.8271 14.7745C17.8294 14.7816 17.8343 14.7876 17.8409 14.7912C17.8474 14.7948 17.8551 14.7957 17.8623 14.7937C17.8695 14.7913 17.8761 14.7874 17.8816 14.7822C17.8871 14.7771 17.8914 14.7707 17.8941 14.7637C17.8969 14.7566 17.898 14.7491 17.8975 14.7416C17.897 14.734 17.8948 14.7267 17.8911 14.7201Z" fill="#050505"/>
<path d="M18.832 14.1985L18.8128 14.1697C18.8128 14.1441 18.7744 14.1313 18.752 14.1697C18.745 14.1831 18.7413 14.1979 18.7413 14.2129C18.7413 14.228 18.745 14.2428 18.752 14.2561C18.752 14.2849 18.784 14.3201 18.816 14.3105C18.8241 14.3083 18.8314 14.3038 18.8371 14.2975C18.8427 14.2913 18.8465 14.2836 18.848 14.2753C18.8528 14.2623 18.8539 14.2482 18.8511 14.2346C18.8483 14.221 18.8416 14.2085 18.832 14.1985Z" fill="#050505"/>
<path d="M19.9488 14.467C19.9488 14.467 19.92 14.4446 19.904 14.467C19.8817 14.4784 19.8646 14.4978 19.856 14.5214C19.8368 14.6014 19.9456 14.7134 20.0128 14.6334C20.08 14.5534 19.9904 14.4958 19.9488 14.467Z" fill="#050505"/>
<path d="M20.5184 15.8944V15.8784C20.4992 15.856 20.4736 15.7376 20.4224 15.7696C20.3712 15.8016 20.384 15.8624 20.3968 15.9104C20.4096 15.9584 20.4672 16.0288 20.5184 15.9616C20.524 15.9513 20.527 15.9397 20.527 15.928C20.527 15.9163 20.524 15.9047 20.5184 15.8944Z" fill="#050505"/>
<path d="M20.5472 16.3585C20.5472 16.3585 20.5632 16.3585 20.5472 16.3361C20.5285 16.33 20.5083 16.33 20.4896 16.3361C20.4746 16.3386 20.4605 16.3454 20.4492 16.3556C20.4379 16.3658 20.4297 16.379 20.4256 16.3937C20.4199 16.405 20.4176 16.4177 20.4188 16.4302C20.4199 16.4428 20.4246 16.4548 20.4323 16.4648C20.44 16.4748 20.4504 16.4825 20.4622 16.4869C20.474 16.4913 20.4869 16.4923 20.4992 16.4897C20.5196 16.4818 20.5364 16.4667 20.5464 16.4472C20.5565 16.4278 20.559 16.4053 20.5536 16.3841L20.5472 16.3585Z" fill="#050505"/>
<path d="M19.3184 16.96C19.3149 16.9564 19.3106 16.9536 19.306 16.9517C19.3013 16.9497 19.2963 16.9487 19.2912 16.9487C19.2862 16.9487 19.2812 16.9497 19.2765 16.9517C19.2718 16.9536 19.2676 16.9564 19.264 16.96C19.2491 16.9692 19.2372 16.9826 19.2298 16.9986C19.2224 17.0145 19.2198 17.0323 19.2224 17.0496C19.2224 17.0816 19.2448 17.1072 19.28 17.104C19.2988 17.1011 19.3163 17.0925 19.33 17.0793C19.3438 17.0662 19.3531 17.0491 19.3568 17.0304C19.3579 17.0162 19.3549 17.002 19.3481 16.9895C19.3412 16.977 19.331 16.9668 19.3184 16.96Z" fill="#050505"/>
<path d="M18.608 16.7391C18.6034 16.7214 18.5942 16.7052 18.5813 16.6923C18.5683 16.6793 18.5521 16.6701 18.5344 16.6655C18.4896 16.6655 18.4544 16.6943 18.4448 16.7359C18.4378 16.7556 18.4382 16.7771 18.4458 16.7965C18.4535 16.8159 18.4679 16.8319 18.4864 16.8415C18.4975 16.8461 18.5095 16.848 18.5215 16.847C18.5335 16.8461 18.5451 16.8424 18.5553 16.8361C18.5656 16.8299 18.5743 16.8214 18.5806 16.8112C18.587 16.801 18.5909 16.7895 18.592 16.7775C18.5981 16.7733 18.6028 16.7675 18.6057 16.7607C18.6085 16.7539 18.6093 16.7464 18.608 16.7391Z" fill="#050505"/>
<path d="M21.3216 16.5118C21.3279 16.4898 21.3279 16.4665 21.3216 16.4446C21.3126 16.4281 21.2997 16.4139 21.2841 16.4033C21.2686 16.3928 21.2507 16.3861 21.232 16.3838C21.2213 16.3807 21.2098 16.3813 21.1994 16.3853C21.189 16.3894 21.1802 16.3967 21.1744 16.4062C21.1489 16.433 21.1348 16.4685 21.1348 16.5054C21.1348 16.5423 21.1489 16.5778 21.1744 16.6046C21.1874 16.6154 21.203 16.6227 21.2197 16.6257C21.2364 16.6288 21.2535 16.6276 21.2696 16.6221C21.2856 16.6167 21.3 16.6072 21.3114 16.5946C21.3227 16.582 21.3306 16.5667 21.3344 16.5502C21.3342 16.5364 21.3297 16.523 21.3216 16.5118Z" fill="#050505"/>
<path d="M21.312 18.3327C21.3135 18.3242 21.3135 18.3156 21.312 18.3071C21.312 18.2719 21.2544 18.2815 21.2384 18.3071C21.2268 18.3249 21.2191 18.3449 21.2158 18.3659C21.2125 18.3868 21.2137 18.4082 21.2192 18.4287C21.2192 18.4639 21.2608 18.5119 21.3056 18.4959C21.3504 18.4799 21.344 18.3871 21.312 18.3327Z" fill="#050505"/>
<path d="M21.7984 18.5601C21.7894 18.5478 21.7786 18.537 21.7664 18.5281C21.7589 18.5228 21.7499 18.52 21.7408 18.52C21.7316 18.52 21.7227 18.5228 21.7152 18.5281C21.7015 18.5422 21.6916 18.5597 21.6866 18.5787C21.6815 18.5977 21.6815 18.6178 21.6864 18.6369C21.6895 18.6501 21.6962 18.6622 21.7056 18.6721H21.7248C21.7353 18.6748 21.7463 18.6748 21.7568 18.6721C21.7568 18.6721 21.8016 18.6529 21.8048 18.6401C21.8132 18.6136 21.8109 18.5848 21.7984 18.5601Z" fill="#050505"/>
<path d="M20.336 18.6463C20.336 18.6175 20.2912 18.5919 20.2592 18.6303C20.2457 18.6514 20.237 18.6753 20.2337 18.7002C20.2304 18.725 20.2325 18.7503 20.24 18.7743C20.24 18.8351 20.3264 18.8735 20.3648 18.8095C20.3801 18.7833 20.3856 18.7525 20.3803 18.7226C20.3751 18.6927 20.3593 18.6656 20.336 18.6463Z" fill="#050505"/>
<path d="M19.7281 18.3742C19.7281 18.339 19.6833 18.2686 19.6417 18.2846C19.6001 18.3006 19.5873 18.3518 19.5841 18.3966C19.5802 18.4209 19.5822 18.4458 19.59 18.4692C19.5978 18.4926 19.6111 18.5138 19.6289 18.531C19.6769 18.5758 19.7377 18.5118 19.7409 18.4638C19.7451 18.4488 19.7461 18.433 19.7439 18.4176C19.7417 18.4022 19.7363 18.3874 19.7281 18.3742Z" fill="#050505"/>
<path d="M19.0208 18.8801C19.0156 18.8596 19.0069 18.8401 18.9952 18.8225V18.8065C18.96 18.7553 18.912 18.8065 18.9056 18.8513C18.8992 18.8961 18.9056 18.9857 18.9792 18.9633C18.9943 18.9559 19.0065 18.9438 19.014 18.9287C19.0215 18.9137 19.0239 18.8966 19.0208 18.8801Z" fill="#050505"/>
<path d="M20.2976 21.2094C20.2946 21.1952 20.288 21.182 20.2784 21.171C20.2496 21.1358 20.2112 21.171 20.1984 21.1998C20.1904 21.2248 20.1904 21.2516 20.1984 21.2766C20.2016 21.2854 20.2067 21.2934 20.2134 21.2999C20.2201 21.3065 20.2283 21.3113 20.2372 21.3142C20.2461 21.3171 20.2556 21.3178 20.2649 21.3164C20.2741 21.315 20.2829 21.3115 20.2906 21.3061C20.2983 21.3007 20.3046 21.2937 20.3091 21.2854C20.3136 21.2772 20.3161 21.2681 20.3165 21.2587C20.3169 21.2493 20.3151 21.24 20.3112 21.2315C20.3074 21.2229 20.3017 21.2154 20.2944 21.2094H20.2976Z" fill="#050505"/>
<path d="M20.736 21.4848C20.7267 21.488 20.7183 21.493 20.7111 21.4996C20.704 21.5062 20.6983 21.5143 20.6944 21.5232C20.6803 21.5481 20.673 21.5762 20.673 21.6048C20.673 21.6334 20.6803 21.6615 20.6944 21.6864C20.6944 21.7152 20.7488 21.7088 20.7712 21.6864C20.7863 21.676 20.7988 21.6622 20.8077 21.6461C20.8166 21.6299 20.8216 21.612 20.8224 21.5936C20.8192 21.5584 20.8 21.4688 20.736 21.4848Z" fill="#050505"/>
<path d="M21.7888 20.5183C21.7668 20.5311 21.7505 20.5518 21.7434 20.5762C21.7362 20.6006 21.7387 20.6269 21.7504 20.6495C21.7792 20.7071 21.856 20.6815 21.8752 20.6271C21.9328 20.5663 21.8464 20.4799 21.7888 20.5183Z" fill="#050505"/>
<path d="M10.88 16.4833C10.8512 16.4417 10.8096 16.3745 10.7712 16.3105C10.7751 16.4283 10.7611 16.5459 10.7296 16.6593C10.7968 16.6913 10.8896 16.7425 10.9888 16.7969C11.168 16.8961 10.9632 16.5985 10.88 16.4833Z" fill="#6C260C"/>
<path d="M10.3584 18.5182C10.2364 18.4281 10.1286 18.3202 10.0384 18.1982C10.0249 18.3228 10.0483 18.4485 10.1056 18.5598C10.3456 18.6526 10.4096 18.5598 10.3584 18.5182Z" fill="#6C260C"/>
<path d="M15.4048 5.3986L15.2416 5.6066L15.1264 5.3698C15.1247 5.36242 15.1247 5.35477 15.1264 5.3474C15.1264 5.3282 15.1264 5.3218 15.104 5.3474L15.04 5.2002C15.04 5.2002 15.0144 5.2002 15.0176 5.2194C15.0208 5.2386 15.0656 5.3218 15.0912 5.3762C15.0428 5.43575 14.9989 5.49886 14.96 5.565C14.9376 5.5154 14.9194 5.46402 14.9056 5.4114C14.9056 5.3954 14.88 5.4114 14.88 5.4274C14.888 5.49244 14.9053 5.55601 14.9312 5.6162C14.864 5.741 14.8192 5.869 14.7616 6.0002C14.7616 6.0162 14.7616 6.0002 14.784 6.0002C14.832 5.901 14.8704 5.7986 14.9184 5.6802L14.9472 5.629C14.982 5.70666 15.0226 5.78154 15.0688 5.853C15.0272 5.9362 14.992 6.0226 14.9472 6.1058C14.9472 6.1282 14.9472 6.1282 14.9696 6.1058C15.0144 6.0322 15.0496 5.9554 15.088 5.8754C15.0961 5.89026 15.1057 5.90421 15.1168 5.917C15.1168 5.9362 15.1584 5.917 15.152 5.8882L15.1168 5.821C15.1499 5.75903 15.1885 5.70013 15.232 5.645C15.2576 5.6962 15.2864 5.7442 15.3152 5.7922C15.344 5.8402 15.3536 5.7922 15.3472 5.7666L15.2608 5.6066C15.3216 5.533 15.3792 5.4594 15.4304 5.3858C15.44 5.389 15.4176 5.3826 15.4048 5.3986ZM15.1328 5.7602C15.1171 5.77916 15.1032 5.79951 15.0912 5.821C15.0528 5.7474 15.008 5.6738 14.9696 5.597C15.008 5.533 15.0528 5.469 15.0976 5.4082L15.2128 5.6482L15.1328 5.7602Z" fill="#8E785A"/>
<g style="mix-blend-mode:screen">
<path d="M12.2591 22.8958C12.1375 22.547 11.9807 22.0542 11.8271 21.7214C11.6647 21.3361 11.557 20.9301 11.5071 20.515C11.4496 20.1338 11.3284 19.7649 11.1487 19.4238C10.9695 19.1038 10.7007 18.8094 10.5343 18.4638C10.4544 18.2617 10.4424 18.039 10.5001 17.8295C10.5579 17.6199 10.6822 17.4349 10.8543 17.3022C10.9554 17.2307 11.036 17.134 11.0882 17.0217C11.1404 16.9095 11.1624 16.7855 11.1519 16.6622C11.0975 16.2302 10.7391 15.923 11.0111 15.4718C11.1455 15.2478 11.3311 15.0814 11.3311 14.803C11.3311 14.771 11.2831 14.803 11.2799 14.8286C11.2383 15.1774 10.9087 15.3374 10.8159 15.6574C10.7578 15.9935 10.8141 16.3395 10.9759 16.6398C11.1295 17.0814 10.6943 17.235 10.4991 17.5518C10.3308 17.8252 10.2746 18.1531 10.3423 18.467C10.4927 18.8095 10.6851 19.132 10.9151 19.427C11.1261 19.8007 11.264 20.2112 11.3215 20.6366C11.37 21.0111 11.4557 21.3799 11.5775 21.7374C11.731 22.1214 11.9263 22.4873 12.1599 22.8286C12.2111 22.8926 12.2783 22.9534 12.2591 22.8958Z" fill="#944620"/>
<path d="M14.4672 23.9996C14.0696 23.9585 13.6871 23.8248 13.3504 23.6092C13.0862 23.3456 12.7789 23.1291 12.4416 22.9692C12.4192 22.9692 12.4896 23.014 12.512 23.0268C12.832 23.2092 13.0016 23.5708 13.2704 23.8012C13.598 24.0365 13.9977 24.1497 14.4 24.1212C14.4416 24.1404 14.5312 24.0284 14.4672 23.9996Z" fill="#944620"/>
</g>
<path d="M18.6848 12.8706C18.6848 12.8706 17.9744 11.0338 18.7456 9.80176C18.3584 10.013 17.9904 11.149 18.4032 12.4578C18.56 12.9026 18.6976 12.9698 18.6848 12.8706Z" fill="#0B480C"/>
<path d="M18.656 12.845C18.656 12.845 18.6816 12.0194 19.2256 11.8498C19.1066 11.8427 18.988 11.869 18.8831 11.9257C18.7783 11.9824 18.6914 12.0673 18.6322 12.1707C18.5729 12.2742 18.5438 12.3921 18.548 12.5112C18.5522 12.6304 18.5896 12.7459 18.656 12.845Z" fill="#4B8B2D"/>
<path d="M18.5408 12.7234C18.2921 12.4907 17.9845 12.3302 17.6512 12.2594C17.8816 12.0866 18.4704 12.397 18.5408 12.7234Z" fill="#4B8B2D"/>
<path d="M18.4032 12.4578C18.1914 12.0525 17.8984 11.6952 17.5424 11.4082C17.9008 11.4242 18.464 12.1602 18.4032 12.4578Z" fill="#4B8B2D"/>
<path d="M18.4416 12.1793C18.4416 12.1793 18.4992 11.5617 19.0464 11.4817C18.688 11.3505 18.1952 11.5905 18.4416 12.1793Z" fill="#68B42E"/>
<path d="M18.368 11.4402C18.3886 11.3441 18.4301 11.2538 18.4896 11.1755C18.5491 11.0973 18.625 11.0332 18.7121 10.9877C18.7992 10.9422 18.8952 10.9164 18.9933 10.9122C19.0915 10.908 19.1894 10.9255 19.28 10.9634C18.7776 10.6818 18.2176 10.8034 18.368 11.4402Z" fill="#4B8B2D"/>
<path d="M18.2752 11.7151C18.116 11.4795 17.9061 11.2827 17.6608 11.1391C17.92 11.0751 18.3264 11.5199 18.2752 11.7151Z" fill="#4B8B2D"/>
<path d="M18.3232 11.0594C18.4319 10.8673 18.5774 10.6985 18.7515 10.5629C18.9256 10.4272 19.1248 10.3274 19.3376 10.269C19.5808 10.2402 18.4288 9.9202 18.3232 11.0594Z" fill="#4B8B2D"/>
<path d="M18.24 11.2546C18.0901 10.9506 17.8323 10.7133 17.5168 10.589C17.7568 10.4738 18.3136 10.8994 18.24 11.2546Z" fill="#68B42E"/>
<path d="M18.304 10.8254C18.0888 10.4996 17.957 10.126 17.92 9.73737C17.92 9.58377 17.648 10.115 18.288 10.931C18.2907 10.8954 18.296 10.8601 18.304 10.8254Z" fill="#4B8B2D"/>
<path d="M18.3264 10.701C18.2589 10.3944 18.2416 10.0788 18.2752 9.7666C18.1796 9.90623 18.1328 10.0735 18.142 10.2425C18.1513 10.4115 18.2161 10.5727 18.3264 10.701Z" fill="#68B42E"/>
<path d="M18.448 11.9649C18.448 11.9649 18.5728 11.4913 18.9824 11.4657C18.7232 11.4049 18.4864 11.6545 18.448 11.9649Z" fill="#ABDB91"/>
<path d="M18.4128 10.8418C18.4977 10.68 18.6202 10.5409 18.77 10.4363C18.9198 10.3316 19.0925 10.2644 19.2736 10.2402C19.0866 10.2436 18.9048 10.3026 18.7515 10.4097C18.5982 10.5169 18.4803 10.6673 18.4128 10.8418Z" fill="#ABDB91"/>
<path d="M17.7184 11.1582C17.9309 11.2703 18.1107 11.4357 18.24 11.6382C18.1293 11.4209 17.9442 11.2505 17.7184 11.1582Z" fill="#ABDB91"/>
<path d="M10.8064 24.0928C10.8064 24.0928 10.6432 22.2336 8.80005 22.1056C9.92005 21.9232 11.0592 22.8704 10.8064 24.0928Z" fill="#D2A677"/>
<path d="M10.6688 23.4274C10.2708 23.1325 9.80136 22.9491 9.30884 22.8962C9.83684 22.7426 10.672 23.0402 10.6688 23.4274Z" fill="#7FA95F"/>
<path d="M10.7456 23.7214C10.554 23.6172 10.3346 23.5757 10.1182 23.6027C9.90182 23.6297 9.69932 23.7238 9.53918 23.8718C9.95838 23.2414 10.7648 23.2862 10.7456 23.7214Z" fill="#4B8B2D"/>
<path d="M10.3456 22.8382C9.90519 22.6665 9.42978 22.6039 8.95996 22.6558C9.25756 22.4222 10.208 22.467 10.3456 22.8382Z" fill="#68B42E"/>
<path d="M10.4225 22.9633C10.4225 22.9633 9.80806 21.7665 9.36646 21.5425C9.92006 21.7057 10.5601 22.6753 10.4225 22.9633Z" fill="#4B8B2D"/>
<path d="M10.608 23.0401C10.6107 22.6039 10.4825 22.177 10.24 21.8145C10.4849 21.9991 10.6682 22.2534 10.7658 22.5441C10.8635 22.8348 10.8709 23.1482 10.7872 23.4433C10.7409 23.3033 10.6808 23.1682 10.608 23.0401Z" fill="#68B42E"/>
<path d="M10.816 23.8302C10.9661 23.4212 11.1824 23.0396 11.456 22.7006C11.0528 22.6686 10.7744 23.5198 10.7744 23.5198L10.816 23.8302Z" fill="#458B28"/>
<path d="M10.7456 23.1679C10.751 22.7419 10.621 22.325 10.3744 21.9775C10.624 22.0799 10.8448 22.8255 10.7456 23.1679Z" fill="#ABDB91"/>
<path d="M10.208 22.7391C9.86138 22.6121 9.49005 22.5672 9.12317 22.6079C9.48832 22.5125 9.87609 22.5594 10.208 22.7391Z" fill="#ABDB91"/>
</g>
<defs>
<clipPath id="clip0_126_14270">
<rect width="32" height="32" fill="white"/>
</clipPath>
</defs>
</svg>
