<svg width="32" height="32" viewBox="0 0 32 32" fill="none" xmlns="http://www.w3.org/2000/svg">
<g clip-path="url(#clip0_126_14061)">
<path d="M32.0001 15.8625C32.0272 19.0269 31.1153 22.1284 29.3797 24.7746C27.6441 27.4208 25.1628 29.4929 22.2495 30.7288C19.3363 31.9647 16.1219 32.309 13.013 31.7181C9.90406 31.1272 7.04019 29.6276 4.78355 27.409C2.52691 25.1904 0.978855 22.3524 0.335162 19.254C-0.30853 16.1556 -0.0189499 12.9358 1.16728 10.002C2.35351 7.06813 4.38312 4.55194 6.99942 2.77161C9.61572 0.991281 12.7012 0.0267805 15.8657 8.19236e-05C20.1086 -0.0357158 24.1921 1.61532 27.2178 4.59004C30.2435 7.56476 31.9637 11.6195 32.0001 15.8625Z" fill="#F4F4F4"/>
<path d="M15.872 1.08802C19.5608 1.05943 23.1287 2.40207 25.8835 4.85546C28.6384 7.30884 30.3837 10.698 30.7808 14.3655C31.178 18.033 30.1987 21.7173 28.033 24.7035C25.8672 27.6898 22.6695 29.7651 19.0601 30.5269C15.4506 31.2886 11.687 30.6825 8.49918 28.8261C5.3114 26.9697 2.92683 23.9954 1.8081 20.4802C0.689364 16.965 0.916237 13.1596 2.4447 9.80222C3.97316 6.44485 6.69423 3.77492 10.08 2.31042C11.909 1.51816 13.8788 1.10243 15.872 1.08802ZM15.872 0.716824C12.8493 0.742251 9.90199 1.66347 7.40285 3.36399C4.90371 5.0645 2.96498 7.46793 1.83182 10.2703C0.698667 13.0727 0.421992 16.1482 1.03679 19.1078C1.65158 22.0675 3.13023 24.7783 5.28573 26.8976C7.44124 29.0168 10.1768 30.4493 13.1464 31.0138C16.1161 31.5783 19.1864 31.2495 21.9692 30.069C24.752 28.8885 27.1222 26.9093 28.78 24.3816C30.4379 21.854 31.309 18.8915 31.2832 15.8688C31.2477 11.8162 29.6044 7.94362 26.7144 5.10231C23.8245 2.26101 19.9246 0.683581 15.872 0.716824Z" fill="#006EC3"/>
<path d="M15.8784 1.60011C19.697 1.56772 23.3721 3.05344 26.0954 5.7305C28.8187 8.40756 30.3671 12.0567 30.4 15.8753C30.4267 19.1967 29.3043 22.4252 27.2231 25.0138C25.1418 27.6024 22.2297 29.3919 18.9801 30.0792C15.7305 30.7665 12.3432 30.3092 9.39211 28.785C6.44103 27.2607 4.10762 24.7631 2.78721 21.7153C1.84399 19.5342 1.4552 17.1536 1.6555 14.7858C1.85579 12.418 2.63895 10.1365 3.93514 8.14484C5.23133 6.15319 7.00025 4.51327 9.08416 3.37132C11.1681 2.22936 13.5022 1.62087 15.8784 1.60011ZM15.8784 1.44971C13.0029 1.47384 10.1992 2.35003 7.82159 3.96748C5.44402 5.58493 3.59941 7.87102 2.52097 10.5367C1.44253 13.2024 1.17869 16.128 1.76281 18.9437C2.34693 21.7593 3.75277 24.3385 5.8026 26.3553C7.85244 28.372 10.4542 29.7356 13.279 30.2738C16.1037 30.812 19.0247 30.5006 21.6725 29.3789C24.3203 28.2572 26.576 26.3756 28.1545 23.972C29.7331 21.5685 30.5635 18.7508 30.5408 15.8753C30.5028 12.0219 28.937 8.34101 26.1873 5.64109C23.4376 2.94117 19.7287 1.4429 15.8752 1.47531L15.8784 1.44971Z" fill="#006EC3"/>
<path d="M26.992 15.9074C27.0103 18.0813 26.3835 20.2118 25.1909 22.0295C23.9984 23.8472 22.2936 25.2704 20.2922 26.1193C18.2908 26.9681 16.0826 27.2044 13.9469 26.7983C11.8112 26.3922 9.8439 25.3618 8.29374 23.8376C6.74358 22.3134 5.68021 20.3638 5.23808 18.2353C4.79596 16.1067 4.99494 13.8949 5.80986 11.8794C6.62478 9.86393 8.01905 8.13538 9.81636 6.91232C11.6137 5.68926 13.7333 5.02661 15.9072 5.00818C18.8222 4.98432 21.6274 6.11904 23.7061 8.16287C25.7847 10.2067 26.9666 12.9924 26.992 15.9074Z" fill="#DADADA"/>
<path d="M26.7584 15.9072C26.7767 18.0349 26.1636 20.1203 24.9968 21.8995C23.8299 23.6788 22.1616 25.0721 20.2029 25.9033C18.2441 26.7344 16.0829 26.9661 13.9925 26.569C11.9022 26.1719 9.97646 25.1638 8.45897 23.6723C6.94148 22.1808 5.90036 20.2727 5.46724 18.1895C5.03413 16.1063 5.22848 13.9414 6.02573 11.9686C6.82297 9.99585 8.18729 8.30378 9.94618 7.10639C11.7051 5.90899 13.7795 5.26005 15.9072 5.24161C17.32 5.22938 18.7214 5.49555 20.0314 6.02493C21.3414 6.55431 22.5342 7.33654 23.5418 8.32694C24.5495 9.31734 25.3522 10.4965 25.9041 11.7972C26.456 13.0978 26.7463 14.4944 26.7584 15.9072Z" fill="#F4F4F4"/>
<path d="M22.3712 19.4882C22.144 19.5746 22.2656 19.7698 22.4 19.8882C22.5344 20.0066 22.7488 19.8402 22.7488 19.8402C23.024 19.629 23.3888 19.4146 23.3312 19.3282C23.2736 19.2418 23.152 19.2834 22.9056 19.3282C22.7245 19.3713 22.5461 19.4247 22.3712 19.4882Z" fill="#809F20"/>
<path d="M17.1104 20.7459C15.7327 21.1225 14.3858 21.6039 13.0816 22.1859C12.6528 22.4067 13.0464 23.0179 13.0464 23.0179C13.2288 23.2643 13.3472 23.3987 14.4128 23.3379C15.5492 23.2666 16.6655 23.0048 17.7152 22.5635C19.0368 22.0387 20.4576 21.5331 21.5264 20.9955C22.5952 20.4579 22.3552 20.2115 22.6208 19.9683C22.6624 19.9331 22.7104 19.8915 22.7616 19.8531C22.7616 19.8531 22.5472 20.0163 22.4128 19.8979C22.2784 19.7795 22.1568 19.5779 22.384 19.4979C22.5608 19.432 22.7414 19.3765 22.9248 19.3315C22.6272 19.3699 22.1856 19.4563 21.6448 19.5523C20.6144 19.7187 19.2 20.1379 17.1104 20.7459Z" fill="#648C08"/>
<path d="M16.0768 22.7776C16.0768 22.7776 16.4576 22.6368 16.7456 22.56C17.0336 22.4832 17.216 22.4192 16.9728 22.6528C16.8177 22.8297 16.6192 22.9632 16.3968 23.04C16.2208 23.088 16.0768 23.0976 15.9744 22.9952C15.872 22.8928 15.968 22.8192 16.0768 22.7776Z" fill="#809F20"/>
<g style="mix-blend-mode:multiply" opacity="0.5">
<path d="M21.6256 19.5393C20.6144 19.7185 19.2128 20.1377 17.1104 20.7457C16.4864 20.9281 15.9136 21.1073 15.408 21.2769C16.688 21.1809 17.936 21.0785 19.1968 20.9569C19.936 20.8769 20.7552 20.7713 21.3952 20.3617C21.6958 20.157 22.0177 19.9854 22.3552 19.8497C22.2464 19.7313 22.1824 19.5777 22.3808 19.5009C22.5576 19.4349 22.7382 19.3794 22.9216 19.3345C22.6208 19.3569 22.1792 19.4433 21.6256 19.5393Z" fill="#648C08"/>
</g>
<g style="mix-blend-mode:multiply" opacity="0.5">
<path d="M15.4368 22.8932C14.912 22.8932 14.3904 22.8644 13.8656 22.8932C13.6398 22.9108 13.4129 22.9108 13.1872 22.8932C13.1084 22.8822 13.0303 22.8661 12.9536 22.8452C12.9797 22.9073 13.0108 22.9672 13.0464 23.0244C13.2288 23.2708 13.3472 23.4052 14.4128 23.3444C15.2097 23.2979 15.9977 23.1517 16.7584 22.9092C16.32 22.8964 15.8752 22.8964 15.4368 22.8932Z" fill="#648C08"/>
</g>
<path d="M13.376 22.2305C13.376 22.2305 13.376 22.5505 13.7984 22.3681C14.2208 22.1857 14.6496 21.9457 14.6112 21.8465C14.5728 21.7473 13.952 21.7953 13.6512 21.9329C13.3504 22.0705 13.3568 22.1569 13.376 22.2305Z" fill="#809F20"/>
<path d="M17.0016 21.818C17.0016 21.818 16.7776 21.5236 16.9408 21.4564C17.3201 21.3285 17.7132 21.2458 18.112 21.21C18.1568 21.2644 17.7472 21.53 17.5136 21.6964C17.28 21.8628 17.1264 21.9812 17.0016 21.818Z" fill="#809F20"/>
<path d="M19.1776 22.0804C19.3979 21.9995 19.6118 21.9021 19.8176 21.7892C20.1376 21.6036 20.4064 21.4212 20.384 21.3668C20.3616 21.3124 19.6224 21.5076 19.2832 21.6068C18.7488 21.7604 18.8224 22.2244 19.1776 22.0804Z" fill="#809F20"/>
<path d="M22.16 20.346C22.16 20.346 22.2176 20.5956 22.4192 20.5188C22.7392 20.3604 23.0355 20.1579 23.2992 19.9172C23.4976 19.7124 23.28 19.7764 22.864 19.8628C22.448 19.9492 22.08 20.0612 22.16 20.346Z" fill="#809F20"/>
<path d="M21.3376 19.6611C21.3546 19.7198 21.3881 19.7723 21.434 19.8126C21.4799 19.8529 21.5364 19.8791 21.5968 19.8883C21.8112 19.9235 21.8496 19.8307 22.08 19.6611C22.3104 19.4915 22.6848 19.1267 22.24 19.2547C21.7952 19.3827 21.248 19.4915 21.3376 19.6611Z" fill="#809F20"/>
<path d="M12.6624 24.5121C12.6624 24.5121 12.6176 25.1105 12.9824 25.1745C14.127 25.2115 15.2728 25.1601 16.4096 25.0209C17.6 24.8833 17.584 24.8673 18.3296 24.7841C19.0752 24.7009 19.3632 24.7649 20.5696 24.5825C21.776 24.4001 21.9552 24.4129 21.8304 24.2433C21.7056 24.0737 21.5104 23.6801 19.9616 23.6321C18.4128 23.5841 12.8512 23.9073 12.6624 24.5121Z" fill="#648C08"/>
<g style="mix-blend-mode:multiply" opacity="0.5">
<path d="M17.2608 24.3681C18.1912 24.3005 19.111 24.1287 20.0032 23.8561C20.1856 23.7985 20.3616 23.7377 20.5408 23.6737C20.3712 23.6545 20.176 23.6385 19.952 23.6321C18.4192 23.5841 12.8512 23.9073 12.6624 24.5121C12.6546 24.6371 12.6675 24.7626 12.7008 24.8833C14.192 24.5249 15.7344 24.5089 17.2608 24.3681Z" fill="#648C08"/>
</g>
<path d="M15.36 25.1203C15.5637 25.0893 15.7634 25.0356 15.9552 24.9603C16.1728 24.8547 15.9168 24.7651 15.3792 24.7395C14.8416 24.7139 14.7616 24.7843 14.7616 24.9571C14.7616 25.1299 14.8448 25.2451 15.36 25.1203Z" fill="#809F20"/>
<path d="M18.3808 24.7971C18.5954 24.7961 18.8095 24.7769 19.0208 24.7395C19.2928 24.6819 19.2 24.5571 18.8128 24.5411C18.4256 24.5251 18.24 24.5123 18.24 24.6403C18.24 24.7683 18.272 24.7939 18.3808 24.7971Z" fill="#809F20"/>
<path d="M20.8512 24.3201C20.8512 24.3201 20.8512 24.5282 21.0304 24.5282C21.3003 24.5259 21.5674 24.4727 21.8176 24.3714C21.8656 24.301 21.6544 24.2401 21.1776 24.2145C20.8704 24.1697 20.8416 24.2113 20.8512 24.3201Z" fill="#788E1A"/>
<path d="M21.12 23.9457C21.12 23.9457 21.12 24.2945 21.392 24.2849C21.664 24.2753 22.1376 24.2209 22.1536 24.1345C22.1696 24.0481 21.0848 23.5681 21.12 23.9457Z" fill="#809F20"/>
<path d="M20.4608 24.3202C20.6307 24.3231 20.8006 24.3156 20.9696 24.2978C21.2096 24.269 21.4368 24.2562 20.9184 24.0802C20.4 23.9042 20.0576 23.8402 20.064 24.0482C20.0704 24.2562 20.096 24.2946 20.4608 24.3202Z" fill="#809F20"/>
<path d="M21.712 22.8292C21.712 22.8292 22.032 22.7332 21.9808 22.6308C21.9296 22.5284 21.6288 22.5124 21.3984 22.6052C21.168 22.698 21.2928 22.8996 21.712 22.8292Z" fill="#AAC844"/>
<path d="M11.6224 24.074C11.6224 24.074 11.6992 24.6404 12.1248 24.6404C12.5504 24.6404 13.792 24.49 14.544 24.426C15.296 24.362 15.7696 24.4452 16.9856 24.3108C18.2111 24.1711 19.4187 23.9041 20.5888 23.514C21.5488 23.1748 22.1408 22.9028 21.4592 22.7492C20.4913 22.621 19.5096 22.6393 18.5472 22.8036C17.9328 22.9412 13.9424 23.1844 12.3648 23.0212C11.648 22.986 11.488 23.4788 11.6224 24.074Z" fill="#84AE0C"/>
<path d="M14.9152 23.4276C15.1551 23.3664 15.4007 23.33 15.648 23.3188C16.0256 23.3188 16.176 23.3508 15.8752 23.5044C15.5744 23.658 15.1136 23.8436 14.96 23.7316C14.8064 23.6196 14.8384 23.466 14.9152 23.4276Z" fill="#AAC844"/>
<path d="M17.28 22.9984C17.28 22.9984 17.2607 23.3184 17.5519 23.2448C17.8547 23.1764 18.1473 23.0688 18.4223 22.9248C18.5951 22.8128 18.4383 22.7776 18.1023 22.8096C17.7664 22.8416 17.2608 22.8448 17.28 22.9984Z" fill="#AAC844"/>
<path d="M18.3904 24.0707C18.6951 24.0321 18.9952 23.9635 19.2864 23.8659C19.5168 23.7571 19.264 23.7987 18.8448 23.7347C18.128 23.6291 18.112 24.0355 18.3904 24.0707Z" fill="#AAC844"/>
<path d="M20.4256 23.568C20.4256 23.568 20.1248 23.68 20 23.4656C19.8752 23.2512 20.048 23.0848 20.352 23.104C20.656 23.1232 21.3312 23.2192 21.1296 23.2992L20.4256 23.568Z" fill="#AAC844"/>
<path d="M20.3584 22.8705C20.3584 22.8705 20.3808 23.0593 20.8576 22.9441C21.3344 22.8289 21.7344 22.6241 21.5584 22.5569C21.3824 22.4897 20.0992 22.4577 20.3584 22.8705Z" fill="#9FB739"/>
<path d="M19.84 22.685C19.84 22.685 19.936 23.005 20.208 22.9218C20.48 22.8386 21.0592 22.6754 20.8256 22.6018C20.592 22.5282 19.792 22.4386 19.84 22.685Z" fill="#AAC844"/>
<path d="M13.5296 24.4034C13.5296 24.4034 13.5712 24.685 13.9296 24.6402C14.3467 24.5989 14.7597 24.524 15.1648 24.4162C15.3568 24.333 14.5696 24.2498 14.1568 24.253C13.744 24.2562 13.472 24.253 13.5296 24.4034Z" fill="#AAC844"/>
<path d="M11.2 21.373C11.2 21.373 13.76 21.3058 15.8176 21.0946C17.8752 20.8834 17.7856 20.8962 18.8352 20.7458C19.7952 20.605 20.8384 20.4258 21.3056 20.3042C21.7728 20.1826 21.6256 20.0386 21.04 19.9138C20.0877 19.7633 19.1239 19.6969 18.16 19.7154C16.9984 19.7154 16.9408 19.645 16.3808 19.645C15.8208 19.645 14.5792 19.5394 12.9472 19.4818C11.3152 19.4242 10.784 19.3282 10.7072 19.7186C10.5792 20.4802 10.56 21.4114 11.2 21.373Z" fill="#84AE0C"/>
<path d="M12.9504 21.0147C12.9504 21.0147 13.5904 20.9059 13.9488 20.8067C14.3072 20.7075 14.3104 20.6947 13.7792 20.5219C13.248 20.3491 12.48 20.2307 12.48 20.5635C12.48 20.8963 12.5888 21.0691 12.9504 21.0147Z" fill="#AAC844"/>
<path d="M10.7008 19.7187C10.7008 19.7187 10.6336 20.0387 11.1296 19.8883C11.4548 19.7531 11.791 19.6461 12.1344 19.5683C12.4544 19.5171 12.2464 19.4755 11.8144 19.4435C11.3824 19.4115 10.7744 19.2995 10.7008 19.7187Z" fill="#AAC844"/>
<path d="M15.856 19.8052C15.856 19.8052 14.9952 20.1252 14.8672 19.9716C14.7392 19.818 14.6912 19.5972 15.1296 19.562C15.568 19.5268 16.432 19.562 16.2912 19.6388C16.1504 19.7049 16.005 19.7606 15.856 19.8052Z" fill="#AAC844"/>
<path d="M17.056 20.9699C16.7403 21.0418 16.4192 21.0868 16.096 21.1043C15.7184 21.1043 15.6256 20.9859 15.776 20.7363C15.9264 20.4867 16.1952 20.5923 16.4448 20.6851C16.6944 20.7779 16.8768 20.9315 17.056 20.9699Z" fill="#AAC844"/>
<path d="M19.9616 20.461C19.9616 20.461 19.9616 20.7298 20.4 20.6786C20.8384 20.6274 21.3184 20.5282 21.3152 20.4322C21.312 20.3362 20.9184 20.1314 20.4672 20.0738C20.016 20.0162 19.904 20.2082 19.9616 20.461Z" fill="#9FB739"/>
<path d="M20.0736 19.978C20.0736 19.978 20.1152 20.2308 20.4352 20.1828C20.6816 20.1386 20.9252 20.0798 21.1648 20.0068C21.3344 19.962 21.2608 19.8788 21.0048 19.8084C20.7488 19.738 19.936 19.6356 20.0736 19.978Z" fill="#97A833"/>
<path d="M19.616 19.8912C19.616 19.8912 19.4944 19.6832 19.7632 19.6672C20.032 19.6512 20.6432 19.6064 20.6912 19.7088C20.7392 19.8112 20.4256 19.936 20.1664 20.0096C19.9072 20.0832 19.7472 20.1056 19.616 19.8912Z" fill="#AAC844"/>
<path d="M20.48 20.4224C20.1661 20.5275 19.8453 20.6109 19.52 20.672C19.216 20.7104 19.0976 20.6432 19.1328 20.3776C19.168 20.112 19.3088 19.9936 19.648 20.0576C19.939 20.1451 20.2184 20.2676 20.48 20.4224Z" fill="#AAC844"/>
<path d="M19.0976 20.2946C19.0976 20.2946 18.1376 20.701 18.0128 20.429C17.888 20.157 17.9648 19.9234 18.4192 19.981C18.8736 20.0386 19.6288 20.0578 19.0976 20.2946Z" fill="#AAC844"/>
<g style="mix-blend-mode:screen">
<path d="M14.08 21.0047C13.0432 21.0783 12.0032 21.0303 10.9664 21.0655C10.9472 21.0655 10.9664 21.0943 10.9824 21.0943C11.4921 21.1577 12.0048 21.194 12.5184 21.2031C13.072 21.2031 13.6256 21.1871 14.1792 21.1583C15.2842 21.1095 16.3828 20.9639 17.4624 20.7231C17.5328 20.7071 17.4048 20.5759 17.3536 20.5823C16.2432 20.6911 15.1712 20.9279 14.08 21.0047Z" fill="#84AE0C"/>
<path d="M17.952 20.4961C17.8368 20.5185 17.7312 20.4961 17.632 20.5537C17.5968 20.5793 17.6672 20.6401 17.696 20.6273C17.824 20.5697 17.9616 20.6273 18.0928 20.5985C18.2526 20.5773 18.4094 20.5376 18.56 20.4801C18.6144 20.4577 18.5152 20.3809 18.4832 20.3809C18.3035 20.4059 18.126 20.4444 17.952 20.4961Z" fill="#84AE0C"/>
</g>
<g style="mix-blend-mode:screen">
<path d="M15.0208 24.1951C13.9808 24.2687 12.944 24.2207 11.9072 24.2559C11.888 24.2559 11.9072 24.2847 11.9072 24.2879C12.4171 24.3487 12.9297 24.384 13.4432 24.3935C13.9968 24.3935 14.5504 24.3935 15.104 24.3487C16.2134 24.3025 17.3165 24.1568 18.4 23.9135C18.4704 23.9135 18.3424 23.7663 18.2912 23.7727C17.1968 23.8815 16.1216 24.1215 15.0208 24.1951Z" fill="#84AE0C"/>
<path d="M18.9023 23.68C18.7903 23.7056 18.6815 23.68 18.5823 23.7376C18.5439 23.7632 18.6143 23.824 18.6463 23.8112C18.7743 23.7536 18.9087 23.8112 19.0431 23.7824C19.1988 23.7642 19.3521 23.7298 19.5007 23.68C19.5551 23.6576 19.4559 23.5776 19.4239 23.5776C19.2481 23.6008 19.0739 23.635 18.9023 23.68Z" fill="#84AE0C"/>
</g>
<g style="mix-blend-mode:multiply">
<path d="M26.88 12.9796C26.5216 12.8292 26.112 13.1204 25.8336 13.37C25.4631 13.7201 25.1306 14.1084 24.8416 14.5284C24.5216 14.9412 24.1824 15.274 23.856 15.658C23.7072 15.859 23.5469 16.0514 23.376 16.234C23.3196 16.2281 23.2673 16.202 23.2288 16.1604C23.088 16.01 23.1936 15.5204 23.2288 15.3412C23.3121 15.0371 23.3338 14.7194 23.2928 14.4068C23.1072 13.6676 22.2848 14.4068 22.0128 14.6756C21.7408 14.9444 21.52 15.3796 21.1872 15.4116C20.8544 15.4436 20.752 14.9668 20.7424 14.6468C20.773 14.129 20.8886 13.6198 21.0848 13.1396C21.3027 12.34 21.604 11.5657 21.984 10.8292C22.163 10.562 22.2961 10.2667 22.3776 9.95557C22.4364 9.74637 22.4136 9.52263 22.3138 9.32957C22.214 9.13652 22.0447 8.98855 21.84 8.91557C21.4784 8.82917 21.0816 9.23557 20.848 9.50757C20.5876 9.84814 20.3794 10.2256 20.2304 10.6276C20.0576 11.0468 19.9264 11.4788 19.7888 11.9076C19.7248 12.1092 19.6576 12.3076 19.5872 12.506C19.5171 12.7264 19.4605 12.9508 19.4176 13.178C19.4038 13.2695 19.3673 13.3562 19.3114 13.43C19.2555 13.5037 19.182 13.5623 19.0976 13.6004C18.832 13.6868 18.816 13.1364 18.8224 12.9604C18.86 12.4749 18.9371 11.9933 19.0528 11.5204C19.152 11.0916 19.2544 10.6564 19.3728 10.2404C19.4912 9.82437 19.6672 9.40197 19.7952 8.96037C19.8976 8.61477 20.2752 7.26437 19.728 7.16197C19.1808 7.05957 18.768 8.01317 18.4768 8.46437C18.0412 9.21841 17.6739 10.0098 17.3792 10.8292C17.3024 11.018 17.2224 11.2036 17.136 11.386L17.0112 11.6292C17.0112 11.6292 16.9088 11.8052 16.9248 11.7828C16.8352 11.9236 16.7456 12.0644 16.6528 12.1988C16.6016 12.2724 16.544 12.3396 16.4896 12.4068C16.5408 12.346 16.4896 12.3908 16.4384 12.4324C16.4235 12.43 16.4084 12.43 16.3936 12.4324C16.3839 12.412 16.3721 12.3927 16.3584 12.3748C16.3146 12.2935 16.2833 12.2061 16.2656 12.1156C16.1984 11.7029 16.2203 11.2807 16.3296 10.8772C16.4476 10.5008 16.5291 10.114 16.5728 9.72197C16.6239 9.46207 16.6239 9.19468 16.5728 8.93477C16.4256 8.61477 15.4752 10.6532 15.3984 10.8388C14.9376 11.9204 14.5088 13.0148 13.7984 13.8916C13.6896 14.026 13.4784 14.298 13.3184 14.314C12.9984 14.3428 12.9056 13.7636 12.8864 13.4916C12.8731 13.0809 12.9118 12.6702 13.0016 12.2692C13.2116 11.3977 13.4832 10.5422 13.8144 9.70917C14.0672 8.97637 14.4544 8.32997 14.7424 7.61637C14.8864 7.25157 15.0624 6.43237 14.6304 6.25637C14.3936 6.16037 14.1216 6.36197 13.9296 6.51557C13.6641 6.74254 13.4352 7.00915 13.2512 7.30597C12.845 7.97806 12.5165 8.69412 12.272 9.44037C11.9006 10.4494 11.6012 11.4834 11.376 12.5348C11.296 12.922 11.3184 13.3316 11.2288 13.7156C11.1904 13.8788 10.9856 14.4036 10.8128 14.3396C10.64 14.2756 10.7488 13.5492 10.7744 13.3796C10.83 13.0033 10.9299 12.6349 11.072 12.282C11.1488 12.09 11.7376 11.1012 11.5584 10.89C11.3376 10.6308 10.752 11.1428 10.6336 11.2964C10.24 11.8212 9.87516 12.8004 9.52956 13.402C9.32156 13.7636 8.96956 14.2884 8.56956 13.9908C8.16956 13.6932 8.13756 12.8932 8.24956 12.41C8.44796 11.6004 9.08156 11.114 9.61596 10.6692C9.98716 10.3492 10.9472 9.74437 10.976 9.06917C11.0048 8.39397 10.1504 8.89637 9.93596 9.04997C9.24401 9.59322 8.67933 10.2813 8.28156 11.066C7.82121 11.814 7.58264 12.6773 7.59356 13.5556C7.63836 14.1956 7.97436 14.9668 8.57916 14.8356C9.27036 14.6788 9.68316 13.5716 10.0032 12.9156C10.2006 12.4829 10.4229 12.0619 10.6688 11.6548C10.7744 11.4884 11.0208 11.034 11.2192 11.0148C11.616 10.9668 11.0016 12.0804 10.9216 12.2564C10.6208 12.8964 9.99996 13.9492 10.176 14.7492C10.32 15.3892 10.9056 15.1364 11.1968 14.8036C11.6384 14.3012 11.776 13.5236 11.8912 12.8356C12.1856 11.05 12.4064 9.21637 13.3536 7.75397C13.4976 7.52997 13.9552 6.72037 14.2432 6.89317C14.5312 7.06597 14.1088 7.64837 14.0064 7.82757C13.7408 8.31337 13.5067 8.81574 13.3056 9.33157C12.888 10.2578 12.5933 11.2346 12.4288 12.2372C12.32 12.9892 12.1664 14.362 12.8448 14.7972C13.4464 15.1908 13.9904 14.2852 14.3168 13.7764C14.752 13.0948 14.9984 12.2564 15.3248 11.4948C15.1168 12.2404 15.088 13.1268 15.4944 13.7668C15.7536 14.17 16.2528 14.0644 16.5792 13.9044C16.9625 13.6663 17.2804 13.3364 17.504 12.9444C17.9712 12.2372 18.1664 11.3444 18.3616 10.4708C18.4512 10.0644 18.5344 9.65157 18.64 9.24837C18.7514 8.83368 18.9126 8.43398 19.12 8.05797C19.1948 7.90245 19.2954 7.76072 19.4176 7.63877C19.6672 7.39877 19.7376 7.77957 19.7568 8.00037C19.7434 8.47117 19.647 8.93591 19.472 9.37317C19.2004 10.2255 18.975 11.0918 18.7968 11.9684C18.7235 12.3492 18.6711 12.7338 18.64 13.1204C18.6153 13.2542 18.6252 13.392 18.6689 13.5209C18.7126 13.6497 18.7886 13.7652 18.8896 13.8564C19.28 14.1444 19.7312 13.5716 19.9616 13.2516C20.3233 12.752 20.6191 12.2077 20.8416 11.6324C20.9056 11.466 20.9312 11.2804 21.008 11.1236C21.0848 10.9668 21.2768 10.8036 21.3056 11.1236C21.2978 11.3408 21.2612 11.556 21.1968 11.7636C21.1482 12.1035 21.0744 12.4394 20.976 12.7684C20.8448 13.1972 20.7424 13.6324 20.656 14.074C20.5344 14.666 20.2464 15.7252 20.9312 15.994C21.2512 16.1188 21.5712 15.8564 21.8432 15.674C22.0032 15.5524 22.1632 15.4244 22.3232 15.29C22.4011 15.2171 22.4857 15.1517 22.576 15.0948C22.576 15.1492 22.5504 15.2036 22.544 15.2452C22.5132 15.4186 22.495 15.594 22.4896 15.77C22.4546 16.0695 22.4987 16.3729 22.6176 16.65C22.912 17.194 23.488 16.906 23.8432 16.65C24.7616 15.9652 25.3248 14.6884 26.2688 14.0036C26.4064 13.914 26.3744 14.3844 26.4384 14.4452C26.96 14.8868 27.648 13.2964 26.88 12.9796Z" fill="#EBEAEA"/>
</g>
<g style="mix-blend-mode:multiply">
<path d="M26.0256 15.1264C25.8798 15.2817 25.7801 15.4745 25.7376 15.6832C25.7232 15.7871 25.7496 15.8926 25.8112 15.9776C25.8194 15.9905 25.8303 16.0014 25.8432 16.0096C25.8565 16.0289 25.8749 16.0443 25.8964 16.0539C25.9178 16.0635 25.9415 16.067 25.9648 16.064C26.131 16.0527 26.2876 15.9823 26.4064 15.8656L26.4704 15.7952L26.5056 15.7536C26.5588 15.6823 26.5989 15.6021 26.624 15.5168C26.6498 15.4417 26.6563 15.3613 26.6429 15.283C26.6294 15.2047 26.5966 15.131 26.5472 15.0688C26.3872 14.88 26.176 14.9664 26.0256 15.1264Z" fill="#EBEAEA"/>
</g>
<g style="mix-blend-mode:multiply">
<path d="M25.5424 16.41C25.5255 16.4063 25.508 16.4063 25.4912 16.41C25.4636 16.4103 25.4364 16.4162 25.4111 16.4272C25.3859 16.4382 25.363 16.4541 25.344 16.474C25.3083 16.5047 25.2799 16.543 25.2608 16.586C25.2398 16.6269 25.2268 16.6714 25.2224 16.7172C25.2192 16.7394 25.2192 16.7621 25.2224 16.7844C25.2258 16.803 25.2311 16.8212 25.2384 16.8388C25.241 16.8507 25.2461 16.8619 25.2532 16.8719C25.2604 16.8818 25.2695 16.8901 25.28 16.8964C25.2925 16.9077 25.3065 16.9174 25.3216 16.9252C25.3688 16.9402 25.4198 16.939 25.4662 16.9215C25.5127 16.9041 25.5519 16.8716 25.5776 16.8292C25.6275 16.7572 25.6502 16.6699 25.6416 16.5828C25.6425 16.5346 25.6279 16.4875 25.6 16.4484C25.5934 16.4385 25.5849 16.43 25.575 16.4234C25.5651 16.4168 25.554 16.4122 25.5424 16.41Z" fill="#EBEAEA"/>
</g>
<path opacity="0.6" d="M26.7488 12.909C26.3904 12.7618 25.9808 13.053 25.7024 13.3026C25.3336 13.6532 25.0012 14.0403 24.7104 14.4578C24.3904 14.8738 24.0512 15.2066 23.7248 15.5906C23.5772 15.7917 23.418 15.984 23.248 16.1666C23.1905 16.1615 23.1369 16.1353 23.0976 16.093C22.9568 15.9426 23.0656 15.453 23.0976 15.2706C23.1826 14.9668 23.2044 14.6488 23.1616 14.3362C22.976 13.6002 22.1568 14.3522 21.8816 14.6082C21.6064 14.8642 21.3888 15.3122 21.056 15.341C20.7232 15.3698 20.6208 14.8962 20.6112 14.5762C20.6435 14.0597 20.7591 13.5518 20.9536 13.0722C21.1727 12.2726 21.4751 11.4982 21.856 10.7618C22.0327 10.4938 22.1646 10.1987 22.2464 9.88823C22.3062 9.67943 22.2842 9.45569 22.185 9.2625C22.0857 9.06931 21.9166 8.92118 21.712 8.84823C21.3472 8.76183 20.9504 9.16823 20.7168 9.44023C20.4524 9.77976 20.2409 10.1574 20.0896 10.5602C19.9168 10.9762 19.7696 11.4082 19.648 11.8402C19.584 12.0429 19.5168 12.2413 19.4464 12.4354C19.3767 12.6559 19.3201 12.8803 19.2768 13.1074C19.2635 13.1996 19.2273 13.2868 19.1713 13.3612C19.1154 13.4356 19.0416 13.4947 18.9568 13.533C18.688 13.6162 18.672 13.0658 18.6816 12.893C18.7224 12.4077 18.8059 11.9269 18.9312 11.4562C19.0272 11.0242 19.1296 10.5922 19.2512 10.1762C19.3728 9.76023 19.5488 9.33783 19.6736 8.89623C19.776 8.55063 20.1536 7.19703 19.6064 7.09463C19.0592 6.99223 18.6464 7.94903 18.3552 8.40023C17.9197 9.15426 17.5524 9.94567 17.2576 10.765C17.1808 10.9538 17.1008 11.1394 17.0144 11.3218L16.8896 11.5618C16.8896 11.5618 16.7872 11.7378 16.8032 11.7186C16.7136 11.8594 16.624 11.997 16.5312 12.1314C16.48 12.205 16.4224 12.2722 16.368 12.3394C16.4192 12.2818 16.368 12.3234 16.3168 12.3682L16.272 12.349C16.2619 12.3299 16.2501 12.3117 16.2368 12.2946C16.1927 12.2127 16.1625 12.124 16.1472 12.0322C16.0771 11.6198 16.0989 11.1969 16.2112 10.7938C16.3264 10.418 16.4067 10.0324 16.4512 9.64183C16.5023 9.38085 16.5023 9.11241 16.4512 8.85143C16.3072 8.53143 15.3536 10.573 15.2768 10.7714C14.816 11.853 14.3904 12.9474 13.6768 13.8242C13.5712 13.9554 13.3568 14.2306 13.1968 14.2466C12.8768 14.2754 12.784 13.6962 12.7648 13.421C12.7517 13.0103 12.7904 12.5996 12.88 12.1986C13.0918 11.3276 13.3634 10.4723 13.6928 9.63863C13.9456 8.90583 14.3328 8.25943 14.6208 7.54263C14.7648 7.18103 14.9408 6.36183 14.512 6.18583C14.272 6.08983 14 6.28823 13.8112 6.44503C13.5448 6.67201 13.3149 6.93859 13.1296 7.23543C12.7261 7.91099 12.4008 8.63029 12.16 9.37943C11.7897 10.3902 11.4934 11.4265 11.2736 12.4802C11.1936 12.8674 11.2128 13.277 11.1232 13.661C11.088 13.8242 10.8832 14.349 10.7072 14.2818C10.5312 14.2146 10.6432 13.4946 10.672 13.3218C10.7246 12.9453 10.8235 12.5766 10.9664 12.2242C11.0432 12.0322 11.632 11.0434 11.4528 10.8322C11.2736 10.621 10.56 11.3826 10.432 11.5362C10.0445 12.11 9.69908 12.711 9.39839 13.3346C9.19039 13.693 8.84159 14.221 8.43839 13.9202C8.03519 13.6194 8.00639 12.8258 8.11839 12.3394C8.31679 11.5298 8.95039 11.0594 9.48479 10.6018C9.85919 10.2818 10.816 9.67703 10.8448 9.00183C10.8736 8.32663 10.0192 8.82903 9.80479 8.98263C9.11399 9.52706 8.54954 10.2149 8.15039 10.9986C7.691 11.7469 7.45353 12.6103 7.46559 13.4882C7.50719 14.1282 7.84319 14.8994 8.45119 14.7682C9.13919 14.6114 9.55519 13.5042 9.87519 12.8482C10.0776 12.4144 10.3063 11.9934 10.56 11.5874C10.6688 11.421 10.9152 10.9474 11.1104 10.9474C11.5104 10.8994 10.896 12.013 10.8128 12.189C10.5152 12.829 9.89119 13.8786 10.0672 14.6786C10.2144 15.3186 10.7968 15.069 11.0912 14.7362C11.5296 14.2306 11.6672 13.4562 11.7824 12.7682C12.0704 10.9762 12.288 9.14263 13.2352 7.68023C13.3792 7.45623 13.8368 6.64343 14.128 6.81623C14.4192 6.98903 13.9936 7.57143 13.888 7.75383C13.623 8.23884 13.3889 8.7401 13.1872 9.25463C12.7699 10.181 12.4752 11.1577 12.3104 12.1602C12.2016 12.9122 12.048 14.285 12.7264 14.7202C13.3312 15.1106 13.872 14.205 14.1984 13.6994C14.6368 13.0178 14.88 12.1794 15.2064 11.4178C14.9984 12.1634 14.9696 13.0498 15.3792 13.6898C15.6384 14.093 16.1344 13.9842 16.464 13.8274C16.8453 13.5868 17.1626 13.2574 17.3888 12.8674C17.8528 12.157 18.048 11.2674 18.2432 10.3938C18.3328 9.98743 18.416 9.57463 18.5216 9.17143C18.6358 8.75768 18.7969 8.3583 19.0016 7.98103C19.0775 7.82617 19.178 7.68461 19.2992 7.56183C19.5488 7.32183 19.6192 7.69943 19.6384 7.92343C19.6238 8.3886 19.5286 8.8477 19.3568 9.28023C19.0871 10.132 18.8618 10.9972 18.6816 11.8722C18.6094 12.2542 18.5581 12.6399 18.528 13.0274C18.5036 13.1612 18.5137 13.299 18.5574 13.4278C18.6011 13.5566 18.6769 13.6721 18.7776 13.7634C19.1648 14.0514 19.616 13.4786 19.8496 13.1586C20.2083 12.6571 20.5039 12.1133 20.7296 11.5394C20.7764 11.3661 20.8319 11.1952 20.896 11.0274C20.9824 10.8514 21.1616 10.7074 21.1904 11.0274C21.1821 11.2443 21.1466 11.4593 21.0848 11.6674C21.0328 12.0068 20.9591 12.3424 20.864 12.6722C20.7296 13.0978 20.6304 13.5362 20.544 13.9778C20.4192 14.5698 20.1312 15.629 20.816 15.8978C21.136 16.0226 21.456 15.757 21.728 15.5778C21.8912 15.4562 22.048 15.325 22.208 15.1906C22.2874 15.1205 22.3719 15.0564 22.4608 14.9986C22.4608 15.053 22.4384 15.1042 22.4288 15.149C22.3965 15.3244 22.3772 15.502 22.3712 15.6802C22.335 15.9797 22.3792 16.2835 22.4992 16.5602C23.1584 17.7922 24.6208 15.6418 25.0592 15.0498C25.2735 14.7445 25.5275 14.469 25.8144 14.2306C25.8816 14.1794 26.0224 14.0066 26.16 13.9106C26.2976 13.821 26.2656 14.2914 26.3296 14.3522C26.8288 14.8194 27.52 13.229 26.7488 12.909Z" fill="#A96A26"/>
<path opacity="0.4" d="M26.416 15.0019C26.256 14.8131 26.0448 14.8995 25.8976 15.0595C25.749 15.2115 25.6487 15.4042 25.6096 15.6131C25.6011 15.6649 25.6029 15.7179 25.615 15.769C25.6271 15.82 25.6492 15.8682 25.68 15.9107C25.6901 15.923 25.702 15.9338 25.7152 15.9427C25.7277 15.9621 25.7455 15.9775 25.7665 15.9871C25.7875 15.9967 25.8107 16.0002 25.8336 15.9971C25.9999 15.9864 26.1567 15.9159 26.2752 15.7987L26.3424 15.7251L26.3776 15.6867C26.428 15.6142 26.4668 15.5343 26.4928 15.4499C26.5189 15.3748 26.5255 15.2944 26.5121 15.216C26.4987 15.1377 26.4656 15.064 26.416 15.0019Z" fill="#A96A26"/>
<path opacity="0.4" d="M25.4656 16.381C25.4521 16.3619 25.4331 16.3474 25.4112 16.3394C25.3943 16.3354 25.3768 16.3354 25.36 16.3394C25.3324 16.3398 25.3052 16.3456 25.2799 16.3566C25.2547 16.3676 25.2318 16.3835 25.2128 16.4034C25.1764 16.4335 25.1479 16.4719 25.1296 16.5154C25.1101 16.5569 25.0971 16.6011 25.0912 16.6466C25.0864 16.6687 25.0864 16.6916 25.0912 16.7138C25.0896 16.7319 25.0896 16.7501 25.0912 16.7682C25.0997 16.7916 25.1153 16.8118 25.136 16.8258C25.1481 16.8369 25.1622 16.8455 25.1776 16.8514C25.224 16.8671 25.2743 16.8665 25.3203 16.8496C25.3663 16.8327 25.4052 16.8006 25.4304 16.7586C25.4812 16.687 25.505 16.5997 25.4976 16.5122C25.4995 16.4663 25.4884 16.4208 25.4656 16.381Z" fill="#A96A26"/>
<g style="mix-blend-mode:screen">
<g style="mix-blend-mode:screen" opacity="0.4">
<path d="M10.608 8.86079C10.1255 8.99616 9.68513 9.25157 9.32802 9.60319C8.92121 10.0426 8.58154 10.5397 8.32002 11.0784C8.29442 11.1232 8.33922 11.1456 8.36482 11.1136C8.52162 10.9152 8.64962 10.688 8.80322 10.4736C8.97449 10.251 9.15713 10.0374 9.35042 9.83359C9.73451 9.46044 10.1647 9.13784 10.6304 8.87359C10.6304 8.87359 10.6272 8.85119 10.608 8.86079Z" fill="white"/>
</g>
<g style="mix-blend-mode:screen" opacity="0.4">
<path d="M8.3904 14.4415C8.27863 14.4292 8.17154 14.3899 8.07842 14.3269C7.98529 14.2639 7.90894 14.1791 7.856 14.0799C7.70722 13.8453 7.62739 13.5737 7.6256 13.2959H7.6064C7.5712 13.8623 7.8336 14.5759 8.3712 14.5183C8.4032 14.5279 8.4352 14.4479 8.3904 14.4415Z" fill="white"/>
</g>
<g style="mix-blend-mode:screen" opacity="0.4">
<path d="M10.9824 14.4927C10.8256 14.6271 10.5408 14.7935 10.3616 14.6239C10.3616 14.6239 10.3424 14.6239 10.3456 14.6239C10.3532 14.6577 10.3678 14.6896 10.3885 14.7174C10.4091 14.7452 10.4353 14.7685 10.4654 14.7856C10.4955 14.8028 10.5288 14.8135 10.5633 14.817C10.5978 14.8206 10.6326 14.817 10.6656 14.8063C10.8113 14.7566 10.9356 14.6583 11.0176 14.5279C11.0432 14.5119 11.0176 14.4607 10.9824 14.4927Z" fill="white"/>
</g>
<g style="mix-blend-mode:screen" opacity="0.4">
<path d="M16.2592 12.5249C15.456 12.4801 16.3392 9.90085 16.3552 9.39525C16.3552 9.37605 16.336 9.39525 16.336 9.39525C16.24 9.78265 16.1214 10.1641 15.9808 10.5377C15.8829 10.851 15.8123 11.1722 15.7696 11.4977C15.7344 11.8657 15.7696 12.7425 16.2496 12.5729C16.2656 12.5761 16.288 12.5281 16.2592 12.5249Z" fill="white"/>
</g>
<g style="mix-blend-mode:screen" opacity="0.4">
<path d="M17.3792 12.4801C17.2281 12.7519 17.0273 12.9929 16.7872 13.1905C16.7488 13.2321 16.7648 13.3057 16.816 13.2641C17.0988 13.0814 17.3067 12.8032 17.4016 12.4801C17.408 12.4513 17.3856 12.4513 17.3792 12.4801Z" fill="white"/>
</g>
<g style="mix-blend-mode:screen" opacity="0.4">
<path d="M21.8336 9.04648C21.4688 8.87048 21.1712 9.12008 20.896 9.40168C20.896 9.40168 20.896 9.45288 20.896 9.43688C21.0762 9.28626 21.3013 9.19961 21.536 9.19048C21.792 9.19048 21.9584 9.65128 21.936 9.92648C21.936 9.96488 21.9712 9.95528 21.9808 9.92648C22.0992 9.67368 22.1024 9.17768 21.8336 9.04648Z" fill="white"/>
</g>
<g style="mix-blend-mode:screen" opacity="0.4">
<path d="M21.776 10.3552C21.7536 10.4 21.7216 10.4448 21.6992 10.4896C21.6768 10.5344 21.6992 10.5632 21.7184 10.5664C21.7376 10.5696 21.7792 10.5312 21.7824 10.496C21.7856 10.4608 21.7824 10.4032 21.7824 10.3552C21.7824 10.3072 21.7792 10.3456 21.776 10.3552Z" fill="white"/>
</g>
<g style="mix-blend-mode:screen" opacity="0.4">
<path d="M23.4784 16.3394C23.2 16.4706 22.8992 16.621 22.6944 16.2594C22.5784 15.9412 22.5325 15.6017 22.56 15.2642C22.5088 15.7026 22.4 16.125 22.6496 16.4994C22.8992 16.8738 23.2896 16.637 23.5136 16.4226C23.536 16.3938 23.5328 16.3202 23.4784 16.3394Z" fill="white"/>
</g>
<g style="mix-blend-mode:screen" opacity="0.4">
<path d="M26.2816 15.1231C26.2764 15.0954 26.2618 15.0704 26.2402 15.0523C26.2186 15.0342 26.1914 15.0242 26.1632 15.0239C26.1146 15.0342 26.0685 15.0543 26.0278 15.0829C25.9871 15.1115 25.9526 15.148 25.9264 15.1903C25.8752 15.2607 25.7792 15.4111 25.8336 15.5103C25.8362 15.5494 25.8495 15.587 25.872 15.6191C25.9264 15.7087 26.0416 15.6191 26.096 15.5775C26.1291 15.5441 26.1591 15.5076 26.1856 15.4687C26.1992 15.4485 26.211 15.4271 26.2208 15.4047C26.1952 15.4591 26.2432 15.3695 26.2432 15.3663C26.2654 15.3303 26.2802 15.2903 26.2868 15.2486C26.2933 15.2068 26.2916 15.1642 26.2816 15.1231Z" fill="white"/>
</g>
<g style="mix-blend-mode:screen" opacity="0.4">
<path d="M25.296 16.3873C25.2722 16.3972 25.2529 16.4154 25.2416 16.4385C25.2416 16.4609 25.2224 16.5057 25.2416 16.5249C25.2736 16.5633 25.312 16.5249 25.3312 16.4801C25.3504 16.4353 25.344 16.3777 25.296 16.3873Z" fill="white"/>
</g>
<g style="mix-blend-mode:screen" opacity="0.4">
<path d="M26.7104 13.4976C26.6987 13.4851 26.6846 13.4752 26.6689 13.4683C26.6532 13.4615 26.6363 13.458 26.6192 13.458C26.6021 13.458 26.5852 13.4615 26.5695 13.4683C26.5538 13.4752 26.5397 13.4851 26.528 13.4976C26.4873 13.5287 26.4533 13.5677 26.428 13.6122C26.4027 13.6568 26.3866 13.7059 26.3808 13.7568C26.375 13.7818 26.3743 13.8077 26.3787 13.833C26.3831 13.8583 26.3925 13.8824 26.4064 13.904C26.4204 13.9205 26.4379 13.9336 26.4576 13.9424C26.4736 13.9534 26.4926 13.9593 26.512 13.9593C26.5314 13.9593 26.5504 13.9534 26.5664 13.9424C26.6294 13.9014 26.6785 13.8423 26.7072 13.7728C26.7309 13.731 26.7437 13.6838 26.7442 13.6356C26.7448 13.5875 26.7332 13.54 26.7104 13.4976Z" fill="white"/>
</g>
</g>
<path opacity="0.4" d="M9.5264 10.0386C9.4624 10.0386 9.4016 10.1986 9.4816 10.1954C9.5616 10.1922 9.6 10.0386 9.5264 10.0386Z" fill="#7B4E19"/>
<path opacity="0.4" d="M10.0608 9.6001C10.0128 9.6001 9.96795 9.7185 10.0288 9.7153C10.0896 9.7121 10.1216 9.6001 10.0608 9.6001Z" fill="#7B4E19"/>
<path opacity="0.4" d="M8.33597 11.2515C8.30717 11.2515 8.28157 11.3187 8.31677 11.3187C8.35197 11.3187 8.36797 11.2515 8.33597 11.2515Z" fill="#7B4E19"/>
<path opacity="0.4" d="M7.99996 12.2788C7.98396 12.2788 7.96156 12.2788 7.95196 12.298V12.3172C7.93596 12.346 7.95196 12.3716 7.98396 12.3492C7.9904 12.3464 7.99609 12.3421 8.00058 12.3367C8.00506 12.3313 8.00821 12.3249 8.00977 12.3181C8.01133 12.3112 8.01125 12.3041 8.00954 12.2973C8.00784 12.2904 8.00455 12.2841 7.99996 12.2788Z" fill="#7B4E19"/>
<path opacity="0.4" d="M9.00157 14.2082C8.95997 14.1602 8.90557 14.2402 8.89917 14.2882C8.89917 14.3234 8.91837 14.3458 8.94397 14.3394C8.98877 14.333 9.04317 14.253 9.00157 14.2082Z" fill="#7B4E19"/>
<path opacity="0.4" d="M8.56636 14.4004C8.54396 14.4004 8.52476 14.4516 8.55036 14.4516C8.57596 14.4516 8.59196 14.4004 8.56636 14.4004Z" fill="#7B4E19"/>
<path opacity="0.4" d="M11.2 14.2305C11.1712 14.2305 11.1424 14.3041 11.1808 14.3041C11.2192 14.3041 11.2224 14.2305 11.2 14.2305Z" fill="#7B4E19"/>
<path opacity="0.4" d="M11.4112 13.1201C11.4007 13.1238 11.3913 13.1302 11.384 13.1386C11.3767 13.147 11.3717 13.1572 11.3696 13.1681C11.3696 13.2097 11.3696 13.2353 11.4144 13.2193C11.4288 13.2112 11.4405 13.1989 11.4479 13.1841C11.4553 13.1693 11.4581 13.1526 11.456 13.1361C11.4496 13.1201 11.4272 13.1201 11.4112 13.1201Z" fill="#7B4E19"/>
<path opacity="0.4" d="M14.5568 7.28347C14.5568 7.28347 14.5888 7.28347 14.6016 7.26427C14.6624 7.16507 14.4928 7.22907 14.5568 7.28347Z" fill="#7B4E19"/>
<path opacity="0.4" d="M14.4992 6.56355C14.4832 6.56355 14.4704 6.56355 14.4608 6.56355C14.4563 6.57486 14.4563 6.58744 14.4608 6.59875C14.4768 6.63395 14.5152 6.59875 14.5216 6.57315C14.528 6.54755 14.512 6.56995 14.4992 6.56355Z" fill="#7B4E19"/>
<path opacity="0.4" d="M13.2928 14.4004C13.2416 14.4004 13.1904 14.5252 13.2544 14.522C13.3184 14.5188 13.3536 14.4004 13.2928 14.4004Z" fill="#7B4E19"/>
<path opacity="0.4" d="M12.7392 14.3745C12.704 14.3745 12.6688 14.4673 12.7168 14.4641C12.7648 14.4609 12.8 14.3745 12.7392 14.3745Z" fill="#7B4E19"/>
<path opacity="0.4" d="M17.36 12.0163C17.3408 11.9939 17.312 12.0163 17.296 12.0323C17.2874 12.0439 17.2828 12.0579 17.2828 12.0723C17.2828 12.0867 17.2874 12.1007 17.296 12.1123C17.3184 12.1347 17.3472 12.1123 17.36 12.1123V12.0963C17.3686 12.0847 17.3732 12.0707 17.3732 12.0563C17.3732 12.0419 17.3686 12.0279 17.36 12.0163Z" fill="#7B4E19"/>
<path opacity="0.4" d="M16.4416 13.2036C16.3968 13.2036 16.352 13.3188 16.4096 13.3188C16.4672 13.3188 16.5024 13.2036 16.4416 13.2036Z" fill="#7B4E19"/>
<path opacity="0.4" d="M15.68 12.9985C15.6448 12.9985 15.6128 13.0817 15.6544 13.0817C15.696 13.0817 15.728 12.9985 15.68 12.9985Z" fill="#7B4E19"/>
<path opacity="0.4" d="M15.68 12.5376C15.648 12.5376 15.6192 12.6144 15.6576 12.6112C15.696 12.608 15.7312 12.5376 15.68 12.5376Z" fill="#7B4E19"/>
<path opacity="0.4" d="M15.8208 13.6611C15.8164 13.6586 15.8114 13.6572 15.8064 13.6572C15.8013 13.6572 15.7963 13.6586 15.792 13.6611C15.776 13.6803 15.776 13.7315 15.792 13.7251C15.808 13.7187 15.8528 13.6803 15.8208 13.6611Z" fill="#7B4E19"/>
<path opacity="0.4" d="M18.672 8.21777C18.6432 8.21777 18.6208 8.28497 18.6528 8.28177C18.6848 8.27857 18.7072 8.21777 18.672 8.21777Z" fill="#7B4E19"/>
<path opacity="0.4" d="M18.4096 8.8544C18.4096 8.8128 18.336 8.8544 18.3424 8.9056C18.3488 8.9568 18.3424 8.944 18.3776 8.944C18.4128 8.944 18.4448 8.8704 18.4096 8.8544Z" fill="#7B4E19"/>
<path opacity="0.4" d="M20.0608 12.3618C20.0608 12.3618 20.0608 12.3426 20.0416 12.3426C20.016 12.317 19.984 12.317 19.9936 12.4002C19.9936 12.4002 19.9936 12.4002 20.0128 12.4002C20.08 12.4354 20.0768 12.3938 20.0608 12.3618Z" fill="#7B4E19"/>
<path opacity="0.4" d="M19.6352 12.333C19.5872 12.333 19.5424 12.4514 19.6032 12.4482C19.664 12.445 19.696 12.333 19.6352 12.333Z" fill="#7B4E19"/>
<path opacity="0.4" d="M21.0784 10.1572C21.0464 10.1572 21.0144 10.2404 21.056 10.2404C21.0976 10.2404 21.12 10.1572 21.0784 10.1572Z" fill="#7B4E19"/>
<path opacity="0.4" d="M21.5264 9.70557C21.4816 9.70557 21.44 9.81437 21.4976 9.81117C21.5552 9.80797 21.5808 9.70557 21.5264 9.70557Z" fill="#7B4E19"/>
<path opacity="0.4" d="M21.4016 11.1138C21.3664 11.1138 21.3312 11.2034 21.376 11.2034C21.4208 11.2034 21.44 11.1138 21.4016 11.1138Z" fill="#7B4E19"/>
<path opacity="0.4" d="M21.6128 15.3408C21.5712 15.3408 21.5328 15.4304 21.5712 15.4464C21.6096 15.4624 21.6576 15.4464 21.6512 15.3888C21.6508 15.3777 21.6469 15.3671 21.64 15.3584C21.6331 15.3498 21.6235 15.3436 21.6128 15.3408Z" fill="#7B4E19"/>
<path opacity="0.4" d="M21.12 15.4626C21.1008 15.4434 21.0784 15.4626 21.0656 15.4626V15.4786C21.0585 15.4884 21.0547 15.5002 21.0547 15.5122C21.0547 15.5243 21.0585 15.536 21.0656 15.5458C21.0656 15.565 21.1072 15.5458 21.12 15.5458V15.5298C21.1262 15.5197 21.1295 15.5081 21.1295 15.4962C21.1295 15.4844 21.1262 15.4727 21.12 15.4626Z" fill="#7B4E19"/>
<path opacity="0.4" d="M22.8224 15.4561C22.784 15.4561 22.7456 15.5553 22.7936 15.5553C22.8416 15.5553 22.8736 15.4561 22.8224 15.4561Z" fill="#7B4E19"/>
<path opacity="0.4" d="M23.1008 16.2754C23.0816 16.2754 23.0624 16.3266 23.1008 16.3266C23.1392 16.3266 23.1264 16.2754 23.1008 16.2754Z" fill="#7B4E19"/>
<path opacity="0.4" d="M24.7328 14.9185C24.6944 14.9185 24.6592 15.0081 24.7072 15.0081C24.7552 15.0081 24.7776 14.9185 24.7328 14.9185Z" fill="#7B4E19"/>
<path opacity="0.4" d="M24.2368 15.4561C24.208 15.4561 24.1792 15.5329 24.2176 15.5329C24.256 15.5329 24.2752 15.4561 24.2368 15.4561Z" fill="#7B4E19"/>
<path opacity="0.4" d="M25.6 13.9268C25.5552 13.9268 25.5136 14.0324 25.568 14.0324C25.6224 14.0324 25.6672 13.9268 25.6 13.9268Z" fill="#7B4E19"/>
<path opacity="0.4" d="M26.096 13.2292C26.096 13.258 26.128 13.2292 26.128 13.2292C26.128 13.1908 26.0928 13.2068 26.096 13.2292Z" fill="#7B4E19"/>
<path opacity="0.4" d="M26.0096 15.7604C26.0096 15.7924 26.0544 15.7604 26.0576 15.7412C26.0736 15.6804 25.9936 15.7028 26.0096 15.7604Z" fill="#7B4E19"/>
<path opacity="0.4" d="M26.3883 15.4019C26.3883 15.4019 26.3667 15.4299 26.3883 15.4299C26.4099 15.4299 26.4027 15.4019 26.3883 15.4019Z" fill="#7B4E19"/>
<path opacity="0.4" d="M25.344 16.4995C25.2992 16.4995 25.2576 16.6051 25.312 16.6051C25.3664 16.6051 25.3984 16.4995 25.344 16.4995Z" fill="#7B4E19"/>
<path opacity="0.4" d="M11.7472 11.7124C11.7472 11.7124 11.7216 11.7124 11.7152 11.7124C11.7152 11.7348 11.7152 11.7668 11.7344 11.7604C11.7536 11.754 11.7632 11.7348 11.7472 11.7124Z" fill="#7B4E19"/>
<path opacity="0.4" d="M11.888 10.5601C11.8496 10.5601 11.8144 10.6497 11.8624 10.6497C11.9104 10.6497 11.936 10.5601 11.888 10.5601Z" fill="#7B4E19"/>
<path opacity="0.4" d="M9.952 12.4803C9.952 12.4483 9.904 12.4803 9.8976 12.5027C9.89389 12.5084 9.89191 12.5151 9.89191 12.5219C9.89191 12.5287 9.89389 12.5354 9.8976 12.5411C9.8976 12.5411 9.9232 12.5411 9.9296 12.5411C9.9365 12.5408 9.94315 12.5384 9.94872 12.5343C9.95429 12.5302 9.95853 12.5246 9.96092 12.5181C9.96331 12.5116 9.96373 12.5046 9.96215 12.4979C9.96056 12.4911 9.95704 12.485 9.952 12.4803Z" fill="#7B4E19"/>
<path opacity="0.4" d="M8.02237 13.834C7.98397 13.834 7.94877 13.9268 7.99677 13.9236C8.04477 13.9204 8.06717 13.834 8.02237 13.834Z" fill="#7B4E19"/>
<path opacity="0.4" d="M7.79516 13.376C7.74396 13.376 7.69596 13.504 7.75996 13.5008C7.82396 13.4976 7.85916 13.376 7.79516 13.376Z" fill="#7B4E19"/>
<path d="M23.04 12.1601C23.1602 12.0295 23.3105 11.9304 23.4779 11.8712C23.6452 11.8121 23.8244 11.7948 24 11.8209C24.64 11.9009 25.2352 12.3105 25.1776 12.4609C25.12 12.6113 24.56 12.6561 24.56 12.6561L23.04 12.1601Z" fill="#AA6102"/>
<path d="M23.7632 11.8147C23.5777 11.9079 23.4046 12.024 23.248 12.1603C23.4112 12.0355 23.568 11.9331 23.7568 11.8211C23.776 11.8403 23.7888 11.8019 23.7632 11.8147Z" fill="#8E4F03"/>
<path d="M24.1472 11.869C23.9152 11.9587 23.6991 12.0851 23.5072 12.2434C23.5072 12.2434 23.5072 12.2754 23.5072 12.2658C23.7109 12.129 23.9249 12.0081 24.1472 11.9042C24.1472 11.9042 24.1728 11.8594 24.1472 11.869Z" fill="#8E4F03"/>
<path d="M24.5728 12.0257C24.3152 12.1017 24.0742 12.2254 23.8624 12.3905C23.8624 12.4129 23.8624 12.3905 23.8624 12.3905C24.0858 12.2567 24.3203 12.1421 24.5632 12.0481C24.5632 12.0481 24.6016 12.0161 24.5728 12.0257Z" fill="#8E4F03"/>
<path d="M24.9184 12.2242C24.7936 12.2626 24.672 12.3074 24.5504 12.3554C24.4288 12.4034 24.3456 12.4674 24.2304 12.509C24.2304 12.509 24.208 12.5346 24.2304 12.5346C24.324 12.5064 24.4141 12.4677 24.4992 12.4194C24.6336 12.3618 24.7712 12.317 24.9056 12.2562C24.9216 12.253 24.96 12.2146 24.9184 12.2242Z" fill="#8E4F03"/>
<path d="M27.088 14.9188C27.4449 14.9882 27.795 15.0888 28.1344 15.2196C29.2192 15.6868 29.7344 15.7284 29.872 15.6612C30.0777 15.5005 30.2232 15.275 30.2848 15.0212C30.2848 14.938 30.0864 14.8388 29.9872 14.7876C29.1086 14.4715 28.1816 14.3113 27.248 14.314C27.2211 14.5217 27.1673 14.725 27.088 14.9188Z" fill="#AA6102"/>
<path d="M30.3104 14.7394C30.3936 14.717 30.544 13.3826 30.544 13.2674C30.544 13.213 30.4064 13.197 30.2624 13.1938C29.0848 13.3058 27.6384 13.6002 27.2128 13.6898C27.2691 13.8984 27.2811 14.1164 27.248 14.3298C28.1816 14.3271 29.1086 14.4874 29.9872 14.8034L29.92 14.7746C29.92 14.7746 30.224 14.7586 30.3104 14.7394Z" fill="#864000"/>
<path d="M29.5264 11.8179C29.5264 11.8179 30.1984 11.6579 30.1664 11.4979C30.0799 11.2397 29.8978 11.0244 29.6576 10.8963C29.4592 10.8483 28.544 11.2739 27.648 11.9363C27.1774 12.292 26.6859 12.619 26.176 12.9155C26.4029 12.9453 26.621 13.0227 26.816 13.1427C27.678 12.5647 28.6189 12.1142 29.6096 11.8051L29.5264 11.8179Z" fill="#AA6102"/>
<path d="M30.5568 13.0244C30.6848 12.5092 30.4416 11.802 30.3008 11.7636C30.0663 11.7549 29.8315 11.7699 29.6 11.8084C28.6093 12.1176 27.6684 12.5681 26.8064 13.146C26.9575 13.2458 27.0782 13.3853 27.1552 13.5492C28.2498 13.1774 29.401 12.9998 30.5568 13.0244Z" fill="#864000"/>
<path d="M29.9552 13.2067C30.166 13.1871 30.3706 13.1251 30.5568 13.0243C29.4023 12.9991 28.2522 13.1756 27.1584 13.5459C27.1793 13.5928 27.1975 13.6409 27.2128 13.6899C27.6384 13.6003 29.0848 13.3059 30.2624 13.1939C30.1598 13.1927 30.0573 13.197 29.9552 13.2067Z" fill="#AA6102"/>
<g style="mix-blend-mode:screen">
<path d="M29.5008 10.9379C29.1159 11.0981 28.7464 11.2931 28.3968 11.5203C27.9777 11.8121 27.5848 12.1397 27.2224 12.4995C27.2032 12.5219 27.2224 12.5571 27.2224 12.5315C27.6032 12.2115 27.9872 11.9139 28.3904 11.6323C28.5722 11.5035 28.7637 11.389 28.9632 11.2899C29.1395 11.2226 29.3116 11.1446 29.4784 11.0563C29.5232 11.0371 29.5872 10.8995 29.5008 10.9379Z" fill="#AA6102"/>
</g>
<g style="mix-blend-mode:multiply" opacity="0.5">
<path d="M28.3008 14.864C28.1791 14.7973 28.0726 14.706 27.9883 14.5958C27.904 14.4855 27.8437 14.3589 27.8112 14.224C27.7795 13.9649 27.7216 13.7098 27.6384 13.4624C27.5369 13.2541 27.3852 13.0742 27.1969 12.9391C27.0087 12.8039 26.7898 12.7176 26.56 12.688C26.32 12.8416 26.1824 12.9152 26.1824 12.9152C26.4093 12.945 26.6274 13.0224 26.8224 13.1424C26.9735 13.2422 27.0942 13.3817 27.1712 13.5456C27.1921 13.5925 27.2103 13.6406 27.2256 13.6896C27.2819 13.8981 27.2939 14.1161 27.2608 14.3296C27.2329 14.5329 27.1791 14.7319 27.1008 14.9216C27.4577 14.991 27.8079 15.0916 28.1472 15.2224C29.232 15.6896 29.7472 15.7312 29.8848 15.664C29.9882 15.5946 30.0747 15.5027 30.1376 15.3952C29.4903 15.3758 28.8585 15.1931 28.3008 14.864Z" fill="#AA6102"/>
</g>
<path d="M10.96 17.9202C10.96 17.9202 12.9472 19.0722 14.16 18.9474C15.12 18.7874 14.8608 18.1538 14.5728 17.965C14.2848 17.7762 10.96 17.9202 10.96 17.9202Z" fill="#864000"/>
<g style="mix-blend-mode:multiply" opacity="0.5">
<path d="M13.9328 18.8288C13.6128 18.6688 13.2544 18.528 12.9216 18.368C12.5888 18.208 12.16 18.1376 11.84 17.9648C11.84 17.9648 11.8176 17.9648 11.84 17.984C12.1459 18.149 12.4675 18.283 12.8 18.384C13.1584 18.5721 13.5282 18.7377 13.9072 18.88C13.9072 18.88 13.9488 18.8384 13.9328 18.8288Z" fill="#864000"/>
<path d="M14.2016 18.7615C13.6704 18.4991 13.1264 18.2591 12.6016 17.9839C12.6016 17.9839 12.576 17.9839 12.6016 18.0031C13.1094 18.318 13.645 18.5858 14.2016 18.8031C14.2016 18.8031 14.2208 18.7711 14.2016 18.7615Z" fill="#864000"/>
<path d="M14.608 18.5407C14.4228 18.4384 14.229 18.3528 14.0288 18.2847C13.8045 18.1666 13.5672 18.0753 13.3216 18.0127C13.3216 18.0127 13.296 18.0351 13.3216 18.0383C13.5327 18.114 13.739 18.2027 13.9392 18.3039C14.1536 18.3935 14.3744 18.4831 14.5792 18.5791C14.592 18.5855 14.6208 18.5599 14.608 18.5407Z" fill="#864000"/>
<path d="M14.6816 18.2783C14.5056 18.1855 14.3104 18.1311 14.1344 18.0415C14.1184 18.0415 14.0928 18.0639 14.1056 18.0735C14.1856 18.1215 14.2688 18.1503 14.3488 18.1887C14.4288 18.2271 14.5472 18.2847 14.6496 18.3231C14.6688 18.3263 14.6976 18.2879 14.6816 18.2783Z" fill="#864000"/>
</g>
<path d="M9.6416 10.9665C9.89203 10.8056 10.1267 10.6213 10.3424 10.4161C10.6112 10.1441 10.704 10.0033 11.712 9.75373C13.1237 9.47657 14.5685 9.40864 16 9.55213C17.3984 9.70573 19.6352 10.3649 21.872 11.6385C20.352 11.2737 15.072 9.74733 9.6416 10.9665Z" fill="#AA6102"/>
<g style="mix-blend-mode:multiply" opacity="0.5">
<path d="M20.8576 11.0978C20.6054 11.1187 20.3516 11.0993 20.1056 11.0402C19.8816 10.9826 19.68 10.8674 19.4656 10.8194C19.2512 10.7714 18.9696 10.7042 18.7168 10.6562C18.1984 10.557 17.6704 10.5314 17.1488 10.4738C16.6272 10.4162 16.16 10.301 15.664 10.2402C14.625 10.1398 13.5773 10.1742 12.5472 10.3426C11.6634 10.4327 10.7861 10.577 9.91998 10.7746C9.76638 10.8866 9.64478 10.9666 9.64478 10.9666C15.0848 9.74739 20.3552 11.2866 21.8848 11.6386C21.5392 11.4434 21.1968 11.2642 20.8576 11.0978Z" fill="#AA6102"/>
</g>
<path d="M22.2496 16.7362C22.2496 16.7362 23.6256 17.3314 24.3392 17.0562C25.0528 16.781 25.2416 16.3746 24.8 16.1538C24.5886 16.0554 24.3881 15.9353 24.2016 15.7954L22.2496 16.7362Z" fill="#864000"/>
<path d="M8.31996 14.9698C8.40636 13.2834 7.20956 12.317 6.62716 12.2466C4.18236 12.589 2.27196 15.1266 2.27196 15.1266C2.27196 15.1266 1.97116 15.0946 2.07036 15.2834C2.17175 15.4153 2.31324 15.5108 2.47356 15.5554C2.37756 15.7762 2.55996 16.0002 2.90236 16.0226C3.30556 16.6978 4.21436 17.0626 6.19516 17.357C7.33116 17.2226 8.24636 16.4738 8.31996 14.9698Z" fill="#C6862C"/>
<path d="M27.3568 13.3601C26.9664 12.7585 26.5312 12.7681 26.0256 12.8705C25.52 12.9729 25.5808 12.8929 23.3664 12.2305C20.8064 11.2225 19.7504 10.6945 15.4848 10.3521C12.4118 10.1009 9.33268 10.7586 6.63039 12.2433C7.21279 12.3137 8.40959 13.2801 8.32319 14.9665C8.24639 16.4705 7.33119 17.2065 6.19519 17.3537C6.68159 17.4241 7.23199 17.4913 7.85599 17.5585C16.816 18.8033 20.3936 17.4625 21.936 16.9761C23.4784 16.4897 25.0464 15.6193 25.856 15.2641C26.6656 14.9089 26.6784 14.8673 26.9984 14.9153C27.4624 15.0017 27.7504 13.9649 27.3568 13.3601Z" fill="#C17500"/>
<path d="M9.104 16.3556C9.68781 15.0342 10.5064 13.8297 11.52 12.8004C12.544 11.77 12.8544 11.5044 12.8544 11.5044C12.6162 12.2875 12.205 13.0071 11.6512 13.61C10.672 14.7204 9.8976 15.7252 9.104 16.3556Z" fill="#E6B75F"/>
<path d="M11.888 16.32C11.888 16.32 13.6128 12.8608 15.856 11.5552C14.4448 13.472 12.6112 15.7376 11.888 16.32Z" fill="#E6B75F"/>
<path d="M14.6752 16.1377C14.6752 16.1377 16.48 12.9377 18.2432 11.6577C17.1392 13.4977 16 15.1073 14.6752 16.1377Z" fill="#E6B75F"/>
<path d="M17.6864 16.0001C17.6864 16.0001 19.1456 13.3121 20.9728 12.4385C20.1248 13.8209 18.5984 15.5969 17.6864 16.0001Z" fill="#E6B75F"/>
<path d="M21.0688 15.3603C21.0688 15.3603 22.3488 13.6611 23.2032 13.2163C22.5568 14.2371 21.9808 14.8963 21.0688 15.3603Z" fill="#E6B75F"/>
<g style="mix-blend-mode:multiply">
<path d="M11.0656 13.7603C10.6816 14.2339 10.3328 14.7363 9.936 15.1971C9.7422 15.416 9.55957 15.6446 9.3888 15.8819C9.3376 15.9555 9.2704 16.0387 9.2064 16.1251C9.1392 16.2691 9.104 16.3523 9.104 16.3523C9.8976 15.7123 10.672 14.7075 11.6352 13.6163C12.1162 13.0783 12.4947 12.4569 12.752 11.7827C12.1888 12.4451 11.6128 13.0915 11.0656 13.7603Z" fill="#BA842D"/>
<path d="M15.3024 12.1924C14.9056 12.6372 14.4384 13.0116 14.0736 13.4724C13.7088 13.9332 13.3312 14.5124 12.928 15.0116C12.7328 15.2548 12.5408 15.5044 12.3296 15.7316C12.2432 15.8244 12.1376 15.9172 12.0448 16.0164C11.9424 16.2052 11.888 16.3172 11.888 16.3172C12.5792 15.754 14.288 13.6548 15.6704 11.8052C15.5424 11.9364 15.4208 12.0612 15.3024 12.1924Z" fill="#BA842D"/>
<path d="M16.8256 13.4403C16.4384 13.8787 16.0864 14.3491 15.7184 14.8035C15.3504 15.2579 15.0208 15.6803 14.688 16.1187V16.1379C15.8592 15.2323 16.88 13.8723 17.8624 12.2979C17.552 12.7267 17.1584 13.0627 16.8256 13.4403Z" fill="#BA842D"/>
<path d="M19.5712 13.8787C19.2362 14.2627 18.9066 14.6531 18.5824 15.0499C18.416 15.2579 18.2624 15.4723 18.0704 15.6643C17.9744 15.7635 17.8784 15.8595 17.7856 15.9619C18.7008 15.4723 20.1472 13.7827 20.9632 12.4419C20.4708 12.8925 20.006 13.3723 19.5712 13.8787Z" fill="#BA842D"/>
<path d="M22.5312 13.9139C22.2656 14.1923 22.0096 14.4803 21.728 14.7427C21.5136 14.9379 21.296 15.1299 21.088 15.3411C21.9552 14.8963 22.5216 14.2627 23.136 13.3027C22.9376 13.5011 22.72 13.7059 22.5312 13.9139Z" fill="#BA842D"/>
</g>
<g style="mix-blend-mode:multiply" opacity="0.5">
<path d="M27.3568 13.36C26.9664 12.7584 26.5312 12.768 26.0256 12.8704C26.0971 13.0199 26.1141 13.1897 26.0736 13.3504C25.92 13.8944 25.2384 14.1408 24.7616 14.3104C23.6448 14.688 22.6208 15.1584 21.472 15.408C20.209 15.7197 18.9259 15.9432 17.632 16.0768C16.352 16.1632 15.1072 16.1088 13.8336 16.0768C12.6673 16.0446 11.5105 15.8573 10.3936 15.52C9.93519 15.3799 9.52292 15.1191 9.19999 14.7648C8.96193 14.4706 8.76096 14.1481 8.60159 13.8048C8.23359 13.1264 7.64159 12.3616 6.86399 12.1152L6.63039 12.2432C7.21279 12.3136 8.40959 13.28 8.32319 14.9664C8.24639 16.4704 7.33119 17.2064 6.19519 17.3536C6.68159 17.424 7.23199 17.4912 7.85599 17.5584C16.816 18.8032 20.3936 17.4624 21.936 16.976C23.4784 16.4896 25.0464 15.6192 25.856 15.264C26.6656 14.9088 26.6784 14.8672 26.9984 14.9152C27.4624 15.0016 27.7504 13.9648 27.3568 13.36Z" fill="#C17500"/>
</g>
<g style="mix-blend-mode:multiply" opacity="0.5">
<path d="M7.45279 17.21C7.7412 17.0545 7.99064 16.8357 8.18239 16.57C8.38667 16.2385 8.49111 15.8552 8.48319 15.466C8.5219 14.6863 8.38179 13.908 8.07359 13.1908C7.92048 12.8318 7.64805 12.5368 7.30239 12.3556C7.13279 12.2852 6.95359 12.234 6.78719 12.1636L6.63039 12.25C7.21279 12.3204 8.40959 13.2868 8.32319 14.9732C8.24639 16.4772 7.33119 17.2132 6.19519 17.3604L6.97919 17.466C7.13919 17.386 7.29919 17.3028 7.45279 17.21Z" fill="#C17500"/>
</g>
<path d="M11.4176 9.86589C11.0992 10.1053 10.8196 10.3924 10.5888 10.7171C10.831 10.4098 11.1081 10.1317 11.4144 9.88829C11.4464 9.87869 11.4432 9.84669 11.4176 9.86589Z" fill="#8E4F03"/>
<path d="M12.1408 9.68656C11.7475 9.92148 11.4005 10.2262 11.1168 10.5858C11.1168 10.5858 11.1168 10.6114 11.1168 10.5858C11.4339 10.2608 11.7834 9.96913 12.16 9.71536C12.16 9.71536 12.16 9.67056 12.1408 9.68656Z" fill="#8E4F03"/>
<path d="M12.848 9.6001C12.3957 9.83146 11.9865 10.1389 11.6384 10.5089C11.6384 10.5089 11.6384 10.5345 11.6384 10.5089C12.0068 10.1682 12.4113 9.86884 12.8448 9.6161C12.8448 9.6161 12.8736 9.6001 12.848 9.6001Z" fill="#8E4F03"/>
<path d="M13.5648 9.57129C13.1621 9.80142 12.7836 10.0716 12.4352 10.3777C12.4352 10.3777 12.4352 10.4225 12.4352 10.4033C12.7931 10.1104 13.1705 9.84201 13.5648 9.60009C13.5648 9.60009 13.584 9.55849 13.5648 9.57129Z" fill="#8E4F03"/>
<path d="M14.112 9.54247C13.7354 9.73915 13.3938 9.99645 13.1008 10.3041C13.1008 10.3041 13.1008 10.3233 13.1008 10.3041C13.4115 10.0278 13.7468 9.78038 14.1024 9.56487C14.1024 9.56487 14.1376 9.52647 14.112 9.54247Z" fill="#8E4F03"/>
<path d="M14.6656 9.54915C14.3055 9.75909 13.9696 10.0081 13.664 10.2915C13.664 10.2915 13.664 10.3171 13.664 10.3075C13.8208 10.2019 13.9584 10.0579 14.1152 9.94915C14.272 9.84035 14.4864 9.71235 14.6656 9.58755C14.6848 9.57475 14.6976 9.52995 14.6656 9.54915Z" fill="#8E4F03"/>
<path d="M15.2224 9.5267C14.8515 9.7201 14.5126 9.96942 14.2176 10.2659C14.2176 10.2819 14.2176 10.3107 14.2176 10.2915C14.5354 10.0289 14.8676 9.78422 15.2128 9.5587C15.2128 9.5587 15.248 9.5107 15.2224 9.5267Z" fill="#8E4F03"/>
<path d="M15.712 9.6001C15.3583 9.75723 15.0404 9.98479 14.7776 10.2689C14.9224 10.1428 15.0753 10.0263 15.2352 9.9201C15.3856 9.8145 15.5552 9.7409 15.7088 9.6417C15.7216 9.6449 15.744 9.6001 15.712 9.6001Z" fill="#8E4F03"/>
<path d="M16.2592 9.62248C15.8984 9.78583 15.5683 10.0099 15.2832 10.2849C15.2832 10.3073 15.2832 10.2849 15.2832 10.2849C15.585 10.0454 15.9061 9.8313 16.2432 9.64488C16.2432 9.64488 16.2848 9.60008 16.2592 9.62248Z" fill="#8E4F03"/>
<path d="M16.9376 9.68005C16.5586 9.87587 16.1939 10.0983 15.8464 10.3457C15.8464 10.3457 15.8464 10.3681 15.8464 10.3617C16.0123 10.2642 16.1726 10.1573 16.3264 10.0417C16.5248 9.92005 16.7328 9.81125 16.9344 9.69605C16.96 9.70565 16.96 9.67365 16.9376 9.68005Z" fill="#8E4F03"/>
<path d="M17.3984 9.88493C17.2392 9.9658 17.0872 10.06 16.944 10.1665C16.8352 10.2465 16.7392 10.3617 16.624 10.4321C16.624 10.4321 16.608 10.4545 16.624 10.4513C16.7393 10.3823 16.8466 10.3008 16.944 10.2081C17.0912 10.1057 17.2448 10.0129 17.3984 9.92013C17.4176 9.92013 17.4304 9.86893 17.3984 9.88493Z" fill="#8E4F03"/>
<path d="M18.0864 10.0609C17.8741 10.1931 17.6709 10.3396 17.4784 10.4993C17.4784 10.4993 17.4784 10.5441 17.4784 10.5281C17.6832 10.3905 17.8752 10.2369 18.08 10.0993C18.1024 10.0865 18.1152 10.0417 18.0864 10.0609Z" fill="#8E4F03"/>
<path d="M18.6752 10.2114C18.4816 10.3243 18.3013 10.4585 18.1376 10.6114C18.1376 10.6274 18.1376 10.6531 18.1376 10.6371C18.3072 10.4963 18.4896 10.3746 18.6656 10.2434C18.6912 10.2402 18.704 10.1954 18.6752 10.2114Z" fill="#8E4F03"/>
<path d="M19.2288 10.4032C19.0672 10.4963 18.9141 10.6034 18.7712 10.7232C18.7712 10.7232 18.7712 10.7584 18.7712 10.7456C18.9216 10.64 19.0752 10.544 19.2288 10.4256C19.2448 10.4256 19.2544 10.3904 19.2288 10.4032Z" fill="#8E4F03"/>
<path d="M19.52 10.5601L19.3632 10.6721C19.3088 10.7137 19.2608 10.7649 19.2032 10.8033C19.2032 10.8033 19.2032 10.8257 19.2032 10.8193C19.2596 10.7838 19.3141 10.7453 19.3664 10.7041L19.5264 10.5889C19.5264 10.5889 19.536 10.5601 19.52 10.5601Z" fill="#8E4F03"/>
<g style="mix-blend-mode:multiply" opacity="0.5">
<path d="M23.9456 17.0305C23.5871 16.8804 23.2207 16.75 22.848 16.6401C22.848 16.6401 22.8192 16.6625 22.832 16.6689C23.1904 16.8161 23.5616 16.9313 23.9232 17.0593C23.9392 17.0689 23.9616 17.0369 23.9456 17.0305Z" fill="#864000"/>
<path d="M24.2816 16.9411C23.9232 16.7651 23.52 16.6819 23.1488 16.5347C23.1488 16.5347 23.1232 16.5347 23.1488 16.5571C23.5156 16.7172 23.8905 16.8582 24.272 16.9795C24.272 16.9795 24.2976 16.9603 24.2816 16.9411Z" fill="#864000"/>
<path d="M24.7232 16.6758C24.5408 16.6118 24.3584 16.5638 24.1728 16.5126C23.9872 16.4614 23.824 16.3878 23.6448 16.3462C23.7952 16.391 23.9328 16.4646 24.08 16.5126C24.2912 16.583 24.5024 16.6342 24.72 16.695C24.7168 16.711 24.7392 16.6822 24.7232 16.6758Z" fill="#864000"/>
<path d="M24.9792 16.4356C24.6784 16.3204 24.3616 16.234 24.0544 16.1348C24.3463 16.2731 24.652 16.3803 24.9664 16.4548C24.96 16.4772 24.9984 16.442 24.9792 16.4356Z" fill="#864000"/>
</g>
<path d="M5.76 14.1792C5.74924 14.3852 5.65737 14.5786 5.50447 14.7171C5.35158 14.8556 5.15008 14.928 4.944 14.9184C4.84095 14.9302 4.73655 14.9201 4.63767 14.8888C4.53878 14.8574 4.44764 14.8055 4.37022 14.7365C4.2928 14.6674 4.23085 14.5828 4.18843 14.4881C4.14601 14.3935 4.12408 14.2909 4.12408 14.1872C4.12408 14.0834 4.14601 13.9809 4.18843 13.8862C4.23085 13.7915 4.2928 13.7069 4.37022 13.6379C4.44764 13.5688 4.53878 13.5169 4.63767 13.4856C4.73655 13.4542 4.84095 13.4441 4.944 13.456C5.14748 13.4463 5.3467 13.5164 5.49915 13.6515C5.6516 13.7867 5.74521 13.976 5.76 14.1792Z" fill="#8E4F03"/>
<path d="M5.44001 14.1827C5.44128 14.2861 5.41177 14.3876 5.35523 14.4742C5.2987 14.5608 5.21768 14.6287 5.12249 14.6691C5.0273 14.7096 4.92223 14.7208 4.82063 14.7014C4.71903 14.682 4.6255 14.6329 4.55191 14.5602C4.47832 14.4875 4.428 14.3946 4.40735 14.2932C4.3867 14.1919 4.39665 14.0867 4.43593 13.991C4.47522 13.8953 4.54206 13.8135 4.62797 13.7559C4.71388 13.6983 4.81498 13.6675 4.91841 13.6675C4.98649 13.6671 5.05398 13.6801 5.11704 13.7057C5.1801 13.7314 5.23748 13.7692 5.28592 13.8171C5.33435 13.8649 5.37289 13.9218 5.39933 13.9845C5.42577 14.0473 5.43959 14.1146 5.44001 14.1827Z" fill="#E6B75F"/>
<path d="M5.16799 14.3363C5.10286 14.2815 5.03329 14.2323 4.95999 14.1891C4.99257 14.1474 5.02785 14.1078 5.06559 14.0707C5.08159 14.0707 5.08799 14.0099 5.06559 14.0323C5.01535 14.0713 4.9702 14.1165 4.93119 14.1667H4.91519C4.84519 14.1126 4.76608 14.0714 4.68159 14.0451C4.68159 14.0451 4.65919 14.0643 4.68159 14.0675C4.71611 14.0877 4.74924 14.1101 4.78079 14.1347L4.89599 14.2051L4.84159 14.2723C4.82068 14.3031 4.79712 14.332 4.77119 14.3587C4.77119 14.3587 4.75519 14.3875 4.77119 14.3811C4.78719 14.3747 4.84799 14.3075 4.88639 14.2691C4.90187 14.2558 4.91583 14.2407 4.92799 14.2243C5.00159 14.2723 5.06879 14.3203 5.14239 14.3651C5.15199 14.3747 5.17759 14.3491 5.16799 14.3363Z" fill="#8E4F03"/>
<path d="M4.95039 13.168C4.87184 13.1645 4.7935 13.1785 4.721 13.2089C4.64851 13.2393 4.58368 13.2855 4.53119 13.344C4.52802 13.3533 4.52802 13.3635 4.53119 13.3728C4.53119 13.3728 4.53119 13.3728 4.55039 13.3728C4.60953 13.359 4.66934 13.3484 4.72959 13.3408C4.82176 13.336 4.91417 13.3425 5.00479 13.36C5.07519 13.36 5.19039 13.456 5.26079 13.4304C5.26079 13.4304 5.29279 13.4048 5.28959 13.3888C5.26079 13.2416 5.08159 13.184 4.95039 13.168Z" fill="#8E4F03"/>
<path d="M5.95841 14.5796C5.75045 14.5993 5.54994 14.6672 5.37281 14.778C5.20859 14.871 5.07765 15.0131 4.99841 15.1844C4.99841 15.2036 5.01441 15.1844 5.02081 15.1844C5.13197 15.018 5.28258 14.8817 5.45921 14.7876C5.61547 14.7254 5.77586 14.674 5.93921 14.634C5.95841 14.634 5.99681 14.5796 5.95841 14.5796Z" fill="#8E4F03"/>
<path d="M5.53921 15.8658C5.51681 15.8242 5.46241 15.7954 5.42721 15.7634C5.38834 15.7278 5.35963 15.6826 5.34401 15.6322C5.34401 15.613 5.30881 15.6322 5.30881 15.6546C5.30214 15.7025 5.31233 15.7511 5.33761 15.7922C5.13243 15.8428 4.91712 15.8339 4.71681 15.7666C4.49921 15.7122 4.25601 15.725 4.03201 15.6866C3.52321 15.6002 2.99201 15.6034 2.48001 15.5234C2.48001 15.5234 2.45441 15.5426 2.48001 15.549C2.73342 15.6171 2.99271 15.661 3.25441 15.6802C3.54561 15.7282 3.84001 15.725 4.13121 15.7794C4.42241 15.8338 4.64641 15.8402 4.90241 15.8914C5.06534 15.9385 5.24028 15.9189 5.38881 15.837C5.40202 15.8597 5.42004 15.8792 5.44161 15.8941C5.46317 15.909 5.48775 15.919 5.51361 15.9234C5.51681 15.9234 5.55201 15.885 5.53921 15.8658Z" fill="#8E4F03"/>
<g style="mix-blend-mode:multiply">
<path d="M10.5376 12.6433L10.4096 12.4545L10.4928 12.3809C10.4928 12.3809 10.4928 12.3457 10.4928 12.3617C10.4928 12.3777 10.4352 12.4097 10.4032 12.4353C10.352 12.3553 10.304 12.2753 10.256 12.1953L10.4128 12.0673C10.4128 12.0673 10.432 12.0193 10.4128 12.0353L10.24 12.1601C10.176 12.0513 10.1152 11.9393 10.0544 11.8401C10.0896 11.8113 10.128 11.7857 10.1664 11.7601C10.2048 11.7345 10.1984 11.6929 10.1664 11.7153L10.0352 11.8017L9.86876 11.4817C9.86876 11.4817 9.83996 11.4817 9.84316 11.5009L10.0064 11.8209L9.59996 12.0737C9.51036 11.9393 9.42076 11.7985 9.33436 11.6609C9.46556 11.5745 9.59676 11.4881 9.73436 11.4049C9.73436 11.4049 9.75996 11.3569 9.73436 11.3729C9.59356 11.4529 9.45276 11.5393 9.31836 11.6289L9.27035 11.5489C9.27035 11.5489 9.24796 11.5489 9.25116 11.5681L9.29276 11.6481C9.16476 11.7313 9.04636 11.8209 8.92796 11.9137L8.84796 11.7473C8.84796 11.7473 8.82236 11.7473 8.82556 11.7665C8.82876 11.7857 8.87356 11.8785 8.90236 11.9361C8.78076 12.0321 8.66876 12.1313 8.55676 12.2369L8.43836 11.9489C8.46359 12.0528 8.50007 12.1537 8.54716 12.2497C8.42556 12.3713 8.30716 12.5025 8.19196 12.6401C8.30381 12.5103 8.42237 12.3864 8.54716 12.2689L8.63036 12.4481C8.66876 12.5505 8.71036 12.6497 8.75836 12.7489C8.66064 12.8503 8.56876 12.9571 8.48316 13.0689C8.57001 12.9623 8.66296 12.8608 8.76156 12.7649C8.81596 12.8833 8.87356 12.9953 8.93756 13.1073C8.93756 13.1073 8.95996 13.1073 8.93756 13.0913C8.88636 12.9729 8.82876 12.8545 8.77436 12.7361C8.88316 12.6337 8.99836 12.5345 9.11996 12.4385C9.19676 12.5953 9.27996 12.7585 9.36956 12.8961C9.31196 12.9601 9.25756 13.0241 9.20316 13.0913C9.20316 13.1073 9.20316 13.1233 9.21916 13.0913C9.23516 13.0593 9.32796 12.9665 9.38556 12.9089L9.43676 12.9921C9.43676 12.9921 9.47836 12.9761 9.46876 12.9601L9.42076 12.8737C9.54455 12.7445 9.67485 12.6216 9.81116 12.5057L9.98396 12.7489C9.98396 12.7649 9.95196 12.7841 9.93276 12.8001C9.91356 12.8161 9.93276 12.8289 9.93276 12.8001L9.99035 12.7489C10.0096 12.7809 10.032 12.8097 10.0544 12.8417C10.0768 12.8737 10.0832 12.8417 10.0768 12.8193L10.0224 12.7201L10.3776 12.4801C10.4224 12.5409 10.4704 12.6017 10.5184 12.6593C10.5664 12.7169 10.56 12.6497 10.5376 12.6433ZM8.77436 12.7393C8.70076 12.5825 8.62716 12.4193 8.55676 12.2657C8.66876 12.1633 8.78396 12.0641 8.90236 11.9713C8.97062 12.1249 9.04102 12.2785 9.11356 12.4321C8.99516 12.5313 8.87996 12.6337 8.77436 12.7393ZM8.93116 11.9489C9.04956 11.8561 9.16795 11.7665 9.29595 11.6801C9.36773 11.8295 9.44785 11.9748 9.53595 12.1153C9.40475 12.2049 9.27996 12.2977 9.15516 12.3969C9.07836 12.2497 9.00476 12.0993 8.93116 11.9489ZM9.41756 12.8897C9.33436 12.7404 9.25436 12.59 9.17756 12.4385C9.30236 12.3393 9.43035 12.2497 9.56155 12.1569C9.63515 12.2785 9.71516 12.3969 9.79836 12.5153C9.66516 12.6336 9.53806 12.7585 9.41756 12.8897ZM9.61915 12.1185L10.0096 11.8401C10.0672 11.9521 10.128 12.0673 10.192 12.1793C10.0736 12.2689 9.95836 12.3617 9.84956 12.4609L9.61915 12.1185ZM10.0288 12.7585C9.98076 12.6721 9.92636 12.5857 9.87196 12.5025L10.2112 12.2177C10.2592 12.2977 10.3104 12.3777 10.3616 12.4545C10.24 12.5569 10.1376 12.6593 10.0288 12.7649V12.7585Z" fill="#C17500"/>
<path d="M15.3919 11.1105C15.2076 11.2746 15.0324 11.4487 14.8671 11.6321L14.5151 11.4145C14.6495 11.2961 14.7839 11.1745 14.9087 11.0465C14.9279 11.0273 14.9087 10.9985 14.8895 11.0209L14.4607 11.3761C14.3295 11.2929 14.2079 11.1937 14.0831 11.1009C14.1503 11.0369 14.2143 10.9697 14.2783 10.9025C14.3423 10.8353 14.2783 10.8481 14.2559 10.8737L14.0415 11.0689C13.9758 11.0194 13.9074 10.9734 13.8367 10.9313C13.8367 10.9313 13.8079 10.9505 13.8175 10.9569C13.8847 11.0017 13.9487 11.0497 14.0127 11.0977L13.6607 11.4177L13.5263 11.3313L13.6511 11.4241C13.5455 11.5233 13.4463 11.6193 13.3311 11.7217L13.2575 11.6545C13.2575 11.6545 13.2191 11.6737 13.2319 11.6865L13.3023 11.7505C13.2223 11.8305 13.1455 11.9137 13.0751 11.9969L13.3215 11.7665C13.4271 11.8625 13.5423 11.9521 13.6415 12.0417C13.5487 12.1249 13.4623 12.2081 13.3759 12.2913L13.6607 12.0513C13.7951 12.1569 13.9231 12.2721 14.0607 12.3713L13.9359 12.4641C13.9359 12.4641 13.9199 12.4929 13.9359 12.4833C13.9854 12.4539 14.0324 12.4208 14.0767 12.3841L14.1119 12.4097C14.1119 12.4097 14.1631 12.3809 14.1471 12.3681L14.1183 12.3489C14.2335 12.2497 14.3391 12.1409 14.4383 12.0289C14.4907 12.0679 14.5464 12.1021 14.6047 12.1313C14.6047 12.1313 14.6495 12.0993 14.6335 12.0897C14.5804 12.0585 14.5291 12.0244 14.4799 11.9873L14.5695 11.9073C14.6591 11.8273 14.7455 11.7409 14.8287 11.6545C14.9151 11.7089 15.0015 11.7633 15.0847 11.8209C15.1039 11.8209 15.1359 11.7953 15.1199 11.7825C15.0399 11.7217 14.9567 11.6641 14.8735 11.6097C15.0367 11.4337 15.1935 11.2545 15.3727 11.0913C15.4207 11.1233 15.4175 11.0881 15.3919 11.1105ZM13.7055 11.4305C13.8239 11.3313 13.9391 11.2289 14.0511 11.1105C14.1663 11.2033 14.2783 11.2993 14.3967 11.3889L14.0767 11.6705C13.9519 11.5841 13.8207 11.5041 13.6927 11.4209L13.7055 11.4305ZM13.3535 11.7505C13.4559 11.6513 13.5615 11.5521 13.6735 11.4593L14.0415 11.7185C13.9231 11.8177 13.8079 11.9233 13.6959 12.0385C13.5775 11.9489 13.4623 11.8593 13.3535 11.7633V11.7505ZM14.1279 12.3649C13.9935 12.2593 13.8591 12.1537 13.7215 12.0449L14.0799 11.7665C14.2079 11.8593 14.3231 11.9713 14.4479 12.0673C14.3519 12.1761 14.2431 12.2785 14.1279 12.3777V12.3649ZM14.4991 12.0129C14.3743 11.9201 14.2559 11.8113 14.1311 11.7217L14.4671 11.4401C14.5823 11.5201 14.7039 11.5937 14.8223 11.6673C14.7199 11.7953 14.6079 11.9137 14.4991 12.0257V12.0129Z" fill="#C17500"/>
<path d="M17.2255 11.373C17.0879 11.469 16.9535 11.5746 16.8255 11.693L16.6559 11.853C16.6502 11.863 16.6426 11.8717 16.6335 11.8786L16.4287 11.6226L16.5919 11.4882C16.6487 11.5719 16.7118 11.651 16.7807 11.725C16.7807 11.725 16.8095 11.725 16.8031 11.6994C16.7487 11.6162 16.6911 11.5362 16.6335 11.453C16.7103 11.389 16.7871 11.3282 16.8607 11.261C16.8767 11.261 16.8607 11.213 16.8607 11.2354L16.6271 11.4306C16.5567 11.3314 16.4863 11.2354 16.4191 11.1362C16.4191 11.1362 16.3999 11.1362 16.4031 11.1362C16.4577 11.2463 16.5186 11.3532 16.5855 11.4562C16.5343 11.5042 16.4767 11.549 16.4255 11.5938C16.3551 11.5106 16.2879 11.4242 16.2175 11.3378C16.2175 11.3378 16.1983 11.3378 16.2175 11.357L16.4127 11.6162C16.2783 11.7346 16.1727 11.8786 16.0447 12.0034C16.1791 11.8882 16.2943 11.7506 16.4255 11.6322L16.6367 11.8914C16.5923 11.9633 16.5361 12.0271 16.4703 12.0802C16.4703 12.0802 16.4703 12.1026 16.4703 12.0994C16.494 12.0883 16.5148 12.0719 16.5311 12.0514L16.6559 11.9138L16.7231 11.9938C16.7231 11.9938 16.7455 11.9938 16.7391 11.9746L16.6751 11.8914C16.7103 11.8594 16.7423 11.8242 16.7807 11.7922C16.9311 11.6514 17.1007 11.5394 17.2543 11.3954C17.2415 11.389 17.2479 11.357 17.2255 11.373Z" fill="#C17500"/>
<path d="M20.2911 12.2464C20.1791 12.3232 20.0671 12.4096 19.9711 12.4992L19.6159 12.1984L19.7439 12.096C19.7631 12.096 19.7663 12.0384 19.7439 12.0576C19.6909 12.0923 19.6396 12.1297 19.5903 12.1696L19.3055 11.9264L19.3919 11.84C19.3919 11.84 19.4111 11.7952 19.3919 11.8112C19.3727 11.8272 19.3023 11.8752 19.2607 11.9072C19.1455 11.8144 19.0271 11.7248 18.9055 11.6416C19.0175 11.7312 19.1231 11.8272 19.2255 11.9232C19.0882 12.0391 18.9568 12.162 18.8319 12.2912C18.7231 12.1984 18.6111 12.1056 18.5119 12.0064C18.5119 12.0064 18.4895 12.0064 18.5119 12.0256C18.6079 12.128 18.7135 12.2272 18.8319 12.3232L18.7039 12.4512C18.5951 12.56 18.4799 12.6656 18.3679 12.7712C18.2747 12.6886 18.186 12.601 18.1023 12.5088C18.1768 12.6072 18.2592 12.6992 18.3487 12.784L18.2911 12.8352C18.1877 12.9505 18.0753 13.0575 17.9551 13.1552C17.9551 13.1552 17.9327 13.1936 17.9551 13.1808C18.0127 13.149 18.0628 13.1054 18.1023 13.0528C18.1887 12.9632 18.2783 12.88 18.3679 12.7968C18.4671 12.896 18.5727 12.992 18.6879 13.0848L18.4479 13.376C18.4479 13.392 18.4479 13.4016 18.4479 13.376L18.7039 13.0944L18.9311 13.3024C18.9311 13.3024 18.9695 13.2832 18.9599 13.2736C18.8893 13.1981 18.8145 13.1265 18.7359 13.0592C18.8831 12.8992 19.0303 12.7392 19.1807 12.5856L19.5359 12.9056C19.4382 13.0069 19.3463 13.1138 19.2607 13.2256C19.2607 13.2448 19.2607 13.248 19.2607 13.2256C19.3503 13.1168 19.4495 13.0144 19.5519 12.9056C19.5597 12.9149 19.5682 12.9235 19.5775 12.9312C19.5775 12.9312 19.6191 12.9088 19.6095 12.896L19.5839 12.8736C19.7151 12.7424 19.8527 12.6208 19.9935 12.4992L20.0767 12.5632C20.0767 12.5632 20.1215 12.5376 20.1055 12.528L20.0351 12.464L20.3359 12.208C20.3359 12.208 20.3199 12.2272 20.2911 12.2464ZM18.6591 13.0784L18.3391 12.8032L18.5279 12.6304L18.8127 12.3584L19.0847 12.5984C18.9407 12.752 18.7967 12.9152 18.6591 13.0784ZM18.8511 12.3264C18.9823 12.2016 19.1103 12.08 19.2447 11.9616L19.5167 12.208C19.3826 12.3173 19.2544 12.4338 19.1327 12.5568C19.0399 12.48 18.9471 12.4032 18.8511 12.3264ZM19.5199 12.9088C19.4099 12.7956 19.2934 12.6887 19.1711 12.5888C19.2927 12.4672 19.4207 12.3488 19.5519 12.2368C19.6703 12.3424 19.7887 12.4416 19.9135 12.5376C19.7747 12.653 19.6433 12.777 19.5199 12.9088Z" fill="#C17500"/>
<path d="M22.1824 12.9567L22.0608 13.0527C21.9648 12.9823 21.8592 12.9215 21.76 12.8543L21.856 12.7839C21.8752 12.7679 21.8912 12.7135 21.856 12.7359L21.7248 12.8255C21.6581 12.7793 21.5969 12.7256 21.5424 12.6655C21.5424 12.6655 21.5072 12.6847 21.5168 12.6975C21.5675 12.7556 21.6231 12.8092 21.6832 12.8575C21.5968 12.9215 21.5136 12.9951 21.4304 13.0687C21.3664 13.0143 21.2992 12.9631 21.2352 12.9055C21.2352 12.9055 21.2064 12.9215 21.216 12.9279C21.2768 12.9855 21.3376 13.0431 21.4016 13.0943C21.1552 13.3215 20.9376 13.5775 20.704 13.8175C20.9536 13.5839 21.1808 13.3375 21.4272 13.1103C21.5168 13.1871 21.6096 13.2607 21.7024 13.3311C21.5862 13.4406 21.4792 13.5594 21.3824 13.6863C21.3824 13.7055 21.3824 13.7183 21.3824 13.6863C21.497 13.5732 21.6177 13.4664 21.744 13.3663L21.8752 13.4623C21.8912 13.4623 21.9168 13.4399 21.904 13.4271L21.7824 13.3311L22.0512 13.1039L22.1408 13.1679C22.1568 13.1679 22.1856 13.1455 22.1696 13.1327C22.1536 13.1199 22.1184 13.0911 22.0928 13.0687L22.192 12.9791C22.2208 12.9727 22.2176 12.9311 22.1824 12.9567ZM21.76 13.3119L21.4816 13.0975C21.5626 13.025 21.6458 12.9546 21.7312 12.8863C21.8272 12.9567 21.9296 13.0207 22.0288 13.0879C21.9232 13.1615 21.8336 13.2351 21.76 13.3119Z" fill="#C17500"/>
<path d="M25.6 13.7279L25.36 13.9679L24.928 13.6479L25.1488 13.4271C25.1488 13.4271 25.1488 13.3855 25.1488 13.4015C25.0611 13.4676 24.9778 13.5392 24.8992 13.6159C24.7488 13.5103 24.6048 13.4047 24.464 13.2959C24.5172 13.2383 24.5654 13.1762 24.608 13.1103C24.6272 13.0879 24.608 13.0847 24.5856 13.1103L24.4288 13.2799C24.3616 13.2255 24.2944 13.1711 24.2304 13.1103C24.2304 13.1103 24.1952 13.1103 24.2048 13.1391L24.4 13.3119C24.288 13.4367 24.1728 13.5583 24.0576 13.6831C23.9264 13.5903 23.7984 13.4943 23.6704 13.3983L24.0448 13.6927C23.9465 13.8025 23.8546 13.9179 23.7696 14.0383L23.3664 13.7183C23.3664 13.7183 23.3312 13.7407 23.3408 13.7471L23.7376 14.0671C23.6429 14.2017 23.5357 14.327 23.4176 14.4415C23.5468 14.3338 23.6618 14.2101 23.76 14.0735L24.1664 14.3935C24.1043 14.4814 24.0323 14.5619 23.952 14.6335C23.9328 14.6335 23.952 14.6783 23.952 14.6591C24.0387 14.5884 24.118 14.509 24.1888 14.4223C24.3584 14.5567 24.5312 14.6943 24.7008 14.8351C24.7008 14.8351 24.752 14.8063 24.736 14.7935C24.5728 14.6463 24.416 14.5087 24.2272 14.3743C24.3072 14.2751 24.384 14.1759 24.464 14.0895L24.528 14.0255L24.9664 14.3455C24.8608 14.4511 24.752 14.5759 24.7616 14.6303H24.7328C24.7328 14.6527 24.7552 14.6303 24.7616 14.6303C24.8235 14.5499 24.8897 14.473 24.96 14.3999L25.0304 14.4511C25.0304 14.4511 25.0528 14.4511 25.0304 14.4319L24.96 14.3999C25.0752 14.2751 25.1968 14.1567 25.3184 14.0415L25.3472 14.0607C25.3472 14.0607 25.3984 14.0319 25.3824 14.0191H25.3568C25.44 13.9423 25.5168 13.8655 25.5936 13.7887C25.6256 13.7375 25.6 13.7055 25.6 13.7279ZM24.2496 14.2975L24.16 14.3999L23.7504 14.0799C23.824 13.9839 23.8944 13.8911 23.9648 13.8047L24.0384 13.7247L24.464 14.0447C24.3872 14.1279 24.32 14.2111 24.2368 14.2975H24.2496ZM24.0736 13.6959C24.1888 13.5743 24.3104 13.4591 24.4224 13.3343C24.56 13.4495 24.7008 13.5583 24.848 13.6543C24.7584 13.7439 24.6752 13.8335 24.5888 13.9167L24.5088 14.0031L24.0736 13.6959ZM25.0944 14.2431L24.9664 14.3679C24.8288 14.2559 24.688 14.1439 24.5408 14.0479C24.656 13.9295 24.7712 13.8175 24.8896 13.7055L25.3216 14.0255C25.232 14.0799 25.1552 14.1631 25.0816 14.2431H25.0944Z" fill="#C17500"/>
</g>
<path d="M10.016 16.4066C10.016 16.3106 9.88799 16.3234 9.83039 16.3586C9.80235 16.375 9.77961 16.3991 9.76486 16.428C9.75011 16.457 9.74397 16.4895 9.74719 16.5218C9.74581 16.5303 9.74581 16.539 9.74719 16.5474C9.74719 16.6082 9.80159 16.6306 9.85279 16.6146C9.87145 16.6082 9.8888 16.5985 9.90399 16.5858C9.92075 16.5766 9.93503 16.5634 9.94559 16.5474C9.96763 16.5312 9.98551 16.51 9.99775 16.4855C10.01 16.461 10.0162 16.434 10.016 16.4066Z" fill="#461800"/>
<path d="M10.9312 15.6228C10.9214 15.6172 10.9104 15.6143 10.8992 15.6143C10.8879 15.6143 10.8769 15.6172 10.8672 15.6228C10.8448 15.6212 10.8224 15.6258 10.8025 15.6361C10.7825 15.6464 10.7658 15.6621 10.7542 15.6813C10.7426 15.7005 10.7366 15.7225 10.7368 15.745C10.7369 15.7674 10.7433 15.7894 10.7552 15.8084C10.7672 15.8215 10.7817 15.832 10.798 15.8391C10.8142 15.8463 10.8318 15.85 10.8496 15.85C10.8673 15.85 10.8849 15.8463 10.9011 15.8391C10.9174 15.832 10.932 15.8215 10.944 15.8084C10.992 15.7668 11.0048 15.658 10.9312 15.6228Z" fill="#461800"/>
<path d="M10.912 16.7873L10.88 16.7713C10.8032 16.7457 10.7616 16.8417 10.7776 16.9025C10.7823 16.9149 10.7897 16.9261 10.7991 16.9353C10.8085 16.9446 10.8198 16.9518 10.8323 16.9563C10.8447 16.9609 10.858 16.9627 10.8711 16.9617C10.8843 16.9607 10.8972 16.9569 10.9088 16.9505C10.9252 16.9426 10.9392 16.9304 10.9493 16.9152C10.9595 16.9 10.9653 16.8824 10.9664 16.8641C10.9653 16.8475 10.9597 16.8316 10.9501 16.818C10.9405 16.8045 10.9273 16.7938 10.912 16.7873Z" fill="#461800"/>
<path d="M11.3472 14.7618C11.3288 14.7697 11.3131 14.7826 11.3017 14.799C11.2904 14.8154 11.284 14.8347 11.2832 14.8546C11.2816 14.8695 11.2816 14.8846 11.2832 14.8994C11.2705 14.9175 11.2598 14.9368 11.2512 14.957C11.2512 14.9858 11.2512 15.0306 11.2832 15.037C11.3152 15.0434 11.4016 14.9538 11.4112 14.8962C11.4208 14.8386 11.424 14.7362 11.3472 14.7618Z" fill="#461800"/>
<path d="M12.304 16.941C12.2803 16.9211 12.2512 16.9087 12.2205 16.9053C12.1897 16.9018 12.1586 16.9076 12.1312 16.9218C12.1101 16.937 12.0923 16.9562 12.0788 16.9785C12.0654 17.0007 12.0566 17.0255 12.0531 17.0512C12.0495 17.0769 12.0511 17.1031 12.058 17.1282C12.0648 17.1532 12.0766 17.1766 12.0928 17.197C12.106 17.2241 12.1272 17.2464 12.1536 17.261C12.24 17.3154 12.3776 17.1874 12.368 17.101C12.3652 17.042 12.3427 16.9856 12.304 16.941Z" fill="#461800"/>
<path d="M13.792 16.0834C13.7838 16.0802 13.7746 16.0802 13.7664 16.0834C13.7312 16.061 13.6928 16.109 13.68 16.1442C13.6672 16.1794 13.68 16.253 13.7248 16.2466C13.7696 16.2402 13.8048 16.189 13.808 16.141C13.8093 16.1308 13.8086 16.1204 13.8058 16.1106C13.8031 16.1007 13.7984 16.0914 13.792 16.0834Z" fill="#461800"/>
<path d="M13.8848 17.0369C13.8812 17.0328 13.8768 17.0296 13.8718 17.0273C13.8668 17.0251 13.8614 17.0239 13.856 17.0239C13.8505 17.0239 13.8452 17.0251 13.8402 17.0273C13.8352 17.0296 13.8308 17.0328 13.8272 17.0369C13.8209 17.0333 13.8137 17.0314 13.8064 17.0314C13.7991 17.0314 13.7919 17.0333 13.7856 17.0369C13.7777 17.044 13.7718 17.0529 13.7682 17.0629C13.7646 17.0729 13.7636 17.0836 13.7652 17.094C13.7668 17.1045 13.7709 17.1144 13.7773 17.1229C13.7836 17.1313 13.792 17.1381 13.8016 17.1425C13.8049 17.1465 13.809 17.1498 13.8137 17.152C13.8185 17.1542 13.8236 17.1554 13.8288 17.1554C13.834 17.1554 13.8391 17.1542 13.8438 17.152C13.8485 17.1498 13.8527 17.1465 13.856 17.1425C13.8713 17.1307 13.8816 17.1136 13.8848 17.0945C13.8896 17.0857 13.892 17.0758 13.892 17.0657C13.892 17.0557 13.8896 17.0458 13.8848 17.0369Z" fill="#461800"/>
<path d="M14.5183 15.1265C14.5183 15.1265 14.5183 15.1265 14.4927 15.1265C14.4671 15.1265 14.4447 15.1745 14.4415 15.2097C14.4383 15.2449 14.4895 15.2545 14.5151 15.2257C14.5407 15.1969 14.5503 15.1457 14.5183 15.1265Z" fill="#461800"/>
<path d="M16.1856 16.4866L16.16 16.4642C16.1443 16.4438 16.1214 16.4301 16.096 16.4258C16.0064 16.4258 15.9424 16.5474 15.9488 16.6178C15.9496 16.6369 15.9556 16.6554 15.9664 16.6713C15.9771 16.6871 15.9921 16.6996 16.0096 16.7074C16.0365 16.7169 16.0659 16.7169 16.0928 16.7074H16.1184C16.1423 16.6981 16.1633 16.6827 16.1792 16.6626C16.2026 16.6396 16.2163 16.6086 16.2175 16.5759C16.2187 16.5431 16.2073 16.5112 16.1856 16.4866Z" fill="#461800"/>
<path d="M17.0368 16.9603C17.0251 16.9504 17.0105 16.9448 16.9952 16.9443C16.9504 16.9443 16.9024 16.9923 16.8992 17.0339C16.896 17.0755 16.9568 17.1587 17.0144 17.1107C17.0263 17.1028 17.0365 17.0925 17.0441 17.0804C17.0518 17.0683 17.0569 17.0547 17.059 17.0405C17.0611 17.0263 17.0602 17.0119 17.0564 16.9981C17.0526 16.9843 17.0459 16.9714 17.0368 16.9603Z" fill="#461800"/>
<path d="M18.2656 16.1442C18.208 16.077 18.144 16.1762 18.1248 16.2274C18.1139 16.2528 18.1074 16.2798 18.1056 16.3074C18.1034 16.3202 18.1049 16.3333 18.11 16.3452C18.1152 16.3572 18.1236 16.3674 18.1344 16.3746C18.1664 16.3938 18.1984 16.3746 18.224 16.3522C18.2551 16.3286 18.2765 16.2944 18.2842 16.2561C18.2919 16.2177 18.2852 16.1779 18.2656 16.1442Z" fill="#461800"/>
<path d="M19.52 16.8033C19.5123 16.7985 19.5035 16.7959 19.4944 16.7959C19.4853 16.7959 19.4765 16.7985 19.4688 16.8033C19.455 16.8053 19.4418 16.8107 19.4307 16.8191C19.4195 16.8275 19.4106 16.8386 19.4048 16.8513C19.3952 16.8657 19.3888 16.8821 19.3861 16.8992C19.3833 16.9163 19.3842 16.9338 19.3888 16.9505C19.408 17.0305 19.488 17.0241 19.536 16.9729C19.5491 16.9623 19.5593 16.9486 19.5658 16.933C19.5724 16.9175 19.5749 16.9006 19.5734 16.8838C19.5718 16.867 19.5661 16.8509 19.5568 16.8369C19.5475 16.8228 19.5348 16.8113 19.52 16.8033Z" fill="#461800"/>
<path d="M20.3232 16C20.3163 15.9919 20.3077 15.9854 20.298 15.9809C20.2884 15.9764 20.2778 15.9741 20.2672 15.9741C20.2565 15.9741 20.246 15.9764 20.2363 15.9809C20.2267 15.9854 20.2181 15.9919 20.2112 16C20.198 16.0164 20.1886 16.0355 20.1836 16.056C20.1787 16.0764 20.1782 16.0977 20.1824 16.1184C20.1835 16.1271 20.1865 16.1356 20.191 16.1432C20.1956 16.1507 20.2016 16.1573 20.2089 16.1624C20.2161 16.1675 20.2243 16.1711 20.2329 16.1728C20.2416 16.1746 20.2505 16.1746 20.2592 16.1728C20.2751 16.1694 20.2899 16.1621 20.3022 16.1515C20.3146 16.1408 20.324 16.1272 20.3296 16.112C20.3391 16.0946 20.3436 16.0749 20.3425 16.055C20.3414 16.0352 20.3347 16.0161 20.3232 16Z" fill="#461800"/>
<path d="M19.6704 15.21C19.6607 15.1918 19.6472 15.176 19.6308 15.1636C19.6143 15.1512 19.5954 15.1426 19.5753 15.1383C19.5551 15.134 19.5343 15.1342 19.5142 15.1389C19.4942 15.1435 19.4754 15.1525 19.4592 15.1652C19.4324 15.1882 19.4154 15.2206 19.4118 15.2558C19.4083 15.2909 19.4183 15.3261 19.44 15.354C19.4538 15.3714 19.4713 15.3856 19.4912 15.3956H19.5168C19.5268 15.4002 19.5377 15.4026 19.5488 15.4026C19.5598 15.4026 19.5708 15.4002 19.5808 15.3956C19.6019 15.3893 19.6208 15.3771 19.6352 15.3604C19.6496 15.3415 19.6593 15.3196 19.6638 15.2962C19.6682 15.2729 19.6672 15.2489 19.6608 15.226C19.6608 15.226 19.6736 15.2164 19.6704 15.21Z" fill="#461800"/>
<path d="M17.3248 15.0404C17.3248 15.0052 17.2928 14.986 17.2608 14.9732C17.253 14.9687 17.2442 14.9663 17.2352 14.9663C17.2262 14.9663 17.2174 14.9687 17.2096 14.9732C17.1963 14.9728 17.1833 14.9771 17.1728 14.9853C17.1623 14.9935 17.1549 15.005 17.152 15.018C17.1473 15.0269 17.1445 15.0367 17.1439 15.0468C17.1433 15.0568 17.1449 15.0669 17.1485 15.0763C17.1522 15.0857 17.1578 15.0943 17.165 15.1013C17.1722 15.1083 17.1809 15.1138 17.1904 15.1172C17.1987 15.1234 17.2088 15.1268 17.2192 15.1268C17.2296 15.1268 17.2397 15.1234 17.248 15.1172C17.28 15.1044 17.328 15.0692 17.3248 15.0404Z" fill="#461800"/>
<path d="M16.8704 15.0403C16.8546 15.0413 16.8394 15.0466 16.8264 15.0556C16.8134 15.0646 16.8032 15.077 16.7968 15.0915C16.795 15.0999 16.795 15.1086 16.7968 15.1171C16.7968 15.1395 16.7968 15.1619 16.8256 15.1619C16.8544 15.1619 16.8992 15.1139 16.9056 15.0787C16.9066 15.0737 16.9065 15.0685 16.9051 15.0636C16.9038 15.0587 16.9013 15.0542 16.8979 15.0504C16.8944 15.0467 16.8901 15.0438 16.8853 15.042C16.8806 15.0403 16.8754 15.0397 16.8704 15.0403Z" fill="#461800"/>
<path d="M20.8448 16.0001C20.8448 16.0001 20.8448 15.9617 20.8096 15.9585C20.7744 15.9553 20.7584 15.9585 20.7424 15.9969C20.7332 16.0046 20.7261 16.0145 20.7216 16.0257C20.7172 16.0368 20.7155 16.0489 20.7168 16.0609C20.7168 16.1185 20.7904 16.1025 20.8224 16.0609C20.8318 16.0541 20.839 16.0447 20.8429 16.0339C20.8469 16.0231 20.8476 16.0113 20.8448 16.0001Z" fill="#461800"/>
<path d="M21.3088 15.5137C21.2768 15.5137 21.232 15.5905 21.2768 15.5905C21.3216 15.5905 21.3536 15.5137 21.3088 15.5137Z" fill="#461800"/>
<path d="M23.1136 15.1328C23.1032 15.1296 23.092 15.1296 23.0816 15.1328C23.0628 15.1385 23.0465 15.1506 23.0354 15.1669C23.0244 15.1832 23.0192 15.2027 23.0208 15.2224C23.0204 15.2315 23.0222 15.2406 23.0261 15.2489C23.0299 15.2571 23.0357 15.2644 23.0428 15.27C23.05 15.2756 23.0585 15.2795 23.0674 15.2812C23.0764 15.2829 23.0856 15.2825 23.0944 15.28C23.1158 15.2761 23.1352 15.2646 23.1487 15.2475C23.1623 15.2304 23.1691 15.209 23.168 15.1872C23.1672 15.173 23.1612 15.1596 23.1512 15.1496C23.1412 15.1395 23.1278 15.1335 23.1136 15.1328Z" fill="#461800"/>
<path d="M24.32 15.2545C24.3223 15.2415 24.3218 15.2281 24.3184 15.2153C24.3149 15.2025 24.3087 15.1907 24.3001 15.1806C24.2916 15.1705 24.2809 15.1624 24.2688 15.1569C24.2567 15.1514 24.2436 15.1487 24.2304 15.1489C24.1987 15.156 24.1702 15.1733 24.1494 15.1982C24.1285 15.223 24.1165 15.2541 24.1152 15.2865C24.1152 15.3473 24.1824 15.3665 24.2336 15.3409C24.2558 15.3263 24.2753 15.3079 24.2912 15.2865C24.2912 15.2865 24.32 15.2641 24.32 15.2545Z" fill="#461800"/>
<path d="M8.37438 16.5344C8.37438 16.5056 8.32318 16.5536 8.32638 16.5728C8.3261 16.5806 8.32805 16.5884 8.33202 16.5952C8.33598 16.602 8.34179 16.6075 8.34878 16.6112C8.34878 16.6112 8.38078 16.6112 8.39038 16.6112C8.39099 16.6037 8.39099 16.5962 8.39038 16.5888C8.39038 16.5888 8.38078 16.5504 8.37438 16.5344Z" fill="#461800"/>
<path d="M7.99996 16.9956C7.97756 16.9956 7.94556 17.05 7.97756 17.05C8.00956 17.05 8.03516 16.9956 7.99996 16.9956Z" fill="#461800"/>
<path d="M11.2 11.7314C11.1648 11.7314 11.1136 11.8178 11.1648 11.8178C11.216 11.8178 11.2448 11.7314 11.2 11.7314Z" fill="#461800"/>
<path d="M12.9216 11.0532C12.88 11.0532 12.8224 11.1556 12.88 11.1556C12.9376 11.1556 12.9824 11.0532 12.9216 11.0532Z" fill="#461800"/>
<g style="mix-blend-mode:screen" opacity="0.5">
<path d="M16.8 10.6946C16.4506 10.5783 16.0864 10.5126 15.7184 10.4994C15.376 10.4642 15.0272 10.4482 14.6816 10.4418C13.9336 10.4348 13.1858 10.469 12.4416 10.5442C11.1616 10.6626 9.68638 10.845 8.55038 11.5042C8.52798 11.5042 8.49278 11.5874 8.55038 11.5746C9.14238 11.421 9.70878 11.1874 10.3072 11.053C10.9721 10.9326 11.6447 10.8599 12.32 10.8354C13.0266 10.7762 13.7358 10.7538 14.4448 10.7682C14.8416 10.7682 15.2384 10.8034 15.6352 10.8418C15.9807 10.8972 16.3289 10.9335 16.6784 10.9506C16.752 10.9634 16.928 10.7458 16.8 10.6946Z" fill="white"/>
<path d="M20.1024 11.2196C19.6468 11.0631 19.1775 10.9495 18.7008 10.8804C18.2477 10.7688 17.7815 10.7204 17.3152 10.7364C17.2768 10.7364 17.184 10.8548 17.2512 10.8644C17.68 10.9316 18.1056 11.0628 18.5312 11.1524C19.0177 11.2639 19.5119 11.3387 20.0096 11.3764C20.064 11.3732 20.1856 11.2516 20.1024 11.2196Z" fill="white"/>
</g>
<g style="mix-blend-mode:screen">
<path d="M5.16795 12.8834C4.7251 13.1102 4.29752 13.3657 3.88795 13.6482C3.68526 13.7859 3.49178 13.9366 3.30875 14.0994C3.10715 14.285 2.94395 14.4994 2.75195 14.6914C2.75195 14.6914 2.75195 14.7298 2.75195 14.7138C3.10986 14.3633 3.48812 14.0342 3.88475 13.7282C4.30075 13.4338 4.74235 13.2098 5.16475 12.9506C5.20635 12.9314 5.22875 12.8514 5.16795 12.8834Z" fill="#C6862C"/>
</g>
<g style="mix-blend-mode:screen">
<path d="M6.59836 12.4385C6.43036 12.4469 6.26443 12.4792 6.10556 12.5345C5.90415 12.6136 5.70848 12.7066 5.51996 12.8129C5.67676 12.8129 5.81116 12.6913 5.95836 12.6529C6.16838 12.6193 6.37581 12.5712 6.57916 12.5089C6.59516 12.5089 6.64956 12.4385 6.59836 12.4385Z" fill="#C6862C"/>
</g>
</g>
<defs>
<clipPath id="clip0_126_14061">
<rect width="32" height="32" fill="white"/>
</clipPath>
</defs>
</svg>
