<svg width="16" height="16" viewBox="0 0 16 16" fill="none" xmlns="http://www.w3.org/2000/svg">
<path d="M11.6935 5.53977C12.5992 5.53977 13.3335 4.80551 13.3335 3.89977C13.3335 2.99402 12.5992 2.25977 11.6935 2.25977C10.7877 2.25977 10.0535 2.99402 10.0535 3.89977C10.0535 4.80551 10.7877 5.53977 11.6935 5.53977Z" stroke="#E3FFA8" stroke-miterlimit="10" stroke-linecap="round" stroke-linejoin="round"/>
<path d="M4.30675 5.53977C5.2125 5.53977 5.94675 4.80551 5.94675 3.89977C5.94675 2.99402 5.2125 2.25977 4.30675 2.25977C3.40101 2.25977 2.66675 2.99402 2.66675 3.89977C2.66675 4.80551 3.40101 5.53977 4.30675 5.53977Z" stroke="#E3FFA8" stroke-miterlimit="10" stroke-linecap="round" stroke-linejoin="round"/>
<path d="M11.6935 13.74C12.5992 13.74 13.3335 13.0057 13.3335 12.1C13.3335 11.1942 12.5992 10.46 11.6935 10.46C10.7877 10.46 10.0535 11.1942 10.0535 12.1C10.0535 13.0057 10.7877 13.74 11.6935 13.74Z" stroke="#E3FFA8" stroke-miterlimit="10" stroke-linecap="round" stroke-linejoin="round"/>
<path d="M4.30675 13.74C5.2125 13.74 5.94675 13.0057 5.94675 12.1C5.94675 11.1942 5.2125 10.46 4.30675 10.46C3.40101 10.46 2.66675 11.1942 2.66675 12.1C2.66675 13.0057 3.40101 13.74 4.30675 13.74Z" stroke="#E3FFA8" stroke-miterlimit="10" stroke-linecap="round" stroke-linejoin="round"/>
</svg>
