<svg width="166" height="36" viewBox="0 0 166 36" fill="none" xmlns="http://www.w3.org/2000/svg">
<rect width="166" height="36" rx="12" fill="#E3FFA8"/>
<path d="M14 18H22" stroke="#0F0F0F" stroke-width="2" stroke-linecap="round" stroke-linejoin="round"/>
<path d="M18 22V14" stroke="#0F0F0F" stroke-width="2" stroke-linecap="round" stroke-linejoin="round"/>
<path d="M40.916 21.012H36.842L36.142 23H34.476L37.962 13.256H39.81L43.296 23H41.616L40.916 21.012ZM40.468 19.71L38.886 15.188L37.29 19.71H40.468ZM44.2797 19.108C44.2797 18.3333 44.4384 17.6473 44.7557 17.05C45.0824 16.4527 45.5211 15.9907 46.0717 15.664C46.6317 15.328 47.2524 15.16 47.9337 15.16C48.4377 15.16 48.9324 15.272 49.4177 15.496C49.9124 15.7107 50.3044 16 50.5937 16.364V12.64H52.2037V23H50.5937V21.838C50.3324 22.2113 49.9684 22.5193 49.5017 22.762C49.0444 23.0047 48.5171 23.126 47.9197 23.126C47.2477 23.126 46.6317 22.958 46.0717 22.622C45.5211 22.2767 45.0824 21.8007 44.7557 21.194C44.4384 20.578 44.2797 19.8827 44.2797 19.108ZM50.5937 19.136C50.5937 18.604 50.4817 18.142 50.2577 17.75C50.0431 17.358 49.7584 17.0593 49.4037 16.854C49.0491 16.6487 48.6664 16.546 48.2557 16.546C47.8451 16.546 47.4624 16.6487 47.1077 16.854C46.7531 17.05 46.4637 17.344 46.2397 17.736C46.0251 18.1187 45.9177 18.576 45.9177 19.108C45.9177 19.64 46.0251 20.1067 46.2397 20.508C46.4637 20.9093 46.7531 21.2173 47.1077 21.432C47.4717 21.6373 47.8544 21.74 48.2557 21.74C48.6664 21.74 49.0491 21.6373 49.4037 21.432C49.7584 21.2267 50.0431 20.928 50.2577 20.536C50.4817 20.1347 50.5937 19.668 50.5937 19.136ZM53.768 19.108C53.768 18.3333 53.9267 17.6473 54.244 17.05C54.5707 16.4527 55.0093 15.9907 55.56 15.664C56.12 15.328 56.7407 15.16 57.422 15.16C57.926 15.16 58.4207 15.272 58.906 15.496C59.4007 15.7107 59.7927 16 60.082 16.364V12.64H61.692V23H60.082V21.838C59.8207 22.2113 59.4567 22.5193 58.99 22.762C58.5327 23.0047 58.0053 23.126 57.408 23.126C56.736 23.126 56.12 22.958 55.56 22.622C55.0093 22.2767 54.5707 21.8007 54.244 21.194C53.9267 20.578 53.768 19.8827 53.768 19.108ZM60.082 19.136C60.082 18.604 59.97 18.142 59.746 17.75C59.5313 17.358 59.2467 17.0593 58.892 16.854C58.5373 16.6487 58.1547 16.546 57.744 16.546C57.3333 16.546 56.9507 16.6487 56.596 16.854C56.2413 17.05 55.952 17.344 55.728 17.736C55.5133 18.1187 55.406 18.576 55.406 19.108C55.406 19.64 55.5133 20.1067 55.728 20.508C55.952 20.9093 56.2413 21.2173 56.596 21.432C56.96 21.6373 57.3427 21.74 57.744 21.74C58.1547 21.74 58.5373 21.6373 58.892 21.432C59.2467 21.2267 59.5313 20.928 59.746 20.536C59.97 20.1347 60.082 19.668 60.082 19.136ZM77.785 15.286L75.391 23H73.711L72.157 17.302L70.603 23H68.923L66.515 15.286H68.139L69.749 21.488L71.387 15.286H73.053L74.621 21.46L76.217 15.286H77.785ZM78.4457 19.108C78.4457 18.3333 78.6044 17.6473 78.9217 17.05C79.2484 16.4527 79.6871 15.9907 80.2377 15.664C80.7977 15.328 81.4137 15.16 82.0857 15.16C82.6924 15.16 83.2197 15.2813 83.6677 15.524C84.1251 15.7573 84.4891 16.0513 84.7597 16.406V15.286H86.3697V23H84.7597V21.852C84.4891 22.216 84.1204 22.5193 83.6537 22.762C83.1871 23.0047 82.6551 23.126 82.0577 23.126C81.3951 23.126 80.7884 22.958 80.2377 22.622C79.6871 22.2767 79.2484 21.8007 78.9217 21.194C78.6044 20.578 78.4457 19.8827 78.4457 19.108ZM84.7597 19.136C84.7597 18.604 84.6477 18.142 84.4237 17.75C84.2091 17.358 83.9244 17.0593 83.5697 16.854C83.2151 16.6487 82.8324 16.546 82.4217 16.546C82.0111 16.546 81.6284 16.6487 81.2737 16.854C80.9191 17.05 80.6297 17.344 80.4057 17.736C80.1911 18.1187 80.0837 18.576 80.0837 19.108C80.0837 19.64 80.1911 20.1067 80.4057 20.508C80.6297 20.9093 80.9191 21.2173 81.2737 21.432C81.6377 21.6373 82.0204 21.74 82.4217 21.74C82.8324 21.74 83.2151 21.6373 83.5697 21.432C83.9244 21.2267 84.2091 20.928 84.4237 20.536C84.6477 20.1347 84.7597 19.668 84.7597 19.136ZM90.328 16.588V20.858C90.328 21.1473 90.3933 21.3573 90.524 21.488C90.664 21.6093 90.8973 21.67 91.224 21.67H92.204V23H90.944C90.2253 23 89.6747 22.832 89.292 22.496C88.9093 22.16 88.718 21.614 88.718 20.858V16.588H87.808V15.286H88.718V13.368H90.328V15.286H92.204V16.588H90.328ZM100.745 18.954C100.745 19.2433 100.726 19.5047 100.689 19.738H94.795C94.8417 20.354 95.0703 20.8487 95.481 21.222C95.8917 21.5953 96.3957 21.782 96.993 21.782C97.8517 21.782 98.4583 21.4227 98.813 20.704H100.535C100.302 21.4133 99.877 21.9967 99.261 22.454C98.6543 22.902 97.8983 23.126 96.993 23.126C96.2557 23.126 95.593 22.9627 95.005 22.636C94.4263 22.3 93.969 21.8333 93.633 21.236C93.3063 20.6293 93.143 19.9293 93.143 19.136C93.143 18.3427 93.3017 17.6473 93.619 17.05C93.9457 16.4433 94.3983 15.9767 94.977 15.65C95.565 15.3233 96.237 15.16 96.993 15.16C97.721 15.16 98.3697 15.3187 98.939 15.636C99.5083 15.9533 99.9517 16.4013 100.269 16.98C100.586 17.5493 100.745 18.2073 100.745 18.954ZM99.079 18.45C99.0697 17.862 98.8597 17.3907 98.449 17.036C98.0383 16.6813 97.5297 16.504 96.923 16.504C96.3723 16.504 95.901 16.6813 95.509 17.036C95.117 17.3813 94.8837 17.8527 94.809 18.45H99.079ZM103.912 16.406C104.145 16.014 104.453 15.7107 104.836 15.496C105.228 15.272 105.69 15.16 106.222 15.16V16.812H105.816C105.19 16.812 104.714 16.9707 104.388 17.288C104.07 17.6053 103.912 18.156 103.912 18.94V23H102.316V15.286H103.912V16.406ZM112.137 14.264C111.848 14.264 111.605 14.166 111.409 13.97C111.213 13.774 111.115 13.5313 111.115 13.242C111.115 12.9527 111.213 12.71 111.409 12.514C111.605 12.318 111.848 12.22 112.137 12.22C112.417 12.22 112.655 12.318 112.851 12.514C113.047 12.71 113.145 12.9527 113.145 13.242C113.145 13.5313 113.047 13.774 112.851 13.97C112.655 14.166 112.417 14.264 112.137 14.264ZM112.921 15.286V23H111.325V15.286H112.921ZM118.909 15.16C119.515 15.16 120.057 15.286 120.533 15.538C121.018 15.79 121.396 16.1633 121.667 16.658C121.937 17.1527 122.073 17.75 122.073 18.45V23H120.491V18.688C120.491 17.9973 120.318 17.47 119.973 17.106C119.627 16.7327 119.156 16.546 118.559 16.546C117.961 16.546 117.485 16.7327 117.131 17.106C116.785 17.47 116.613 17.9973 116.613 18.688V23H115.017V15.286H116.613V16.168C116.874 15.8507 117.205 15.6033 117.607 15.426C118.017 15.2487 118.451 15.16 118.909 15.16ZM125.971 16.588V20.858C125.971 21.1473 126.036 21.3573 126.167 21.488C126.307 21.6093 126.54 21.67 126.867 21.67H127.847V23H126.587C125.868 23 125.317 22.832 124.935 22.496C124.552 22.16 124.361 21.614 124.361 20.858V16.588H123.451V15.286H124.361V13.368H125.971V15.286H127.847V16.588H125.971ZM128.786 19.108C128.786 18.3333 128.944 17.6473 129.262 17.05C129.588 16.4527 130.027 15.9907 130.578 15.664C131.138 15.328 131.754 15.16 132.426 15.16C133.032 15.16 133.56 15.2813 134.008 15.524C134.465 15.7573 134.829 16.0513 135.1 16.406V15.286H136.71V23H135.1V21.852C134.829 22.216 134.46 22.5193 133.994 22.762C133.527 23.0047 132.995 23.126 132.398 23.126C131.735 23.126 131.128 22.958 130.578 22.622C130.027 22.2767 129.588 21.8007 129.262 21.194C128.944 20.578 128.786 19.8827 128.786 19.108ZM135.1 19.136C135.1 18.604 134.988 18.142 134.764 17.75C134.549 17.358 134.264 17.0593 133.91 16.854C133.555 16.6487 133.172 16.546 132.762 16.546C132.351 16.546 131.968 16.6487 131.614 16.854C131.259 17.05 130.97 17.344 130.746 17.736C130.531 18.1187 130.424 18.576 130.424 19.108C130.424 19.64 130.531 20.1067 130.746 20.508C130.97 20.9093 131.259 21.2173 131.614 21.432C131.978 21.6373 132.36 21.74 132.762 21.74C133.172 21.74 133.555 21.6373 133.91 21.432C134.264 21.2267 134.549 20.928 134.764 20.536C134.988 20.1347 135.1 19.668 135.1 19.136ZM141.858 19.15L145.414 23H143.258L140.402 19.682V23H138.806V12.64H140.402V18.66L143.202 15.286H145.414L141.858 19.15ZM153.628 18.954C153.628 19.2433 153.609 19.5047 153.572 19.738H147.678C147.724 20.354 147.953 20.8487 148.364 21.222C148.774 21.5953 149.278 21.782 149.876 21.782C150.734 21.782 151.341 21.4227 151.696 20.704H153.418C153.184 21.4133 152.76 21.9967 152.144 22.454C151.537 22.902 150.781 23.126 149.876 23.126C149.138 23.126 148.476 22.9627 147.888 22.636C147.309 22.3 146.852 21.8333 146.516 21.236C146.189 20.6293 146.026 19.9293 146.026 19.136C146.026 18.3427 146.184 17.6473 146.502 17.05C146.828 16.4433 147.281 15.9767 147.86 15.65C148.448 15.3233 149.12 15.16 149.876 15.16C150.604 15.16 151.252 15.3187 151.822 15.636C152.391 15.9533 152.834 16.4013 153.152 16.98C153.469 17.5493 153.628 18.2073 153.628 18.954ZM151.962 18.45C151.952 17.862 151.742 17.3907 151.332 17.036C150.921 16.6813 150.412 16.504 149.806 16.504C149.255 16.504 148.784 16.6813 148.392 17.036C148 17.3813 147.766 17.8527 147.692 18.45H151.962Z" fill="#0F0F0F"/>
</svg>
