<svg width="168" height="168" viewBox="0 0 168 168" fill="none" xmlns="http://www.w3.org/2000/svg">
<path d="M49.8306 70V66.672H56.4866V90H52.8066V70H49.8306ZM61.4341 72.432C61.5621 70.448 62.3195 68.9013 63.7061 67.792C65.1141 66.6827 66.9061 66.128 69.0821 66.128C70.5755 66.128 71.8661 66.3947 72.9541 66.928C74.0421 67.4613 74.8635 68.1867 75.4181 69.104C75.9728 70.0213 76.2501 71.056 76.2501 72.208C76.2501 73.5307 75.8981 74.6613 75.1941 75.6C74.4901 76.5387 73.6475 77.168 72.6661 77.488V77.616C73.9248 78 74.9061 78.704 75.6101 79.728C76.3141 80.7307 76.6661 82.0213 76.6661 83.6C76.6661 84.8587 76.3781 85.9787 75.8021 86.96C75.2261 87.9413 74.3728 88.72 73.2421 89.296C72.1115 89.8507 70.7568 90.128 69.1781 90.128C66.8741 90.128 64.9755 89.5413 63.4821 88.368C62.0101 87.1733 61.2208 85.4667 61.1141 83.248H64.6341C64.7195 84.3787 65.1568 85.3067 65.9461 86.032C66.7355 86.736 67.8021 87.088 69.1461 87.088C70.4475 87.088 71.4501 86.736 72.1541 86.032C72.8581 85.3067 73.2101 84.3787 73.2101 83.248C73.2101 81.7547 72.7301 80.6987 71.7701 80.08C70.8315 79.44 69.3808 79.12 67.4181 79.12H66.5861V76.112H67.4501C69.1781 76.0907 70.4901 75.8027 71.3861 75.248C72.3035 74.6933 72.7621 73.8187 72.7621 72.624C72.7621 71.6 72.4315 70.7893 71.7701 70.192C71.1088 69.5733 70.1701 69.264 68.9541 69.264C67.7595 69.264 66.8315 69.5733 66.1701 70.192C65.5088 70.7893 65.1141 71.536 64.9861 72.432H61.4341ZM93.0421 72.08C92.8075 71.0987 92.3808 70.3627 91.7621 69.872C91.1435 69.3813 90.2795 69.136 89.1701 69.136C87.4848 69.136 86.2261 69.7867 85.3941 71.088C84.5621 72.368 84.1248 74.5013 84.0821 77.488C84.6368 76.5493 85.4475 75.824 86.5141 75.312C87.5808 74.8 88.7328 74.544 89.9701 74.544C91.3781 74.544 92.6155 74.8533 93.6821 75.472C94.7701 76.0693 95.6128 76.944 96.2101 78.096C96.8288 79.248 97.1381 80.624 97.1381 82.224C97.1381 83.7173 96.8395 85.0507 96.2421 86.224C95.6661 87.3973 94.8021 88.3253 93.6501 89.008C92.4981 89.6693 91.1115 90 89.4901 90C87.2928 90 85.5648 89.52 84.3061 88.56C83.0688 87.5787 82.1941 86.2027 81.6821 84.432C81.1915 82.6613 80.9461 80.4533 80.9461 77.808C80.9461 70 83.6981 66.096 89.2021 66.096C91.3355 66.096 93.0101 66.672 94.2261 67.824C95.4635 68.976 96.1888 70.3947 96.4021 72.08H93.0421ZM89.1701 77.616C87.8688 77.616 86.7595 78.0107 85.8421 78.8C84.9461 79.568 84.4981 80.688 84.4981 82.16C84.4981 83.632 84.9141 84.8053 85.7461 85.68C86.5995 86.5333 87.7835 86.96 89.2981 86.96C90.6421 86.96 91.6981 86.544 92.4661 85.712C93.2555 84.88 93.6501 83.7707 93.6501 82.384C93.6501 80.9333 93.2661 79.7813 92.4981 78.928C91.7515 78.0533 90.6421 77.616 89.1701 77.616ZM101.029 78.032C101.029 74.3413 101.648 71.4613 102.885 69.392C104.144 67.3013 106.299 66.256 109.349 66.256C112.4 66.256 114.544 67.3013 115.781 69.392C117.04 71.4613 117.669 74.3413 117.669 78.032C117.669 81.7653 117.04 84.688 115.781 86.8C114.544 88.8907 112.4 89.936 109.349 89.936C106.299 89.936 104.144 88.8907 102.885 86.8C101.648 84.688 101.029 81.7653 101.029 78.032ZM114.085 78.032C114.085 76.304 113.968 74.8427 113.733 73.648C113.52 72.4533 113.072 71.4827 112.389 70.736C111.707 69.968 110.693 69.584 109.349 69.584C108.005 69.584 106.992 69.968 106.309 70.736C105.627 71.4827 105.168 72.4533 104.933 73.648C104.72 74.8427 104.613 76.304 104.613 78.032C104.613 79.824 104.72 81.328 104.933 82.544C105.147 83.76 105.595 84.7413 106.277 85.488C106.981 86.2347 108.005 86.608 109.349 86.608C110.693 86.608 111.707 86.2347 112.389 85.488C113.093 84.7413 113.552 83.76 113.765 82.544C113.979 81.328 114.085 79.824 114.085 78.032Z" fill="white"/>
<path d="M56.602 111.15C56.602 110.357 56.7607 109.666 57.078 109.078C57.3953 108.481 57.834 108.019 58.394 107.692C58.9633 107.365 59.612 107.202 60.34 107.202C61.2827 107.202 62.0573 107.431 62.664 107.888C63.28 108.345 63.686 108.98 63.882 109.792H62.51C62.3793 109.325 62.1227 108.957 61.74 108.686C61.3667 108.415 60.9 108.28 60.34 108.28C59.612 108.28 59.024 108.532 58.576 109.036C58.128 109.531 57.904 110.235 57.904 111.15C57.904 112.074 58.128 112.788 58.576 113.292C59.024 113.796 59.612 114.048 60.34 114.048C60.9 114.048 61.3667 113.917 61.74 113.656C62.1133 113.395 62.37 113.021 62.51 112.536H63.882C63.6767 113.32 63.266 113.95 62.65 114.426C62.034 114.893 61.264 115.126 60.34 115.126C59.612 115.126 58.9633 114.963 58.394 114.636C57.834 114.309 57.3953 113.847 57.078 113.25C56.7607 112.653 56.602 111.953 56.602 111.15ZM65.1059 111.136C65.1059 110.352 65.2646 109.666 65.5819 109.078C65.8992 108.481 66.3332 108.019 66.8839 107.692C67.4439 107.365 68.0646 107.202 68.7459 107.202C69.4179 107.202 70.0012 107.347 70.4959 107.636C70.9906 107.925 71.3592 108.289 71.6019 108.728V107.328H72.8899V115H71.6019V113.572C71.3499 114.02 70.9719 114.393 70.4679 114.692C69.9732 114.981 69.3946 115.126 68.7319 115.126C68.0506 115.126 67.4346 114.958 66.8839 114.622C66.3332 114.286 65.8992 113.815 65.5819 113.208C65.2646 112.601 65.1059 111.911 65.1059 111.136ZM71.6019 111.15C71.6019 110.571 71.4852 110.067 71.2519 109.638C71.0186 109.209 70.7012 108.882 70.2999 108.658C69.9079 108.425 69.4739 108.308 68.9979 108.308C68.5219 108.308 68.0879 108.42 67.6959 108.644C67.3039 108.868 66.9912 109.195 66.7579 109.624C66.5246 110.053 66.4079 110.557 66.4079 111.136C66.4079 111.724 66.5246 112.237 66.7579 112.676C66.9912 113.105 67.3039 113.437 67.6959 113.67C68.0879 113.894 68.5219 114.006 68.9979 114.006C69.4739 114.006 69.9079 113.894 70.2999 113.67C70.7012 113.437 71.0186 113.105 71.2519 112.676C71.4852 112.237 71.6019 111.729 71.6019 111.15ZM76.3168 104.64V115H75.0428V104.64H76.3168ZM81.8342 115.126C81.1155 115.126 80.4622 114.963 79.8742 114.636C79.2955 114.309 78.8382 113.847 78.5022 113.25C78.1755 112.643 78.0122 111.943 78.0122 111.15C78.0122 110.366 78.1802 109.675 78.5162 109.078C78.8615 108.471 79.3282 108.009 79.9162 107.692C80.5042 107.365 81.1622 107.202 81.8902 107.202C82.6182 107.202 83.2762 107.365 83.8642 107.692C84.4522 108.009 84.9142 108.467 85.2502 109.064C85.5955 109.661 85.7682 110.357 85.7682 111.15C85.7682 111.943 85.5908 112.643 85.2362 113.25C84.8908 113.847 84.4195 114.309 83.8222 114.636C83.2248 114.963 82.5622 115.126 81.8342 115.126ZM81.8342 114.006C82.2915 114.006 82.7208 113.899 83.1222 113.684C83.5235 113.469 83.8455 113.147 84.0882 112.718C84.3402 112.289 84.4662 111.766 84.4662 111.15C84.4662 110.534 84.3448 110.011 84.1022 109.582C83.8595 109.153 83.5422 108.835 83.1502 108.63C82.7582 108.415 82.3335 108.308 81.8762 108.308C81.4095 108.308 80.9802 108.415 80.5882 108.63C80.2055 108.835 79.8975 109.153 79.6642 109.582C79.4308 110.011 79.3142 110.534 79.3142 111.15C79.3142 111.775 79.4262 112.303 79.6502 112.732C79.8835 113.161 80.1915 113.483 80.5742 113.698C80.9568 113.903 81.3768 114.006 81.8342 114.006ZM88.7172 108.574C88.9412 108.135 89.2586 107.795 89.6692 107.552C90.0892 107.309 90.5979 107.188 91.1952 107.188V108.504H90.8592C89.4312 108.504 88.7172 109.279 88.7172 110.828V115H87.4432V107.328H88.7172V108.574ZM93.3239 106.082C93.0812 106.082 92.8759 105.998 92.7079 105.83C92.5399 105.662 92.4559 105.457 92.4559 105.214C92.4559 104.971 92.5399 104.766 92.7079 104.598C92.8759 104.43 93.0812 104.346 93.3239 104.346C93.5572 104.346 93.7532 104.43 93.9119 104.598C94.0799 104.766 94.1639 104.971 94.1639 105.214C94.1639 105.457 94.0799 105.662 93.9119 105.83C93.7532 105.998 93.5572 106.082 93.3239 106.082ZM93.9399 107.328V115H92.6659V107.328H93.9399ZM103.111 110.87C103.111 111.113 103.097 111.369 103.069 111.64H96.9372C96.9839 112.396 97.2405 112.989 97.7072 113.418C98.1832 113.838 98.7572 114.048 99.4292 114.048C99.9799 114.048 100.437 113.922 100.801 113.67C101.175 113.409 101.436 113.063 101.585 112.634H102.957C102.752 113.371 102.341 113.973 101.725 114.44C101.109 114.897 100.344 115.126 99.4292 115.126C98.7012 115.126 98.0479 114.963 97.4692 114.636C96.8999 114.309 96.4519 113.847 96.1252 113.25C95.7985 112.643 95.6352 111.943 95.6352 111.15C95.6352 110.357 95.7939 109.661 96.1112 109.064C96.4285 108.467 96.8719 108.009 97.4412 107.692C98.0199 107.365 98.6825 107.202 99.4292 107.202C100.157 107.202 100.801 107.361 101.361 107.678C101.921 107.995 102.351 108.434 102.649 108.994C102.957 109.545 103.111 110.17 103.111 110.87ZM101.795 110.604C101.795 110.119 101.688 109.703 101.473 109.358C101.259 109.003 100.965 108.737 100.591 108.56C100.227 108.373 99.8212 108.28 99.3732 108.28C98.7292 108.28 98.1785 108.485 97.7212 108.896C97.2732 109.307 97.0165 109.876 96.9512 110.604H101.795ZM107.509 115.126C106.921 115.126 106.394 115.028 105.927 114.832C105.46 114.627 105.092 114.347 104.821 113.992C104.55 113.628 104.401 113.213 104.373 112.746H105.689C105.726 113.129 105.904 113.441 106.221 113.684C106.548 113.927 106.972 114.048 107.495 114.048C107.98 114.048 108.363 113.941 108.643 113.726C108.923 113.511 109.063 113.241 109.063 112.914C109.063 112.578 108.914 112.331 108.615 112.172C108.316 112.004 107.854 111.841 107.229 111.682C106.66 111.533 106.193 111.383 105.829 111.234C105.474 111.075 105.166 110.847 104.905 110.548C104.653 110.24 104.527 109.839 104.527 109.344C104.527 108.952 104.644 108.593 104.877 108.266C105.11 107.939 105.442 107.683 105.871 107.496C106.3 107.3 106.79 107.202 107.341 107.202C108.19 107.202 108.876 107.417 109.399 107.846C109.922 108.275 110.202 108.863 110.239 109.61H108.965C108.937 109.209 108.774 108.887 108.475 108.644C108.186 108.401 107.794 108.28 107.299 108.28C106.842 108.28 106.478 108.378 106.207 108.574C105.936 108.77 105.801 109.027 105.801 109.344C105.801 109.596 105.88 109.806 106.039 109.974C106.207 110.133 106.412 110.263 106.655 110.366C106.907 110.459 107.252 110.567 107.691 110.688C108.242 110.837 108.69 110.987 109.035 111.136C109.38 111.276 109.674 111.491 109.917 111.78C110.169 112.069 110.3 112.447 110.309 112.914C110.309 113.334 110.192 113.712 109.959 114.048C109.726 114.384 109.394 114.65 108.965 114.846C108.545 115.033 108.06 115.126 107.509 115.126Z" fill="#B6B6B6"/>
<path d="M168 84C168 130.392 130.392 168 84 168C37.6081 168 0 130.392 0 84C0 37.6081 37.6081 0 84 0C130.392 0 168 37.6081 168 84ZM16.8 84C16.8 121.114 46.8865 151.2 84 151.2C121.114 151.2 151.2 121.114 151.2 84C151.2 46.8865 121.114 16.8 84 16.8C46.8865 16.8 16.8 46.8865 16.8 84Z" fill="#292928"/>
<path d="M84 8C84 3.58172 87.5899 -0.0395227 91.9882 0.380608C106.887 1.80376 121.188 7.18868 133.374 16.0426C147.725 26.4693 158.407 41.1717 163.889 58.0425C169.37 74.9134 169.37 93.0865 163.889 109.957C158.407 126.828 147.725 141.531 133.374 151.957C119.023 162.384 101.739 168 84.0001 168C66.261 168 48.9773 162.384 34.6261 151.957C20.2749 141.531 9.59299 126.828 4.11129 109.958C-0.543493 95.6317 -1.24568 80.3667 2.00472 65.7575C2.96428 61.4447 7.51763 59.1495 11.7197 60.5148L12.4805 60.762C16.6825 62.1274 18.9315 66.6373 18.0749 70.9718C15.8598 82.1805 16.5312 93.8161 20.089 104.766C24.4744 118.263 33.0199 130.025 44.5009 138.366C55.9819 146.707 69.8088 151.2 84.0001 151.2C98.1913 151.2 112.018 146.707 123.499 138.366C134.98 130.025 143.526 118.263 147.911 104.766C152.296 91.2692 152.296 76.7307 147.911 63.234C143.526 49.7374 134.98 37.9754 123.499 29.634C114.185 22.8666 103.326 18.6325 91.9813 17.2756C87.5943 16.7508 84 13.2183 84 8.79999V8Z" fill="#45FFBC"/>
</svg>
