<svg xmlns="http://www.w3.org/2000/svg" width="300" height="302" fill="none"><g clip-path="url(#a)"><path fill="#0F0F0F" d="m263.205 204.604-245.048-.48a4.909 4.909 0 0 1-3.58-1.564 4.95 4.95 0 0 1-1.324-3.694L25.532 5.094a4.963 4.963 0 0 1 1.546-3.283A4.907 4.907 0 0 1 30.436.474L275.869 0c2.837 0 5.488 2.876 5.308 5.725l-12.273 193.77c-.174 2.602-3.105 5.109-5.699 5.109Z"/><path fill="#fff" d="M259.62 204.672H13.125a4.914 4.914 0 0 1-4.643-3.278 4.978 4.978 0 0 1-.279-1.993L20.52 5.116a4.963 4.963 0 0 1 1.54-3.303A4.906 4.906 0 0 1 25.43.467h246.503a4.897 4.897 0 0 1 3.598 1.561 4.967 4.967 0 0 1 1.324 3.71L264.55 200.031a4.967 4.967 0 0 1-1.549 3.305 4.909 4.909 0 0 1-3.381 1.336Z"/><path fill="#0F0F0F" d="M259.62 205.035H13.125a5.278 5.278 0 0 1-3.857-1.679 5.325 5.325 0 0 1-1.42-3.978L20.157 5.085a5.343 5.343 0 0 1 1.66-3.536A5.283 5.283 0 0 1 25.43.104h246.503a5.287 5.287 0 0 1 4.977 3.52c.245.684.347 1.412.301 2.137l-12.313 194.293a5.342 5.342 0 0 1-1.662 3.538 5.285 5.285 0 0 1-3.616 1.443ZM25.43.825a4.561 4.561 0 0 0-3.122 1.246 4.614 4.614 0 0 0-1.436 3.055L8.566 199.424a4.619 4.619 0 0 0 1.23 3.432 4.569 4.569 0 0 0 3.33 1.448H259.62a4.562 4.562 0 0 0 3.122-1.246 4.618 4.618 0 0 0 1.436-3.055L276.483 5.71a4.621 4.621 0 0 0-1.226-3.432 4.549 4.549 0 0 0-3.324-1.453H25.43Z"/><path fill="#0F0F0F" d="M253.556 198.218H18.557a4.848 4.848 0 0 1-3.552-1.547 4.9 4.9 0 0 1-1.31-3.663L25.303 10.303a4.92 4.92 0 0 1 1.53-3.259 4.864 4.864 0 0 1 3.33-1.33h235a4.852 4.852 0 0 1 3.551 1.548 4.932 4.932 0 0 1 1.31 3.663L258.417 193.63a4.92 4.92 0 0 1-1.531 3.258 4.873 4.873 0 0 1-3.33 1.329ZM30.162 6.436a4.143 4.143 0 0 0-2.837 1.132 4.19 4.19 0 0 0-1.303 2.776l-11.606 182.71a4.2 4.2 0 0 0 1.116 3.121 4.154 4.154 0 0 0 3.025 1.318h234.999a4.143 4.143 0 0 0 2.837-1.132 4.19 4.19 0 0 0 1.304-2.776l11.606-182.707a4.198 4.198 0 0 0-1.114-3.123 4.148 4.148 0 0 0-3.027-1.319h-235Z"/><path fill="#0F0F0F" d="M217.614 143.47c.074-.19.141-.378.213-.566-18.889.586-47.102-1.081-71.649-12.823-34.352-16.43-54.554-34.147-61.468-40.801a345.18 345.18 0 0 0-4.446 6.6c12.809 8.125 28.449 20.369 41.017 37.327 16.931 22.853 25.455 34.103 29.405 47.346 3.062 2.322 6.148 2.512 8.338 1.545 32.977-14.554 52.618-25.002 61.253-29.85l-2.663-8.778Z"/><path fill="#0F0F0F" d="M152.516 198.218a.361.361 0 0 1-.361-.357c-.149-10.463-1.805-17.163-1.821-17.22a.365.365 0 0 1 .261-.442.36.36 0 0 1 .439.263c.017.068 1.692 6.842 1.843 17.388a.368.368 0 0 1-.102.258.355.355 0 0 1-.254.11h-.005ZM201.965 37.578a.36.36 0 0 1-.371-.353.361.361 0 0 1 .351-.373l6.235-.33-2.934-5.71a.362.362 0 0 1 .033-.416.355.355 0 0 1 .255-.13.361.361 0 0 1 .354.216l3.117 6.095a.437.437 0 0 1-.009.423.433.433 0 0 1-.358.222l-6.66.356h-.013ZM166.227 28.037a.359.359 0 0 1-.214-.071l-5.496-4.052a.44.44 0 0 1-.18-.383.44.44 0 0 1 .223-.36l5.803-3.311a.354.354 0 0 1 .281-.048.358.358 0 0 1 .273.313.36.36 0 0 1-.083.274.365.365 0 0 1-.115.09l-5.414 3.098 5.147 3.796a.36.36 0 0 1 .134.182.36.36 0 0 1-.132.41.361.361 0 0 1-.216.068l-.011-.006Z"/><path fill="#0F0F0F" d="M206.531 35.786a.357.357 0 0 1-.221-.076 39.243 39.243 0 0 0-1.406-1.048.361.361 0 0 1-.077-.499.36.36 0 0 1 .494-.093c.492.346.969.706 1.432 1.068a.36.36 0 0 1 .118.403.36.36 0 0 1-.34.245Zm-5.077-3.38a.37.37 0 0 1-.178-.046 48.938 48.938 0 0 0-3.832-1.954.362.362 0 0 1-.11-.606.353.353 0 0 1 .269-.093.358.358 0 0 1 .139.04 50.428 50.428 0 0 1 3.889 1.98.365.365 0 0 1 .042.602.36.36 0 0 1-.219.076v.002Zm-7.866-3.615a.364.364 0 0 1-.124-.022 67.281 67.281 0 0 0-4.089-1.358.36.36 0 0 1-.235-.448.36.36 0 0 1 .438-.248c1.418.422 2.809.883 4.135 1.373a.363.363 0 0 1-.125.703Zm-8.298-2.476a.352.352 0 0 1-.082-.01 76.776 76.776 0 0 0-4.223-.88.362.362 0 0 1 .128-.713 87.16 87.16 0 0 1 4.265.887.363.363 0 0 1-.082.716h-.006Zm-8.522-1.56h-.047a98.565 98.565 0 0 0-4.291-.48.362.362 0 0 1 .064-.722c1.444.128 2.898.29 4.322.482a.363.363 0 0 1-.048.723v-.004Zm-8.63-.768h-.016a76.326 76.326 0 0 0-3.314-.078c-.64 0-.985.012-.985.012a.36.36 0 0 1-.372-.352.362.362 0 0 1 .349-.375s.358-.01 1.016-.01c.71 0 1.867.014 3.345.077a.361.361 0 0 1 .243.625.36.36 0 0 1-.258.1h-.008ZM221.839 95.825a.36.36 0 0 1-.279-.13 105.174 105.174 0 0 1-2.309-2.894.368.368 0 0 1 .078-.49.361.361 0 0 1 .492.046c.727.945 1.498 1.91 2.297 2.872a.364.364 0 0 1-.276.596h-.003Zm-4.865-6.39a.363.363 0 0 1-.297-.155 78.895 78.895 0 0 1-2.377-3.662.365.365 0 0 1 .129-.483.36.36 0 0 1 .486.105 74.575 74.575 0 0 0 2.355 3.63.366.366 0 0 1-.089.505.371.371 0 0 1-.207.06ZM212.484 82a.358.358 0 0 1-.32-.196 50.061 50.061 0 0 1-1.831-3.977.349.349 0 0 1-.033-.142.37.37 0 0 1 .224-.347.36.36 0 0 1 .477.215c.521 1.28 1.128 2.6 1.804 3.92a.369.369 0 0 1 .027.28.357.357 0 0 1-.181.215.374.374 0 0 1-.167.032Zm-3.244-8.055a.36.36 0 0 1-.346-.262 33.974 33.974 0 0 1-.942-4.29.36.36 0 0 1 .714-.107c.216 1.418.524 2.82.92 4.199a.36.36 0 0 1-.238.447.347.347 0 0 1-.108.013Zm-1.248-8.581a.355.355 0 0 1-.255-.108.37.37 0 0 1-.105-.257c.009-1.471.145-2.939.409-4.386a.36.36 0 0 1 .709.132 24.613 24.613 0 0 0-.396 4.258.364.364 0 0 1-.362.36v.001Zm1.57-8.502a.36.36 0 0 1-.337-.492 25.137 25.137 0 0 1 1.928-3.96.374.374 0 0 1 .222-.165.356.356 0 0 1 .376.136.377.377 0 0 1 .067.268.371.371 0 0 1-.048.133 24.475 24.475 0 0 0-1.87 3.845.362.362 0 0 1-.338.233v.002Zm4.42-7.435a.367.367 0 0 1-.233-.084.364.364 0 0 1-.043-.512 32.884 32.884 0 0 1 3.039-3.165.367.367 0 0 1 .26-.096.36.36 0 0 1 .326.238.368.368 0 0 1-.094.394 32.404 32.404 0 0 0-2.973 3.097.362.362 0 0 1-.282.127v.001Zm6.377-5.86a.36.36 0 0 1-.346-.478.359.359 0 0 1 .134-.182 43.53 43.53 0 0 1 3.67-2.383.36.36 0 0 1 .512.407.357.357 0 0 1-.151.22 43.666 43.666 0 0 0-3.609 2.345.358.358 0 0 1-.21.071Zm7.486-4.375a.36.36 0 0 1-.351-.284.362.362 0 0 1 .199-.407 36.262 36.262 0 0 1 4.077-1.65.357.357 0 0 1 .404.1.373.373 0 0 1 .085.277.35.35 0 0 1-.045.14.353.353 0 0 1-.229.174c-1.359.46-2.691 1-3.987 1.617a.37.37 0 0 1-.153.027v.006ZM110.744 70.55a.361.361 0 0 1-.361-.362.363.363 0 0 1 .361-.363c.746-.017 1.482-.04 2.207-.071a.365.365 0 0 1 .279.608.358.358 0 0 1-.25.118c-.728.03-1.468.053-2.219.07h-.017Zm6.53-.33a.36.36 0 0 1-.246-.103.367.367 0 0 1-.02-.498.361.361 0 0 1 .238-.123 98.412 98.412 0 0 0 4.287-.434.359.359 0 0 1 .254.082.365.365 0 0 1-.165.637 97.31 97.31 0 0 1-4.32.438l-.028.002Zm8.581-1.074a.36.36 0 0 1-.363-.331.363.363 0 0 1 .3-.39 67.294 67.294 0 0 0 4.21-.883.359.359 0 0 1 .405.277.361.361 0 0 1-.241.428c-1.358.33-2.789.632-4.254.893a.277.277 0 0 1-.057.006Zm8.393-2.07a.358.358 0 0 1-.356-.306.361.361 0 0 1 .243-.403 44.766 44.766 0 0 0 4.013-1.521.36.36 0 0 1 .433.202.36.36 0 0 1 .013.257.357.357 0 0 1-.159.2 46.16 46.16 0 0 1-4.075 1.546.337.337 0 0 1-.112.023v.001Zm7.905-3.486a.358.358 0 0 1-.348-.268.363.363 0 0 1 .166-.409 29.727 29.727 0 0 0 3.532-2.41.361.361 0 0 1 .542.463.365.365 0 0 1-.094.107 30.74 30.74 0 0 1-3.617 2.462.366.366 0 0 1-.181.053v.002Zm6.727-5.408a.359.359 0 0 1-.358-.418.362.362 0 0 1 .089-.186 22.643 22.643 0 0 0 2.528-3.434.362.362 0 0 1 .486-.111.364.364 0 0 1 .133.484 23.45 23.45 0 0 1-2.609 3.544.358.358 0 0 1-.272.12l.003.001Zm4.43-7.407a.362.362 0 0 1-.36-.321.366.366 0 0 1 .022-.173 24.42 24.42 0 0 0 1.097-4.138.361.361 0 0 1 .711.127 25.155 25.155 0 0 1-1.131 4.26.363.363 0 0 1-.343.244l.004.002Zm1.529-8.528a.361.361 0 0 1-.353-.371c0-.238.008-.476.008-.713a34.953 34.953 0 0 0-.19-3.588.358.358 0 0 1 .463-.403.369.369 0 0 1 .217.186.367.367 0 0 1 .037.141 35.58 35.58 0 0 1 .195 3.664v.73a.372.372 0 0 1-.236.333.357.357 0 0 1-.141.02Zm-.87-8.646a.361.361 0 0 1-.353-.287 47.067 47.067 0 0 0-1.092-4.18.361.361 0 0 1 .689-.215c.439 1.421.812 2.849 1.109 4.243a.365.365 0 0 1-.277.43.415.415 0 0 1-.076.008v.001Zm-2.563-8.312a.362.362 0 0 1-.328-.226 40.777 40.777 0 0 0-1.804-3.92.362.362 0 0 1 .63-.351 39.808 39.808 0 0 1 1.839 3.997.363.363 0 0 1-.328.495l-.009.005ZM193.463 194.471a.357.357 0 0 1-.332-.225.367.367 0 0 1-.001-.278c.532-1.285 1.07-2.64 1.605-4.036a.368.368 0 0 1 .188-.216.362.362 0 0 1 .407.068.375.375 0 0 1 .109.265.367.367 0 0 1-.031.143c-.537 1.4-1.078 2.763-1.612 4.055a.36.36 0 0 1-.333.224Zm3.127-8.127a.36.36 0 0 1-.327-.21.37.37 0 0 1-.012-.277c.476-1.32.96-2.695 1.442-4.103a.35.35 0 0 1 .183-.207.352.352 0 0 1 .275-.017.362.362 0 0 1 .223.46 237.22 237.22 0 0 1-1.446 4.115.357.357 0 0 1-.338.239Zm2.824-8.24a.361.361 0 0 1-.343-.475c.443-1.358.886-2.753 1.321-4.147a.36.36 0 1 1 .687.217 330.444 330.444 0 0 1-1.322 4.156.365.365 0 0 1-.343.249Zm2.589-8.319a.357.357 0 0 1-.228-.081.365.365 0 0 1-.118-.386c.761-2.568 1.199-4.17 1.204-4.187a.37.37 0 0 1 .166-.231.35.35 0 0 1 .281-.038.35.35 0 0 1 .222.177.34.34 0 0 1 .042.139.356.356 0 0 1-.015.145c0 .016-.445 1.627-1.209 4.203a.361.361 0 0 1-.345.259ZM186.31 196.369a.358.358 0 0 1-.351-.323.36.36 0 0 1 .023-.172c.517-1.274 1.05-2.64 1.585-4.045a.359.359 0 0 1 .328-.237.364.364 0 0 1 .372.356.37.37 0 0 1-.026.14 197.468 197.468 0 0 1-1.591 4.062.366.366 0 0 1-.137.162.355.355 0 0 1-.203.057Zm3.093-8.139a.36.36 0 0 1-.34-.485c.474-1.32.957-2.703 1.434-4.106a.35.35 0 0 1 .07-.125.359.359 0 0 1 .635.219.38.38 0 0 1-.022.142 276.182 276.182 0 0 1-1.438 4.116.362.362 0 0 1-.339.239Zm2.812-8.243a.36.36 0 0 1-.321-.199.363.363 0 0 1-.022-.276c.441-1.355.888-2.75 1.322-4.146a.36.36 0 1 1 .689.218 336.635 336.635 0 0 1-1.325 4.154.361.361 0 0 1-.343.249Zm2.597-8.316a.357.357 0 0 1-.317-.19.366.366 0 0 1-.029-.277c.768-2.564 1.212-4.167 1.217-4.183a.363.363 0 0 1 .438-.231.363.363 0 0 1 .256.426c0 .016-.451 1.625-1.219 4.198a.36.36 0 0 1-.346.257ZM114.697 194.379a.365.365 0 0 1-.294-.152 54.52 54.52 0 0 1-2.146-3.231.366.366 0 0 1 .245-.563.356.356 0 0 1 .274.072c.039.03.071.067.095.11.678 1.1 1.39 2.173 2.118 3.188a.37.37 0 0 1 .027.377.359.359 0 0 1-.319.199Zm-4.266-6.995a.365.365 0 0 1-.32-.195 68.881 68.881 0 0 1-1.89-3.943.365.365 0 0 1 .196-.445.357.357 0 0 1 .461.152 68.724 68.724 0 0 0 1.868 3.901.366.366 0 0 1 .029.28.359.359 0 0 1-.181.215.367.367 0 0 1-.169.035h.006Zm-3.519-7.953a.358.358 0 0 1-.336-.234 88.983 88.983 0 0 1-1.426-4.126.362.362 0 0 1 .687-.22 84.976 84.976 0 0 0 1.413 4.096.37.37 0 0 1-.008.278.365.365 0 0 1-.202.189.342.342 0 0 1-.135.017h.007Zm-2.643-8.298a.36.36 0 0 1-.348-.269 106.593 106.593 0 0 1-1.037-4.243.35.35 0 0 1 .047-.273.35.35 0 0 1 .226-.159.362.362 0 0 1 .431.274 91.318 91.318 0 0 0 1.03 4.213.363.363 0 0 1-.349.457Zm-1.902-8.494a.36.36 0 0 1-.354-.297c-.258-1.401-.492-2.85-.715-4.305a.362.362 0 0 1 .57-.345.363.363 0 0 1 .143.236c.215 1.449.455 2.888.712 4.29a.357.357 0 0 1-.058.272.366.366 0 0 1-.232.151.244.244 0 0 1-.066.003v-.005Zm-1.286-8.611a.358.358 0 0 1-.358-.32 153.836 153.836 0 0 1-.443-4.343.373.373 0 0 1 .078-.274.356.356 0 0 1 .393-.117.353.353 0 0 1 .213.187.362.362 0 0 1 .035.141c.128 1.46.276 2.914.441 4.322a.363.363 0 0 1-.316.403l-.043.001Zm-.763-8.675a.365.365 0 0 1-.36-.34 144.243 144.243 0 0 1-.207-4.36.365.365 0 0 1 .347-.377.363.363 0 0 1 .373.35c.052 1.458.121 2.918.207 4.342a.373.373 0 0 1-.09.263.35.35 0 0 1-.248.122h-.022Zm-.305-8.705a.361.361 0 0 1-.36-.359 171.344 171.344 0 0 1 .005-4.363.36.36 0 0 1 .499-.329.37.37 0 0 1 .192.198.37.37 0 0 1 .027.139c-.01.778-.016 1.573-.017 2.385 0 .644 0 1.299.012 1.962a.351.351 0 0 1-.104.258.36.36 0 0 1-.254.109Zm.112-8.709h-.015a.36.36 0 0 1-.346-.375c.05-1.458.121-2.926.206-4.358a.36.36 0 0 1 .117-.258.361.361 0 0 1 .604.301 179.019 179.019 0 0 0-.207 4.34.359.359 0 0 1-.108.251.354.354 0 0 1-.251.104v-.005Zm.52-8.694h-.031a.362.362 0 0 1-.329-.392c.233-2.728.452-4.324.452-4.347a.363.363 0 0 1 .138-.243.352.352 0 0 1 .268-.072.356.356 0 0 1 .24.141.367.367 0 0 1 .069.271c0 .015-.213 1.603-.445 4.316a.362.362 0 0 1-.362.331v-.005ZM108.448 195.371a.361.361 0 0 1-.294-.15 54.878 54.878 0 0 1-2.146-3.232.354.354 0 0 1-.054-.279.358.358 0 0 1 .668-.102 53.406 53.406 0 0 0 2.118 3.188.375.375 0 0 1 .068.185.369.369 0 0 1-.172.337.359.359 0 0 1-.188.053Zm-4.266-6.994a.361.361 0 0 1-.32-.195 68.849 68.849 0 0 1-1.89-3.942.362.362 0 0 1 .196-.446.36.36 0 0 1 .46.152 68.053 68.053 0 0 0 1.869 3.901.37.37 0 0 1 .028.28.359.359 0 0 1-.181.215.36.36 0 0 1-.174.035h.012Zm-3.519-7.953a.358.358 0 0 1-.337-.234 89.696 89.696 0 0 1-1.425-4.126.36.36 0 0 1 .688-.219 84.867 84.867 0 0 0 1.412 4.096.367.367 0 0 1-.21.467.35.35 0 0 1-.14.016h.012Zm-2.637-8.292a.362.362 0 0 1-.348-.269c-.367-1.38-.717-2.806-1.037-4.243a.37.37 0 0 1 .045-.275.37.37 0 0 1 .225-.162.352.352 0 0 1 .273.046.356.356 0 0 1 .161.226 93.027 93.027 0 0 0 1.03 4.213.365.365 0 0 1-.36.464h.011Zm-1.9-8.494a.361.361 0 0 1-.354-.297c-.26-1.403-.492-2.852-.717-4.308a.364.364 0 0 1 .572-.346.353.353 0 0 1 .142.239c.216 1.447.454 2.888.712 4.291a.365.365 0 0 1-.29.422.331.331 0 0 1-.076-.001h.011Zm-1.296-8.611a.362.362 0 0 1-.36-.321 153.094 153.094 0 0 1-.442-4.343.365.365 0 0 1 .327-.408.367.367 0 0 1 .269.089.359.359 0 0 1 .123.256c.127 1.461.277 2.915.44 4.321a.361.361 0 0 1-.317.402l-.04.004Zm-.764-8.676a.363.363 0 0 1-.36-.34 176.71 176.71 0 0 1-.208-4.36.36.36 0 0 1 .607-.279c.07.065.111.156.115.253.05 1.457.12 2.917.207 4.342a.367.367 0 0 1-.09.262.36.36 0 0 1-.248.122h-.023Zm-.306-8.705a.36.36 0 0 1-.36-.358 199.234 199.234 0 0 1 .004-4.364.367.367 0 0 1 .366-.358.362.362 0 0 1 .356.367c-.01.778-.015 1.572-.016 2.384 0 .644 0 1.299.011 1.963a.363.363 0 0 1-.357.366h-.004Zm.112-8.709h-.015a.358.358 0 0 1-.34-.381c.053-1.459.122-2.926.207-4.36a.366.366 0 0 1 .241-.33.36.36 0 0 1 .48.375 185.346 185.346 0 0 0-.207 4.34.365.365 0 0 1-.229.332.366.366 0 0 1-.139.024h.002Zm.52-8.693h-.031a.365.365 0 0 1-.328-.393c.233-2.733.446-4.337.448-4.352a.362.362 0 0 1 .542-.275.369.369 0 0 1 .173.371c0 .016-.213 1.604-.445 4.317a.364.364 0 0 1-.36.332h.001ZM171.185 89.973a1.979 1.979 0 0 1-1.386-.495c-.949-.871-1.026-2.773-.235-5.813a.364.364 0 0 1 .3-.283.36.36 0 0 1 .397.468c-.881 3.382-.472 4.636.025 5.092.53.486 1.444.295 2.116.05a6.338 6.338 0 0 0 2.36-1.567c5.496-5.697 1.904-10.635 1.749-10.842a.364.364 0 0 1 .078-.497.359.359 0 0 1 .496.058c.042.056 4.133 5.632-1.805 11.786a7.052 7.052 0 0 1-2.625 1.744 4.32 4.32 0 0 1-1.47.299Z"/><path fill="#0F0F0F" d="M79.615 198.704a.36.36 0 0 1-.329-.227c-3.264-8.222-9.08-24.796-11.328-43.422-2.747-22.749.548-41.577 9.791-55.96 21.985-34.218 33.373-41.043 41.686-46.027 1.532-.918 2.979-1.786 4.325-2.74 3.393-2.409 5.969-7.52 7.063-14.027 1.234-7.314.344-14.648-2.212-18.249-1.952-2.723-4.741-6.908-7.87-11.78a.36.36 0 0 1-.06-.28.381.381 0 0 1 .055-.133.374.374 0 0 1 .238-.155.357.357 0 0 1 .372.173c3.118 4.858 5.907 9.033 7.844 11.756 2.662 3.746 3.61 11.298 2.338 18.792-1.127 6.689-3.809 11.971-7.36 14.49-1.366.971-2.825 1.846-4.37 2.772-8.251 4.95-19.554 11.717-41.45 45.797-20.98 32.647-5.869 79.912 1.601 98.719a.365.365 0 0 1-.328.495l-.006.006ZM234.102 198.217a.358.358 0 0 1-.344-.255l-16.49-54.388a.372.372 0 0 1 .009-.24c7.341-18.676 6.1-37.538 5.004-54.181-.152-2.329-.297-4.527-.416-6.709-.937-16.965 2.065-30.126 9.453-41.422 5.708-8.726 5.414-25.625 4.742-34.921a.364.364 0 0 1 .331-.41.358.358 0 0 1 .356.213c.02.046.031.095.031.144.839 11.468.676 26.913-4.858 35.374-7.297 11.157-10.264 24.178-9.337 40.981.122 2.177.266 4.373.419 6.7 1.097 16.684 2.343 35.59-5.008 54.378l16.456 54.268a.363.363 0 0 1-.027.276.363.363 0 0 1-.212.178.367.367 0 0 1-.109.014ZM205.575 104.824a.361.361 0 0 1-.338-.241.369.369 0 0 1-.009-.218.354.354 0 0 1 .117-.183c.066-.056 6.694-5.568 11.224-9.077a.36.36 0 0 1 .578.335.366.366 0 0 1-.138.241c-4.52 3.494-11.139 8.999-11.204 9.053a.364.364 0 0 1-.23.09Z"/><path fill="#0F0F0F" d="M214.762 102.116a.37.37 0 0 1-.322-.203.363.363 0 0 1-.019-.278l1.992-5.94-6.349.617a.362.362 0 1 1-.071-.721l6.783-.66a.433.433 0 0 1 .387.165.445.445 0 0 1 .072.417l-2.133 6.355a.365.365 0 0 1-.13.179.366.366 0 0 1-.21.069ZM190.869 81.329a.362.362 0 0 1-.095-.711c.082-.024 8.368-2.322 13.933-3.65a.356.356 0 0 1 .389.133.358.358 0 0 1 .064.278.351.351 0 0 1-.155.24.36.36 0 0 1-.134.054c-5.547 1.32-13.826 3.621-13.91 3.644a.38.38 0 0 1-.092.012Z"/><path fill="#0F0F0F" d="M200.353 82.644a.358.358 0 0 1-.33-.218.363.363 0 0 1 .066-.391l4.237-4.6-6.045-2.052a.366.366 0 0 1-.045-.67.36.36 0 0 1 .276-.018l6.456 2.193a.438.438 0 0 1 .286.53.442.442 0 0 1-.104.191l-4.533 4.92a.368.368 0 0 1-.264.115ZM159.684 73.696a.35.35 0 0 1-.204-.064c-.072-.048-7.143-4.97-11.725-8.407a.365.365 0 0 1-.151-.386.38.38 0 0 1 .062-.133.353.353 0 0 1 .247-.143.36.36 0 0 1 .273.081c4.571 3.43 11.634 8.343 11.704 8.392a.365.365 0 0 1 .007.59.36.36 0 0 1-.213.07Z"/><path fill="#0F0F0F" d="M150.334 71.694a.353.353 0 0 1-.328-.231l-2.473-6.386c-.027-.07-.036-.144-.027-.218a.436.436 0 0 1 .46-.387l6.66.34a.351.351 0 0 1 .26.114.359.359 0 0 1 .062.41.354.354 0 0 1-.214.186.362.362 0 0 1-.144.015l-6.235-.317 2.313 5.981a.364.364 0 0 1-.086.393.36.36 0 0 1-.248.1ZM129.886 89.296a.363.363 0 0 1-.346-.262c-.025-.083-2.417-8.392-3.811-13.966a.363.363 0 0 1 .536-.4c.082.05.141.13.164.223 1.39 5.562 3.774 13.862 3.803 13.942a.356.356 0 0 1-.246.449.346.346 0 0 1-.1.014Z"/><path fill="#0F0F0F" d="M123.894 81.802a.361.361 0 0 1-.343-.474l2.095-6.521a.442.442 0 0 1 .522-.295.433.433 0 0 1 .192.102l4.95 4.495a.366.366 0 0 1-.231.634.362.362 0 0 1-.261-.096l-4.627-4.202-1.969 6.107a.361.361 0 0 1-.328.25ZM232.7 72.482a.373.373 0 0 1-.178-.047c-.128-.072-12.971-7.317-17.829-10.347a.365.365 0 0 1 .113-.652.357.357 0 0 1 .266.035c4.845 3.022 17.675 10.26 17.805 10.332a.365.365 0 0 1 .042.602.36.36 0 0 1-.219.077Z"/><path fill="#0F0F0F" d="M217.783 68.321a.36.36 0 0 1-.328-.203l-3.006-6.152a.45.45 0 0 1 .018-.423.446.446 0 0 1 .363-.214l6.664-.236a.364.364 0 0 1 .025.726l-6.235.22 2.814 5.76a.363.363 0 0 1-.315.523ZM140.529 47.168a.374.374 0 0 1-.143-.03c-5.238-2.25-18.116-7.076-18.245-7.125a.365.365 0 0 1-.017-.66.36.36 0 0 1 .268-.02c.129.05 13.023 4.878 18.28 7.139a.361.361 0 0 1 .21.406.36.36 0 0 1-.353.29Z"/><path fill="#0F0F0F" d="M134.027 48.498a.358.358 0 0 1-.241-.095.369.369 0 0 1-.116-.235.364.364 0 0 1 .291-.39l6.127-1.154-3.644-5.27a.358.358 0 0 1-.05-.267.36.36 0 0 1 .642-.147l3.897 5.624a.453.453 0 0 1 .045.42.442.442 0 0 1-.324.268l-6.555 1.24a.303.303 0 0 1-.072.006ZM194.848 135.268a.359.359 0 0 1-.297-.155l-21.104-30.39a.367.367 0 0 1 .09-.506.363.363 0 0 1 .27-.06.363.363 0 0 1 .233.15l21.102 30.39a.383.383 0 0 1 .057.129.377.377 0 0 1-.048.274.366.366 0 0 1-.303.168Z"/><path fill="#fff" d="M186.896 130.056c1.329.826 3.504 3.293 3.716 3.796 1.672 3.946 5.004.061 5.004.061s-3.833-4.923-6.482-6.436c-5.109-2.908-5.019.837-2.238 2.579Z"/><path fill="#0F0F0F" d="M192.674 135.983a2.124 2.124 0 0 1-.328-.027c-.871-.137-1.565-.797-2.059-1.964-.164-.388-2.244-2.794-3.575-3.63-1.608-1.009-2.471-2.699-1.885-3.69.274-.466 1.262-1.35 4.492.495 2.681 1.528 6.43 6.32 6.587 6.523a.365.365 0 0 1-.011.462c-.074.076-1.598 1.831-3.221 1.831Zm-6.551-9.212c-.351 0-.581.102-.682.275-.288.485.223 1.816 1.64 2.703 1.35.847 3.61 3.365 3.856 3.961.39.921.897 1.437 1.506 1.533 1.06.165 2.226-.881 2.689-1.348-.806-1.005-3.957-4.829-6.182-6.096-1.28-.728-2.23-1.028-2.827-1.028Z"/><path fill="#fff" d="M193.032 127.612c.492 1.141 1.72 2.476 2.76 3.146.461.301.957.546 1.476.729 4.102 1.388.975 6.766 9.086 11.417.284.165-1.25 5.558-1.777 6.913-2.953-2.852-6.37-7.958-8.802-8.182-4.487-.414-5.033-3.032-5.517-4.327-1.27-3.403 2.684-4.745 2.684-4.745s-.479-.287-1.754-1.772c-1.951-2.269-.323-8.258 1.844-3.179Z"/><path fill="#0F0F0F" d="M204.572 150.175a.357.357 0 0 1-.249-.101c-.945-.911-1.946-2.059-2.912-3.172-2.041-2.345-4.153-4.77-5.674-4.911-4.365-.402-5.238-2.899-5.708-4.241a17.706 17.706 0 0 0-.113-.32c-.38-1.015-.367-1.966.038-2.822.535-1.135 1.626-1.815 2.297-2.145a18.36 18.36 0 0 1-1.342-1.434c-1.158-1.35-1.131-3.768-.602-4.907.352-.759.82-.864 1.097-.861.688.011 1.328.734 1.958 2.21.428 1.003 1.58 2.31 2.625 2.982a6.53 6.53 0 0 0 1.393.691c1.919.649 2.402 2.117 2.953 3.819.738 2.241 1.657 5.03 6.188 7.626.263.15.438.251-.415 3.419-.418 1.558-.936 3.253-1.204 3.941a.368.368 0 0 1-.259.223c-.023.003-.047.005-.071.003Zm-13.181-24.193c-.139 0-.3.165-.428.442-.436.939-.461 3.012.492 4.126 1.188 1.386 1.665 1.696 1.669 1.7a.362.362 0 0 1 .096.543.367.367 0 0 1-.168.117c-.018 0-1.795.629-2.45 2.02-.317.671-.328 1.431-.013 2.252.039.104.079.217.12.33.472 1.354 1.188 3.4 5.086 3.76 1.804.165 3.918 2.591 6.151 5.157.82.942 1.665 1.913 2.47 2.731.591-1.729 1.544-5.236 1.598-6.028-4.644-2.712-5.639-5.732-6.367-7.943-.54-1.641-.93-2.825-2.509-3.36a7.198 7.198 0 0 1-1.548-.766c-1.167-.747-2.412-2.17-2.898-3.309-.715-1.675-1.214-1.767-1.312-1.769l.011-.003Z"/><path fill="#0F0F0F" d="M194.679 138.356c-.082 0-.164 0-.254-.012a.367.367 0 0 1-.319-.395.366.366 0 0 1 .386-.328c.514.048.912-.1 1.182-.445.462-.588.539-1.725.188-2.768-.275-.825-.71-1.342-1.293-1.553-1.133-.411-2.497.426-2.51.434a.358.358 0 0 1-.497-.117.366.366 0 0 1 .117-.5c.068-.041 1.676-1.026 3.135-.495.799.289 1.381.962 1.731 2.002.359 1.067.405 2.548-.305 3.45a1.91 1.91 0 0 1-1.561.727Z"/><path fill="#fff" d="m241.341 148.69 4.141-24.304s-5.393-.574-8.203 2.566c-2.811 3.141-13.618 16.223-24.084 15.112-4.757-.505-7.499-1.873-8.936-2.599l-4.871 7.056c1.383 2.184 5.494 7.134 12.119 10.232 13.252 6.198 23.611-3.416 23.611-3.416l6.223-4.647Z"/><path fill="#0F0F0F" d="M220.521 159.18a21.419 21.419 0 0 1-9.164-2.099c-7.876-3.687-11.848-9.695-12.274-10.369a.358.358 0 0 1 0-.402l4.872-7.055a.363.363 0 0 1 .208-.145.35.35 0 0 1 .25.028c1.323.66 4.074 2.059 8.814 2.563 9.652 1.023 19.835-10.529 23.182-14.325l.594-.67c2.906-3.241 8.286-2.708 8.515-2.685a.365.365 0 0 1 .313.275.37.37 0 0 1 .004.148l-4.139 24.303a.373.373 0 0 1-.141.23l-6.215 4.642c-.348.318-6.327 5.561-14.819 5.561Zm-20.698-12.657c.82 1.232 4.662 6.543 11.837 9.901 12.869 6.021 23.112-3.257 23.214-3.351l.029-.025 6.11-4.566 4.049-23.764c-1.258-.055-5.284-.017-7.519 2.475-.164.187-.364.411-.589.66-3.408 3.865-13.781 15.627-23.799 14.564-4.558-.485-7.329-1.769-8.781-2.495l-4.551 6.601ZM243.517 94.704c-3.341-.175-6.853 3.062-6.051 7.989.656 4.027 4.96 4.887 7.089 6.882 6.891 6.454 9.165 27.579 19.235 33.094 8.04 4.402 22.253 2.742 29.506-7.261 6.891-9.507 7.514-22.939-.888-28.66-7.547-5.147-11.952 2.003-19.942-2.746-7.875-4.684-6.282-10.024-11.106-11.847-6.597-2.492-8.37 3.044-17.843 2.55Z"/><path fill="#fff" d="M246.403 236.39s28.198 4.126 43.254-6.334c15.057-10.459-27.525-67.232-27.525-67.232l-15.729 73.566Z"/><path fill="#0F0F0F" d="M259.205 237.532c-7.314 0-12.73-.766-12.855-.784a.355.355 0 0 1-.243-.152.362.362 0 0 1-.057-.282l15.729-73.566a.368.368 0 0 1 .096-.18.352.352 0 0 1 .381-.084.36.36 0 0 1 .163.122c1.367 1.816 33.443 44.827 30.651 62.242-.392 2.448-1.477 4.301-3.208 5.507-8.472 5.888-21.164 7.177-30.657 7.177Zm-12.368-1.45c3.421.437 28.794 3.282 42.617-6.324 1.567-1.089 2.544-2.781 2.904-5.025 2.562-15.982-25.985-55.53-30.043-61.051l-15.478 72.4Z"/><path fill="#fff" d="M248.454 276.668V287.2l5.038-.308.991-10.224h-6.029Z"/><path fill="#0F0F0F" d="M248.453 287.563a.362.362 0 0 1-.361-.363v-10.532a.362.362 0 0 1 .361-.363h6.03a.368.368 0 0 1 .267.119.369.369 0 0 1 .092.279l-.984 10.232a.364.364 0 0 1-.338.33l-5.037.308-.03-.01Zm.361-10.532v9.786l4.348-.265.924-9.517-5.272-.004Z"/><path fill="#fff" d="M254.248 300.332a34.096 34.096 0 0 1-9.327-.314 2.183 2.183 0 0 1-1.48-.996 2.207 2.207 0 0 1-.256-1.773c.514-1.839 1.098-2.986 1.943-5.562.684-2.086 1.403-5.233 1.969-7.135a.322.322 0 0 1 .099-.149.32.32 0 0 1 .338-.053.325.325 0 0 1 .14.111l.909 1.32.743-1.804a.777.777 0 0 1 .596-.376l2.674.017c.793 0 .853.432.957.762l.53 1.401.797-1.259a.198.198 0 0 1 .325-.019.204.204 0 0 1 .044.118l.318 6.931.624 6.38a2.206 2.206 0 0 1-.48 1.602c-.364.45-.89.736-1.463.798Z"/><path fill="#0F0F0F" d="M250.745 300.88c-1.972 0-3.941-.169-5.885-.505a2.541 2.541 0 0 1-1.725-1.16 2.584 2.584 0 0 1-.298-2.065c.284-1.012.588-1.815.94-2.751.292-.776.624-1.65 1.008-2.825.403-1.23.82-2.806 1.209-4.339.269-1.033.522-2.008.75-2.786a.687.687 0 0 1 .548-.484.677.677 0 0 1 .671.288l.533.771.492-1.192a1.155 1.155 0 0 1 .896-.599l2.709.015c.984 0 1.169.611 1.268.939l.023.076.267.708.41-.65a.566.566 0 0 1 .619-.245.567.567 0 0 1 .417.522l.318 6.931.622 6.36a2.579 2.579 0 0 1-.557 1.869 2.551 2.551 0 0 1-1.701.937 33.367 33.367 0 0 1-3.534.185Zm-3.33-16.15c-.22.754-.465 1.695-.722 2.688-.401 1.54-.812 3.136-1.222 4.382-.389 1.186-.724 2.074-1.019 2.856-.347.918-.645 1.71-.921 2.69a1.837 1.837 0 0 0-.048.763 1.838 1.838 0 0 0 1.5 1.548c3.047.528 6.152.632 9.227.312a1.844 1.844 0 0 0 1.616-2.01l-.625-6.379-.295-6.444-.525.825a.357.357 0 0 1-.524.091.366.366 0 0 1-.118-.159l-.562-1.508c-.087-.289-.127-.422-.578-.422l-2.677-.015a.411.411 0 0 0-.273.181l-.731 1.774a.367.367 0 0 1-.295.223.362.362 0 0 1-.335-.153l-.873-1.243Z"/><path fill="#0F0F0F" d="M250.162 298.491a17.996 17.996 0 0 1-4.607-.59.38.38 0 0 1-.133-.059.36.36 0 0 1-.141-.389.364.364 0 0 1 .313-.269.367.367 0 0 1 .144.015c4.737 1.253 8.729.018 8.768 0a.363.363 0 1 1 .217.692c-.112.041-1.923.6-4.561.6ZM252.245 293.021h-4.594a.364.364 0 0 1 0-.725h4.594a.36.36 0 0 1 .355.507.351.351 0 0 1-.21.198.375.375 0 0 1-.145.02Z"/><path fill="#fff" d="m285.513 271.095 1.489 12.697 4.722-.165v-12.532h-6.211Z"/><path fill="#0F0F0F" d="M287.002 284.156a.362.362 0 0 1-.359-.32l-1.488-12.698a.369.369 0 0 1 .088-.283.36.36 0 0 1 .27-.123h6.211a.365.365 0 0 1 .361.363v12.543a.364.364 0 0 1-.348.361l-4.723.165-.012-.008Zm-1.084-12.697 1.403 11.961 4.042-.142v-11.819h-5.445Z"/><path fill="#fff" d="M285.879 280.763s-.607 5.64-.42 7.908c.134 1.624 2.349 6.527 3.598 9.184a3.89 3.89 0 0 0 2.493 2.066c1.73.495 3.093.279 4.739-.099 1.993-.457 3.445-2.335 2.72-4.514a33.869 33.869 0 0 0-3.426-7.216c-.927-1.486-2.167-4.818-2.764-6.503a1.519 1.519 0 0 0-1.431-1.011h-1.916a1.075 1.075 0 0 0-1.05.835l-.558 2.38-1.985-3.03Z"/><path fill="#0F0F0F" d="M293.555 300.573a7.468 7.468 0 0 1-2.105-.304 4.223 4.223 0 0 1-1.604-.832 4.27 4.27 0 0 1-1.116-1.427c-1.583-3.372-3.499-7.722-3.631-9.309-.188-2.276.396-7.745.422-7.976a.354.354 0 0 1 .272-.314.369.369 0 0 1 .388.152l1.524 2.327.366-1.56a1.434 1.434 0 0 1 1.401-1.115h1.91c.387 0 .764.121 1.081.345.317.224.557.541.689.907.512 1.441 1.805 4.951 2.73 6.436a34.252 34.252 0 0 1 3.462 7.293 3.64 3.64 0 0 1-.243 2.995 4.189 4.189 0 0 1-2.738 1.981c-.918.24-1.86.375-2.808.401Zm-7.424-18.757c-.164 1.722-.452 5.193-.318 6.825.094 1.137 1.393 4.438 3.565 9.058a3.525 3.525 0 0 0 2.269 1.874c1.675.495 2.999.252 4.556-.104a3.444 3.444 0 0 0 2.27-1.637 2.934 2.934 0 0 0 .19-2.408 33.485 33.485 0 0 0-3.39-7.139c-.933-1.486-2.154-4.756-2.799-6.573a1.157 1.157 0 0 0-1.091-.771h-1.916a.716.716 0 0 0-.699.556l-.558 2.378a.353.353 0 0 1-.104.18.353.353 0 0 1-.185.094.352.352 0 0 1-.364-.157l-1.426-2.176Z"/><path fill="#0F0F0F" d="M293.678 297.812c-1.355 0-2.4-.542-2.953-1.289-.243-.33-.385-.561-.392-.571l-2.19-4.263a.362.362 0 0 1 .64-.33l2.178 4.241s.13.21.34.495c.761 1.017 2.704 1.524 5.168.236a.366.366 0 0 1 .288-.043.371.371 0 0 1 .226.185.373.373 0 0 1 .017.292.37.37 0 0 1-.203.21c-1.15.589-2.21.837-3.119.837Z"/><path fill="#0F0F0F" d="M295.714 293.179h-4.211a.362.362 0 0 1-.256-.62.362.362 0 0 1 .256-.106h4.211c.096 0 .188.038.255.106a.366.366 0 0 1 0 .514.358.358 0 0 1-.255.106ZM240.357 171.376s.502 38.753 2.121 63.981c1.62 25.228 4.812 44.519 4.812 44.519s3.472 1.926 7.921.042c0 0 4.168-21.226 4.847-28.715.679-7.489-1.124-11.192-1.275-17.315-.151-6.122 2.625-33.154 2.625-33.154s20.714 61.11 23.083 74.608c0 0 5.017.854 8.553-1.09 0 0 .109-24.031-.393-27.744-.928-6.878-6.27-13.653-7.23-20.958-.96-7.306-1.516-25.646-4.159-36.637-2.643-10.99-7.826-23.356-7.826-23.356l-33.079 5.819Z"/><path fill="#fff" d="M261.667 123.429s7.18-1.213 14.256 15.859a45.812 45.812 0 0 1-.304 35.623c-1.522 3.538-2.884 6.535-3.489 7.426-3.73 5.528-15.532 6.014-22.248 5.269a6.737 6.737 0 0 1-4.172-2.096 6.811 6.811 0 0 1-1.829-4.315l-1.884-36.989-4.974.018-.44-9.232c-.041-.84.756-4.718 1.237-5.597 1.585-2.902 4.719-6.502 11.501-6.271l12.346.305Z"/><path fill="#0F0F0F" d="M255.111 188.252a48.54 48.54 0 0 1-5.268-.281 7.073 7.073 0 0 1-4.403-2.201 7.154 7.154 0 0 1-1.92-4.552l-1.851-36.654-4.63.018a.36.36 0 0 1-.361-.346l-.451-9.227c-.047-.944.771-4.859 1.28-5.791 2.441-4.469 6.421-6.644 11.831-6.464l12.316.307c.656-.086 7.69-.612 14.602 16.083 4.723 11.387 4.612 24.482-.305 35.905-1.793 4.164-2.978 6.686-3.523 7.493-3.019 4.48-10.874 5.71-17.317 5.71Zm-13.114-44.409a.364.364 0 0 1 .36.343l1.878 36.994a6.424 6.424 0 0 0 1.724 4.092 6.354 6.354 0 0 0 3.956 1.978c5.941.66 18.166.439 21.91-5.116.52-.771 1.683-3.251 3.456-7.373 4.84-11.244 4.95-24.124.302-35.338-6.843-16.527-13.786-15.652-13.858-15.636a.364.364 0 0 1-.066 0l-12.351-.309c-5.129-.165-8.878 1.88-11.176 6.09-.437.797-1.232 4.603-1.193 5.405l.435 8.881 4.628-.016-.005.005Z"/><path fill="#fff" d="M241.115 242.013a8.998 8.998 0 0 1-5.142-3.316 9.092 9.092 0 0 1-1.856-5.853l1.902-50.769c.123-3.789.131-7.58.023-11.371l-.924-37.956c.123-2.698 2.036-6.194 4.09-7.905a8.583 8.583 0 0 1 2.973-1.624s2.157 26.647 5.45 52.773c3.198 25.368 7.237 55.691 8.881 64.09.119.608 0 1.239-.332 1.762a2.394 2.394 0 0 1-1.45 1.043l-1.053.259c-3.058.754-4.497.718-7.567.017l-4.995-1.15Z"/><path fill="#0F0F0F" d="M249.936 244.054c-1.148 0-2.319-.182-3.906-.545l-4.994-1.143a9.36 9.36 0 0 1-5.347-3.449 9.455 9.455 0 0 1-1.931-6.087l1.901-50.769c.122-3.766.128-7.591.022-11.347l-.811-33.316a.367.367 0 0 1 .352-.372.363.363 0 0 1 .37.354l.809 33.316c.108 3.776.1 7.609-.021 11.387l-1.902 50.771a8.733 8.733 0 0 0 1.782 5.617 8.637 8.637 0 0 0 4.935 3.183l4.996 1.144c3.094.71 4.477.706 7.399-.013l1.055-.261c.509-.124.95-.441 1.232-.885.282-.444.382-.98.281-1.496-1.662-8.494-5.678-38.689-8.884-64.113-3.021-23.966-5.111-48.664-5.414-52.327-.881.329-1.7.806-2.422 1.411-.615.511-2.725 2.822-3.301 3.658a.363.363 0 0 1-.375.155.374.374 0 0 1-.23-.16.379.379 0 0 1-.047-.277.347.347 0 0 1 .058-.13c.571-.825 2.722-3.21 3.435-3.806a8.966 8.966 0 0 1 3.096-1.69.36.36 0 0 1 .466.317c.022.268 2.196 26.939 5.449 52.758 3.058 24.249 7.219 55.578 8.876 64.064a2.778 2.778 0 0 1-.38 2.027 2.752 2.752 0 0 1-1.669 1.199l-1.053.261c-1.521.377-2.662.564-3.827.564ZM256.338 152.115a.327.327 0 0 1-.134-.026c-7.152-2.89-7.795-13.318-7.82-13.76a.368.368 0 0 1 .2-.36.383.383 0 0 1 .14-.037.366.366 0 0 1 .35.216.38.38 0 0 1 .031.141c0 .104.646 10.41 7.368 13.127a.364.364 0 0 1-.135.699Z"/><path fill="#fff" d="M262.419 122.089s7.693-.314 13.443 8.365c4.922 7.426 12.788 23.579 13.099 29.966.53 10.84-9.411 12.763-9.084 16.212.415 4.393 3.87 13.79 11.24 24.082 6.071 8.478 9.201 27.341 8.418 27.969-5.274 4.235-13.638 12.792-25.187 13.986a4.549 4.549 0 0 1-2.957-.713 4.595 4.595 0 0 1-1.858-2.422c-2.712-8.252-10.305-32.22-14.786-54.758-3.882-19.516 2.297-49.394 2.72-51.911 1.101-6.474 4.952-10.776 4.952-10.776Z"/><path fill="#0F0F0F" d="M273.866 243.057a4.883 4.883 0 0 1-2.891-.941 4.94 4.94 0 0 1-1.785-2.473c-2.973-9.055-10.366-32.519-14.797-54.799-2.333-11.737-1.429-29.888 2.548-51.114.082-.439.141-.754.172-.931 1.103-6.497 4.878-10.774 5.039-10.954a.358.358 0 0 1 .252-.119c.082 0 7.964-.218 13.759 8.527 5.086 7.667 12.845 23.704 13.16 30.149.344 7.064-3.598 10.396-6.478 12.834-1.514 1.282-2.71 2.294-2.61 3.361.436 4.606 4.12 14.051 11.176 23.906 3.492 4.877 5.782 12.777 6.835 17.053.848 3.439 2.335 10.753 1.514 11.411-.756.607-1.586 1.32-2.46 2.06-5.449 4.62-12.914 10.969-22.907 12.004a4.881 4.881 0 0 1-.527.026ZM262.585 122.45c-.614.736-3.795 4.775-4.758 10.471-.031.18-.09.495-.174.944-3.959 21.135-4.865 39.189-2.55 50.829 4.43 22.242 11.813 45.673 14.774 54.714.297.92.899 1.71 1.706 2.237a4.175 4.175 0 0 0 2.724.658c9.772-1.012 17.139-7.261 22.517-11.837a123.35 123.35 0 0 1 2.433-2.034c.39-1.379-2.509-19.233-8.436-27.511-7.136-9.966-10.863-19.561-11.308-24.259-.138-1.448 1.186-2.568 2.863-3.986 2.763-2.338 6.548-5.538 6.221-12.243-.303-6.226-8.119-22.36-13.038-29.782-5.119-7.725-11.88-8.179-12.974-8.201Z"/><path fill="#fff" d="M227.906 142.43h23.904c.753 0 1.467.637 1.595 1.421l5.424 33.689c.128.784-.382 1.421-1.135 1.421h-23.9c-.755 0-1.477-.637-1.595-1.421l-5.425-33.689c-.132-.784.377-1.421 1.132-1.421Z"/><path fill="#0F0F0F" d="M257.693 179.324h-23.899a2.061 2.061 0 0 1-1.951-1.726l-5.432-33.694a1.644 1.644 0 0 1 .338-1.32 1.474 1.474 0 0 1 1.148-.522h23.905c.937 0 1.793.759 1.951 1.726l5.425 33.687a1.63 1.63 0 0 1-.339 1.321 1.481 1.481 0 0 1-1.146.528Zm-29.787-36.531a.777.777 0 0 0-.606.266.903.903 0 0 0-.175.734l5.425 33.687c.097.606.657 1.118 1.239 1.118h23.904a.772.772 0 0 0 .604-.266.897.897 0 0 0 .176-.734l-5.426-33.694c-.097-.604-.656-1.116-1.237-1.116l-23.904.005Z"/><path fill="#0F0F0F" d="M234.032 140.336h10.5a.749.749 0 0 1 .701.625l.389 3.558a.518.518 0 0 1-.272.575.51.51 0 0 1-.22.051h-10.501a.745.745 0 0 1-.7-.626l-.389-3.558a.512.512 0 0 1 .492-.625Z"/><path fill="#fff" d="m255.17 154.931.584 3.677a1.832 1.832 0 0 1-.632 1.429 1.816 1.816 0 0 1-1.501.414l-6.234-1.139a1.513 1.513 0 0 0-1.671.9c-.09.211-.131.44-.121.67.033.558.283 1.206.972 1.881.328.314 5.85 4.55 10.098 3.781.116-.022 2.838 1.564 2.838 1.564.18-.698.404-1.384.673-2.053.41-1.011.994-2.132.994-2.132s-2.011-1.332-2.192-1.889c-.344-1.065-.229-1.816-.492-3.657-.42-3.075-3.316-3.446-3.316-3.446Z"/><path fill="#0F0F0F" d="M259.498 168.472a.378.378 0 0 1-.18-.048c-1.117-.66-2.367-1.359-2.689-1.505-.35.055-.704.083-1.058.082-4.361 0-9.216-3.934-9.262-3.979-.672-.66-1.035-1.371-1.078-2.119a1.866 1.866 0 0 1 1.369-1.909c.276-.078.566-.091.848-.04l6.234 1.141c.211.038.428.029.635-.026.207-.056.399-.157.563-.295a1.468 1.468 0 0 0 .517-1.133l-.578-3.654a.374.374 0 0 1 .012-.166.353.353 0 0 1 .224-.232.356.356 0 0 1 .165-.018c.032 0 3.174.446 3.63 3.756.102.74.145 1.321.181 1.781.054.701.093 1.21.289 1.815.092.268 1.133 1.096 2.047 1.702a.363.363 0 0 1 .122.472c0 .01-.583 1.117-.985 2.1a16.205 16.205 0 0 0-.656 2.002.363.363 0 0 1-.21.248.394.394 0 0 1-.14.025Zm-2.843-2.289c.151 0 .492.146 2.625 1.378.16-.556.348-1.104.563-1.641.29-.714.656-1.47.861-1.873-.656-.452-1.891-1.358-2.067-1.899-.223-.687-.266-1.258-.328-1.981-.038-.478-.079-1.02-.177-1.737a3.557 3.557 0 0 0-.802-1.896 3.518 3.518 0 0 0-1.715-1.126l.492 3.135v.048a2.191 2.191 0 0 1-1.608 2.168c-.313.085-.64.099-.958.04l-6.234-1.138a1.145 1.145 0 0 0-.985.277c-.129.113-.23.254-.297.412a1.138 1.138 0 0 0-.085.502c.031.561.328 1.114.861 1.65.479.469 5.808 4.403 9.784 3.686a.275.275 0 0 1 .07-.005ZM274.162 198.008c-6.831 0-10.992-5.967-11.044-6.045a.363.363 0 0 1 .363-.563.363.363 0 0 1 .232.152c.263.386 6.576 9.407 16.6 4.071a.358.358 0 0 1 .47.16.364.364 0 0 1-.132.481c-2.359 1.255-4.528 1.744-6.489 1.744Z"/><path fill="#0F0F0F" d="M273.775 177.248c-6.738 0-12.62-5.281-14.602-7.727-.656-.825 1.098-4.773 1.725-5.86.525-.913.902-1.259 1.289-1.195.269.045.566.102.881.165 2.611.508 6.186 1.203 8.35-2.683 2.198-3.946-1.592-18.978-1.629-19.13a.369.369 0 0 1 .127-.391.368.368 0 0 1 .273-.071.368.368 0 0 1 .298.282c.165.629 3.899 15.468 1.561 19.665-2.42 4.343-6.612 3.528-9.116 3.039-.287-.054-.558-.107-.805-.148-.737.435-2.663 5.183-2.379 5.895 2.274 2.805 9.95 9.561 17.912 6.776 1.438-.495 2.972-1.637 3.928-2.53a.355.355 0 0 1 .259-.097.362.362 0 0 1 .233.628c-1.012.944-2.641 2.145-4.183 2.685a12.418 12.418 0 0 1-4.122.697ZM238.867 198.681c-.153 0-.307 0-.464-.013a.361.361 0 0 1-.327-.382.361.361 0 0 1 .368-.342c6.108.345 7.942-7.042 7.96-7.116a.359.359 0 0 1 .716.017c.005.05 0 .1-.015.148-.022.081-1.895 7.688-8.238 7.688Z"/><path fill="#fff" d="M250.201 109.403a.444.444 0 0 1-.382.037.46.46 0 0 1-.274-.269c-.493-1.232-1.293-3.588-2.914-3.961-2.085-.485-5.462-1.111-5.752.549-.255 1.454.044 3.961-1.477 5.776-.146.165-.02.454.164.591l.958.812c.202.154.376.672.401.928.075.788.881 3.534 1.148 3.751.53.422 3.167.257 3.167.257l1.409 6.251c.044.152-.583.825-1.16 1.388a1.113 1.113 0 0 0-.309.99 1.11 1.11 0 0 0 .637.816c1.073.495 2.986.95 6.295.726 2.094-.144 3.897-.982 5.147-1.756a1.116 1.116 0 0 0 .527-1.035 1.119 1.119 0 0 0-.673-.945c-2.4-.991-6.203-3.558-6.917-9.853a.586.586 0 0 1 .228-.529c.625-.474 2.312-1.868 2.016-3.281-.318-1.502-1.435-1.728-2.239-1.243Z"/><path fill="#0F0F0F" d="M250.475 128.467c-2.461 0-3.951-.422-4.812-.825a1.476 1.476 0 0 1-.843-1.091 1.454 1.454 0 0 1 .047-.702c.072-.227.197-.433.366-.6.748-.741.975-1.041 1.042-1.145l-1.313-5.857c-.859.038-2.589.061-3.105-.353-.443-.353-1.228-3.37-1.288-4a1.54 1.54 0 0 0-.26-.674l-.971-.825a.929.929 0 0 1-.348-.605.656.656 0 0 1 .145-.496c1.063-1.27 1.176-2.954 1.268-4.307.02-.436.063-.871.128-1.303a1.401 1.401 0 0 1 .632-.958c1.168-.779 3.732-.305 5.556.119 1.671.386 2.494 2.476 3.039 3.855l.13.33a.1.1 0 0 0 .065.063c.01.004.021.007.032.007a.088.088 0 0 0 .032-.007 1.776 1.776 0 0 1 1.641-.145c.402.176.925.602 1.138 1.622.317 1.517-1.212 2.936-2.152 3.645a.226.226 0 0 0-.087.202c.702 6.182 4.497 8.641 6.697 9.557a1.445 1.445 0 0 1 .894 1.241 1.485 1.485 0 0 1-.697 1.384c-1.196.743-3.091 1.65-5.311 1.815-.604.035-1.155.053-1.665.053Zm-5.235-10.954a.358.358 0 0 1 .351.284l1.409 6.249c.066.225.016.465-1.26 1.728a.727.727 0 0 0-.187.304.752.752 0 0 0 .408.914c.965.44 2.811.919 6.122.693 2.074-.14 3.854-1.003 4.982-1.701a.746.746 0 0 0 .356-.71.729.729 0 0 0-.451-.629c-2.346-.977-6.398-3.592-7.138-10.146a.952.952 0 0 1 .371-.861c.646-.495 2.123-1.751 1.88-2.916-.118-.57-.369-.952-.724-1.108a1.059 1.059 0 0 0-.984.103.796.796 0 0 1-.656.069.836.836 0 0 1-.507-.477l-.132-.33c-.492-1.241-1.227-3.114-2.528-3.416-2.625-.609-4.303-.683-4.997-.219a.679.679 0 0 0-.328.478c-.061.345-.089.772-.12 1.226-.097 1.448-.218 3.246-1.41 4.694a.256.256 0 0 0 .076.099l.973.825c.31.236.492.879.525 1.17.075.771.82 3.18 1.037 3.513.295.192 1.721.241 2.902.165l.03-.001Zm1.053 6.678a.229.229 0 0 0 0 .037v-.037Z"/><path fill="#fff" d="M52.602 278.031s-2.245 10.318.237 13.265l.77 1.263-2.401 1.025a8.5 8.5 0 0 1-4.743.577 8.536 8.536 0 0 1-4.31-2.072l-.328-.299.584-1.304c1.037-2.32 2.823-9.52 2.651-11.971l7.54-.484Z"/><path fill="#0F0F0F" d="M47.86 294.641a8.88 8.88 0 0 1-5.945-2.275l-.328-.301a.364.364 0 0 1-.088-.419l.584-1.304c1.01-2.257 2.789-9.433 2.625-11.796a.365.365 0 0 1 .336-.388l7.547-.495a.366.366 0 0 1 .297.126.37.37 0 0 1 .079.315c-.021.101-2.179 10.176.164 12.953a.316.316 0 0 1 .033.045l.77 1.262a.361.361 0 0 1-.041.434.367.367 0 0 1-.126.091l-2.415 1.036a8.854 8.854 0 0 1-3.493.716Zm-5.6-2.939.136.122a8.164 8.164 0 0 0 8.67 1.433l2.017-.867-.536-.881c-2.261-2.736-.807-10.996-.394-13.085l-6.727.436c0 2.779-1.681 9.514-2.695 11.781l-.471 1.061Z"/><path fill="#fff" d="m53.476 287.761 1.352 1.208a22.038 22.038 0 0 0 9.423 4.976l.667.165a.791.791 0 0 1 .55.495l.048.125c.519 1.403-.723 4.9-5.783 6.668-1.312.458-4.827.117-10.047.112-2.264 0-4.594 0-5.953-.01a6.637 6.637 0 0 1-3.744-1.117c-1.23-.844-2.346-2.258-1.881-4.544.454-2.241 2.247-6.629 3.217-8.279a.605.605 0 0 1 .662-.277.612.612 0 0 1 .229.112l1.005 2.475c.681 1.679 2.386 2.758 4.155 2.476.109-.018.218-.039.328-.065a4.838 4.838 0 0 0 2.797-1.944l1.757-2.445a.81.81 0 0 1 .58-.34.822.822 0 0 1 .638.209Z"/><path fill="#0F0F0F" d="M57.134 302c-.782 0-1.698-.023-2.753-.051a186.013 186.013 0 0 0-4.695-.076c-2.264 0-4.594 0-5.953-.01a6.982 6.982 0 0 1-3.947-1.183c-1.74-1.193-2.443-2.892-2.031-4.916.453-2.235 2.221-6.621 3.26-8.392a.938.938 0 0 1 .637-.457.97.97 0 0 1 .779.18.355.355 0 0 1 .12.153l1.005 2.476c.629 1.551 2.212 2.501 3.764 2.262.102-.016.205-.036.31-.061a4.476 4.476 0 0 0 2.586-1.8l1.757-2.448a1.184 1.184 0 0 1 .828-.486 1.178 1.178 0 0 1 .914.293l1.352 1.208a21.769 21.769 0 0 0 9.27 4.893l.666.165a1.144 1.144 0 0 1 .804.721l.047.126c.256.691.14 1.65-.316 2.622-.528 1.129-1.969 3.216-5.685 4.515-.573.207-1.473.266-2.719.266Zm-15.297-14.376h-.05a.234.234 0 0 0-.155.116c-.985 1.687-2.743 6.035-3.177 8.167-.352 1.74.23 3.136 1.731 4.17a6.263 6.263 0 0 0 3.544 1.055c1.352 0 3.687.01 5.95.011 1.778 0 3.338.042 4.714.076 2.562.066 4.41.113 5.216-.165 3.467-1.213 4.79-3.114 5.27-4.14.435-.928.436-1.67.294-2.058l-.04-.117a.424.424 0 0 0-.3-.271l-.666-.165a22.53 22.53 0 0 1-9.577-5.056l-1.352-1.208a.446.446 0 0 0-.164-.096c-.062-.02-.126-.027-.19-.02a.464.464 0 0 0-.328.192L50.8 290.56a5.19 5.19 0 0 1-3.008 2.085 4.944 4.944 0 0 1-.362.069c-1.907.295-3.774-.825-4.542-2.705l-.96-2.366a.224.224 0 0 0-.091-.019Z"/><path fill="#0F0F0F" d="M46.266 299.434c-4.252 0-6.352-2.261-6.442-2.36a.362.362 0 0 1-.064-.4.36.36 0 0 1 .48-.178c.044.02.083.048.115.083.021.023 2.154 2.295 6.41 2.114 3.188-.137 7.892-.081 10.412-.035a7.01 7.01 0 0 0 4.065-1.168c.329-.209.621-.47.867-.772a.356.356 0 0 1 .387-.154.365.365 0 0 1 .229.175.362.362 0 0 1-.042.416 4.326 4.326 0 0 1-1.037.937 7.65 7.65 0 0 1-4.482 1.291c-2.512-.045-7.2-.101-10.368.034a7.01 7.01 0 0 1-.53.017Z"/><path fill="#fff" d="M19.02 277.431s-3.09 6.307-2.121 9.882l.175 1.422-10.028-6.292 1.108-.72c2.193-1.459 4.354-3.819 5.086-6.075l5.78 1.783Z"/><path fill="#0F0F0F" d="M17.063 289.105a.357.357 0 0 1-.19-.055l-10.024-6.292a.368.368 0 0 1-.168-.306.362.362 0 0 1 .168-.306l1.106-.72c2.35-1.563 4.287-3.873 4.935-5.883a.36.36 0 0 1 .448-.234l5.792 1.775a.372.372 0 0 1 .226.507c-.03.063-3.019 6.226-2.101 9.634v.05l.175 1.422a.363.363 0 0 1-.358.408h-.01Zm-9.352-6.661 8.904 5.588-.08-.643c-.84-3.195 1.314-8.288 1.98-9.737l-5.062-1.548c-.789 2.071-2.755 4.365-5.107 5.929l-.635.411Z"/><path fill="#fff" d="m18.03 285.227.181 1.739a21.571 21.571 0 0 0 3.446 9.626l1.46 2.211a.785.785 0 0 1 .072.713l-.047.119c-.529 1.32-3.633 2.971-8.325.9-2.9-1.286-5.831-5.219-14.185-13.14-.432-.411-.296-1.155.08-1.621 1.37-1.689 4.794-5.599 7.852-6.545a.594.594 0 0 1 .765.456l.656 3.408a2.799 2.799 0 0 0 1.173 1.792 2.766 2.766 0 0 0 2.09.424l3.844-.782a.78.78 0 0 1 .84.387.793.793 0 0 1 .099.313Z"/><path fill="#0F0F0F" d="M19.031 301.884c-1.16 0-2.625-.249-4.357-1.018-1.902-.841-3.724-2.691-7.034-6.05-1.873-1.893-4.195-4.259-7.258-7.159-.589-.557-.438-1.511.05-2.112 1.36-1.678 4.862-5.685 8.024-6.662a.939.939 0 0 1 .775.091.962.962 0 0 1 .45.642l.655 3.406a2.437 2.437 0 0 0 1.034 1.569 2.348 2.348 0 0 0 1.804.36l3.844-.782a1.14 1.14 0 0 1 1.226.561c.08.141.128.296.144.457l.182 1.739a21.297 21.297 0 0 0 3.385 9.463l1.46 2.211a1.144 1.144 0 0 1 .107 1.048l-.048.121c-.262.66-.956 1.259-1.903 1.65a6.67 6.67 0 0 1-2.54.465ZM8.743 279.565a.215.215 0 0 0-.076.011c-2.973.919-6.359 4.801-7.676 6.436-.274.33-.384.87-.115 1.127 3.066 2.906 5.4 5.273 7.273 7.176 3.247 3.3 5.035 5.115 6.812 5.894 3.209 1.421 5.348.953 6.338.547.889-.367 1.361-.885 1.506-1.248l.047-.119a.406.406 0 0 0-.039-.376l-1.458-2.213a21.995 21.995 0 0 1-3.5-9.788l-.182-1.739a.436.436 0 0 0-.332-.38.415.415 0 0 0-.172-.003l-3.85.772a3.077 3.077 0 0 1-2.348-.467 3.156 3.156 0 0 1-1.34-2.036l-.657-3.406a.231.231 0 0 0-.107-.156.237.237 0 0 0-.124-.032Z"/><path fill="#0F0F0F" d="M19.886 299.041a.23.23 0 0 1-.052 0l-.786-.117a12.413 12.413 0 0 1-6.978-3.553l-8.725-8.855a.367.367 0 0 1-.006-.521.362.362 0 0 1 .518.009l8.725 8.855a11.698 11.698 0 0 0 6.57 3.345l.787.118a.364.364 0 0 1-.053.721v-.002ZM58.407 174.023c6.865 1.916 11.116 3.088 11.116 3.088s-13.673 49.343-17.632 61.71c-3.588 11.209-27.104 35.619-31.275 40.57-.43.512-1.652 1.027-1.652 1.027a5.998 5.998 0 0 1-3.538-.223 6.03 6.03 0 0 1-2.803-2.182s-.755-1.709-.577-2.581l1.312-6.409c4.958-20.34 14.438-30.408 18.456-51.642 6.07-32.05 10.595-39.287 11.61-41.721 3.128-7.55 14.983-1.637 14.983-1.637Z"/><path fill="#0F0F0F" d="M81.17 174.937c1.214 11.57.492 31.537-.62 40.557-3.071 24.829-23.478 59.758-27.235 66.851a3.108 3.108 0 0 1-2.38 1.641c-2.892.33-3.965-.391-5.444-1.156a3.243 3.243 0 0 1-1.248-1.201 3.274 3.274 0 0 1-.459-1.675c-.508-24.323 4.643-45.151 9.987-58.42 2.06-5.115 4.317-34.231 4.038-44.722l23.361-1.875Z"/><path fill="#fff" d="M44.365 255.637a.36.36 0 0 1-.066 0 .366.366 0 0 1-.289-.424c2.415-13.086 4.443-21.199 6.781-27.129a72.314 72.314 0 0 0 5.101-25.614l.06-4.328a.355.355 0 0 1 .365-.358.358.358 0 0 1 .253.11.367.367 0 0 1 .103.258l-.06 4.328a73.038 73.038 0 0 1-5.15 25.872c-2.322 5.883-4.337 13.956-6.744 26.995a.364.364 0 0 1-.354.29ZM105.384 125.256c.36-.666.663-1.361.906-2.078a1.62 1.62 0 0 0 .148-.881c-.178-1.561-.821-5.387.257-6.86 1.805-2.476 4.279-1.075 4.279-1.075s1.134-2.3 2.586-1.434c1.115.66 2.201 2.122 2.01 4.385-.26 3.084-.781 6.032-4.037 7.794a3.152 3.152 0 0 0-1.412 1.556l-4.737-1.407Z"/><path fill="#0F0F0F" d="M110.121 127.025a.355.355 0 0 1-.102-.015l-4.736-1.408a.367.367 0 0 1-.23-.204.364.364 0 0 1 .01-.309c.347-.645.641-1.317.879-2.01a.337.337 0 0 1 .031-.076 1.28 1.28 0 0 0 .107-.66l-.074-.594c-.241-1.906-.646-5.096.399-6.524 1.57-2.145 3.627-1.63 4.418-1.32.271-.441.848-1.228 1.624-1.459a1.573 1.573 0 0 1 1.297.178c.577.345 2.441 1.704 2.185 4.729-.258 3.072-.797 6.228-4.225 8.086a2.802 2.802 0 0 0-1.25 1.376.369.369 0 0 1-.333.21Zm-4.221-1.995 4.024 1.196a3.524 3.524 0 0 1 1.434-1.439c3.117-1.685 3.595-4.512 3.847-7.507.22-2.603-1.348-3.751-1.834-4.042a.888.888 0 0 0-.725-.107c-.642.192-1.194 1.069-1.354 1.391a.36.36 0 0 1-.492.155c-.088-.049-2.221-1.199-3.813.972-.874 1.194-.477 4.321-.264 6.002.03.225.056.428.076.603.042.36-.015.726-.164 1.056a11.798 11.798 0 0 1-.735 1.72Z"/><path fill="#fff" d="m104.871 128.951-4.701-4.906 2.461-2.176c.136-.119.298-.205.473-.25l.317-.081a1.146 1.146 0 0 0 .82-.811 1.13 1.13 0 0 1 .348-.559l18.319-16.187a2.24 2.24 0 0 1 .493-.331l5.529-2.736-2.827 5.235a3.819 3.819 0 0 1-.568.786l-16.702 17.789a1.15 1.15 0 0 1-.523.319l-.049.013a1.144 1.144 0 0 0-.791.794l-.054.195c-.051.177-.143.34-.269.475l-2.276 2.431Z"/><path fill="#0F0F0F" d="M104.871 129.314a.363.363 0 0 1-.259-.111l-4.696-4.906a.373.373 0 0 1-.1-.267.36.36 0 0 1 .123-.258l2.461-2.177c.179-.157.392-.27.622-.33l.318-.081a.776.776 0 0 0 .561-.554c.077-.286.237-.542.458-.736l18.32-16.189c.175-.154.369-.284.577-.388l5.528-2.736a.362.362 0 0 1 .42.072.372.372 0 0 1 .057.426l-2.827 5.235c-.17.312-.379.602-.621.861l-16.709 17.792a1.48 1.48 0 0 1-.689.417l-.049.015a.784.784 0 0 0-.542.543l-.054.193c-.065.235-.186.45-.353.627l-2.297 2.438a.36.36 0 0 1-.259.114h.01Zm-4.179-5.248 4.177 4.36 2.028-2.162a.755.755 0 0 0 .184-.33l.054-.183a1.518 1.518 0 0 1 1.04-1.045l.051-.015a.778.778 0 0 0 .358-.218l16.702-17.789c.2-.214.373-.452.512-.71l2.285-4.233-4.51 2.226c-.152.075-.293.17-.42.282l-18.315 16.191a.777.777 0 0 0-.238.381 1.504 1.504 0 0 1-1.081 1.068l-.316.081a.776.776 0 0 0-.329.165l-2.182 1.931Z"/><path fill="#0F0F0F" d="M124.416 105.438a.368.368 0 0 1-.253-.103l-1.247-1.226a.361.361 0 0 1-.115-.257.364.364 0 0 1 .361-.372.354.354 0 0 1 .258.109l1.249 1.226a.365.365 0 0 1-.253.623Z"/><path fill="#fff" d="m96.077 127.866 4.167-3.917 4.67 4.99-4.164 3.918a1.873 1.873 0 0 1-2.648-.055l-2.133-2.282a1.88 1.88 0 0 1 .108-2.654Z"/><path fill="#0F0F0F" d="M99.437 133.74a2.183 2.183 0 0 1-1.603-.69l-2.133-2.282a2.19 2.19 0 0 1-.59-1.576 2.283 2.283 0 0 1 .722-1.591l4.162-3.916a.357.357 0 0 1 .396-.066.342.342 0 0 1 .114.082l4.661 4.989a.369.369 0 0 1 .067.399.368.368 0 0 1-.083.116l-4.162 3.916a2.27 2.27 0 0 1-1.55.619Zm.788-9.278-3.902 3.67a1.544 1.544 0 0 0-.401 1.651c.068.181.17.347.303.488l2.133 2.282a1.51 1.51 0 0 0 2.132.038l3.9-3.668-4.165-4.461Z"/><path fill="#0F0F0F" d="M99.406 131.362a.373.373 0 0 1-.27-.121.355.355 0 0 1-.091-.261.362.362 0 0 1 .12-.25l2.318-2.101a.362.362 0 0 1 .396-.058.352.352 0 0 1 .184.206.365.365 0 0 1-.098.39l-2.318 2.101a.36.36 0 0 1-.241.094Z"/><path fill="#fff" d="M106.29 123.176s.622-3.345 2.809-5.493c1.34-1.321 2.589-7.027 5.14-4.291.548.591.932.954 1.235 1.906.164.521.391 1.815.329 2.454-.261 3.088-1.024 5.593-4.288 7.354a3.127 3.127 0 0 0-1.402 1.549c-.178.428-3.956 26.71-9.391 29.913-6.18 3.642-16.935-10.217-16.935-10.217l9.35-9.873s4.308 5.399 4.922 5.657c.477.193 8.231-18.959 8.231-18.959Z"/><path fill="#0F0F0F" d="M98.416 157.547c-6.311 0-14.513-10.461-14.905-10.968a.364.364 0 0 1 .023-.474l9.342-9.883a.357.357 0 0 1 .276-.114.364.364 0 0 1 .267.135c1.815 2.276 3.874 4.723 4.594 5.39.984-1.695 5.288-12.027 7.934-18.561.079-.397.763-3.544 2.906-5.648.349-.344.723-1.086 1.12-1.872.76-1.508 1.546-3.066 2.743-3.238.596-.085 1.197.197 1.79.835l.11.118c.502.536.898.96 1.208 1.925.18.57.408 1.91.351 2.595-.277 3.287-1.148 5.845-4.476 7.644a2.784 2.784 0 0 0-1.24 1.369c-.015.06-.108.613-.218 1.251-2.942 17.224-6.087 26.925-9.329 28.836a4.83 4.83 0 0 1-2.496.66Zm-14.142-11.168c1.467 1.816 10.877 13.064 16.274 9.885 2.096-1.236 5.355-7.154 8.977-28.333.204-1.192.228-1.32.265-1.408a3.504 3.504 0 0 1 1.565-1.728c3.055-1.65 3.832-3.927 4.101-7.066.048-.573-.164-1.815-.328-2.31-.259-.811-.572-1.146-1.045-1.651l-.111-.119c-.425-.455-.821-.66-1.162-.612-.82.119-1.588 1.632-2.202 2.847-.423.842-.82 1.635-1.26 2.064-2.079 2.038-2.705 5.263-2.705 5.296a.326.326 0 0 1-.022.069c-.018.048-1.913 4.727-3.863 9.379-4 9.545-4.31 9.675-4.537 9.771a.416.416 0 0 1-.298 0c-.596-.249-3.385-3.663-4.81-5.446l-8.84 9.362Z"/><path fill="#fff" d="M25.38 184.501c-.176.495.267 1.485.204 1.899-.23 1.497-2.443 3.601-4.072 4.967a5.803 5.803 0 0 0-2.064 4.408c0 .401.02.84.043 1.311.054 1.08-.29 1.65-.755 1.944-.912.571-2.1-.096-2.216-1.177-.253-2.367-.67-7.261-.012-8.997.433-1.136 1.83-2.623 3.137-3.841a6.322 6.322 0 0 0 1.48-2.124 6.36 6.36 0 0 0 .509-2.544c-.027-6.123 3.35-24.002 7.315-36.552l9.913 5.54s-6.973 16.587-13.483 35.166Z"/><path fill="#0F0F0F" d="M18.014 199.606a1.793 1.793 0 0 1-.787-.185 1.907 1.907 0 0 1-1.065-1.525c-.286-2.665-.656-7.4.01-9.164.38-.998 1.466-2.337 3.227-3.979a5.962 5.962 0 0 0 1.394-2.002 6.004 6.004 0 0 0 .48-2.397c-.027-6.012 3.24-23.707 7.332-36.665a.361.361 0 0 1 .518-.206l9.915 5.537a.367.367 0 0 1 .156.459c-.07.165-7.042 16.784-13.474 35.15-.067.19.035.627.109.946.087.288.125.589.111.889-.241 1.581-2.415 3.695-4.197 5.189a5.39 5.39 0 0 0-1.421 1.847 5.427 5.427 0 0 0-.513 2.279c0 .392.02.835.043 1.29.054 1.089-.258 1.853-.926 2.271-.273.173-.59.265-.912.266Zm11.145-55.273c-4.011 12.856-7.19 30.122-7.165 36.017a6.74 6.74 0 0 1-.54 2.69 6.7 6.7 0 0 1-1.565 2.246c-1.655 1.543-2.708 2.824-3.045 3.705-.45 1.185-.438 4.403.035 8.827a1.193 1.193 0 0 0 .664.951 1.013 1.013 0 0 0 1.003-.041c.428-.269.625-.814.584-1.619a27.913 27.913 0 0 1-.043-1.33 6.146 6.146 0 0 1 2.194-4.677c2.384-2 3.785-3.685 3.937-4.743a2.642 2.642 0 0 0-.102-.616c-.103-.45-.221-.96-.085-1.35 5.977-17.032 12.4-32.568 13.373-34.893l-9.245-5.167Z"/><path fill="#fff" d="M46.801 119.046c10.46-3.382 28.354-1.679 33.783 2.36 7.055 5.242 13.713 13.725 16.326 17.237.725.975 4.443-6.826 4.443-6.826l9.112 4.264s-5.414 25.228-11.812 24.684c-7.22-.614-18.676-10.927-18.464-8.782.343 3.478.836 11.925 1.168 17.974.198 3.604.436 7.206.714 10.806.656 8.555 1.793 29.792-.228 56.226l-8.18 1.089s-35.726 3.631-50.883-13.43c-.766-.863 15.465-48.683 15.662-49.838.984-5.776 6.7-17.98 4.389-25.325-.261-.825-13.916 29.147-13.916 29.147l-8.204-.363s2.074-18.844 6.399-34.21c2.487-8.832 8.404-21.365 19.691-25.013Z"/><path fill="#0F0F0F" d="M65.585 238.76c-3.917.005-7.832-.208-11.726-.639-9.939-1.125-23.446-4.333-31.353-13.232-.24-.272-.492-.553 4.012-14.687 2.512-7.885 5.729-17.627 8.078-24.739 1.91-5.776 3.418-10.353 3.485-10.706.295-1.728.985-3.96 1.793-6.55 1.789-5.759 3.995-12.872 2.8-17.907-1.741 3.089-8.752 18.209-13.436 28.494a.363.363 0 0 1-.343.211l-8.203-.363a.372.372 0 0 1-.26-.127.37.37 0 0 1-.083-.276c.021-.188 2.133-19.05 6.417-34.269 1.755-6.228 7.218-21.157 19.93-25.269 10.878-3.515 28.725-1.589 34.11 2.414 7.041 5.236 13.71 13.697 16.324 17.212.657-.435 2.499-3.714 3.905-6.665a.357.357 0 0 1 .477-.165l9.113 4.266a.353.353 0 0 1 .17.167.36.36 0 0 1 .03.237c-.222 1.032-5.436 24.977-11.977 24.977h-.226c-4.333-.37-9.953-4.023-14.056-6.692-1.598-1.038-3.39-2.203-4.005-2.363.34 3.545.82 11.644 1.157 17.864.189 3.466.423 6.997.712 10.8.612 8.028 1.813 29.582-.228 56.274a.364.364 0 0 1-.314.33l-8.178 1.089c-.064-.001-3.273.314-8.125.314ZM23.11 224.477c14.897 16.649 50.158 13.276 50.512 13.24l7.875-1.05c2.007-26.513.82-47.896.207-55.876-.29-3.809-.523-7.346-.714-10.815-.346-6.302-.83-14.532-1.168-17.956a.595.595 0 0 1 .26-.604c.57-.35 1.696.346 4.869 2.409 3.811 2.476 9.572 6.225 13.724 6.578h.176c4.869 0 9.658-17.085 11.199-24.122l-8.532-3.992c-1.079 2.243-3.35 6.687-4.398 6.791a.55.55 0 0 1-.505-.228c-2.544-3.417-9.218-11.933-16.243-17.163-5.144-3.823-22.961-5.698-33.458-2.31-12.389 4.005-17.734 18.66-19.458 24.776-3.938 13.958-6.026 31.002-6.35 33.766l7.58.33c.584-1.279 3.593-7.869 6.627-14.377 6.902-14.812 7.151-14.798 7.522-14.777a.4.4 0 0 1 .338.271c1.662 5.281-.705 12.91-2.607 19.037-.796 2.563-1.476 4.778-1.772 6.459-.059.349-1.181 3.755-3.51 10.81-4.267 12.926-12.163 36.836-12.175 38.803Z"/><path fill="#0F0F0F" d="M76.57 224.378c-3.147 0-5.558-2.005-6.632-5.641-1.313-4.441.656-14.435.731-14.852a.367.367 0 0 1 .298-.286.385.385 0 0 1 .144.003c.056.014 5.634 1.274 8.055-.316a.357.357 0 0 1 .569.23.366.366 0 0 1-.175.377c-2.32 1.525-6.907.761-8.244.495-.343 1.85-1.805 10.339-.68 14.149 1.189 4.02 4.024 5.801 7.774 4.89a.363.363 0 0 1 .164.705 8.469 8.469 0 0 1-2.005.246Z"/><path fill="#fff" d="M77.408 98.686c.887.307 1.299 2.159 1.439 3.1.462 3.094-1.13 10.353-3.34 10.829-2.18.467-1.994-.532-3.655.404-1.324.748-1.498 2.114-2.1 5.068-.04.187 3.774 1.277 3.84 1.457.152.406-2.204 5.416-9.538 4.479-6.95-.888-7.916-5.667-7.942-6.002-.017-.2 5.25-.569 5.337-.762 1.217-2.532 2.121-6.932 2.121-6.932s4.517-14.864 13.838-11.64Z"/><path fill="#0F0F0F" d="M65.805 124.493c-.6-.001-1.2-.04-1.797-.119-7.499-.957-8.252-6.271-8.255-6.332-.036-.455.138-.473 3.048-.785.865-.093 2.018-.215 2.386-.294 1.148-2.475 2.02-6.682 2.03-6.725.116-.388 2.708-8.746 8.097-11.509 1.96-1.006 4.05-1.138 6.21-.394 1.077.371 1.515 2.282 1.679 3.388.464 3.102-1.118 10.7-3.621 11.238a4.582 4.582 0 0 1-2.041.05c-.448-.081-.72-.129-1.511.317-1.077.607-1.3 1.717-1.789 4.153l-.087.423c.361.152 1.183.426 1.76.617 1.86.619 1.932.66 2.016.886.146.395-.337 1.274-.847 1.924-.797 1.015-2.99 3.162-7.278 3.162Zm-9.273-6.233c.274 1.033 1.65 4.639 7.567 5.395 3.803.495 6.133-.683 7.417-1.749 1.052-.875 1.546-1.789 1.682-2.172a32.99 32.99 0 0 0-1.51-.523c-2.149-.716-2.374-.791-2.297-1.205l.135-.67c.52-2.578.78-3.871 2.144-4.64 1.016-.575 1.467-.496 1.99-.398a3.921 3.921 0 0 0 1.764-.046c1.805-.387 3.546-7.163 3.06-10.422-.226-1.51-.707-2.64-1.2-2.805-1.968-.679-3.868-.56-5.646.353-5.118 2.625-7.703 10.959-7.73 11.043-.03.149-.918 4.448-2.14 6.989-.119.245-.133.276-2.896.571-.803.084-1.853.197-2.34.279Z"/><path fill="#0F0F0F" d="M73.2 105.375h-.051c-1.434-.2-2.39-2.145-2.486-3.906-.078-1.454.43-2.462 1.362-2.698 1.565-.395 2.812 1.962 2.863 2.061a.357.357 0 0 1 .048.292.367.367 0 0 1-.184.231.367.367 0 0 1-.294.016.358.358 0 0 1-.208-.209c-.284-.543-1.206-1.906-2.05-1.693-.67.165-.86 1.12-.82 1.954.079 1.444.847 3.086 1.866 3.226a.36.36 0 0 1 .311.384.365.365 0 0 1-.36.339l.003.003Z"/><path fill="#0F0F0F" d="M80.8 95.7c.395 2.171-1.771 2.666-3.49 4.02-1.776 1.397-1.71 1.351-2.506 1.765-.53.276-.736-1.797-2.178-2.087-1.075-.215-1.346.699-1.58.962-.94 1.061 8.677 22.316 3.793 35.316-3.117 8.287-11.116 11.964-28.902 10.314-14.884-1.38-18.823-16.548-16.185-22.114 6.843-14.438 21.14-1.183 24.506-22.711 2.361-15.092 16.386-21.813 24.958-9.572.865 1.238 1.34 2.727 1.585 4.106ZM47.195 25.517c2.873 0 5.203-2.343 5.203-5.233 0-2.89-2.33-5.233-5.203-5.233s-5.202 2.342-5.202 5.233c0 2.89 2.329 5.233 5.202 5.233ZM86.31 53.045a.359.359 0 0 1-.333-.224.365.365 0 0 1 .077-.395l1.979-1.99a.36.36 0 0 1 .623.254.365.365 0 0 1-.113.259l-1.979 1.99a.358.358 0 0 1-.254.106ZM81.705 57.68a.36.36 0 0 1-.333-.223.366.366 0 0 1 .077-.395l1.979-1.99a.36.36 0 0 1 .608.258.364.364 0 0 1-.098.255l-1.979 1.99a.356.356 0 0 1-.254.105ZM83.674 53.045a.356.356 0 0 1-.255-.106l-1.978-1.99a.364.364 0 0 1 .257-.612.36.36 0 0 1 .253.098l1.979 1.99a.363.363 0 0 1-.256.62ZM88.289 57.68a.36.36 0 0 1-.256-.105l-1.979-1.99a.364.364 0 0 1 .257-.613.36.36 0 0 1 .253.1l1.979 1.99a.363.363 0 0 1-.254.618ZM111.281 27.81a.359.359 0 0 1-.361-.363v-2.805a.363.363 0 0 1 .361-.363.36.36 0 0 1 .361.363v2.805a.363.363 0 0 1-.361.363ZM111.281 34.367a.356.356 0 0 1-.255-.106.368.368 0 0 1-.106-.257V31.19a.363.363 0 0 1 .361-.363.363.363 0 0 1 .361.363v2.814a.364.364 0 0 1-.361.363ZM109.421 29.682h-2.799a.362.362 0 0 1-.361-.363.362.362 0 0 1 .361-.363h2.799a.361.361 0 0 1 .361.363.363.363 0 0 1-.361.363ZM115.939 29.682h-2.799a.363.363 0 0 1 0-.726h2.799a.361.361 0 0 1 .361.363.363.363 0 0 1-.361.363ZM79.854 25.355a2.44 2.44 0 0 1 2.71.493c.232.23.417.503.544.806.264.612.28 1.304.044 1.927a2.547 2.547 0 0 1-1.31 1.41 2.436 2.436 0 0 1-2.71-.491 2.465 2.465 0 0 1-.545-.807 2.568 2.568 0 0 1-.043-1.929 2.549 2.549 0 0 1 1.31-1.41Z"/></g><defs><clipPath id="a"><path fill="#fff" d="M0 0h300v302H0z"/></clipPath></defs></svg>