<svg xmlns="http://www.w3.org/2000/svg" width="300" height="288" fill="none"><g clip-path="url(#a)"><path fill="#fff" d="m251.983 219.456 6.974 20.229 9.743-.502-6.959-22.363-9.758 2.636Z"/><path fill="#0F0F0F" d="M258.957 240.05a.367.367 0 0 1-.345-.245l-6.974-20.231a.354.354 0 0 1 .021-.291.363.363 0 0 1 .229-.181l9.757-2.636a.37.37 0 0 1 .271.033.363.363 0 0 1 .173.211l6.959 22.365a.359.359 0 0 1-.171.426.37.37 0 0 1-.158.046l-9.743.502-.019.001Zm-6.502-20.344 6.758 19.602 8.999-.465-6.715-21.579-9.042 2.442Z"/><path fill="#fff" d="m211.644 222.02-2.434 17.163h-5.267l-.293-16.88 7.994-.283Z"/><path fill="#0F0F0F" d="M209.21 239.548h-5.267a.364.364 0 0 1-.363-.357l-.294-16.882a.362.362 0 0 1 .352-.37l7.994-.283a.334.334 0 0 1 .283.12.366.366 0 0 1 .092.296l-2.434 17.163a.364.364 0 0 1-.363.313Zm-4.907-.728h4.591l2.328-16.419-7.2.254.281 16.165ZM251.866 109.091s8.076 52.406 8.397 64.922c.322 12.516 6.42 53.428 6.42 53.428s-6.999 3.39-12.09 3.363c0 0-26.925-72.722-28.706-93.282-1.782-20.559 4.175-29.972 4.175-29.972l21.804 1.541Z"/><path fill="#0F0F0F" d="M243.967 105.828s-30.839 91.328-31.288 125.466c0 0-1.878 1.24-10.555-.184 0 0-6.253-100.89 9.768-127.147l32.075 1.865Z"/><path fill="#fff" d="M255.972 237.343c-.284 2.016-.742 5.757-.788 9.113a4.154 4.154 0 0 0 3.624 4.151c5.879.757 19.22 1.587 30.576.551.779-.071 2.154-.641 2.537-2.59 1.286-6.552-10.058-8.157-22.495-12.905a1.338 1.338 0 0 0-1.418.289l-1.34 1.305a4.634 4.634 0 0 1-5.051.944l-4.079-1.748a1.146 1.146 0 0 0-1.566.89Z"/><path fill="#0F0F0F" d="M277.562 252.013c-7.633 0-14.754-.524-18.787-1.044a4.523 4.523 0 0 1-3.949-4.518c.038-3.398.508-7.197.788-9.159a1.51 1.51 0 0 1 .758-1.112 1.49 1.49 0 0 1 1.333-.072l4.079 1.749a4.26 4.26 0 0 0 4.652-.866l1.341-1.305a1.717 1.717 0 0 1 1.799-.368c2.905 1.102 5.695 2.03 8.396 2.919 8.925 2.943 15.373 5.068 14.327 10.4-.387 1.972-1.783 2.785-2.863 2.885-3.861.351-7.937.491-11.874.491Zm-20.456-15.297a.758.758 0 0 0-.38.1.798.798 0 0 0-.393.578c-.275 1.945-.739 5.708-.777 9.066a3.79 3.79 0 0 0 3.308 3.777c6.083.787 19.221 1.574 30.498.55.3-.027 1.814-.266 2.206-2.298.922-4.701-5.27-6.742-13.84-9.565-2.707-.894-5.515-1.817-8.428-2.932a.971.971 0 0 0-1.027.209l-1.341 1.305a4.985 4.985 0 0 1-5.449 1.013l-4.079-1.748a.761.761 0 0 0-.298-.055Z"/><path fill="#fff" d="M255.2 245.95v.506a4.15 4.15 0 0 0 3.623 4.151c5.88.757 19.221 1.587 30.577.551.779-.071 2.154-.64 2.537-2.59.118-.598.045-1.678.045-1.678l-.806.041c-11.48.569-22.986.292-34.424-.828l-1.552-.153Z"/><path fill="#0F0F0F" d="M277.562 252.013c-7.633 0-14.754-.524-18.787-1.044a4.514 4.514 0 0 1-3.949-4.518v-.507a.377.377 0 0 1 .123-.266.376.376 0 0 1 .279-.09l1.549.158a234.517 234.517 0 0 0 34.372.826l.805-.039a.353.353 0 0 1 .383.34c0 .045.074 1.133-.051 1.77-.387 1.972-1.783 2.786-2.862 2.885-3.849.345-7.925.485-11.862.485Zm-22.004-5.666v.105a3.78 3.78 0 0 0 .934 2.521 3.792 3.792 0 0 0 2.374 1.266c6.083.787 19.221 1.574 30.498.549.299-.027 1.813-.266 2.206-2.298a6.66 6.66 0 0 0 .055-1.222l-.44.02a235.416 235.416 0 0 1-34.479-.828l-1.148-.113ZM272.292 243.097a.367.367 0 0 1-.209-.058.369.369 0 0 1-.157-.383.365.365 0 0 1 .108-.188l4.364-4.386a.366.366 0 0 1 .518.514l-4.359 4.394a.372.372 0 0 1-.265.107ZM276.579 243.552a.362.362 0 0 1-.36-.43.363.363 0 0 1 .097-.187l3.486-3.638a.366.366 0 0 1 .615.248.36.36 0 0 1-.087.255l-3.486 3.64a.368.368 0 0 1-.265.112Z"/><path fill="#fff" d="M202.379 255.895c-3.127-.518-4.884-2.773-4.985-4.721-.286-5.776 1.232-11.265 4.079-14.992a.738.738 0 0 1 1.207.061l.074.068a1.298 1.298 0 0 0 1.733-.014 2.411 2.411 0 0 1 1.525-.576l.796-.011a2.669 2.669 0 0 1 2.24 1.237.637.637 0 0 0 .48.271.636.636 0 0 0 .509-.21l.451-.508a.491.491 0 0 1 .744.074.49.49 0 0 1 .086.266l.489 15.802c-.243 3.096-5.335 3.924-9.428 3.253Z"/><path fill="#0F0F0F" d="M205.059 256.471c-.918 0-1.834-.074-2.74-.222-3.335-.551-5.186-2.96-5.289-5.056-.29-5.847 1.224-11.398 4.153-15.231a1.073 1.073 0 0 1 .919-.428 1.1 1.1 0 0 1 .857.472l.041.038a.932.932 0 0 0 1.244-.022 2.772 2.772 0 0 1 1.757-.663l.788-.013a3.066 3.066 0 0 1 2.557 1.409.227.227 0 0 0 .176.104.297.297 0 0 0 .23-.091l.451-.509a.86.86 0 0 1 .431-.24.86.86 0 0 1 .881.343c.096.138.15.301.155.468l.488 15.801a.254.254 0 0 1 0 .039c-.071.907-.506 1.681-1.295 2.3-1.364 1.073-3.608 1.501-5.804 1.501Zm-2.62-.944c2.678.444 6.193.264 7.981-1.136.616-.484.958-1.075 1.016-1.761l-.48-15.777a.123.123 0 0 0-.021-.07.117.117 0 0 0-.058-.045.112.112 0 0 0-.07-.008.114.114 0 0 0-.062.033l-.43.488a1.02 1.02 0 0 1-.837.335.952.952 0 0 1-.736-.444 2.305 2.305 0 0 0-.816-.769 2.307 2.307 0 0 0-1.082-.296h-.028l-.796.011a2.05 2.05 0 0 0-1.294.489 1.649 1.649 0 0 1-2.205 0l-.076-.068a.34.34 0 0 1-.061-.075.383.383 0 0 0-.126-.124.369.369 0 0 0-.481.091c-2.826 3.698-4.287 9.076-4.005 14.752.076 1.807 1.713 3.889 4.667 4.377v-.003Z"/><path fill="#fff" d="M211.671 248.413a2.951 2.951 0 0 1-.441.968c-.704.987-2.626 2.916-6.732 2.581-4.862-.398-7.09-3.799-7.09-3.799a27.746 27.746 0 0 0-.014 3.011c.096 1.943 1.858 4.199 4.985 4.721 4.096.675 9.185-.157 9.423-3.248l-.131-4.234Z"/><path fill="#0F0F0F" d="M205.059 256.471c-.918 0-1.834-.074-2.74-.222-3.335-.551-5.186-2.96-5.289-5.056a28.247 28.247 0 0 1 .014-3.052.355.355 0 0 1 .081-.209.36.36 0 0 1 .589.036c.02.031 2.206 3.258 6.814 3.635 3.836.315 5.661-1.388 6.404-2.43.18-.256.31-.543.385-.846a.361.361 0 0 1 .147-.208.365.365 0 0 1 .571.288l.131 4.227a.254.254 0 0 1 0 .039c-.071.907-.506 1.681-1.295 2.3-1.373 1.07-3.616 1.498-5.812 1.498Zm-7.326-7.331c-.016.672 0 1.346.027 2.016.088 1.804 1.733 3.886 4.679 4.374 2.678.444 6.193.264 7.981-1.136.616-.484.958-1.075 1.016-1.761l-.086-2.805c-.818 1.018-2.858 2.823-6.882 2.498-3.559-.291-5.743-2.114-6.735-3.186ZM208.32 244.396h-5.648a.366.366 0 0 1 0-.731h5.648a.37.37 0 0 1 .259.107.37.37 0 0 1 .107.258.37.37 0 0 1-.107.259.37.37 0 0 1-.259.107ZM208.908 241.533h-5.65a.365.365 0 0 1 0-.729h5.65a.364.364 0 0 1 0 .729Z"/><path fill="#fff" d="M285.948 33.026c1.658-2.086.805-4.816 1.522-7.128.059-.187.114-.398.022-.57-.091-.171-.301-.245-.49-.3-1.545-.452-3.132-.888-4.739-.787-.299.008-.596.06-.88.157-.41.156-.753.449-.971.83-.157.314-.057.865-.017 1.194.126 1.067-.359 1.813-1.973-.683-1.613-2.496-3.707-.699-2.76.184.947.883 2.65 4.407 3.282 5.382.228.353.934.787 1.733 1.187a24.72 24.72 0 0 1-1.922 9.72c-1.954 4.606-5.023 7.774-7.562 9.806 2.073 3.62 6.591 9.551 14.336 10.544a33.832 33.832 0 0 0 .419-29.536Z"/><path fill="#0F0F0F" d="M285.543 62.92h-.047c-7.956-1.014-12.567-7.152-14.609-10.721a.36.36 0 0 1 .09-.472c3.368-2.701 5.873-5.952 7.447-9.663a24.18 24.18 0 0 0 1.89-9.355c-1.203-.63-1.537-.988-1.682-1.212-.208-.314-.523-.898-.887-1.566-.733-1.345-1.733-3.188-2.337-3.748a1.057 1.057 0 0 1-.301-1.111 1.499 1.499 0 0 1 1.24-.96c.404-.054 1.44-.022 2.376 1.416.763 1.18 1.157 1.44 1.283 1.497.045-.188.053-.383.022-.573l-.018-.13c-.05-.383-.118-.906.074-1.275a2.25 2.25 0 0 1 1.166-1.003c.318-.11.65-.172.986-.183 1.615-.096 3.151.315 4.864.806.189.055.539.158.709.472.17.315.063.663 0 .849-.262.846-.303 1.748-.347 2.703-.067 1.49-.137 3.028-1.102 4.363 4.316 9.395 4.132 20.459-.501 29.648a.37.37 0 0 1-.316.219Zm-13.864-10.817c2.023 3.44 6.364 9.011 13.658 10.056 4.452-9.008 4.569-19.83.282-28.98a.352.352 0 0 1-.031-.196.357.357 0 0 1 .077-.184c.945-1.191 1.01-2.616 1.079-4.123.044-.959.088-1.952.378-2.887a.566.566 0 0 0 .049-.29c-.017-.032-.109-.073-.271-.122-1.637-.472-3.116-.864-4.613-.777a2.76 2.76 0 0 0-.774.138c-.331.125-.61.36-.787.667-.081.158-.022.595.009.831l.017.142c.089.736-.085 1.221-.485 1.364-.551.2-1.219-.357-2.157-1.806-.499-.771-1.102-1.173-1.667-1.102a.766.766 0 0 0-.639.458.315.315 0 0 0 .102.356c.689.642 1.683 2.466 2.48 3.934.358.655.665 1.22.859 1.519.074.115.379.447 1.599 1.059a.362.362 0 0 1 .2.324 24.915 24.915 0 0 1-1.951 9.864c-1.58 3.738-4.075 7.018-7.417 9.755h.003Z"/><path fill="#fff" d="M271.205 52.016a31.29 31.29 0 0 1-3.781 2.586c-12.33 7.315-23.607-.315-43.806.227-7.386.198-18.219 1.547-31.39 7.258 0 0-21.185 10.598-19.937 35.304.223 4.432 2.656 7.696 6.128 10.102 4.783-5.98 10.097-8.958 13.834-10.424a12.022 12.022 0 0 1-.05-.863c-.137-7.315 5.388-10.533 10.274-14.044 1.206 6.803-.046 10.23 1.333 24.886.694 7.397 1.436 8.479 2.15 9.203 4.697 4.777 12.708-1.616 31.424-1.901 8.885-.135 14.744 1.188 16.409-1.888 1.2-2.213-.799-4.829-2.259-8.676-1.804-4.752-3.054-12.087.083-22.965 12.461 1.38 24.693-4.21 31.708-14.502a33.112 33.112 0 0 0 2.223-3.777c-7.751-.974-12.27-6.9-14.343-10.526Z"/><path fill="#0F0F0F" d="M210.608 118.39c-1.981 0-3.558-.504-4.913-1.889-.827-.842-1.567-2.13-2.254-9.425a154.292 154.292 0 0 1-.733-15.738c-.009-3.196-.016-5.558-.499-8.548l-.771.546c-4.424 3.122-8.997 6.35-8.874 12.856 0 .27.02.543.049.834a.364.364 0 0 1-.23.373c-3.61 1.416-8.913 4.356-13.683 10.315a.367.367 0 0 1-.495.07c-3.959-2.744-6.074-6.238-6.283-10.387-.652-12.886 4.857-21.89 9.593-27.177 5.127-5.724 10.491-8.443 10.545-8.47 10.528-4.564 21.136-7.019 31.544-7.296 7.861-.21 14.376.812 20.12 1.712 8.98 1.417 16.07 2.518 23.508-1.888a31.025 31.025 0 0 0 3.749-2.547.367.367 0 0 1 .545.103c1.974 3.45 6.425 9.386 14.068 10.36a.363.363 0 0 1 .319.357.364.364 0 0 1-.039.168 34.137 34.137 0 0 1-2.246 3.814c-7.062 10.358-19.201 15.972-31.745 14.69-2.413 8.546-2.416 16.094 0 22.441.386 1.017.804 1.931 1.206 2.816 1.117 2.448 1.999 4.383 1.033 6.164-1.326 2.446-4.892 2.334-10.288 2.164-1.908-.061-4.071-.129-6.437-.093-8.312.126-14.628 1.491-19.241 2.485-3.074.661-5.522 1.19-7.548 1.19Zm-8.136-36.593a.366.366 0 0 1 .359.3c.591 3.332.597 5.814.607 9.248-.024 5.232.22 10.461.731 15.668.663 7.048 1.347 8.27 2.048 8.983 2.461 2.503 5.966 1.746 11.775.491 4.641-1.002 10.998-2.373 19.378-2.502 2.385-.036 4.555.033 6.471.093 5.125.157 8.507.269 9.623-1.782.787-1.462.017-3.161-1.056-5.508-.387-.853-.829-1.819-1.223-2.858-2.495-6.57-2.47-14.375.073-23.196a.367.367 0 0 1 .391-.26c12.38 1.368 24.401-4.126 31.367-14.346a32.928 32.928 0 0 0 1.965-3.278c-7.383-1.17-11.794-6.76-13.88-10.286a32.169 32.169 0 0 1-3.496 2.36c-7.661 4.546-14.869 3.414-23.994 1.982-5.713-.896-12.191-1.915-19.987-1.704-10.314.275-20.831 2.706-31.256 7.226-.034.02-5.293 2.69-10.328 8.318-4.635 5.182-10.027 14.006-9.389 26.634.193 3.81 2.108 7.047 5.694 9.625 4.704-5.768 9.889-8.704 13.518-10.168-.016-.21-.026-.412-.03-.615-.129-6.893 4.605-10.23 9.183-13.467.416-.294.832-.587 1.243-.883a.37.37 0 0 1 .213-.075Z"/><path fill="#fff" d="m221.058 108.513-2.669-.54c1.117.084 1.744-1.092 1.744-1.092l-8.243-1.232-6.262 2.726c-2.836-.569-12.584-3.118-13.379-11.306-3.737 1.466-9.051 4.45-13.835 10.424 7.772 5.387 20.762 6.467 25.934 6.682 3.542 1.916 9.489-2.979 11.753-2.045 2.414.993 2.313-.287 2.313-.287l-1.147-1.119c1.762.649 2.363-.629 2.363-.629l-1.435-.59c2.266.36 2.863-.992 2.863-.992Z"/><path fill="#0F0F0F" d="M206.288 114.991a4.394 4.394 0 0 1-2.037-.455c-5.297-.227-18.249-1.339-26.046-6.744a.359.359 0 0 1-.143-.395.367.367 0 0 1 .067-.132c4.872-6.082 10.294-9.087 13.987-10.544a.365.365 0 0 1 .435.146.37.37 0 0 1 .054.158c.758 7.802 9.973 10.341 12.974 10.963l6.157-2.676a.38.38 0 0 1 .2-.025l8.243 1.231a.36.36 0 0 1 .271.198.36.36 0 0 1-.003.335 2.96 2.96 0 0 1-.698.825l1.373.277a.367.367 0 0 1 .293.346.361.361 0 0 1-.031.159c-.021.047-.392.853-1.53 1.158a.374.374 0 0 1 .131.292.371.371 0 0 1-.035.143 1.886 1.886 0 0 1-1.611 1.013l.315.315a.363.363 0 0 1 .108.233.963.963 0 0 1-.395.835c-.481.35-1.273.29-2.42-.182-.827-.342-2.444.315-4.156 1.006-1.78.727-3.739 1.52-5.503 1.52Zm-27.341-7.576c7.72 5.132 20.308 6.183 25.417 6.395a.368.368 0 0 1 .158.045c1.881 1.016 4.606-.087 7.011-1.06 1.934-.787 3.604-1.457 4.709-1.004 1.232.509 1.621.332 1.712.268a.225.225 0 0 0 .071-.088l-1.013-.987a.368.368 0 0 1 .139-.605.365.365 0 0 1 .242.002c.875.315 1.385.101 1.653-.129l-.993-.407a.37.37 0 0 1-.212-.436.359.359 0 0 1 .409-.262c1.152.181 1.803-.116 2.146-.396l-2.08-.42a.365.365 0 0 1 .1-.721 1.36 1.36 0 0 0 1.058-.458l-7.535-1.127-6.166 2.685a.363.363 0 0 1-.218.023c-2.943-.593-12.474-3.128-13.612-11.148-3.526 1.45-8.481 4.31-12.996 9.83Z"/><path fill="#0F0F0F" d="M218.389 108.338a.244.244 0 0 1-.054 0l-5.66-.849a.37.37 0 0 1-.245-.141.363.363 0 0 1-.07-.273.369.369 0 0 1 .414-.315l5.661.842a.367.367 0 0 1 .192.626.363.363 0 0 1-.246.099l.008.011ZM218.194 109.871a.29.29 0 0 1-.059 0l-5.131-.809a.367.367 0 0 1-.303-.417.366.366 0 0 1 .418-.302l5.128.811a.365.365 0 0 1 .316.389.366.366 0 0 1-.373.335l.004-.007ZM217.267 111.088a.469.469 0 0 1-.053 0l-4.204-.63a.366.366 0 0 1-.172-.657.37.37 0 0 1 .273-.071l4.202.629a.368.368 0 0 1 .306.387.367.367 0 0 1-.36.339l.008.003Z"/><path fill="#fff" d="m218.896 29.744-.315-1.73s2.155-5.119 10.672-3.92c2.598.02 5.612 1.906 6.29 6.39.529 4.66 2.609 9.137 2.9 9.987.292.85.326 1.213-.315 1.45-.641.236-1.048.135-1.297.87-.248.735-.601 1.094-1.202 1.282-.6.19-3.406 1.574-4.753.93-1.347-.643-2.678-4.107-2.535-5.412.144-1.304-.68-7.913-4.053-8.742-3.374-.83-5.392-1.105-5.392-1.105Z"/><path fill="#fff" d="m219.226 55.35.345-18.063 11.513 7.91.024 9.981c-.051 2.225-1.914 3.495-1.914 3.495-2.305 1.757-5.574 1.492-7.975-.13l-.557-.375a3.285 3.285 0 0 1-1.436-2.819Z"/><path fill="#0F0F0F" d="M225.471 60.255a8 8 0 0 1-4.457-1.416l-.555-.375a3.619 3.619 0 0 1-1.597-3.13l.343-18.06a.37.37 0 0 1 .2-.316.366.366 0 0 1 .374.026l11.513 7.91a.364.364 0 0 1 .158.298l.022 9.983c-.054 2.394-1.99 3.74-2.072 3.796a6.432 6.432 0 0 1-3.929 1.284Zm-5.549-22.283-.331 17.384a2.905 2.905 0 0 0 1.276 2.505l.556.375c2.414 1.632 5.514 1.69 7.55.143.032-.024 1.724-1.21 1.769-3.214l-.022-9.78-10.798-7.413Z"/><path fill="#fff" d="M236.951 43.109c.205.354.386.722.541 1.101.356.875.356 2.388.508 4.03a1.888 1.888 0 0 1-1.366 1.99c-5.403 1.51-8.425.488-9.585-.737-1.84-1.942-.745-5.616-2.81-6.62-1.595-.776-3.055 1.026-4.456.209-1.4-.817-2.221-2.117-2.845-6.032-.158-.935-.158-.787-.421-1.805-.877-3.324-.899-3.181-.591-4.058.265-.752.552-2.426 3.864-2.636 0 0 4.784-.996 6.667 3.367l10.494 11.19Z"/><path fill="#0F0F0F" d="M231.74 51.352c-3.107 0-4.511-1.14-4.955-1.611-.946-.998-1.176-2.4-1.379-3.637-.217-1.32-.405-2.459-1.325-2.906-.666-.324-1.331-.099-2.035.14-.752.257-1.604.547-2.445.057-1.644-.958-2.435-2.604-3.022-6.295a7.382 7.382 0 0 0-.238-1.13c-.044-.157-.099-.35-.175-.639l-.236-.894c-.631-2.39-.662-2.483-.36-3.342l.013-.037c.019-.052.038-.11.057-.17.283-.872.81-2.493 4.107-2.707.418-.073 5.149-.816 7.046 3.584a.368.368 0 0 1-.191.478.365.365 0 0 1-.479-.19c-1.744-4.04-6.214-3.162-6.258-3.148a.244.244 0 0 1-.05.008c-2.822.177-3.233 1.447-3.48 2.204-.021.067-.043.13-.062.188l-.012.037c-.229.646-.229.646.373 2.913l.238.894c.075.286.129.472.172.63.117.396.203.8.256 1.21.619 3.891 1.448 5.064 2.669 5.775.553.315 1.15.12 1.842-.116.773-.263 1.653-.56 2.59-.106 1.26.612 1.497 2.046 1.733 3.444.195 1.188.399 2.419 1.189 3.254 1.163 1.228 4.196 2.038 9.222.63a1.52 1.52 0 0 0 1.103-1.606c-.041-.437-.071-.865-.101-1.274-.077-1.102-.144-2.062-.385-2.652a8.403 8.403 0 0 0-.516-1.052.36.36 0 0 1 .024-.403.37.37 0 0 1 .384-.132.375.375 0 0 1 .222.169c.214.367.402.749.562 1.142.285.7.356 1.708.438 2.877.029.403.058.827.098 1.26a2.247 2.247 0 0 1-1.632 2.376c-2.025.572-3.67.777-5.002.777Z"/><path fill="#0F0F0F" d="m227.026 32.42.409 1.756-.009-.033c.238.72.434 1.452.586 2.194.142.743.28 1.454.435 2.183l.46 2.176.231 1.09c.079.353.15.75.232 1.066.173.658.522 1.24 1.065 1.557.544.316 1.237.39 1.924.315 1.385-.158 2.771-.757 4.005-1.461l-.137.146.63-1.197a.374.374 0 0 1 .252-.192l.556-.115.274-.058a.654.654 0 0 0 .169-.06.528.528 0 0 0 .25-.562 4.154 4.154 0 0 0-.187-.456l-.224-.526a38.82 38.82 0 0 1-.43-1.06 18.342 18.342 0 0 1-.739-2.162l-.281-1.11-.304-1.1a23.56 23.56 0 0 1-.472-2.243l-.082-.57-.058-.567a8.276 8.276 0 0 0-.221-1.068c-.386-1.417-1.007-2.802-1.958-3.897a5.995 5.995 0 0 0-1.661-1.345 5.32 5.32 0 0 0-.985-.406 8.416 8.416 0 0 0-1.065-.232c-1.473-.252-2.958-.42-4.423-.314-1.466.105-2.895.51-4.097 1.304a9.028 9.028 0 0 0-2.884 3.204.372.372 0 0 1-.364.199.364.364 0 0 1-.316-.268.374.374 0 0 1 .04-.283c.744-1.361 1.777-2.617 3.113-3.481 1.336-.864 2.907-1.307 4.457-1.417a18.02 18.02 0 0 1 4.607.346c.387.067.769.158 1.145.273.383.12.752.277 1.103.472.694.393 1.311.91 1.821 1.523 1.015 1.215 1.64 2.676 2.028 4.168.101.378.176.764.224 1.153l.048.56.074.553c.108.738.259 1.47.437 2.203.096.362.184.727.304 1.083.12.355.261.703.397 1.053.288.694.526 1.404.805 2.1.137.349.279.696.424 1.041l.222.518c.095.19.173.39.233.595a1.257 1.257 0 0 1-.981 1.501l-.281.058-.556.118.255-.193-.62 1.199a.362.362 0 0 1-.134.143c-.661.388-1.353.722-2.067.998a9.123 9.123 0 0 1-2.249.579c-.776.083-1.644.03-2.396-.414a2.848 2.848 0 0 1-.918-.883 3.913 3.913 0 0 1-.497-1.127c-.105-.4-.157-.738-.245-1.101l-.235-1.09-.46-2.182c-.148-.724-.289-1.473-.419-2.19a18.757 18.757 0 0 0-.549-2.111v-.03l-.423-1.766a.365.365 0 0 1 .712-.157Z"/><path fill="#fff" d="M226.72 38.304s-1.375-4.22-3.151-3.19c-1.775 1.03-.151 5.634 3.151 3.19Z"/><path fill="#0F0F0F" d="M234.553 40.49a2.11 2.11 0 0 1-.554-.079c-.315-.086-.591-.389-.774-.848-.35-.881-.367-2.41.63-4.054a1.3 1.3 0 0 1 .84-.563 1.733 1.733 0 0 1 1.341.272c.564.373.773 1.101.639 2.219-.168 1.435-.567 2.346-1.216 2.782a1.606 1.606 0 0 1-.906.27Zm.492-4.854a.86.86 0 0 0-.189.02.585.585 0 0 0-.374.232c-.858 1.417-.863 2.676-.581 3.398.124.315.262.414.291.422a1 1 0 0 0 .864-.095c.447-.3.759-1.082.898-2.261.145-1.22-.205-1.45-.315-1.525a1.06 1.06 0 0 0-.594-.19Z"/><path fill="#0F0F0F" d="M235.024 35.613h-.02l-9.587-.52a.361.361 0 0 1-.325-.241.367.367 0 0 1 .364-.485l9.587.517a.367.367 0 0 1 .356.375.364.364 0 0 1-.375.355v-.001ZM238.542 40.237a.366.366 0 0 1-.121-.709c.301-.207 1.171-1.86.676-3.216a.6.6 0 0 0-.358-.39c-.49-.186-1.303.144-1.575.289a.371.371 0 0 1-.285.038.36.36 0 0 1-.266-.32.344.344 0 0 1 .017-.147.375.375 0 0 1 .19-.215c.128-.069 1.291-.666 2.178-.327a1.33 1.33 0 0 1 .787.821c.416 1.137.09 2.444-.352 3.29-.185.352-.473.786-.788.875a.369.369 0 0 1-.103.01ZM269.781 17.818h-2.678a1.52 1.52 0 0 0-1.522 1.52v14.96c0 .84.681 1.521 1.522 1.521h2.678c.84 0 1.522-.68 1.522-1.52v-14.96c0-.84-.682-1.52-1.522-1.52ZM298.477 17.998h-2.813c-.84 0-1.522.68-1.522 1.52v14.96c0 .84.682 1.52 1.522 1.52h2.813c.84 0 1.521-.68 1.521-1.52v-14.96c0-.84-.681-1.52-1.521-1.52Z"/><path fill="#0F0F0F" d="M267.563 30.238h30.274v-6.66h-30.274v6.66Z"/><path fill="#fff" d="M286.67 26.077c-.041.066-.084.13-.126.19-1.174 1.644-1.773-.462-1.706-1.516-.106.63.113 1.259-.051 1.898s-.594 1.233-1.298.944c-1.139-.458-.871-2.169-.956-3.122.055.613.083 1.167-.104 1.768-.112.358-.457 1.288-.917 1.01-.774-.473-.618-2.322-.668-3.087.03.685-.077 1.37-.315 2.013-.454 1.191-1.606.82-1.752-.315-.131-1.018-.682-2.99.392-3.652a3.125 3.125 0 0 1 1.084-.353 19.397 19.397 0 0 1 5.056-.315c2.339.197 2.349 2.945 1.361 4.537Z"/><path fill="#0F0F0F" d="M283.831 28.035a1.283 1.283 0 0 1-.473-.096 1.598 1.598 0 0 1-.879-.862c-.119.24-.315.434-.558.55a.667.667 0 0 1-.593-.06 1.547 1.547 0 0 1-.631-.907c-.315.505-.765.651-1.126.612-.599-.071-1.064-.617-1.16-1.36a9.92 9.92 0 0 0-.082-.526c-.187-1.112-.472-2.793.645-3.484a3.4 3.4 0 0 1 1.21-.4 19.781 19.781 0 0 1 5.152-.314c1.175.094 1.74.744 2.008 1.273.531 1.046.382 2.614-.361 3.811a4.121 4.121 0 0 1-.138.211c-.566.787-1.059.823-1.377.712a.98.98 0 0 1-.381-.262c-.117.416-.391.77-.763.989a1.07 1.07 0 0 1-.493.113Zm-.901-2.518c.028.864.143 1.522.696 1.745a.412.412 0 0 0 .364 0c.184-.093.355-.365.443-.71.06-.301.07-.61.031-.915a4.043 4.043 0 0 1 .013-.953.364.364 0 0 1 .638-.171c.061.071.091.162.087.255-.048.752.256 1.64.509 1.731.078.025.285-.098.535-.447.04-.055.077-.112.114-.171.605-.978.743-2.28.33-3.098-.267-.527-.743-.823-1.417-.876a19.16 19.16 0 0 0-4.962.315 2.789 2.789 0 0 0-.956.303c-.698.433-.473 1.768-.315 2.743.035.203.066.39.087.554.058.446.305.704.521.729.216.025.4-.157.526-.496a4.784 4.784 0 0 0 .3-1.872.362.362 0 0 1 .346-.376.358.358 0 0 1 .383.34c.01.157.011.34.014.553 0 .678.024 1.931.457 2.233.09-.07.26-.344.399-.787.063-.204.103-.415.118-.629v-.373c0-.23 0-.448-.021-.63a.367.367 0 0 1 .331-.395.367.367 0 0 1 .396.331c.038.354.049.711.033 1.067Z"/><path fill="#fff" d="M152.44 33.941c9.282 0 16.807-7.516 16.807-16.789 0-9.272-7.525-16.788-16.807-16.788-9.283 0-16.808 7.516-16.808 16.788 0 9.273 7.525 16.79 16.808 16.79Z"/><path fill="#0F0F0F" d="M152.44 34.308a17.186 17.186 0 0 1-9.541-2.89 17.16 17.16 0 0 1-6.325-7.7 17.132 17.132 0 0 1-.977-9.91 17.149 17.149 0 0 1 4.7-8.784 17.19 17.19 0 0 1 18.714-3.719 17.169 17.169 0 0 1 7.707 6.319 17.14 17.14 0 0 1 2.894 9.53 17.165 17.165 0 0 1-5.035 12.124 17.2 17.2 0 0 1-12.137 5.03Zm0-33.575c-3.252 0-6.432.963-9.136 2.768a16.417 16.417 0 0 0-6.992 16.86 16.442 16.442 0 0 0 12.92 12.904 16.46 16.46 0 0 0 9.5-.935 16.437 16.437 0 0 0 7.378-6.05 16.411 16.411 0 0 0 2.77-9.126 16.434 16.434 0 0 0-4.82-11.608A16.47 16.47 0 0 0 152.44.73v.003Z"/><path fill="#0F0F0F" d="M152.533 25.597a.54.54 0 0 1-.547.013c-1.481-.826-8.35-4.962-8.084-10.371.285-5.718 6.496-4.722 8.035-1.912a.32.32 0 0 0 .569-.03c.753-1.807 3.182-3.115 5.471-2.257 2.721 1.023 5.496 7.785-5.444 14.557Z"/><path fill="#fff" d="M39.559 216.596c0 38.301 35.407 57.305 76.479 57.305 41.073 0 72.261-19.004 72.261-57.305 0-38.3-33.298-69.351-74.37-69.351-41.073 0-74.37 31.051-74.37 69.351Z"/><path fill="#0F0F0F" d="M116.038 274.266c-21.153 0-40.277-5.098-53.848-14.353-15.044-10.261-23.002-25.24-23.002-43.317 0-38.44 33.526-69.718 74.734-69.718 41.209 0 74.736 31.274 74.736 69.718 0 18.256-7.22 33.235-20.876 43.309-12.73 9.395-30.624 14.361-51.744 14.361Zm-2.109-126.656c-40.805 0-74.005 30.947-74.005 68.986 0 17.825 7.843 32.596 22.687 42.714 13.45 9.174 32.428 14.225 53.435 14.225 44.347 0 71.895-21.817 71.895-56.939-.008-38.039-33.206-68.986-74.012-68.986Z"/><path fill="#0F0F0F" d="M89.462 246.552a.37.37 0 0 1-.36-.31.365.365 0 0 1 .25-.403c23.328-7.484 44.768-23.336 62.001-45.843a.359.359 0 0 1 .244-.157.352.352 0 0 1 .148.005.37.37 0 0 1 .276.318.364.364 0 0 1-.089.277c-17.33 22.626-38.885 38.565-62.358 46.095a.386.386 0 0 1-.112.018Z"/><path fill="#0F0F0F" d="M94.101 250.87a.367.367 0 0 1-.356-.301.363.363 0 0 1 .23-.406c16.203-5.941 31.33-15.748 44.964-29.152a.373.373 0 0 1 .264-.121.36.36 0 0 1 .268.109.365.365 0 0 1-.02.531c-13.706 13.478-28.924 23.342-45.216 29.318a.34.34 0 0 1-.134.022ZM162.636 256.561a.358.358 0 0 1-.202-.066.356.356 0 0 1-.132-.167.365.365 0 0 1 .088-.397c22.248-20.21 25.703-42.844 10.871-71.229a.373.373 0 0 1 .037-.41.377.377 0 0 1 .396-.114.357.357 0 0 1 .215.186c7.127 13.648 10.007 25.756 8.805 37.018-1.36 12.72-7.849 24.197-19.838 35.095a.363.363 0 0 1-.24.084Z"/><path fill="#fff" d="M33.358 150.585s-5.222 7.486-3.109 13.874c0 0-12.853 3.053-15.931 2.076l3.345-4.125a35.044 35.044 0 0 0 6.243-11.66l1.88-6.037 7.572 5.872Z"/><path fill="#0F0F0F" d="M16.082 167.082a6.543 6.543 0 0 1-1.88-.206.359.359 0 0 1-.238-.243.364.364 0 0 1 .066-.334l3.344-4.125a34.528 34.528 0 0 0 6.18-11.539l1.877-6.037a.362.362 0 0 1 .24-.24.364.364 0 0 1 .334.061l7.576 5.876a.365.365 0 0 1 .076.496c-.052.074-5.092 7.415-3.066 13.545a.37.37 0 0 1-.126.406.359.359 0 0 1-.136.063c-.453.11-9.637 2.277-14.247 2.277Zm-1.112-.786c3.32.453 12.793-1.65 14.81-2.114-1.644-5.746 2.153-12.088 3.084-13.522l-6.89-5.351-1.723 5.534a35.248 35.248 0 0 1-6.31 11.783l-2.97 3.67Z"/><path fill="#fff" d="M30.933 160.857s3.99 8.599 2.962 11.111c-.867 2.116-23.584 11.645-31.037 14.576-1.319.518-2.72-.611-2.455-2.002.657-3.45 3.96-10.514 16.759-23.874a2.568 2.568 0 0 1 2.598-.685l5.132 1.549-1.132 3.525 7.173-4.2Z"/><path fill="#0F0F0F" d="M2.177 187.038c-.508-.002-1-.183-1.39-.51a2.122 2.122 0 0 1-.744-2.055c.7-3.681 4.192-10.842 16.857-24.057a2.926 2.926 0 0 1 2.968-.787l5.135 1.55a.369.369 0 0 1 .243.46l-.842 2.617 6.354-3.719a.363.363 0 0 1 .515.162c.416.896 4.027 8.814 2.97 11.402-1.117 2.726-30.949 14.658-31.248 14.776-.26.105-.537.16-.818.161Zm16.833-26.801a2.187 2.187 0 0 0-1.592.684C4.884 174.006 1.438 181.025.756 184.603a1.398 1.398 0 0 0 .495 1.357 1.443 1.443 0 0 0 1.467.238c10.09-3.955 30.121-12.611 30.84-14.369.756-1.846-1.617-7.851-2.787-10.453l-6.824 3.996a.371.371 0 0 1-.413-.03.368.368 0 0 1-.12-.397l1.02-3.171-4.778-1.443a2.208 2.208 0 0 0-.646-.094Z"/><path fill="#0F0F0F" d="M12.416 174.127a.37.37 0 0 1-.247-.096l-3.781-3.474a.362.362 0 0 1 .093-.598.368.368 0 0 1 .278-.012.349.349 0 0 1 .122.074l3.781 3.471a.366.366 0 0 1-.247.63l.001.005ZM14.652 171.273a.36.36 0 0 1-.25-.099l-3.45-3.253a.364.364 0 0 1 .243-.617.365.365 0 0 1 .257.085l3.454 3.247a.365.365 0 0 1-.25.63l-.004.007ZM4.096 183.302a.368.368 0 0 1-.358-.285.365.365 0 0 1 .2-.411l27.638-12.825a.39.39 0 0 1 .138-.035.378.378 0 0 1 .265.094.36.36 0 0 1 .12.253.363.363 0 0 1-.208.349L4.254 183.267a.344.344 0 0 1-.158.035Z"/><path fill="#fff" d="m34.642 238.761-.52 2.75a54.475 54.475 0 0 1-5.58 15.755l-2.82 5.229 16.811-3.682-.848-2.698a17.362 17.362 0 0 1 .974-12.851l.928-1.888-8.946-2.615Z"/><path fill="#0F0F0F" d="M25.723 262.861a.371.371 0 0 1-.31-.181.363.363 0 0 1-.005-.358l2.818-5.229a54.058 54.058 0 0 0 5.544-15.648l.519-2.751a.366.366 0 0 1 .309-.295.35.35 0 0 1 .15.012l8.946 2.614a.354.354 0 0 1 .233.202.359.359 0 0 1-.006.308l-.928 1.888a16.932 16.932 0 0 0-.953 12.59l.848 2.696a.367.367 0 0 1-.271.472l-16.81 3.683a.404.404 0 0 1-.084-.003Zm9.202-23.637-.444 2.361a54.793 54.793 0 0 1-5.617 15.859l-2.442 4.529 15.643-3.432-.73-2.315a17.66 17.66 0 0 1 .996-13.122l.736-1.5-8.142-2.38Z"/><path fill="#fff" d="M47.354 259.471a1901.326 1901.326 0 0 0-4.841-7.339 1.211 1.211 0 0 0-1.967-.069l-5.07 5.406-.419-3.977-5.829 1.043a2.473 2.473 0 0 0-1.597 1.03c-2.225 3.22-10.04 14.891-11.96 22.619-.487 1.957 1.469 3.62 3.309 2.8 5.545-2.482 17.717-9.276 27.75-17.439a3.078 3.078 0 0 0 .624-4.074Z"/><path fill="#0F0F0F" d="M17.997 281.563a2.74 2.74 0 0 1-1.762-.642 2.777 2.777 0 0 1-.917-2.823c1.926-7.748 9.682-19.358 12.013-22.74a2.815 2.815 0 0 1 1.836-1.18l5.829-1.043a.367.367 0 0 1 .38.175c.025.043.04.09.047.139l.335 3.183 4.525-4.824a1.525 1.525 0 0 1 1.28-.587 1.566 1.566 0 0 1 1.26.703c2.105 3.175 3.753 5.68 4.843 7.341a3.433 3.433 0 0 1-.695 4.563c-10.09 8.209-22.173 14.951-27.832 17.49-.36.161-.748.245-1.142.245Zm16.737-27.641-5.44.975a2.097 2.097 0 0 0-1.362.875c-2.313 3.351-10.01 14.874-11.905 22.505a2.044 2.044 0 0 0 .678 2.087 1.984 1.984 0 0 0 2.128.293c5.625-2.518 17.635-9.224 27.67-17.39a2.708 2.708 0 0 0 .545-3.593 1763.998 1763.998 0 0 0-4.841-7.337.82.82 0 0 0-.673-.376.853.853 0 0 0-.698.327l-5.093 5.434a.369.369 0 0 1-.552-.021.362.362 0 0 1-.078-.19l-.379-3.589Z"/><path fill="#0F0F0F" d="M18.479 277.996a.364.364 0 0 1-.357-.29.366.366 0 0 1 .209-.409c7.304-3.219 26.625-16.649 26.82-16.784a.366.366 0 1 1 .418.598c-.195.135-19.575 13.606-26.94 16.853a.368.368 0 0 1-.15.032ZM26.432 268.865a.373.373 0 0 1-.259-.107l-4.146-4.155a.366.366 0 0 1 .517-.516l4.146 4.154a.369.369 0 0 1 .086.403.37.37 0 0 1-.344.227v-.006ZM28.793 266.11a.357.357 0 0 1-.26-.107l-4.392-4.442a.366.366 0 0 1 .265-.606.363.363 0 0 1 .253.093l4.394 4.447a.362.362 0 0 1 .076.396.368.368 0 0 1-.336.224v-.005ZM111.156 128.723c-.558-.953-29.888-33.933-42.53-34.88-15.474-1.16-37.654 17.685-45.627 52.95a2.78 2.78 0 0 0 .945 2.772l7.033 3.188a2.762 2.762 0 0 0 2.113.6 2.776 2.776 0 0 0 1.885-1.124c5.239-7.263 21.27-28.328 29.205-25.967 5.344 1.589 23.42 36.386 23.42 36.386l41.628-12.038-18.072-21.887Z"/><path fill="#0F0F0F" d="m41.871 245.143-6.943-2.38a3.136 3.136 0 0 1-2.11-3.278c.845-8.547.511-26.625 13.05-47.425 14.877-24.677 48.901-42.904 48.901-42.904l10.399-17.691 31.823 16.627s2.612 15.201-6.005 23.216c-8.616 8.015-42.736 17.603-53.073 26.554-10.336 8.952-11.472 6.442-13.864 17.266-2.305 10.474-5.347 16.625-19.017 29.349a3.148 3.148 0 0 1-3.16.666Z"/><path fill="#fff" d="M72.108 163.844a.37.37 0 0 1-.347-.247.362.362 0 0 1 .125-.407c7.286-5.579 14.789-10.408 22.297-14.357a.363.363 0 0 1 .417.03.363.363 0 0 1 .116.401.366.366 0 0 1-.192.214c-7.473 3.935-14.939 8.738-22.194 14.292a.37.37 0 0 1-.222.074ZM106.203 31.033c-.594.084-1.721-.274-2.913-.761a36.362 36.362 0 0 0-5.34 5.725c-.346-.118-4.287-3.263-5.987-6.058 2.346-1.101 2.969-2.716 5.801-4.828.894-.666 1.792-3.767 2.521-4.86 1.031-1.539 2.048-2.436 4.032-2.774 1.331-.228 2.82-.02 3.797.913.339.35.636.738.885 1.158l1.733 2.666c.303.472.616.974.592 1.53-.036.818-6.87 4.866-1.643 4.115 4.207-.604 7.035 2.277 5.199 2.087-1.835-.19-7.039.854-8.677 1.087Z"/><path fill="#0F0F0F" d="M97.95 36.362a.333.333 0 0 1-.118-.02c-.457-.158-4.457-3.378-6.172-6.214a.365.365 0 0 1 .157-.517c1.26-.597 2-1.341 2.927-2.28a23.048 23.048 0 0 1 2.813-2.519c.455-.34 1.01-1.66 1.457-2.72.343-.814.666-1.584.978-2.047 1.026-1.534 2.099-2.559 4.274-2.932 1.647-.281 3.151.085 4.111 1.008.362.37.679.78.945 1.224l1.733 2.666c.288.444.682 1.05.652 1.744-.017.385-.433.768-1.618 1.762-.676.568-1.917 1.61-1.991 1.996.087.04.428.14 1.549-.02 3.14-.45 5.471.914 6.021 1.745.249.374.158.64.082.766-.158.245-.446.346-.895.3-1.35-.141-4.693.43-6.905.808-.693.12-1.292.222-1.686.277-.565.08-1.512-.15-2.892-.7a36.06 36.06 0 0 0-5.12 5.52.363.363 0 0 1-.302.153Zm-5.454-6.278c1.53 2.31 4.471 4.79 5.357 5.427a36.858 36.858 0 0 1 5.199-5.509.363.363 0 0 1 .378-.06c1.772.725 2.469.773 2.722.736.383-.054.979-.158 1.666-.273 2.249-.385 5.651-.964 7.103-.815h.101c-.406-.559-2.494-1.77-5.281-1.37-1.418.202-2.113.084-2.328-.397-.315-.686.63-1.538 2.205-2.86.53-.444 1.25-1.048 1.358-1.259 0-.415-.239-.83-.535-1.285l-1.733-2.666a5.977 5.977 0 0 0-.832-1.102c-.788-.75-2.086-1.055-3.484-.815-1.93.33-2.853 1.207-3.795 2.623-.272.408-.583 1.146-.91 1.926-.557 1.32-1.081 2.564-1.696 3.024a22.512 22.512 0 0 0-2.728 2.437c-.854.861-1.603 1.618-2.767 2.238Z"/><path fill="#fff" d="M154.467 155.4s-1.35 16.41 3.019 16.426c11.622.044 24.911 4.051 22.057-.535-3.227-5.173-11.111-6.527-15.204-6.879a2.177 2.177 0 0 1-1.576-.908 2.152 2.152 0 0 1-.333-1.786l1.892-7.531-9.855 1.213Z"/><path fill="#0F0F0F" d="M177.148 173.854c-1.7 0-4.108-.273-7.29-.657-3.841-.472-8.192-.99-12.374-1.006a2.106 2.106 0 0 1-1.575-.744c-2.836-3.088-1.848-15.546-1.804-16.076a.366.366 0 0 1 .315-.332l9.861-1.214a.361.361 0 0 1 .172.022.353.353 0 0 1 .224.253.357.357 0 0 1-.001.175l-1.903 7.531a1.797 1.797 0 0 0 .282 1.496 1.774 1.774 0 0 0 1.305.746c4.375.378 12.205 1.796 15.482 7.051.49.787.58 1.405.271 1.888-.391.625-1.365.867-2.965.867Zm-22.339-18.128c-.134 1.922-.761 12.619 1.635 15.226a1.385 1.385 0 0 0 1.043.509c4.223.017 8.598.546 12.459 1.012 4.601.555 8.947 1.081 9.557.124.175-.274-.053-.757-.276-1.113-3.108-4.985-10.684-6.343-14.924-6.709a2.526 2.526 0 0 1-2.265-2.055 2.547 2.547 0 0 1 .034-1.092l1.777-7.014-9.04 1.112Z"/><path fill="#fff" d="M135.831 85.77v.023c-12.613-7.116-26.796-5.572-31.426-4.8-8.566-1.26-25.222-8.384-3.428-47.003l-5.842-8.146s-59.654 57.18 1.563 82.715l-.878 5.941c17.526 21.337 43.59 49.786 46.792 36.632 1.78-7.304 1.537-17.176.97-24.514 7.419 10.867 9.596 22.308 9.163 31.475v.066l12.026.21s.028-.071.053-.148c16.21-50.067-28.993-72.45-28.993-72.45Z"/><path fill="#0F0F0F" d="m164.771 158.727-12.026-.209a.368.368 0 0 1-.359-.382v-.06c.287-6.073-.444-17.894-8.333-30.098.473 7.012.615 16.287-1.08 23.241-.484 1.988-1.502 3.171-3.022 3.517-8.46 1.931-31.458-24.236-44.41-40.005a.358.358 0 0 1-.078-.285l.835-5.665c-15.74-6.627-24.84-15.977-27.05-27.793-2.53-13.534 4.587-27.886 11-37.547 6.932-10.437 14.56-17.795 14.636-17.867a.364.364 0 0 1 .436-.051.362.362 0 0 1 .114.108l5.842 8.145a.362.362 0 0 1 .022.392c-9.936 17.61-12.993 30.561-9.087 38.518 2.678 5.452 8.095 7.326 12.191 7.937 4.243-.7 18.737-2.36 31.5 4.79a.264.264 0 0 1 .091.03c.114.055 11.482 5.768 20.702 17.551 5.418 6.925 9.051 14.565 10.795 22.705 2.179 10.169 1.399 21.147-2.317 32.627-.03.091-.063.175-.063.175a.367.367 0 0 1-.339.226Zm-11.644-.931 11.385.197c8.262-25.637.01-43.8-8.376-54.527-8.628-11.038-19.158-16.693-20.355-17.311a.345.345 0 0 1-.13-.044c-12.638-7.13-27.065-5.444-31.186-4.758a.34.34 0 0 1-.114 0c-4.275-.63-9.968-2.582-12.796-8.34-4.003-8.156-.978-21.274 8.99-38.996l-5.459-7.61a119.093 119.093 0 0 0-14.24 17.468c-6.336 9.545-13.367 23.71-10.882 36.996 2.172 11.624 11.215 20.831 26.874 27.364a.365.365 0 0 1 .22.388l-.853 5.782c21.798 26.518 37.691 40.959 43.58 39.62 1.247-.283 2.049-1.259 2.475-2.978 1.787-7.33 1.508-17.311.962-24.393a.366.366 0 0 1 .477-.377.359.359 0 0 1 .187.143c8.588 12.571 9.499 24.934 9.241 31.376Z"/><path fill="#0F0F0F" d="M98.2 99.947a.361.361 0 0 1-.348-.474l4.254-13.495a.368.368 0 0 1 .455-.224.364.364 0 0 1 .242.445l-4.254 13.493a.365.365 0 0 1-.348.255ZM134.826 146.236a.36.36 0 0 1-.158-.037c-.157-.073-15.195-7.564-23.931-24.935a.367.367 0 0 1 .153-.508.37.37 0 0 1 .414.06.375.375 0 0 1 .085.12c8.621 17.142 23.451 24.536 23.601 24.608a.364.364 0 0 1-.158.692h-.006ZM118.752 25.94l-11.95 9.14a1.519 1.519 0 0 0-.284 2.13l1.642 2.142a1.523 1.523 0 0 0 2.134.283l11.95-9.14a1.52 1.52 0 0 0 .283-2.131l-1.642-2.142a1.522 1.522 0 0 0-2.133-.283ZM101.093 3.196l-11.95 9.14a1.52 1.52 0 0 0-.283 2.131l1.725 2.25c.51.667 1.466.794 2.134.284l11.949-9.14c.668-.51.795-1.465.284-2.131l-1.725-2.25a1.524 1.524 0 0 0-2.134-.284Z"/><path fill="#0F0F0F" d="M117.651 31.511 99.171 7.402l-5.315 4.065 18.479 24.11 5.316-4.066Z"/><path fill="#fff" d="M102.614 17.061a5.696 5.696 0 0 0-.117.34c-.931 3.035 2.916.686 4.17-.403-.69.735-2.325 2.142-2.966 2.96-.641.816-.975 1.92.05 2.525 1.664.985 3.832-1.761 5.106-2.567-.82.52-1.826 1.788-2.397 2.597-.341.472-1.174 1.8-.386 2.109 1.328.514 4.335-2.032 5.34-2.7-.879.629-2.483 1.987-3.053 2.907-1.055 1.703.512 2.786 2.07 1.889 1.398-.812 4.386-2.005 4.191-3.982-.058-.598-.315-1.153-.595-1.688-1.209-2.372-2.661-4.629-4.445-6.61-2.475-2.746-5.916-.13-6.968 2.623Z"/><path fill="#0F0F0F" d="M109.298 27.406a1.694 1.694 0 0 1-1.238-.49c-.543-.559-.547-1.416-.009-2.279.012-.022.027-.042.041-.064-.832.417-1.576.61-2.151.389a.837.837 0 0 1-.52-.551c-.157-.513.158-1.2.515-1.772-.787.436-1.602.613-2.363.157a1.599 1.599 0 0 1-.8-1.083c-.112-.593.124-1.317.647-1.983.198-.244.408-.478.631-.7-.631.24-1.236.324-1.633.068-.452-.295-.54-.9-.264-1.804.038-.121.078-.242.124-.364.764-2.006 2.521-3.636 4.263-3.962 1.239-.233 2.387.19 3.32 1.223a30.878 30.878 0 0 1 4.496 6.683c.285.56.571 1.162.631 1.818.187 1.91-2.019 3.077-3.624 3.934-.274.147-.528.28-.744.405-.4.24-.856.368-1.322.375Zm2.115-5.845a.367.367 0 0 1 .348.252.37.37 0 0 1-.134.409c-.882.63-2.432 1.957-2.956 2.802-.349.565-.382 1.083-.086 1.387.296.304.928.414 1.662-.011.224-.13.485-.27.769-.419 1.427-.755 3.382-1.79 3.244-3.213-.054-.53-.295-1.04-.56-1.558-1.288-2.531-2.765-4.722-4.389-6.527-.761-.848-1.649-1.182-2.642-.991-1.484.278-3.047 1.753-3.713 3.506-.041.105-.078.21-.109.315-.191.617-.139.913-.038.979.459.297 2.459-.759 3.624-1.765a.365.365 0 0 1 .505.525c-.275.294-.694.689-1.139 1.101-.671.63-1.432 1.35-1.807 1.827-.375.477-.576 1.017-.504 1.398a.864.864 0 0 0 .455.59c1.002.593 2.4-.63 3.523-1.602.378-.347.779-.668 1.201-.96a.362.362 0 0 1 .283-.064.374.374 0 0 1 .241.163.364.364 0 0 1-.134.516l-.015.011c-.879.568-1.965 2.046-2.278 2.49-.52.735-.695 1.283-.631 1.478 0 .023.016.053.087.08.903.351 3.178-1.331 4.273-2.139.296-.217.546-.401.731-.524a.355.355 0 0 1 .189-.056Z"/><path fill="#fff" d="M135.511 69.847c5.625 0 10.184-4.554 10.184-10.173 0-5.618-4.559-10.172-10.184-10.172-5.624 0-10.184 4.554-10.184 10.172 0 5.619 4.56 10.173 10.184 10.173Z"/><path fill="#0F0F0F" d="M135.511 70.212c-2.087 0-4.128-.618-5.864-1.777a10.547 10.547 0 0 1-4.489-10.824 10.548 10.548 0 0 1 8.294-8.285 10.566 10.566 0 0 1 10.836 4.484 10.535 10.535 0 0 1-1.313 13.314 10.56 10.56 0 0 1-7.464 3.088Zm0-20.345a9.823 9.823 0 0 0-9.07 6.055 9.805 9.805 0 0 0 7.157 13.372 9.823 9.823 0 0 0 10.079-4.17 9.806 9.806 0 0 0 1.654-5.45 9.813 9.813 0 0 0-2.879-6.932 9.835 9.835 0 0 0-6.941-2.875Z"/><path fill="#0F0F0F" d="M125.327 59.674a10.168 10.168 0 0 0 2.066 6.14 10.19 10.19 0 0 0 5.356 3.65c1.319-2.096 4.316-8.55.527-19.714a10.186 10.186 0 0 0-5.716 3.57 10.168 10.168 0 0 0-2.233 6.354Z"/><path fill="#fff" d="M108.078 58.2c-.917-.74-5.672-2.337-2.176-7.762 3.496-5.425 15.581-5.91 20.662-3.022 5.081 2.888 6.833 11.157 6.57 15.75-.263 4.594-2.891 10.368-8.147 12.6-6.173 2.622-14.408-15.555-16.909-17.566Z"/><path fill="#0F0F0F" d="M123.742 76.386c-4.383 0-9.273-7.833-12.619-13.193-1.399-2.24-2.606-4.175-3.269-4.71a5.44 5.44 0 0 0-.533-.338c-.945-.558-2.52-1.492-2.946-3.27-.315-1.33.098-2.89 1.226-4.636 3.623-5.608 16.013-6.059 21.149-3.147 5.136 2.911 7.034 11.161 6.752 16.089-.272 4.776-2.965 10.62-8.367 12.914-.439.191-.913.29-1.393.291Zm-15.43-18.471c.76.612 1.938 2.5 3.432 4.891 3.573 5.725 8.98 14.378 13.106 12.625 5.112-2.172 7.665-7.735 7.925-12.287.271-4.738-1.532-12.653-6.386-15.412-4.92-2.793-16.736-2.407-20.175 2.903-1.015 1.573-1.395 2.942-1.128 4.072.349 1.477 1.707 2.28 2.607 2.81.215.119.422.252.619.398Z"/><path fill="#fff" d="M106.926 54.306c-.341-.445-.315 6.453-.578 7.18-.264.727-2.562 3.977-2.694 4.5-.133.525 1.64 1.587 1.969 1.916.329.329.529 6.062 1.449 7.24.563.72 5.444-.232 5.699-.053.657.46 1.052 5.252.658 6.697 0 0-4.862 4.721-4.992 5.774-.131 1.053 13.549 1.448 18.285-2.883l-1.103-2.597c-1.494-3.525-1.048-6.342-1.048-6.342s-5.672.528-5.587-4.788c.037-2.309 2.244-4.968 1.956-6.7-.238-1.431-1.576-1.874-2.924-1.943a9.663 9.663 0 0 1-6.285-2.694c-1.541-1.503-3.359-3.41-4.805-5.307Z"/><path fill="#0F0F0F" d="M112.943 88.614c-2.206 0-3.914-.21-4.481-.503-.377-.194-.405-.454-.388-.592.134-1.069 3.782-4.709 5.026-5.917.333-1.46-.072-5.543-.506-6.166-.222 0-.787.063-1.295.12-2.722.305-4.096.355-4.515-.186-.586-.753-.871-2.833-1.159-5.266-.097-.82-.207-1.744-.29-1.972a8.598 8.598 0 0 0-.453-.343c-1.017-.745-1.733-1.316-1.583-1.889.074-.293.473-.927 1.357-2.304.576-.897 1.232-1.914 1.348-2.235.098-.269.167-2.056.218-3.363.145-3.777.197-3.944.556-4.057a.395.395 0 0 1 .438.146 50.268 50.268 0 0 0 4.773 5.272 9.312 9.312 0 0 0 6.049 2.59c2.41.124 3.105 1.29 3.264 2.247.158.988-.356 2.162-.907 3.404-.505 1.131-1.026 2.302-1.043 3.363-.022 1.398.376 2.485 1.183 3.233 1.514 1.399 3.979 1.188 4.005 1.184a.367.367 0 0 1 .395.42c0 .028-.408 2.767 1.023 6.137l1.102 2.597a.367.367 0 0 1-.089.41c-3.057 2.803-9.556 3.67-14.028 3.67Zm-4.108-1.125c1.374.7 13.007.845 17.449-2.908l-.998-2.36c-1.191-2.809-1.186-5.163-1.118-6.106h-.021c-.868 0-2.765-.157-4.104-1.392-.966-.894-1.443-2.166-1.418-3.777.019-1.209.571-2.45 1.103-3.648.506-1.138.985-2.215.856-2.99-.167-1.008-1.037-1.559-2.583-1.639a10.03 10.03 0 0 1-6.52-2.796 53.493 53.493 0 0 1-4.383-4.763c-.062.74-.109 1.949-.145 2.909-.078 1.989-.13 3.226-.26 3.585-.131.359-.651 1.182-1.418 2.38-.49.761-1.155 1.793-1.261 2.06.09.267.965.906 1.299 1.148.197.136.386.285.565.446.197.195.26.594.473 2.373.2 1.693.502 4.249 1.011 4.905.342.302 2.805.027 3.857-.091 1.345-.157 1.575-.165 1.763-.036.929.65 1.16 5.779.802 7.082a.366.366 0 0 1-.098.167c-2.212 2.159-4.531 4.685-4.851 5.451Z"/><path fill="#0F0F0F" d="M118.257 69.825c-.047 0-.093-.003-.139-.008a1.407 1.407 0 0 1-.993-.69.366.366 0 0 1 .64-.356.681.681 0 0 0 .443.314c.233.027.526-.146.844-.494a.37.37 0 0 1 .401-.109.369.369 0 0 1 .212.193.368.368 0 0 1-.074.409c-.444.494-.893.741-1.334.741ZM112.538 75.432a.366.366 0 0 1-.043-.727c1.158-.137 1.987-.665 2.459-1.573a.369.369 0 0 1 .489-.146.364.364 0 0 1 .159.484c-.407.776-1.26 1.747-3.022 1.956l-.042.006ZM10.938 115.842a.37.37 0 0 1-.296-.151.37.37 0 0 1-.05-.329c8.934-27.05 24.068-49.174 43.77-63.978a.364.364 0 0 1 .438.582C35.22 66.682 20.166 88.682 11.285 115.59a.367.367 0 0 1-.347.252Z"/><path fill="#0F0F0F" d="M15.781 91.875a.37.37 0 0 1-.157-.038.365.365 0 0 1-.158-.49c8.511-17.222 19.646-31.526 33.082-42.513a.365.365 0 0 1 .462.563c-13.354 10.92-24.42 25.145-32.9 42.275a.37.37 0 0 1-.329.203ZM211.999 270.651a.367.367 0 0 1-.319-.537.361.361 0 0 1 .182-.165 208.191 208.191 0 0 0 17.67-8.199.36.36 0 0 1 .283-.031.368.368 0 0 1 .219.18.359.359 0 0 1 .023.283.366.366 0 0 1-.186.214 207.6 207.6 0 0 1-17.734 8.226.345.345 0 0 1-.138.029Z"/><path fill="#0F0F0F" d="M140.942 288c-4.055 0-8.092-.139-12.109-.417a.365.365 0 0 1-.339-.389.367.367 0 0 1 .126-.248.368.368 0 0 1 .263-.092c31.954 2.218 65.359-4.464 96.603-19.324a211.415 211.415 0 0 0 7.005-3.491.367.367 0 0 1 .454.559.353.353 0 0 1-.115.088 211.938 211.938 0 0 1-7.03 3.503C198.371 281.233 169.272 288 140.942 288ZM291.85 184.407a.362.362 0 0 1-.353-.458c5.552-20.972 4.829-42.207-2.09-61.409a98.672 98.672 0 0 0-13.491-25.18.36.36 0 0 1-.055-.266.364.364 0 0 1 .642-.167 99.332 99.332 0 0 1 13.59 25.364c6.972 19.34 7.7 40.726 2.11 61.85a.368.368 0 0 1-.353.266Z"/><path fill="#0F0F0F" d="M288.986 174.659a3.063 3.063 0 0 1-2.885-2.046 3.02 3.02 0 0 1 .865-3.259 3.054 3.054 0 0 1 4.894 1.296 3.03 3.03 0 0 1-1.479 3.677 3.032 3.032 0 0 1-1.387.338l-.008-.006Zm-.017-5.331a2.29 2.29 0 0 0-1.055.254 2.289 2.289 0 0 0-1.225 1.714c-.053.363-.018.733.102 1.079a2.314 2.314 0 0 0 1.176 1.319 2.317 2.317 0 0 0 2.542-.341c.227-.199.412-.442.544-.714a2.278 2.278 0 0 0 .107-1.757 2.317 2.317 0 0 0-2.191-1.554ZM281.454 123.099h-.059a92.386 92.386 0 0 1-6.844-1.417.37.37 0 0 1-.255-.233.354.354 0 0 1-.016-.177.354.354 0 0 1 .07-.164l4.394-5.796a.358.358 0 0 1 .346-.135.367.367 0 0 1 .284.239l2.42 7.206a.363.363 0 0 1-.051.328.367.367 0 0 1-.296.152l.007-.003Zm-6.186-1.996c1.002.239 3.271.763 5.647 1.171l-2.007-5.98-3.64 4.809ZM202.886 3.097a.368.368 0 0 1-.258-.105l-1.398-1.396a.366.366 0 0 1 .255-.638.365.365 0 0 1 .262.123l1.398 1.395a.363.363 0 0 1-.259.621ZM207.777 7.979a.37.37 0 0 1-.257-.107l-1.398-1.394a.365.365 0 1 1 .515-.517l1.398 1.395a.364.364 0 0 1-.051.57.367.367 0 0 1-.207.06v-.007ZM201.489 7.979a.368.368 0 0 1-.345-.227.367.367 0 0 1 .086-.403l1.398-1.394a.368.368 0 0 1 .523-.006.366.366 0 0 1-.006.522l-1.398 1.398a.36.36 0 0 1-.258.11ZM206.387 3.097a.366.366 0 0 1-.337-.225.37.37 0 0 1 .08-.396l1.398-1.395a.364.364 0 0 1 .515.515l-1.405 1.394a.365.365 0 0 1-.251.107ZM196.41 20.774a3.313 3.313 0 0 1-3.05-2.047 3.3 3.3 0 0 1 .723-3.598 3.307 3.307 0 0 1 3.604-.713 3.303 3.303 0 0 1 2.04 3.053 3.32 3.32 0 0 1-3.317 3.305Zm0-5.894a2.587 2.587 0 0 0-2.387 1.597 2.582 2.582 0 0 0 3.38 3.371 2.586 2.586 0 0 0-.993-4.976v.008ZM202.982 34.494a2.314 2.314 0 0 1-2.137-1.419 2.303 2.303 0 0 1 .497-2.515 2.308 2.308 0 0 1 3.942 1.628 2.312 2.312 0 0 1-2.302 2.306Zm0-3.881a1.577 1.577 0 0 0-1.545 1.88 1.577 1.577 0 0 0 3.121-.306 1.575 1.575 0 0 0-1.576-1.574Z"/></g><defs><clipPath id="a"><path fill="#fff" d="M0 0h300v288H0z"/></clipPath></defs></svg>