<svg width="80" height="196" viewBox="0 0 80 196" fill="none" xmlns="http://www.w3.org/2000/svg">
<rect x="0.5" y="0.5" width="79" height="191" rx="19.5" fill="#050505" stroke="#292928"/>
<path d="M32.0845 35.032L27.8285 45H25.5565L29.8445 35.288H24.3725V33.368H32.0845V35.032ZM33.4261 39.016C33.4261 37.1707 33.7568 35.7253 34.4181 34.68C35.0901 33.6347 36.1995 33.112 37.7461 33.112C39.2928 33.112 40.3968 33.6347 41.0581 34.68C41.7301 35.7253 42.0661 37.1707 42.0661 39.016C42.0661 40.872 41.7301 42.328 41.0581 43.384C40.3968 44.44 39.2928 44.968 37.7461 44.968C36.1995 44.968 35.0901 44.44 34.4181 43.384C33.7568 42.328 33.4261 40.872 33.4261 39.016ZM39.8581 39.016C39.8581 38.2267 39.8048 37.5653 39.6981 37.032C39.6021 36.488 39.3995 36.0453 39.0901 35.704C38.7915 35.3627 38.3435 35.192 37.7461 35.192C37.1488 35.192 36.6955 35.3627 36.3861 35.704C36.0875 36.0453 35.8848 36.488 35.7781 37.032C35.6821 37.5653 35.6341 38.2267 35.6341 39.016C35.6341 39.8267 35.6821 40.5093 35.7781 41.064C35.8741 41.608 36.0768 42.0507 36.3861 42.392C36.6955 42.7227 37.1488 42.888 37.7461 42.888C38.3435 42.888 38.7968 42.7227 39.1061 42.392C39.4155 42.0507 39.6181 41.608 39.7141 41.064C39.8101 40.5093 39.8581 39.8267 39.8581 39.016ZM43.5139 36.2C43.5139 35.3893 43.7485 34.7547 44.2179 34.296C44.6979 33.8373 45.3112 33.608 46.0579 33.608C46.8045 33.608 47.4125 33.8373 47.8819 34.296C48.3619 34.7547 48.6019 35.3893 48.6019 36.2C48.6019 37.0213 48.3619 37.6613 47.8819 38.12C47.4125 38.5787 46.8045 38.808 46.0579 38.808C45.3112 38.808 44.6979 38.5787 44.2179 38.12C43.7485 37.6613 43.5139 37.0213 43.5139 36.2ZM53.7859 33.8L47.4979 45H45.3219L51.5939 33.8H53.7859ZM46.0419 34.952C45.4552 34.952 45.1619 35.368 45.1619 36.2C45.1619 37.0427 45.4552 37.464 46.0419 37.464C46.3299 37.464 46.5539 37.3627 46.7139 37.16C46.8739 36.9467 46.9539 36.6267 46.9539 36.2C46.9539 35.368 46.6499 34.952 46.0419 34.952ZM50.5379 42.584C50.5379 41.7627 50.7725 41.128 51.2419 40.68C51.7219 40.2213 52.3352 39.992 53.0819 39.992C53.8285 39.992 54.4312 40.2213 54.8899 40.68C55.3592 41.128 55.5939 41.7627 55.5939 42.584C55.5939 43.4053 55.3592 44.0453 54.8899 44.504C54.4312 44.9627 53.8285 45.192 53.0819 45.192C52.3245 45.192 51.7112 44.9627 51.2419 44.504C50.7725 44.0453 50.5379 43.4053 50.5379 42.584ZM53.0659 41.336C52.4579 41.336 52.1539 41.752 52.1539 42.584C52.1539 43.4267 52.4579 43.848 53.0659 43.848C53.6632 43.848 53.9619 43.4267 53.9619 42.584C53.9619 41.752 53.6632 41.336 53.0659 41.336Z" fill="#B6C3FF"/>
<g filter="url(#filter0_di_140_6560)">
<rect x="8" y="56" width="64" height="128" rx="20" fill="#B6C3FF"/>
</g>
<defs>
<filter id="filter0_di_140_6560" x="0" y="52" width="80" height="144" filterUnits="userSpaceOnUse" color-interpolation-filters="sRGB">
<feFlood flood-opacity="0" result="BackgroundImageFix"/>
<feColorMatrix in="SourceAlpha" type="matrix" values="0 0 0 0 0 0 0 0 0 0 0 0 0 0 0 0 0 0 127 0" result="hardAlpha"/>
<feOffset dy="4"/>
<feGaussianBlur stdDeviation="4"/>
<feComposite in2="hardAlpha" operator="out"/>
<feColorMatrix type="matrix" values="0 0 0 0 1 0 0 0 0 1 0 0 0 0 1 0 0 0 0.12 0"/>
<feBlend mode="normal" in2="BackgroundImageFix" result="effect1_dropShadow_140_6560"/>
<feBlend mode="normal" in="SourceGraphic" in2="effect1_dropShadow_140_6560" result="shape"/>
<feColorMatrix in="SourceAlpha" type="matrix" values="0 0 0 0 0 0 0 0 0 0 0 0 0 0 0 0 0 0 127 0" result="hardAlpha"/>
<feOffset dy="4"/>
<feGaussianBlur stdDeviation="4"/>
<feComposite in2="hardAlpha" operator="arithmetic" k2="-1" k3="1"/>
<feColorMatrix type="matrix" values="0 0 0 0 0 0 0 0 0 0 0 0 0 0 0 0 0 0 0.12 0"/>
<feBlend mode="normal" in2="shape" result="effect2_innerShadow_140_6560"/>
</filter>
</defs>
</svg>
